<svg width="338" height="201" viewBox="0 0 338 201" fill="none" xmlns="http://www.w3.org/2000/svg">
<circle opacity="0.1" cx="168.5" cy="100.5" r="100.5" fill="#FF3761"/>
<path d="M143.829 121.83H6.95938C5.11428 121.828 3.34533 121.094 2.04064 119.789C0.735955 118.484 0.00207101 116.715 0 114.87V31.2998C0.0015552 29.8947 0.5604 28.5476 1.55393 27.5541C2.54746 26.5605 3.89454 26.0016 5.29962 26H145.41C146.836 26.0016 148.203 26.5688 149.212 27.5771C150.22 28.5854 150.787 29.9525 150.789 31.3784V114.87C150.786 116.715 150.053 118.484 148.748 119.789C147.443 121.094 145.674 121.828 143.829 121.83Z" fill="white"/>
<path d="M143.829 121.83H6.95938C5.11428 121.828 3.34533 121.094 2.04064 119.789C0.735955 118.484 0.00207101 116.715 0 114.87V31.2998C0.0015552 29.8947 0.5604 28.5476 1.55393 27.5541C2.54746 26.5605 3.89454 26.0016 5.29962 26H145.41C146.836 26.0016 148.203 26.5688 149.212 27.5771C150.22 28.5854 150.787 29.9525 150.789 31.3784V114.87C150.786 116.715 150.053 118.484 148.748 119.789C147.443 121.094 145.674 121.828 143.829 121.83ZM5.29962 27.5047C4.29349 27.5059 3.3289 27.9061 2.61747 28.6176C1.90604 29.3291 1.50586 30.2937 1.50473 31.2998V114.87C1.50638 116.316 2.08159 117.703 3.10418 118.725C4.12677 119.748 5.51323 120.323 6.95938 120.325H143.829C145.275 120.323 146.662 119.748 147.684 118.725C148.707 117.703 149.282 116.316 149.284 114.87V31.3784C149.283 30.3514 148.874 29.3668 148.148 28.6406C147.422 27.9144 146.437 27.5059 145.41 27.5047H5.29962Z" fill="#E6E6E6"/>
<path d="M62.4884 100.671H21.477C20.4736 100.669 19.5048 100.304 18.7504 99.6422C17.996 98.9807 17.5072 98.0679 17.3747 97.0733C17.3498 96.8942 17.3378 96.7135 17.3389 96.5327V51.2967C17.3402 50.1996 17.7765 49.1478 18.5523 48.3721C19.3281 47.5963 20.3799 47.1599 21.477 47.1587H62.4884C63.5855 47.1599 64.6373 47.5963 65.4131 48.3721C66.1888 49.1478 66.6252 50.1996 66.6264 51.2967V96.5327C66.6252 97.6298 66.1888 98.6816 65.4131 99.4573C64.6373 100.233 63.5855 100.669 62.4884 100.671ZM21.477 49.4158C20.9783 49.4164 20.5002 49.6147 20.1476 49.9673C19.795 50.3199 19.5966 50.798 19.596 51.2967V96.5327C19.5952 96.61 19.6 96.6873 19.6104 96.764C19.668 97.2188 19.8892 97.6371 20.2327 97.9406C20.5762 98.2442 21.0185 98.4124 21.477 98.4136H62.4884C62.9871 98.413 63.4652 98.2147 63.8178 97.8621C64.1704 97.5095 64.3688 97.0314 64.3693 96.5327V51.2967C64.3688 50.798 64.1704 50.3199 63.8178 49.9673C63.4652 49.6147 62.9871 49.4164 62.4884 49.4158H21.477Z" fill="#E6E6E6"/>
<path d="M130.44 85.962H80.7839C79.9857 85.962 79.2202 85.645 78.6559 85.0806C78.0915 84.5162 77.7744 83.7507 77.7744 82.9526C77.7744 82.1544 78.0915 81.3889 78.6559 80.8246C79.2202 80.2602 79.9857 79.9431 80.7839 79.9431H130.44C131.238 79.9431 132.004 80.2602 132.568 80.8246C133.132 81.3889 133.449 82.1544 133.449 82.9526C133.449 83.7507 133.132 84.5162 132.568 85.0806C132.004 85.645 131.238 85.962 130.44 85.962Z" fill="#E6E6E6"/>
<path d="M107.869 73.1718H80.7839C79.9857 73.1718 79.2202 72.8547 78.6559 72.2903C78.0915 71.7259 77.7744 70.9605 77.7744 70.1623C77.7744 69.3641 78.0915 68.5987 78.6559 68.0343C79.2202 67.4699 79.9857 67.1528 80.7839 67.1528H107.869C108.667 67.1528 109.433 67.4699 109.997 68.0343C110.561 68.5987 110.879 69.3641 110.879 70.1623C110.879 70.9605 110.561 71.7259 109.997 72.2903C109.433 72.8547 108.667 73.1718 107.869 73.1718Z" fill="#E6E6E6"/>
<path d="M55.5053 72.6715C55.5053 79.3198 49.3579 78.3142 41.7746 78.3142C34.1914 78.3142 28.0439 79.3198 28.0439 72.6715C28.0439 66.0232 31.0468 54.2385 41.7746 54.2385C52.872 54.2385 55.5053 66.0232 55.5053 72.6715Z" fill="#2F2E41"/>
<path d="M56.0604 83.8607C55.7956 83.0963 55.2676 82.4509 54.5708 82.0399C54.4363 81.9573 54.2953 81.8856 54.1494 81.8255C53.5383 81.5714 52.8664 81.5008 52.2158 81.6224C51.5652 81.7441 50.9642 82.0526 50.4861 82.5103C50.008 82.968 49.6737 83.5551 49.5239 84.1997C49.3741 84.8444 49.4154 85.5187 49.6427 86.1403L55.1124 98.5732H62.3163L56.0604 83.8607Z" fill="#3F3D56"/>
<path d="M32.1914 84.5378C31.759 84.3289 31.2874 84.2137 30.8074 84.1999C30.3275 84.1861 29.85 84.2738 29.4064 84.4575C28.9627 84.6411 28.5629 84.9165 28.2331 85.2655C27.9034 85.6145 27.6511 86.0293 27.4929 86.4827L22.3994 98.4641C22.6602 98.5369 22.9298 98.5736 23.2006 98.5732H29.5921L33.9105 88.7623C34.1985 87.9703 34.1821 87.0996 33.8645 86.319C33.5468 85.5384 32.9506 84.9036 32.1914 84.5378Z" fill="#3F3D56"/>
<path d="M41.7287 78.3031C46.8315 78.3031 50.9681 74.1665 50.9681 69.0637C50.9681 63.9609 46.8315 59.8242 41.7287 59.8242C36.6259 59.8242 32.4893 63.9609 32.4893 69.0637C32.4893 74.1665 36.6259 78.3031 41.7287 78.3031Z" fill="#FFB8B8"/>
<path d="M54.7328 82.1866C54.6803 82.1377 54.6276 82.0851 54.5712 82.0399C53.9271 81.4592 53.1648 81.025 52.3368 80.7672C51.5088 80.5094 50.6348 80.4341 49.7749 80.5465L32.7487 82.702C31.1891 82.8949 29.7659 83.6879 28.7813 84.9128C27.7966 86.1376 27.3279 87.6979 27.4746 89.2626C27.7079 91.8884 28.0841 95.2026 28.686 98.5732H55.5831L56.5724 87.077C56.652 86.1761 56.528 85.2688 56.2096 84.4223C55.8912 83.5758 55.3865 82.8117 54.7328 82.1866Z" fill="#3F3D56"/>
<path d="M31.0527 68.1572H34.7071L36.3193 63.643L36.6417 68.1572H38.3883L39.3288 65.5239L39.5168 68.1572H52.4952C52.4952 65.5632 51.4647 63.0754 49.6304 61.2412C47.7962 59.4069 45.3084 58.3765 42.7144 58.3765H40.8335C38.2395 58.3765 35.7517 59.4069 33.9174 61.2412C32.0832 63.0754 31.0527 65.5632 31.0527 68.1572Z" fill="#2F2E41"/>
<path d="M187.061 114.87V31.3784C187.062 29.9525 187.629 28.5854 188.638 27.5771C189.646 26.5688 191.013 26.0016 192.439 26H332.549C333.955 26.0016 335.302 26.5605 336.295 27.5541C337.289 28.5476 337.848 29.8947 337.849 31.2998V114.87C337.847 116.715 337.113 118.484 335.808 119.789C334.504 121.094 332.735 121.828 330.89 121.83H194.02C192.175 121.828 190.406 121.094 189.101 119.789C187.797 118.484 187.063 116.715 187.061 114.87Z" fill="white"/>
<path d="M187.061 114.87V31.3784C187.062 29.9525 187.629 28.5854 188.638 27.5771C189.646 26.5688 191.013 26.0016 192.439 26H332.549C333.955 26.0016 335.302 26.5605 336.295 27.5541C337.289 28.5476 337.848 29.8947 337.849 31.2998V114.87C337.847 116.715 337.113 118.484 335.808 119.789C334.504 121.094 332.735 121.828 330.89 121.83H194.02C192.175 121.828 190.406 121.094 189.101 119.789C187.797 118.484 187.063 116.715 187.061 114.87ZM192.439 27.5047C191.412 27.5059 190.427 27.9144 189.701 28.6406C188.975 29.3668 188.566 30.3514 188.565 31.3784V114.87C188.567 116.316 189.142 117.703 190.165 118.725C191.187 119.748 192.574 120.323 194.02 120.325H330.89C332.336 120.323 333.722 119.748 334.745 118.725C335.768 117.703 336.343 116.316 336.344 114.87V31.2998C336.343 30.2937 335.943 29.3291 335.232 28.6176C334.52 27.9061 333.556 27.5059 332.549 27.5047H192.439Z" fill="#E6E6E6"/>
<path d="M271.223 96.5327V51.2967C271.224 50.1996 271.66 49.1478 272.436 48.3721C273.212 47.5963 274.264 47.1599 275.361 47.1587H316.372C317.469 47.1599 318.521 47.5963 319.297 48.3721C320.073 49.1478 320.509 50.1996 320.51 51.2967V96.5327C320.511 96.7135 320.499 96.8942 320.474 97.0733C320.342 98.0679 319.853 98.9807 319.099 99.6422C318.344 100.304 317.376 100.669 316.372 100.671H275.361C274.264 100.669 273.212 100.233 272.436 99.4573C271.66 98.6816 271.224 97.6298 271.223 96.5327ZM275.361 49.4158C274.862 49.4164 274.384 49.6147 274.031 49.9673C273.679 50.3199 273.48 50.798 273.48 51.2967V96.5327C273.48 97.0314 273.679 97.5095 274.031 97.8621C274.384 98.2147 274.862 98.413 275.361 98.4136H316.372C316.831 98.4124 317.273 98.2442 317.616 97.9406C317.96 97.6371 318.181 97.2188 318.239 96.764C318.249 96.6873 318.254 96.61 318.253 96.5327V51.2967C318.252 50.798 318.054 50.3199 317.702 49.9673C317.349 49.6147 316.871 49.4164 316.372 49.4158H275.361Z" fill="#E6E6E6"/>
<path d="M204.399 82.9526C204.4 82.1547 204.718 81.3898 205.282 80.8256C205.846 80.2614 206.611 79.944 207.409 79.9431H257.065C257.863 79.9431 258.629 80.2602 259.193 80.8246C259.757 81.3889 260.074 82.1544 260.074 82.9526C260.074 83.7507 259.757 84.5162 259.193 85.0806C258.629 85.645 257.863 85.962 257.065 85.962H207.409C206.611 85.9611 205.846 85.6438 205.282 85.0796C204.718 84.5154 204.4 83.7505 204.399 82.9526Z" fill="#E6E6E6"/>
<path d="M204.399 70.1623C204.4 69.3644 204.718 68.5995 205.282 68.0353C205.846 67.4711 206.611 67.1537 207.409 67.1528H234.494C235.292 67.1528 236.058 67.4699 236.622 68.0343C237.186 68.5987 237.504 69.3641 237.504 70.1623C237.504 70.9605 237.186 71.7259 236.622 72.2903C236.058 72.8547 235.292 73.1718 234.494 73.1718H207.409C206.611 73.1708 205.846 72.8535 205.282 72.2893C204.718 71.7251 204.4 70.9602 204.399 70.1623Z" fill="#E6E6E6"/>
<path d="M285.732 64.7377C288.369 69.9229 290.447 75.2709 296.265 75.2709C299.058 75.2709 301.737 74.1611 303.713 72.1858C305.688 70.2104 306.798 67.5313 306.798 64.7377C306.798 61.9442 305.688 59.265 303.713 57.2897C301.737 55.3144 299.058 54.2046 296.265 54.2046C290.353 54.1306 280.823 55.0866 285.732 64.7377Z" fill="#2F2E41"/>
<path d="M295.746 75.4759C300.849 75.4759 304.986 71.3393 304.986 66.2365C304.986 61.1337 300.849 56.9971 295.746 56.9971C290.643 56.9971 286.507 61.1337 286.507 66.2365C286.507 71.3393 290.643 75.4759 295.746 75.4759Z" fill="#A0616A"/>
<path d="M308.36 83.0781C307.765 82.4292 307.117 81.8303 306.423 81.2875C303.39 78.9105 299.589 77.7322 295.743 77.9771C295.589 77.9846 295.435 77.9959 295.28 78.0109C293.053 78.1889 290.89 78.8392 288.933 79.9186C286.977 80.9979 285.273 82.4815 283.935 84.2706C282.576 86.087 281.62 88.1728 281.132 90.3883C280.645 92.6038 280.636 94.898 281.106 97.1172C281.208 97.5875 281.298 98.0615 281.384 98.5355H312.013L312.367 96.1655C312.72 93.8233 312.544 91.4316 311.85 89.1666C311.157 86.9016 309.964 84.821 308.36 83.0781Z" fill="#3F3D56"/>
<path d="M313.052 85.5498C312.836 84.3136 312.193 83.1924 311.236 82.3813C310.278 81.5702 309.067 81.1206 307.812 81.1108C307.763 81.1108 307.71 81.1146 307.661 81.1146C307.244 81.1242 306.828 81.1822 306.424 81.2876C305.744 81.4683 305.106 81.7815 304.548 82.2092C303.99 82.6369 303.521 83.1707 303.169 83.7799C302.818 84.3891 302.59 85.0618 302.499 85.7593C302.408 86.4569 302.456 87.1655 302.639 87.8445L305.532 98.5356H315.268L313.052 85.5498Z" fill="#3F3D56"/>
<path d="M291.628 82.7471C291.261 82.0264 290.735 81.3987 290.089 80.9113C289.632 80.5662 289.121 80.2993 288.577 80.1214C288.354 80.0453 288.127 79.985 287.896 79.9408C286.638 79.7027 285.336 79.9222 284.225 80.5595C283.115 81.1969 282.269 82.2103 281.839 83.4167L276.543 98.5355H286.594L291.722 87.4155C292.064 86.6819 292.233 85.8796 292.217 85.0704C292.2 84.2612 291.999 83.4664 291.628 82.7471Z" fill="#3F3D56"/>
<path d="M285.941 61.0151C288.053 62.4703 290.559 63.2447 293.123 63.2345C292.208 63.8687 291.167 64.2971 290.071 64.4902C293.48 65.2215 297.004 65.2413 300.421 64.5483C301.181 64.4265 301.914 64.1748 302.588 63.8042C302.924 63.6165 303.216 63.3603 303.447 63.0522C303.677 62.744 303.84 62.3908 303.925 62.0155C304.152 60.7182 303.141 59.5396 302.091 58.7453C300.483 57.5477 298.628 56.7226 296.662 56.3297C294.695 55.9368 292.666 55.9858 290.721 56.4733C289.451 56.8016 288.179 57.3563 287.354 58.3763C286.529 59.3963 286.284 60.9688 287.07 62.0191L285.941 61.0151Z" fill="#2F2E41"/>
<path d="M237.359 176H100.49C98.6445 175.998 96.8756 175.264 95.5709 173.959C94.2662 172.655 93.5323 170.886 93.5303 169.041V85.4702C93.5318 84.0651 94.0907 82.718 95.0842 81.7245C96.0777 80.7309 97.4248 80.172 98.8299 80.1704H238.941C240.366 80.172 241.734 80.7392 242.742 81.7475C243.75 82.7558 244.317 84.1229 244.319 85.5488V169.041C244.317 170.886 243.583 172.655 242.278 173.959C240.973 175.264 239.205 175.998 237.359 176Z" fill="white"/>
<path d="M237.359 176H100.49C98.6445 175.998 96.8756 175.264 95.5709 173.959C94.2662 172.655 93.5323 170.886 93.5303 169.041V85.4702C93.5318 84.0651 94.0907 82.718 95.0842 81.7245C96.0777 80.7309 97.4248 80.172 98.8299 80.1704H238.941C240.366 80.172 241.734 80.7392 242.742 81.7475C243.75 82.7558 244.317 84.1229 244.319 85.5488V169.041C244.317 170.886 243.583 172.655 242.278 173.959C240.973 175.264 239.205 175.998 237.359 176ZM98.8299 81.6751C97.8238 81.6763 96.8592 82.0765 96.1477 82.788C95.4363 83.4995 95.0361 84.4641 95.035 85.4702V169.041C95.0367 170.487 95.6119 171.873 96.6344 172.896C97.657 173.918 99.0435 174.494 100.49 174.495H237.359C238.806 174.494 240.192 173.918 241.215 172.896C242.237 171.873 242.812 170.487 242.814 169.041V85.5488C242.813 84.5218 242.405 83.5372 241.678 82.811C240.952 82.0848 239.968 81.6763 238.941 81.6751H98.8299Z" fill="#3F3D56"/>
<path d="M156.019 154.841H115.007C114.004 154.84 113.035 154.474 112.281 153.813C111.526 153.151 111.037 152.238 110.905 151.244C110.88 151.065 110.868 150.884 110.869 150.703V105.467C110.87 104.37 111.307 103.318 112.083 102.542C112.858 101.767 113.91 101.33 115.007 101.329H156.019C157.116 101.33 158.168 101.767 158.943 102.542C159.719 103.318 160.155 104.37 160.157 105.467V150.703C160.155 151.8 159.719 152.852 158.943 153.628C158.168 154.404 157.116 154.84 156.019 154.841ZM115.007 103.586C114.509 103.587 114.03 103.785 113.678 104.138C113.325 104.49 113.127 104.968 113.126 105.467V150.703C113.126 150.78 113.13 150.858 113.141 150.934C113.198 151.389 113.419 151.807 113.763 152.111C114.106 152.415 114.549 152.583 115.007 152.584H156.019C156.517 152.583 156.995 152.385 157.348 152.032C157.701 151.68 157.899 151.202 157.9 150.703V105.467C157.899 104.968 157.701 104.49 157.348 104.138C156.995 103.785 156.517 103.587 156.019 103.586H115.007Z" fill="#E6E6E6"/>
<path d="M134.917 109.599C132.247 108.357 128.97 107.95 126.253 109.104C123.536 110.258 121.684 113.216 122.563 115.834C122.961 117.021 123.868 118.189 123.515 119.387C123.243 120.31 122.294 120.919 121.362 121.352C120.43 121.786 119.411 122.15 118.737 122.88C118.063 123.611 117.922 124.869 118.764 125.435C119.042 125.622 119.388 125.71 119.657 125.907C119.886 126.093 120.052 126.346 120.13 126.631C120.209 126.916 120.197 127.218 120.095 127.495C119.871 128.053 119.501 128.541 119.023 128.906C118.067 129.73 116.804 130.674 117.101 131.844C117.211 132.156 117.395 132.438 117.637 132.664C117.879 132.891 118.172 133.056 118.491 133.144C119.155 133.336 119.843 133.427 120.533 133.414L148.734 134.302C149.665 134.372 150.601 134.32 151.518 134.147C151.964 134.065 152.389 133.893 152.765 133.64C153.141 133.387 153.461 133.06 153.705 132.678C154.245 131.678 153.891 130.447 153.224 129.513C152.557 128.58 151.613 127.844 150.833 126.987C150.053 126.129 149.415 125.059 149.552 123.952C149.662 123.065 150.247 122.298 150.667 121.493C151.087 120.687 151.331 119.68 150.787 118.939C150.021 117.894 148.181 117.989 147.31 117.016C146.653 116.281 146.78 115.224 146.714 114.276C146.557 111.998 144.98 109.846 142.734 108.847C141.592 108.357 140.35 108.145 139.111 108.23C137.871 108.314 136.669 108.692 135.604 109.333L134.917 109.599Z" fill="#2F2E41"/>
<path d="M135.961 134.084C141.064 134.084 145.201 129.947 145.201 124.844C145.201 119.742 141.064 115.605 135.961 115.605C130.858 115.605 126.722 119.742 126.722 124.844C126.722 129.947 130.858 134.084 135.961 134.084Z" fill="#A0616A"/>
<path d="M148.091 146.016C148.082 144.396 147.634 142.81 146.793 141.425C145.953 140.041 144.753 138.91 143.321 138.154C143.205 138.09 143.084 138.033 142.964 137.977C141.924 137.484 140.799 137.198 139.65 137.134L130.855 136.641C129.612 136.57 128.369 136.761 127.206 137.202C126.922 137.307 126.645 137.428 126.374 137.563C125.524 137.982 124.747 138.534 124.072 139.199C123.183 140.077 122.488 141.131 122.03 142.293C121.573 143.455 121.364 144.7 121.416 145.948L121.574 149.676L122.68 152.546H147.271C147.576 152.177 147.841 151.776 148.061 151.35C148.478 150.524 148.698 149.612 148.703 148.687C148.708 147.761 148.499 146.847 148.091 146.016Z" fill="#3F3D56"/>
<path d="M147.49 141.073C147.088 140.202 146.459 139.456 145.669 138.914C145.099 138.523 144.459 138.244 143.784 138.093C143.514 138.034 143.24 137.995 142.964 137.977C142.421 137.94 141.876 137.987 141.347 138.116C140.557 138.312 139.822 138.686 139.198 139.208C138.574 139.73 138.077 140.387 137.744 141.129C137.411 141.872 137.251 142.68 137.276 143.493C137.301 144.307 137.511 145.104 137.89 145.824L141.272 152.227L141.441 152.546H152.798L147.49 141.073Z" fill="#3F3D56"/>
<path d="M128.902 137.736C128.369 137.465 127.796 137.285 127.205 137.202C126.765 137.139 126.319 137.133 125.877 137.183C124.753 137.31 123.698 137.79 122.863 138.552C122.028 139.315 121.456 140.322 121.227 141.43L118.937 152.546H127.897L129.571 151.862L131.655 143.864C131.958 142.682 131.851 141.432 131.351 140.318C130.85 139.205 129.987 138.294 128.902 137.736Z" fill="#3F3D56"/>
<path d="M126.508 123.531C129.426 123.296 131.849 120.381 131.545 117.47C131.511 118.67 131.919 119.841 132.692 120.76C133.465 121.678 134.548 122.281 135.736 122.453C137.075 122.6 138.542 122.195 139.707 122.871C140.997 123.618 141.41 125.435 142.755 126.081C144.053 126.705 145.703 125.853 146.345 124.563C146.986 123.273 146.829 121.723 146.404 120.346C145.797 118.383 144.693 116.61 143.198 115.2C141.704 113.789 139.869 112.79 137.874 112.299C135.879 111.807 133.79 111.841 131.811 112.395C129.833 112.95 128.032 114.008 126.583 115.465C125.356 116.699 124.382 118.272 124.224 120.005C124.066 121.738 124.87 123.618 126.426 124.397L126.508 123.531Z" fill="#2F2E41"/>
<path d="M223.97 140.132H174.314C173.516 140.132 172.751 139.815 172.186 139.251C171.622 138.687 171.305 137.921 171.305 137.123C171.305 136.325 171.622 135.559 172.186 134.995C172.751 134.431 173.516 134.114 174.314 134.114H223.97C224.768 134.114 225.534 134.431 226.098 134.995C226.663 135.559 226.98 136.325 226.98 137.123C226.98 137.921 226.663 138.687 226.098 139.251C225.534 139.815 224.768 140.132 223.97 140.132Z" fill="#E6E6E6"/>
<path d="M201.399 127.342H174.314C173.516 127.342 172.751 127.025 172.186 126.461C171.622 125.896 171.305 125.131 171.305 124.333C171.305 123.535 171.622 122.769 172.186 122.205C172.751 121.64 173.516 121.323 174.314 121.323H201.399C202.197 121.323 202.963 121.64 203.527 122.205C204.092 122.769 204.409 123.535 204.409 124.333C204.409 125.131 204.092 125.896 203.527 126.461C202.963 127.025 202.197 127.342 201.399 127.342Z" fill="#FF3761"/>
<path d="M215.933 149.32C213.304 149.325 210.785 150.373 208.928 152.233C207.071 154.093 206.028 156.615 206.028 159.243C206.028 161.872 207.071 164.393 208.928 166.253C210.785 168.114 213.304 169.161 215.933 169.166H215.933C218.562 169.161 221.081 168.114 222.938 166.253C224.795 164.393 225.838 161.872 225.838 159.243C225.838 156.615 224.795 154.094 222.938 152.233C221.081 150.373 218.562 149.325 215.933 149.32Z" fill="#FF3761"/>
<path d="M214.991 163.364C214.729 163.365 214.475 163.28 214.266 163.123L214.253 163.114L211.524 161.026C211.27 160.83 211.103 160.541 211.061 160.223C211.019 159.904 211.106 159.582 211.301 159.327C211.497 159.072 211.785 158.905 212.104 158.863C212.422 158.82 212.745 158.906 213 159.101L214.767 160.457L218.944 155.008C219.041 154.882 219.162 154.776 219.3 154.696C219.437 154.616 219.59 154.564 219.747 154.544C219.905 154.523 220.066 154.533 220.219 154.574C220.373 154.616 220.517 154.687 220.644 154.783L220.644 154.784L220.618 154.82L220.645 154.784C220.9 154.98 221.066 155.269 221.108 155.587C221.15 155.906 221.064 156.228 220.869 156.483L215.956 162.89C215.843 163.037 215.696 163.157 215.529 163.239C215.362 163.321 215.178 163.363 214.992 163.363L214.991 163.364Z" fill="white"/>
</svg>
