<svg width="225" height="201" viewBox="0 0 225 201" fill="none" xmlns="http://www.w3.org/2000/svg">
<circle opacity="0.1" cx="111.5" cy="100.5" r="100.5" fill="#FF3761"/>
<path d="M197.918 53.0147H202.564C204.639 53.0147 206.63 53.8391 208.097 55.3065C209.564 56.7739 210.389 58.7642 210.389 60.8395V166.35C210.389 168.425 209.564 170.416 208.097 171.883C206.63 173.35 204.639 174.175 202.564 174.175H161.561C159.486 174.175 157.496 173.35 156.028 171.883C154.561 170.416 153.736 168.425 153.736 166.35V60.8395C153.736 58.7642 154.561 56.7739 156.028 55.3065C157.496 53.839 159.486 53.0146 161.561 53.0146H165.856C165.747 53.4878 165.717 53.977 165.767 54.463C165.841 55.1898 166.093 55.887 166.501 56.4934C166.908 57.0998 167.459 57.5966 168.103 57.9402C168.748 58.2837 169.468 58.4635 170.198 58.4635H170.198H193.576C194.306 58.4635 195.026 58.2837 195.67 57.9402C196.315 57.5966 196.865 57.0998 197.273 56.4934C197.68 55.887 197.933 55.1898 198.007 54.463C198.057 53.977 198.026 53.4878 197.918 53.0147Z" fill="white" stroke="#E6E6E6"/>
<path d="M202.611 92.9215C201.571 89.9326 199.891 87.2067 197.689 84.9338C195.486 82.6609 192.815 80.8957 189.861 79.7613C186.906 78.6269 183.74 78.1507 180.582 78.3657C177.425 78.5808 174.353 79.482 171.579 81.0065C168.806 82.531 166.398 84.6421 164.525 87.1927C162.651 89.7432 161.357 92.6717 160.731 95.774C160.106 98.8763 160.164 102.078 160.903 105.155C161.642 108.232 163.043 111.111 165.009 113.591C165.204 113.837 165.408 114.083 165.615 114.322C165.63 114.337 165.642 114.353 165.658 114.369C166.167 114.955 166.708 115.513 167.278 116.04C167.427 116.177 167.583 116.318 167.739 116.45C168.036 116.716 168.341 116.97 168.657 117.212C168.782 117.31 168.903 117.407 169.032 117.501C169.532 117.88 170.052 118.231 170.587 118.567L170.61 118.579C170.762 118.673 170.919 118.767 171.075 118.856C171.356 119.024 171.645 119.185 171.934 119.337L172.118 119.431C172.54 119.649 172.969 119.856 173.411 120.048C173.501 120.087 173.598 120.126 173.688 120.165C173.696 120.169 173.7 120.169 173.708 120.173C173.915 120.259 174.122 120.341 174.332 120.419C175.025 120.683 175.732 120.91 176.449 121.098C178.28 121.586 180.167 121.833 182.062 121.833C182.754 121.833 183.437 121.801 184.113 121.735C185.657 121.593 187.181 121.285 188.659 120.817C188.663 120.817 188.667 120.813 188.671 120.813C189.605 120.516 190.517 120.154 191.401 119.731C191.405 119.727 191.413 119.727 191.417 119.724C191.616 119.63 191.807 119.528 192.003 119.431C192.034 119.415 192.065 119.399 192.096 119.384C192.253 119.302 192.409 119.22 192.565 119.134C192.956 118.919 193.338 118.692 193.717 118.45C193.823 118.388 193.924 118.321 194.03 118.251C194.178 118.153 194.327 118.052 194.471 117.946C194.662 117.814 194.854 117.677 195.041 117.536C195.1 117.493 195.163 117.45 195.221 117.403C198.88 114.626 201.566 110.761 202.894 106.363C204.221 101.965 204.122 97.2597 202.611 92.9215L202.611 92.9215Z" fill="white"/>
<path d="M193.338 116.497C191.488 115.522 189.556 114.709 187.565 114.068L187.311 111.259L177.016 110.15L175.707 113.74L172.012 115.126C171.88 115.176 171.754 115.242 171.637 115.322H171.633C171.427 115.461 171.251 115.641 171.117 115.85C170.983 116.06 170.893 116.295 170.852 116.54C170.813 116.784 170.822 117.034 170.88 117.274L171.075 118.075C171.356 118.243 171.645 118.403 171.934 118.556L172.118 118.649C172.54 118.868 172.969 119.075 173.411 119.266C173.5 119.306 173.598 119.345 173.688 119.384C173.696 119.387 173.699 119.388 173.707 119.391C173.914 119.477 174.121 119.559 174.332 119.637C175.025 119.902 175.732 120.129 176.449 120.317C178.28 120.805 180.167 121.052 182.062 121.051C182.753 121.051 183.437 121.02 184.113 120.954C185.657 120.811 187.181 120.504 188.659 120.036C188.663 120.036 188.667 120.032 188.671 120.032C189.605 119.734 190.517 119.373 191.401 118.95C191.405 118.946 191.413 118.946 191.417 118.942C191.616 118.848 191.807 118.747 192.003 118.649C192.034 118.634 192.065 118.618 192.096 118.602C192.252 118.52 192.409 118.438 192.565 118.352C192.956 118.138 193.338 117.911 193.717 117.669C193.823 117.606 193.924 117.54 194.03 117.47C194.178 117.372 194.326 117.271 194.471 117.165C194.108 116.931 193.729 116.708 193.338 116.497Z" fill="#E4E4E4"/>
<path d="M174.016 118.228L173.372 115.318H171.688C171.671 115.318 171.654 115.319 171.637 115.322H171.633C171.028 115.373 170.446 115.574 169.938 115.908C169.594 116.127 169.288 116.402 169.032 116.72C169.532 117.099 170.052 117.45 170.587 117.786L170.61 117.798C170.762 117.892 170.919 117.986 171.075 118.075C171.356 118.243 171.645 118.404 171.934 118.556L172.118 118.65C172.54 118.868 172.969 119.075 173.411 119.267C173.501 119.306 173.598 119.345 173.688 119.384C173.696 119.388 173.7 119.388 173.707 119.392C173.915 119.478 174.121 119.56 174.332 119.638L174.016 118.228Z" fill="#E4E4E4"/>
<path d="M181.76 108.375C185.855 108.375 189.175 105.055 189.175 100.96C189.175 96.8643 185.855 93.5444 181.76 93.5444C177.665 93.5444 174.345 96.8643 174.345 100.96C174.345 105.055 177.665 108.375 181.76 108.375Z" fill="#A0616A"/>
<path d="M176.781 97.3479C177.549 98.2563 178.848 98.5126 180.046 98.6177C182.48 98.8312 186.018 98.4849 188.397 97.9358C188.566 99.581 188.104 101.355 189.073 102.708C189.527 101.07 189.791 99.3846 189.86 97.6857C189.932 96.9569 189.837 96.2211 189.582 95.5346C189.445 95.1906 189.215 94.8917 188.917 94.6721C188.619 94.4524 188.265 94.3208 187.896 94.2921C188.449 93.873 189.096 93.5963 189.781 93.4865L187.426 92.3033L188.031 91.6826L183.768 91.4217L185.003 90.6374C183.144 90.3821 181.265 90.3227 179.394 90.4603C178.525 90.5243 177.617 90.6466 176.913 91.1499C176.21 91.6532 175.803 92.6535 176.24 93.3924C175.693 93.4822 175.178 93.7102 174.743 94.0548C174.309 94.3993 173.97 94.849 173.758 95.3613C173.49 96.1755 173.426 97.043 173.57 97.8879C173.731 99.2436 174.046 100.577 174.509 101.861L176.781 97.3479Z" fill="#2F2E41"/>
<path d="M202.611 92.9215C201.571 89.9326 199.891 87.2067 197.689 84.9338C195.486 82.6609 192.815 80.8957 189.861 79.7613C186.906 78.6269 183.74 78.1507 180.582 78.3657C177.425 78.5808 174.353 79.482 171.579 81.0065C168.806 82.531 166.398 84.6421 164.525 87.1927C162.651 89.7432 161.357 92.6717 160.731 95.774C160.106 98.8763 160.164 102.078 160.903 105.155C161.642 108.232 163.043 111.111 165.009 113.591C165.204 113.837 165.408 114.083 165.615 114.322C165.63 114.337 165.642 114.353 165.658 114.369C166.167 114.955 166.708 115.513 167.278 116.04C167.427 116.177 167.583 116.318 167.739 116.45C168.036 116.716 168.341 116.97 168.657 117.212C168.782 117.31 168.903 117.407 169.032 117.501C169.532 117.88 170.052 118.231 170.587 118.567L170.61 118.579C170.762 118.673 170.919 118.767 171.075 118.856C171.356 119.024 171.645 119.185 171.934 119.337L172.118 119.431C172.54 119.649 172.969 119.856 173.411 120.048C173.501 120.087 173.598 120.126 173.688 120.165C173.696 120.169 173.7 120.169 173.708 120.173C173.915 120.259 174.122 120.341 174.332 120.419C175.025 120.683 175.732 120.91 176.449 121.098C178.28 121.586 180.167 121.833 182.062 121.833C182.754 121.833 183.437 121.801 184.113 121.735C185.657 121.593 187.181 121.285 188.659 120.817C188.663 120.817 188.667 120.813 188.671 120.813C189.605 120.516 190.517 120.154 191.401 119.731C191.405 119.727 191.413 119.727 191.417 119.724C191.616 119.63 191.807 119.528 192.003 119.431C192.034 119.415 192.065 119.399 192.096 119.384C192.253 119.302 192.409 119.22 192.565 119.134C192.956 118.919 193.338 118.692 193.717 118.45C193.823 118.388 193.924 118.321 194.03 118.251C194.178 118.153 194.327 118.052 194.471 117.946C194.662 117.814 194.854 117.677 195.041 117.536C195.1 117.493 195.163 117.45 195.221 117.403C198.88 114.626 201.566 110.761 202.894 106.363C204.221 101.965 204.122 97.2597 202.611 92.9215L202.611 92.9215ZM194.502 116.454C194.374 116.556 194.241 116.654 194.108 116.743C193.979 116.841 193.85 116.935 193.717 117.021C193.604 117.103 193.491 117.181 193.374 117.255L193.339 117.278C193.252 117.337 193.167 117.392 193.081 117.446C192.756 117.649 192.428 117.845 192.096 118.032C192.061 118.052 192.026 118.071 191.991 118.091C191.843 118.173 191.694 118.251 191.546 118.329C191.526 118.341 191.503 118.349 191.483 118.36L191.46 118.372C191.272 118.47 191.081 118.563 190.89 118.653C190.151 119.009 189.39 119.317 188.612 119.575C188.511 119.61 188.409 119.645 188.308 119.677C186.909 120.122 185.465 120.415 184.004 120.552C183.363 120.61 182.714 120.641 182.062 120.641C180.27 120.645 178.485 120.411 176.754 119.946C175.866 119.714 174.995 119.419 174.149 119.063C174.106 119.044 174.059 119.028 174.016 119.009C173.969 118.989 173.926 118.974 173.883 118.954C173.836 118.935 173.794 118.915 173.747 118.892C173.38 118.731 173.016 118.556 172.661 118.372L172.489 118.282C172.055 118.056 171.63 117.814 171.216 117.556C171.095 117.482 170.97 117.403 170.852 117.321C170.821 117.302 170.794 117.282 170.763 117.263C170.485 117.079 170.208 116.888 169.938 116.689C169.755 116.552 169.571 116.415 169.392 116.275C169.091 116.048 168.802 115.806 168.521 115.556C168.372 115.431 168.228 115.294 168.087 115.165C167.533 114.654 167.009 114.112 166.517 113.541C166.353 113.353 166.193 113.166 166.04 112.97C166.006 112.932 165.973 112.891 165.943 112.849C163.405 109.647 161.879 105.761 161.558 101.688C161.238 97.6144 162.138 93.5378 164.143 89.978C166.149 86.4182 169.17 83.5365 172.82 81.7004C176.47 79.8643 180.585 79.157 184.639 79.6687C188.692 80.1804 192.502 81.8879 195.581 84.5735C198.661 87.2591 200.871 90.8011 201.929 94.7477C202.987 98.6942 202.846 102.867 201.523 106.733C200.201 110.599 197.756 113.983 194.502 116.454H194.502Z" fill="#E4E4E4"/>
<path d="M197.118 138.891H167.07C166.114 138.89 165.198 138.51 164.523 137.834C163.847 137.158 163.468 136.241 163.468 135.286C163.468 134.33 163.847 133.413 164.523 132.737C165.198 132.061 166.114 131.681 167.07 131.68H197.118C198.074 131.68 198.991 132.06 199.667 132.736C200.343 133.412 200.723 134.329 200.723 135.286C200.723 136.242 200.343 137.159 199.667 137.835C198.991 138.511 198.074 138.891 197.118 138.891Z" fill="white"/>
<path d="M197.118 150.009H167.07C166.114 150.008 165.198 149.628 164.523 148.951C163.847 148.275 163.468 147.359 163.468 146.403C163.468 145.447 163.847 144.531 164.523 143.855C165.198 143.179 166.114 142.798 167.07 142.797H197.118C198.074 142.797 198.991 143.177 199.667 143.853C200.343 144.53 200.723 145.447 200.723 146.403C200.723 147.359 200.343 148.276 199.667 148.953C198.991 149.629 198.074 150.009 197.118 150.009Z" fill="white"/>
<path d="M64.3478 53.6311H68.9937C71.069 53.6311 73.0593 54.4555 74.5267 55.923C75.9942 57.3904 76.8186 59.3807 76.8186 61.456V166.966C76.8186 169.042 75.9942 171.032 74.5267 172.499C73.0593 173.967 71.069 174.791 68.9937 174.791H27.9909C25.9156 174.791 23.9253 173.967 22.4579 172.499C20.9904 171.032 20.166 169.042 20.166 166.966V61.456C20.166 59.3807 20.9904 57.3904 22.4579 55.923C23.9253 54.4555 25.9156 53.6311 27.9909 53.6311H32.2852C32.177 54.1042 32.1464 54.5934 32.1962 55.0795C32.2708 55.8062 32.5229 56.5035 32.9304 57.1099C33.3379 57.7162 33.8883 58.2131 34.5331 58.5567C35.1779 58.9002 35.8972 59.0799 36.6278 59.08H36.6278H60.0052C60.7358 59.0799 61.4552 58.9002 62.1 58.5566C62.7447 58.2131 63.2951 57.7162 63.7026 57.1099C64.1101 56.5035 64.3622 55.8062 64.4368 55.0795C64.4866 54.5934 64.4561 54.1042 64.3478 53.6311Z" fill="white" stroke="#E6E6E6"/>
<path d="M69.0416 93.5381C68.0012 90.5493 66.3214 87.8234 64.1192 85.5505C61.9171 83.2776 59.2457 81.5124 56.2912 80.378C53.3368 79.2436 50.1705 78.7674 47.0131 78.9824C43.8557 79.1975 40.7832 80.0987 38.0098 81.6232C35.2365 83.1477 32.8291 85.2588 30.9555 87.8094C29.0819 90.3599 27.7872 93.2884 27.1617 96.3907C26.5362 99.493 26.5949 102.694 27.3338 105.772C28.0727 108.849 29.4739 111.728 31.4398 114.208C31.6351 114.454 31.8382 114.7 32.0453 114.938C32.0609 114.954 32.0726 114.97 32.0882 114.985C32.5973 115.572 33.1385 116.13 33.7091 116.657C33.8577 116.794 34.0139 116.934 34.1701 117.067C34.4668 117.333 34.7716 117.587 35.088 117.829C35.2129 117.926 35.334 118.024 35.4629 118.118C35.9628 118.497 36.4823 118.848 37.0175 119.184L37.0409 119.196C37.1931 119.29 37.3495 119.383 37.5057 119.473C37.7868 119.641 38.0759 119.801 38.3649 119.954L38.5485 120.047C38.9704 120.266 39.4001 120.473 39.8414 120.664C39.9312 120.703 40.0288 120.743 40.1187 120.782C40.1265 120.785 40.1303 120.785 40.1381 120.789C40.3453 120.875 40.5522 120.957 40.7631 121.035C41.456 121.3 42.1627 121.527 42.8801 121.715C44.7111 122.203 46.5979 122.45 48.4928 122.449C49.1842 122.449 49.8677 122.418 50.5434 122.352C52.0874 122.209 53.6116 121.901 55.0899 121.434C55.0937 121.434 55.0977 121.43 55.1015 121.43C56.0354 121.132 56.9477 120.771 57.8318 120.348C57.8356 120.344 57.8435 120.344 57.8475 120.34C58.0466 120.246 58.2381 120.145 58.4334 120.047C58.4646 120.032 58.4957 120.016 58.527 120C58.6832 119.918 58.8396 119.836 58.9958 119.75C59.3864 119.536 59.7691 119.309 60.1479 119.067C60.2534 119.004 60.355 118.938 60.4605 118.868C60.6089 118.77 60.7572 118.669 60.9018 118.563C61.0931 118.43 61.2846 118.294 61.472 118.153C61.5306 118.11 61.5931 118.067 61.6517 118.02C65.311 115.243 67.9969 111.378 69.3245 106.98C70.652 102.582 70.553 97.8764 69.0416 93.5382L69.0416 93.5381Z" fill="white"/>
<path d="M63.5487 139.508H33.5012C32.5449 139.508 31.6278 139.128 30.9516 138.452C30.2754 137.776 29.8955 136.859 29.8955 135.902C29.8955 134.946 30.2754 134.029 30.9516 133.353C31.6278 132.677 32.5449 132.297 33.5012 132.297H63.5487C64.5044 132.298 65.4206 132.678 66.0961 133.354C66.7716 134.03 67.151 134.947 67.151 135.902C67.151 136.858 66.7716 137.775 66.0961 138.451C65.4206 139.127 64.5044 139.507 63.5487 139.508Z" fill="white"/>
<path d="M63.5481 150.625H33.5006C33.0268 150.626 32.5576 150.533 32.1198 150.352C31.6819 150.171 31.284 149.905 30.9489 149.571C30.6137 149.236 30.3478 148.838 30.1664 148.4C29.985 147.963 29.8916 147.494 29.8916 147.02C29.8916 146.546 29.985 146.077 30.1664 145.639C30.3478 145.201 30.6137 144.804 30.9489 144.469C31.284 144.134 31.6819 143.869 32.1198 143.688C32.5576 143.507 33.0268 143.414 33.5006 143.414H63.5481C64.5044 143.414 65.4215 143.794 66.0977 144.47C66.7739 145.146 67.1538 146.063 67.1538 147.02C67.1538 147.976 66.7739 148.893 66.0977 149.569C65.4215 150.246 64.5044 150.625 63.5481 150.625Z" fill="white"/>
<path d="M40.826 105.782L42.0898 110.159L58.24 109.874L58.0984 101.853C57.9864 95.5041 53.4993 90.0281 47.1503 90.1401C40.8013 90.2521 36.7643 95.6197 36.8763 101.969L37.7986 110.235L40.4318 110.189L40.826 105.782Z" fill="#2F2E41"/>
<path d="M47.8712 108.843C51.8731 108.843 55.1173 105.598 55.1173 101.596C55.1173 97.5946 51.8731 94.3503 47.8712 94.3503C43.8692 94.3503 40.625 97.5946 40.625 101.596C40.625 105.598 43.8692 108.843 47.8712 108.843Z" fill="#FFB6B6"/>
<path d="M62.2951 112.897L62.1309 115.944C58.6532 119.562 53.9093 121.691 48.8951 121.885C43.881 122.08 38.9866 120.324 35.2395 116.986C35.072 116.839 34.9078 116.685 34.7471 116.527C35.7519 115.529 38.5252 113.064 41.6032 112.836L55.4826 111.962C55.4826 111.962 60.7409 111.346 62.2951 112.897Z" fill="#E4E4E4"/>
<path d="M55.8039 96.5085C55.7942 95.9537 55.6206 95.4141 55.3047 94.9578C55.2714 94.9109 55.2378 94.8674 55.2043 94.8238C54.9358 94.4812 54.5918 94.2052 54.199 94.0176C53.8062 93.8299 53.3754 93.7356 52.9401 93.742L47.732 93.8358L42.5272 93.9262C41.7816 93.9411 41.0722 94.2508 40.5543 94.7875C40.0365 95.3242 39.7523 96.0442 39.764 96.7899L41.0033 99.2851L41.7167 100.719L41.8339 100.652C46.3387 98.1195 48.1808 98.086 54.1426 100.441L54.2631 100.487L54.7355 99.2784L55.8071 96.5353L55.8039 96.5085Z" fill="#2F2E41"/>
<path d="M63.9393 114.947C63.5206 115.483 63.1427 115.473 62.6704 115.962C61.4782 117.205 59.5755 118.269 58.0885 119.156L57.7637 113.335L62.2952 112.896C63.0495 113.385 63.626 114.104 63.9393 114.947Z" fill="#E4E4E4"/>
<path d="M69.0416 93.5381C68.0012 90.5493 66.3214 87.8234 64.1192 85.5505C61.9171 83.2776 59.2457 81.5124 56.2912 80.378C53.3368 79.2436 50.1705 78.7674 47.0131 78.9824C43.8557 79.1975 40.7832 80.0987 38.0098 81.6232C35.2365 83.1477 32.8291 85.2588 30.9555 87.8094C29.0819 90.3599 27.7872 93.2884 27.1617 96.3907C26.5362 99.493 26.5949 102.694 27.3338 105.772C28.0727 108.849 29.4739 111.728 31.4398 114.208C31.6351 114.454 31.8382 114.7 32.0453 114.938C32.0609 114.954 32.0726 114.97 32.0882 114.985C32.5973 115.572 33.1385 116.13 33.7091 116.657C33.8577 116.794 34.0139 116.934 34.1701 117.067C34.4668 117.333 34.7716 117.587 35.088 117.829C35.2129 117.926 35.334 118.024 35.4629 118.118C35.9628 118.497 36.4823 118.848 37.0175 119.184L37.0409 119.196C37.1931 119.29 37.3495 119.383 37.5057 119.473C37.7868 119.641 38.0759 119.801 38.3649 119.954L38.5485 120.047C38.9704 120.266 39.4001 120.473 39.8414 120.664C39.9312 120.703 40.0288 120.743 40.1187 120.782C40.1265 120.785 40.1303 120.785 40.1381 120.789C40.3453 120.875 40.5522 120.957 40.7631 121.035C41.456 121.3 42.1627 121.527 42.8801 121.715C44.7111 122.203 46.5979 122.45 48.4928 122.449C49.1842 122.449 49.8677 122.418 50.5434 122.352C52.0874 122.209 53.6116 121.901 55.0899 121.434C55.0937 121.434 55.0977 121.43 55.1015 121.43C56.0354 121.132 56.9477 120.771 57.8318 120.348C57.8356 120.344 57.8435 120.344 57.8475 120.34C58.0466 120.246 58.2381 120.145 58.4334 120.047C58.4646 120.032 58.4957 120.016 58.527 120C58.6832 119.918 58.8396 119.836 58.9958 119.75C59.3864 119.536 59.7691 119.309 60.1479 119.067C60.2534 119.004 60.355 118.938 60.4605 118.868C60.6089 118.77 60.7572 118.669 60.9018 118.563C61.0931 118.43 61.2846 118.294 61.472 118.153C61.5306 118.11 61.5931 118.067 61.6517 118.02C65.311 115.243 67.9969 111.378 69.3245 106.98C70.652 102.582 70.553 97.8764 69.0416 93.5382L69.0416 93.5381ZM60.9331 117.071C60.8042 117.173 60.6714 117.27 60.5385 117.36C60.4096 117.458 60.2808 117.551 60.1479 117.637C60.0346 117.719 59.9213 117.798 59.8042 117.872L59.7691 117.895C59.6831 117.954 59.5973 118.008 59.5113 118.063C59.1871 118.266 58.859 118.461 58.527 118.649C58.4919 118.669 58.4566 118.688 58.4216 118.708C58.2732 118.79 58.1248 118.868 57.9764 118.946C57.9568 118.958 57.9333 118.965 57.9139 118.977L57.8904 118.989C57.7029 119.086 57.5115 119.18 57.3202 119.27C56.5816 119.626 55.821 119.934 55.043 120.192C54.9414 120.227 54.8399 120.262 54.7384 120.293C53.3392 120.738 51.8961 121.032 50.4342 121.168C49.7936 121.227 49.1451 121.258 48.4929 121.258C46.7006 121.262 44.9157 121.028 43.1849 120.563C42.2966 120.331 41.426 120.036 40.5797 119.68C40.5366 119.661 40.4897 119.645 40.4467 119.625C40.4 119.606 40.3569 119.59 40.314 119.571C40.2671 119.551 40.2242 119.532 40.1773 119.508C39.8101 119.348 39.4468 119.172 39.0915 118.989L38.9197 118.899C38.486 118.672 38.0603 118.43 37.6463 118.172C37.5252 118.098 37.4002 118.02 37.283 117.938C37.2519 117.919 37.2244 117.899 37.1931 117.88C36.9158 117.696 36.6385 117.505 36.369 117.305C36.1856 117.169 36.0019 117.032 35.8223 116.891C35.5215 116.665 35.2324 116.423 34.9513 116.173C34.8029 116.048 34.6583 115.911 34.5177 115.782C33.9639 115.271 33.4397 114.728 32.9476 114.157C32.7836 113.97 32.6234 113.782 32.471 113.587C32.4363 113.548 32.4038 113.508 32.3733 113.466C29.8356 110.264 28.3091 106.378 27.9887 102.304C27.6682 98.231 28.5683 94.1545 30.5741 90.5947C32.5799 87.0349 35.6005 84.1532 39.2507 82.3171C42.9009 80.481 47.0153 79.7737 51.0691 80.2854C55.123 80.7971 58.9325 82.5046 62.0119 85.1902C65.0914 87.8758 67.3011 91.4178 68.3594 95.3643C69.4177 99.3109 69.2765 103.483 67.9538 107.349C66.6312 111.215 64.187 114.6 60.9331 117.071Z" fill="#E4E4E4"/>
<path d="M133.456 111.517C133.761 111.579 134.077 111.572 134.38 111.499C134.682 111.425 134.966 111.286 135.209 111.091C135.452 110.896 135.65 110.65 135.788 110.371C135.926 110.091 136.001 109.785 136.008 109.473L152.119 94.3088L148.494 91.417L133.77 107.271C133.245 107.294 132.748 107.509 132.371 107.874C131.995 108.24 131.765 108.731 131.727 109.255C131.688 109.778 131.842 110.297 132.161 110.714C132.48 111.131 132.94 111.417 133.456 111.517H133.456Z" fill="#FFB7B7"/>
<path d="M149.835 96.7601L146.7 93.0868C146.611 92.9822 146.546 92.8597 146.508 92.7276C146.471 92.5954 146.462 92.4567 146.483 92.3209C146.504 92.1851 146.554 92.0554 146.629 91.9406C146.705 91.8258 146.804 91.7287 146.92 91.6558L151.001 89.1012C151.538 88.6478 152.234 88.4259 152.934 88.4843C153.635 88.5427 154.284 88.8766 154.739 89.4128C155.193 89.949 155.417 90.6436 155.36 91.3445C155.304 92.0453 154.971 92.695 154.436 93.1511L151.283 96.7681C151.192 96.8716 151.081 96.9544 150.956 97.011C150.83 97.0675 150.694 97.0964 150.557 97.0956C150.42 97.0949 150.284 97.0645 150.159 97.0066C150.035 96.9487 149.924 96.8646 149.835 96.7601Z" fill="#FF3761"/>
<path d="M141.407 171.589L137.468 171.589L135.594 156.395L141.408 156.395L141.407 171.589Z" fill="#FFB7B7"/>
<path d="M142.412 175.407L129.71 175.407V175.246C129.71 173.935 130.231 172.678 131.158 171.751C132.085 170.823 133.343 170.303 134.654 170.302H134.654L142.412 170.303L142.412 175.407Z" fill="#2F2E41"/>
<path d="M172.895 171.589L168.956 171.589L167.082 156.395L172.896 156.395L172.895 171.589Z" fill="#FFB7B7"/>
<path d="M173.9 175.407L161.198 175.407V175.246C161.198 173.935 161.719 172.678 162.646 171.751C163.574 170.823 164.831 170.303 166.142 170.302H166.142L173.9 170.303L173.9 175.407Z" fill="#2F2E41"/>
<path d="M162.299 104.814L166.27 90.144L161.119 87.2485H153.929L151.132 90.2405C151.132 90.2405 146.46 93.4914 147.59 97.0932L149.415 105.297L146.625 118.327L132.566 137.823L129.238 156.973L142.338 160.408L156.504 132.514L163.372 163.4L176.15 162.757L171.747 125.309C171.747 125.309 170.492 113.901 163.913 106.778L162.299 104.814Z" fill="#2F2E41"/>
<path d="M170.5 117.794C170.721 117.575 170.892 117.31 171 117.017C171.107 116.725 171.15 116.412 171.124 116.101C171.098 115.791 171.004 115.49 170.849 115.219C170.694 114.949 170.481 114.716 170.227 114.536L167.146 93.7512L162.724 95.1475L167.15 115.166C166.877 115.614 166.778 116.147 166.871 116.663C166.965 117.179 167.244 117.644 167.657 117.968C168.07 118.292 168.588 118.453 169.111 118.421C169.635 118.389 170.129 118.166 170.5 117.794V117.794Z" fill="#FFB7B7"/>
<path d="M167.907 97.0136L163.11 97.5667C162.973 97.5824 162.835 97.5686 162.704 97.5261C162.573 97.4835 162.454 97.4133 162.352 97.3203C162.251 97.2272 162.172 97.1135 162.118 96.9868C162.065 96.8601 162.04 96.7234 162.044 96.5861L162.2 91.7743C162.123 91.0754 162.327 90.3746 162.766 89.8256C163.205 89.2766 163.844 88.9242 164.543 88.8457C165.242 88.7672 165.943 88.969 166.493 89.4069C167.043 89.8448 167.397 90.483 167.477 91.1815L168.721 95.8163C168.756 95.949 168.763 96.0878 168.74 96.2233C168.717 96.3588 168.665 96.4877 168.588 96.6013C168.511 96.715 168.41 96.8106 168.292 96.8817C168.175 96.9529 168.043 96.9978 167.907 97.0136V97.0136Z" fill="#FF3761"/>
<path d="M149.482 83.0763V76.895C149.484 74.6991 150.357 72.5937 151.91 71.0414C153.463 69.4892 155.569 68.6172 157.765 68.6172C159.961 68.6172 162.067 69.4892 163.62 71.0414C165.174 72.5937 166.047 74.6991 166.048 76.895V83.0763C166.048 83.3712 165.931 83.6541 165.722 83.8626C165.513 84.0712 165.231 84.1886 164.936 84.1889H150.595C150.3 84.1886 150.017 84.0712 149.809 83.8626C149.6 83.6541 149.483 83.3712 149.482 83.0763Z" fill="#2F2E41"/>
<path d="M156.064 84.0451C159.418 84.0451 162.137 81.3262 162.137 77.9724C162.137 74.6185 159.418 71.8997 156.064 71.8997C152.71 71.8997 149.991 74.6185 149.991 77.9724C149.991 81.3262 152.71 84.0451 156.064 84.0451Z" fill="#FFB7B7"/>
<path d="M147.523 77.3895C147.525 75.6524 148.216 73.987 149.445 72.7586C150.673 71.5303 152.338 70.8394 154.076 70.8374H155.312C157.049 70.8394 158.714 71.5303 159.943 72.7586C161.171 73.987 161.862 75.6524 161.864 77.3895V77.5132H159.251L158.36 75.0179L158.182 77.5132H156.832L156.382 76.2542L156.292 77.5132H147.523L147.523 77.3895Z" fill="#2F2E41"/>
<path d="M155.466 84.884C155.344 84.7179 155.27 84.5206 155.255 84.3147C155.24 84.1088 155.283 83.9027 155.379 83.7202C156.689 81.2284 158.524 76.6241 156.089 73.7846L155.914 73.5806H162.982V84.1925L156.561 85.3254C156.496 85.3369 156.43 85.3427 156.364 85.3428C156.189 85.3428 156.016 85.3012 155.86 85.2215C155.704 85.1417 155.569 85.0261 155.466 84.884Z" fill="#2F2E41"/>
<path d="M126.928 175.342H77.1118C74.3077 175.339 71.6193 174.224 69.6364 172.241C67.6536 170.258 66.5383 167.57 66.5352 164.766V36.5768C66.5383 33.7727 67.6536 31.0843 69.6364 29.1014C71.6193 27.1186 74.3077 26.0032 77.1118 26H83.8444L83.5846 26.6371C83.3156 27.2965 83.2129 28.012 83.2855 28.7204C83.3581 29.4289 83.6039 30.1086 84.0011 30.6997C84.3983 31.2908 84.9348 31.7751 85.5633 32.11C86.1918 32.4449 86.893 32.6201 87.6052 32.6202H116.007C116.719 32.6201 117.421 32.4449 118.049 32.11C118.678 31.7751 119.214 31.2908 119.611 30.6997C120.009 30.1086 120.254 29.4289 120.327 28.7205C120.4 28.012 120.297 27.2966 120.028 26.6371L119.768 26H126.928C129.732 26.0032 132.42 27.1185 134.403 29.1014C136.386 31.0842 137.502 33.7726 137.505 36.5768V164.766C137.502 167.57 136.386 170.258 134.403 172.241C132.42 174.224 129.732 175.339 126.928 175.342Z" fill="white"/>
<path d="M126.928 175.342H77.1118C74.3077 175.339 71.6193 174.224 69.6364 172.241C67.6536 170.258 66.5383 167.57 66.5352 164.766V36.5768C66.5383 33.7727 67.6536 31.0843 69.6364 29.1014C71.6193 27.1186 74.3077 26.0032 77.1118 26H83.8444L83.5846 26.6371C83.3156 27.2965 83.2129 28.012 83.2855 28.7204C83.3581 29.4289 83.6039 30.1086 84.0011 30.6997C84.3983 31.2908 84.9348 31.7751 85.5633 32.11C86.1918 32.4449 86.893 32.6201 87.6052 32.6202H116.007C116.719 32.6201 117.421 32.4449 118.049 32.11C118.678 31.7751 119.214 31.2908 119.611 30.6997C120.009 30.1086 120.254 29.4289 120.327 28.7205C120.4 28.012 120.297 27.2966 120.028 26.6371L119.768 26H126.928C129.732 26.0032 132.42 27.1185 134.403 29.1014C136.386 31.0842 137.502 33.7726 137.505 36.5768V164.766C137.502 167.57 136.386 170.258 134.403 172.241C132.42 174.224 129.732 175.339 126.928 175.342ZM77.1118 26.925C74.5529 26.9279 72.0996 27.9457 70.2902 29.7552C68.4808 31.5646 67.463 34.0179 67.4601 36.5768V164.766C67.463 167.325 68.4808 169.778 70.2902 171.587C72.0996 173.397 74.5529 174.415 77.1118 174.417H126.928C129.487 174.415 131.94 173.397 133.75 171.587C135.559 169.778 136.577 167.325 136.58 164.766V36.5768C136.577 34.0179 135.559 31.5646 133.75 29.7552C131.94 27.9457 129.487 26.9279 126.928 26.925H121.099C121.306 27.705 121.331 28.5222 121.172 29.3135C121.014 30.1047 120.675 30.8489 120.183 31.4886C119.691 32.1284 119.059 32.6465 118.335 33.003C117.611 33.3596 116.814 33.5451 116.007 33.5452H87.6052C86.7983 33.5449 86.0022 33.3593 85.2783 33.0026C84.5544 32.646 83.9221 32.1278 83.4302 31.4882C82.9383 30.8485 82.5998 30.1044 82.441 29.3132C82.2821 28.522 82.3071 27.705 82.514 26.925L77.1118 26.925Z" fill="#3F3D56"/>
<path d="M128.381 71.3466C127.117 67.7153 125.076 64.4035 122.4 61.642C119.725 58.8806 116.479 56.736 112.89 55.3578C109.3 53.9796 105.453 53.4009 101.617 53.6622C97.7813 53.9235 94.0484 55.0184 90.6789 56.8706C87.3095 58.7228 84.3847 61.2876 82.1083 64.3864C79.832 67.4851 78.259 71.0431 77.4991 74.8122C76.7391 78.5813 76.8105 82.4708 77.7082 86.2095C78.6058 89.9482 80.3083 93.4461 82.6967 96.4592C82.934 96.7582 83.1808 97.0571 83.4322 97.3466C83.4512 97.3656 83.4653 97.3846 83.4843 97.4036C84.103 98.1162 84.7605 98.7943 85.4538 99.4346C85.6341 99.6007 85.8239 99.7715 86.0136 99.9329C86.3744 100.256 86.7444 100.564 87.1289 100.858C87.8794 101.45 88.662 101.999 89.473 102.505L89.5016 102.519C90.0282 102.847 90.5644 103.15 91.1103 103.44L91.3332 103.554C91.8458 103.819 92.3678 104.071 92.904 104.303C93.0131 104.351 93.1318 104.398 93.2409 104.446C93.2504 104.45 93.2552 104.45 93.2647 104.455C94.3482 104.906 95.4612 105.282 96.596 105.58C98.8205 106.173 101.113 106.473 103.415 106.472C104.255 106.472 105.085 106.434 105.906 106.353C107.782 106.18 109.634 105.806 111.43 105.238C111.435 105.238 111.44 105.233 111.444 105.233C112.579 104.872 113.687 104.433 114.761 103.919C114.766 103.914 114.776 103.914 114.78 103.91C115.022 103.796 115.255 103.672 115.492 103.554C115.53 103.535 115.568 103.516 115.606 103.497C115.796 103.397 115.986 103.297 116.175 103.193C116.65 102.932 117.115 102.657 117.575 102.363C117.704 102.287 117.827 102.206 117.955 102.12C118.373 101.845 118.785 101.551 119.184 101.252C119.255 101.2 119.331 101.148 119.402 101.091C123.848 97.7161 127.111 93.0206 128.724 87.6774C130.337 82.3341 130.217 76.6173 128.381 71.3466H128.381Z" fill="white"/>
<path d="M112.139 90.9327C114.327 90.9327 116.101 89.1588 116.101 86.9707C116.101 84.7826 114.327 83.0088 112.139 83.0088C109.951 83.0088 108.177 84.7826 108.177 86.9707C108.177 89.1588 109.951 90.9327 112.139 90.9327Z" fill="#2F2E41"/>
<path d="M113.242 83.1181C113.928 83.1182 114.602 83.2961 115.199 83.6347C115.795 83.9732 116.293 84.4607 116.645 85.0495C116.996 85.6383 117.189 86.3082 117.204 86.9938C117.219 87.6793 117.056 88.3571 116.73 88.9607C117.074 88.5309 117.324 88.0343 117.465 87.5025C117.606 86.9708 117.634 86.4155 117.549 85.8721C117.463 85.3286 117.265 84.809 116.968 84.3462C116.67 83.8835 116.28 83.4878 115.821 83.1843C115.362 82.8808 114.845 82.6763 114.303 82.5836C113.761 82.491 113.205 82.5124 112.671 82.6463C112.138 82.7803 111.638 83.0239 111.204 83.3617C110.77 83.6995 110.41 84.124 110.149 84.6082C110.52 84.1432 110.99 83.7677 111.526 83.5097C112.062 83.2517 112.648 83.1179 113.243 83.1181H113.242Z" fill="#2F2E41"/>
<path d="M104.735 86.9622C111.163 86.9622 116.374 81.7514 116.374 75.3236C116.374 68.8958 111.163 63.6851 104.735 63.6851C98.3074 63.6851 93.0967 68.8958 93.0967 75.3236C93.0967 81.7514 98.3074 86.9622 104.735 86.9622Z" fill="#2F2E41"/>
<path d="M95.6 68.1026C97.6055 65.8473 100.409 64.4593 103.418 64.2315C106.428 64.0038 109.408 64.9542 111.73 66.8821C111.635 66.7915 111.54 66.7004 111.442 66.6126C109.142 64.5554 106.12 63.4954 103.039 63.6657C99.9585 63.836 97.0715 65.2226 95.0128 67.5207C92.9541 69.8187 91.8921 72.8403 92.0603 75.9211C92.2285 79.0018 93.6131 81.8898 95.9098 83.9501C95.9319 83.9698 95.9541 83.9896 95.9763 84.0092C96.075 84.097 96.1766 84.18 96.2777 84.264C94.0911 82.1838 92.7982 79.3355 92.6719 76.3202C92.5455 73.3049 93.5956 70.3584 95.6005 68.1026L95.6 68.1026Z" fill="#2F2E41"/>
<path d="M104.636 86.8637C108.776 86.8637 112.132 83.5077 112.132 79.3679C112.132 75.2281 108.776 71.8721 104.636 71.8721C100.497 71.8721 97.1406 75.2281 97.1406 79.3679C97.1406 83.5077 100.497 86.8637 104.636 86.8637Z" fill="#A0616A"/>
<path d="M118.05 98.8982V101.413C117.59 101.707 117.125 101.983 116.65 102.244C116.46 102.348 116.271 102.448 116.081 102.547C116.043 102.566 116.005 102.585 115.967 102.604C115.73 102.723 115.497 102.846 115.255 102.96C115.25 102.965 115.241 102.965 115.236 102.97C114.162 103.484 113.053 103.923 111.919 104.284C111.914 104.284 111.91 104.289 111.905 104.289C110.109 104.857 108.257 105.231 106.381 105.404C105.56 105.485 104.73 105.523 103.89 105.523C101.588 105.523 99.2952 105.223 97.0707 104.631C95.9359 104.332 94.8229 103.956 93.7394 103.506C93.7299 103.501 93.7251 103.501 93.7156 103.496C93.6064 103.449 93.4878 103.402 93.3787 103.354C92.8425 103.122 92.3204 102.87 91.8079 102.604L91.585 102.49C91.0391 102.201 90.5029 101.897 89.9762 101.57L89.9478 101.556C89.1367 101.05 88.3541 100.501 87.6035 99.909C87.2191 99.6147 86.8491 99.3063 86.4883 98.9836C86.2985 98.8222 86.1088 98.6514 85.9285 98.4853C85.2352 97.845 84.5777 97.167 83.959 96.4543C84.041 95.96 84.1617 95.4729 84.3198 94.9974L84.3244 94.9927C84.3528 94.9117 84.3861 94.8324 84.424 94.7554C84.4502 94.6873 84.4803 94.6208 84.5142 94.5561C85.3636 92.9664 86.9012 92.5725 88.8089 92.4871C89.8861 92.4396 91.0771 92.4919 92.3348 92.4776C92.9991 92.4729 93.6871 92.4492 94.3752 92.3875C98.7172 91.9936 97.9296 89.4311 98.124 88.0502C98.3187 86.712 99.524 87.8699 99.6047 87.9458L99.6093 87.9505C102.066 89.1004 104.785 89.577 107.487 89.3314C107.952 89.2745 108.417 89.2413 108.882 89.227C110.106 89.2128 109.84 89.5639 109.418 89.8534C109.213 89.9883 108.999 90.1088 108.778 90.2141C108.778 90.2141 108.583 91.4004 108.384 93.1752C108.194 94.874 114.178 95.4625 115.35 95.8326H115.355C116.024 96.0787 116.621 96.4879 117.091 97.0233C117.562 97.5587 117.892 98.2031 118.05 98.8982Z" fill="#3F3D56"/>
<path d="M98.2246 69.9978V77.4955H99.9605L102.169 75.1285L101.874 77.4955H109.547L109.073 75.1285L110.022 77.4955H111.245V69.9978H98.2246Z" fill="#2F2E41"/>
<path d="M97.041 78.8747C97.3678 78.8747 97.6327 78.389 97.6327 77.7899C97.6327 77.1908 97.3678 76.7051 97.041 76.7051C96.7142 76.7051 96.4492 77.1908 96.4492 77.7899C96.4492 78.389 96.7142 78.8747 97.041 78.8747Z" fill="#A0616A"/>
<path d="M112.231 78.8747C112.558 78.8747 112.823 78.389 112.823 77.7899C112.823 77.1908 112.558 76.7051 112.231 76.7051C111.905 76.7051 111.64 77.1908 111.64 77.7899C111.64 78.389 111.905 78.8747 112.231 78.8747Z" fill="#A0616A"/>
<path d="M128.381 71.3466C127.117 67.7153 125.076 64.4035 122.4 61.642C119.725 58.8806 116.479 56.736 112.89 55.3578C109.3 53.9796 105.453 53.4009 101.617 53.6622C97.7813 53.9235 94.0484 55.0184 90.6789 56.8706C87.3095 58.7228 84.3847 61.2876 82.1083 64.3864C79.832 67.4851 78.259 71.0431 77.4991 74.8122C76.7391 78.5813 76.8105 82.4708 77.7082 86.2095C78.6058 89.9482 80.3083 93.4461 82.6967 96.4592C82.934 96.7582 83.1808 97.0571 83.4322 97.3466C83.4512 97.3656 83.4653 97.3846 83.4843 97.4036C84.103 98.1162 84.7605 98.7943 85.4538 99.4346C85.6341 99.6007 85.8239 99.7715 86.0136 99.9329C86.3744 100.256 86.7444 100.564 87.1289 100.858C87.8794 101.45 88.662 101.999 89.473 102.505L89.5016 102.519C90.0282 102.847 90.5644 103.15 91.1103 103.44L91.3332 103.554C91.8458 103.819 92.3678 104.071 92.904 104.303C93.0131 104.351 93.1318 104.398 93.2409 104.446C93.2504 104.45 93.2552 104.45 93.2647 104.455C94.3482 104.906 95.4612 105.282 96.596 105.58C98.8205 106.173 101.113 106.473 103.415 106.472C104.255 106.472 105.085 106.434 105.906 106.353C107.782 106.18 109.634 105.806 111.43 105.238C111.435 105.238 111.44 105.233 111.444 105.233C112.579 104.872 113.687 104.433 114.761 103.919C114.766 103.914 114.776 103.914 114.78 103.91C115.022 103.796 115.255 103.672 115.492 103.554C115.53 103.535 115.568 103.516 115.606 103.497C115.796 103.397 115.986 103.297 116.175 103.193C116.65 102.932 117.115 102.657 117.575 102.363C117.704 102.287 117.827 102.206 117.955 102.12C118.373 101.845 118.785 101.551 119.184 101.252C119.255 101.2 119.331 101.148 119.402 101.091C123.848 97.7161 127.111 93.0206 128.724 87.6774C130.337 82.3341 130.217 76.6173 128.381 71.3466H128.381ZM118.529 99.9376C118.373 100.061 118.211 100.18 118.05 100.289C117.893 100.407 117.737 100.521 117.575 100.626C117.438 100.725 117.3 100.82 117.158 100.91C117.039 100.991 116.92 101.067 116.802 101.143C116.408 101.39 116.01 101.627 115.606 101.855C115.563 101.878 115.521 101.902 115.478 101.926C115.297 102.026 115.117 102.12 114.937 102.215C114.913 102.23 114.885 102.239 114.861 102.253L114.832 102.268C114.605 102.386 114.372 102.5 114.14 102.609C113.242 103.041 112.318 103.415 111.373 103.729C111.25 103.772 111.126 103.815 111.003 103.853C109.303 104.393 107.55 104.75 105.774 104.916C104.995 104.987 104.207 105.025 103.415 105.025C101.237 105.029 99.0689 104.745 96.966 104.18C95.8868 103.898 94.8291 103.54 93.8009 103.108C93.6918 103.065 93.5826 103.017 93.4781 102.975C93.4214 102.951 93.369 102.927 93.312 102.899C92.8659 102.704 92.4248 102.491 91.9929 102.268L91.7841 102.158C91.2574 101.883 90.74 101.589 90.237 101.276C90.0521 101.162 89.8669 101.043 89.6867 100.92C89.1171 100.545 88.562 100.142 88.0209 99.7193C87.6555 99.4441 87.3045 99.1499 86.9627 98.8461C86.7824 98.6943 86.6068 98.5282 86.436 98.3716C85.7632 97.7503 85.1263 97.0912 84.5284 96.3975C84.3291 96.1698 84.1345 95.942 83.9493 95.7047C83.9072 95.6578 83.8676 95.6087 83.8307 95.5576C80.7475 91.6669 78.8929 86.946 78.5036 81.9971C78.1143 77.0481 79.2078 72.0954 81.6448 67.7704C84.0817 63.4455 87.7516 59.9444 92.1864 57.7137C96.6211 55.4829 101.62 54.6236 106.545 55.2453C111.47 55.867 116.099 57.9415 119.84 61.2044C123.581 64.4672 126.266 68.7705 127.552 73.5653C128.837 78.3602 128.666 83.4293 127.059 88.1263C125.452 92.8233 122.482 96.9352 118.529 99.9376Z" fill="#3F3D56"/>
<path d="M121.658 127.158H85.1524C83.9912 127.157 82.8779 126.695 82.0572 125.874C81.2364 125.052 80.7754 123.939 80.7754 122.777C80.7754 121.616 81.2364 120.503 82.0572 119.681C82.8779 118.86 83.9912 118.398 85.1524 118.397H121.658C122.234 118.396 122.804 118.509 123.336 118.729C123.868 118.949 124.351 119.272 124.758 119.679C125.166 120.085 125.489 120.568 125.709 121.1C125.929 121.632 126.043 122.202 126.043 122.777C126.043 123.353 125.929 123.923 125.709 124.455C125.489 124.986 125.166 125.47 124.758 125.876C124.351 126.283 123.868 126.606 123.336 126.826C122.804 127.046 122.234 127.159 121.658 127.158Z" fill="#FF3761"/>
<path d="M121.658 140.665H85.1524C83.9912 140.665 82.8779 140.203 82.0572 139.381C81.2364 138.56 80.7754 137.446 80.7754 136.285C80.7754 135.124 81.2364 134.01 82.0572 133.188C82.8779 132.367 83.9912 131.905 85.1524 131.904H121.658C122.234 131.904 122.804 132.017 123.336 132.236C123.868 132.456 124.351 132.779 124.758 133.186C125.166 133.593 125.489 134.076 125.709 134.607C125.929 135.139 126.043 135.709 126.043 136.285C126.043 136.86 125.929 137.43 125.709 137.962C125.489 138.494 125.166 138.977 124.758 139.384C124.351 139.791 123.868 140.113 123.336 140.333C122.804 140.553 122.234 140.666 121.658 140.665Z" fill="#FF3761"/>
<path d="M102.129 159.831C104.548 159.831 106.509 157.87 106.509 155.45C106.509 153.031 104.548 151.07 102.129 151.07C99.7094 151.07 97.748 153.031 97.748 155.45C97.748 157.87 99.7094 159.831 102.129 159.831Z" fill="#3F3D56"/>
<path d="M123.595 155.45C121.521 154.681 118.949 153.369 117.354 151.978L118.478 155.085H110.524V155.815H118.478L117.354 158.922C118.949 157.532 121.521 156.219 123.595 155.45Z" fill="#3F3D56"/>
<path d="M80.6621 155.45C82.7355 154.681 85.3081 153.369 86.9027 151.978L85.7788 155.085H93.7324V155.815H85.7788L86.9027 158.922C85.3081 157.532 82.7355 156.219 80.6621 155.45Z" fill="#3F3D56"/>
<path d="M224.155 175.692L0.308328 176C0.226555 176 0.14813 175.967 0.090307 175.91C0.0324843 175.852 0 175.773 0 175.692C0 175.61 0.0324843 175.531 0.090307 175.474C0.14813 175.416 0.226555 175.383 0.308328 175.383L224.155 175.075C224.236 175.075 224.315 175.107 224.373 175.165C224.431 175.223 224.463 175.302 224.463 175.383C224.463 175.465 224.431 175.543 224.373 175.601C224.315 175.659 224.236 175.692 224.155 175.692Z" fill="#3F3D56"/>
</svg>
