<?xml version="1.0" standalone="no"?>
<!DOCTYPE svg PUBLIC "-//W3C//DTD SVG 1.1//EN" "http://www.w3.org/Graphics/SVG/1.1/DTD/svg11.dtd" >
<svg xmlns="http://www.w3.org/2000/svg" xmlns:xlink="http://www.w3.org/1999/xlink" version="1.1">
<metadata>
Created by FontForge 20170731 at Thu Jun 24 08:27:20 2021
 By Aleksey,,,
Copyright (c) 2019 by Livius Dietzel, Tom Hossfeld. All rights reserved. |DCNT
</metadata>
<defs>
<font id="Graphit-Medium" horiz-adv-x="1228" >
  <font-face 
    font-family="Graphit Medium"
    font-weight="500"
    font-stretch="normal"
    units-per-em="2048"
    panose-1="2 11 6 3 1 2 3 2 2 3"
    ascent="1495"
    descent="-553"
    x-height="977"
    cap-height="1434"
    bbox="-1559 -461 6203 1982"
    underline-thickness="204"
    underline-position="-411"
    unicode-range="U+000D-FB02"
  />
<missing-glyph horiz-adv-x="1185" 
d="M154 1434h878v-1434h-878v1434zM803 217v1000h-420v-1000h420z" />
    <glyph glyph-name="fi" unicode="fi" horiz-adv-x="1181" 
d="M49 739v238h156v174q0 168 115 271.5t290 103.5q174 0 288 -103.5t114 -271.5h-258q0 65 -39 101t-107 36t-106.5 -36t-38.5 -101v-174h590v-977h-258v739h-332v-739h-258v739h-156z" />
    <glyph glyph-name="fl" unicode="fl" horiz-adv-x="1193" 
d="M807 1495h258v-1495h-258v739h-344v-739h-258v739h-156v238h156v215q0 154 99.5 244t264.5 90q58 0 121 -17v-209q-58 7 -102 7q-60 0 -92.5 -35t-32.5 -96v-199h344v518z" />
    <glyph glyph-name="f_f" unicode="ff" horiz-adv-x="1347" 
d="M1055 1174v-197h260v-238h-260v-739h-258v739h-328v-739h-258v739h-160v238h160v153q0 177 112.5 286.5t294.5 109.5q166 0 281 -103q100 103 260 103q164 0 261 -95.5t96 -256.5h-250q0 51 -29 82.5t-78 31.5t-76.5 -31t-27.5 -83zM797 977v153h-4q0 74 -42.5 116
t-115.5 42q-76 0 -121 -42.5t-45 -115.5v-153h328z" />
    <glyph glyph-name="f_f_i" unicode="ffi" horiz-adv-x="1773" 
d="M1055 977h590v-977h-259v739h-331v-739h-258v739h-328v-739h-258v739h-160v238h160v153q0 177 112.5 286.5t294.5 109.5q175 0 287 -109q112 109 297 109q174 0 288 -103.5t114 -271.5h-258q0 65 -39 101t-107 36t-106.5 -36t-38.5 -101v-174zM797 977v153h-4
q0 74 -42.5 116t-115.5 42q-76 0 -121 -42.5t-45 -115.5v-153h328z" />
    <glyph glyph-name="f_f_l" unicode="ffl" horiz-adv-x="1796" 
d="M1409 1495h258v-1495h-258v739h-344v-739h-258v739h-344v-739h-258v739h-156v238h156v215q0 154 99.5 244t264.5 90q58 0 121 -17v-209q-58 7 -102 7q-60 0 -92.5 -35t-32.5 -96v-199h344v215q0 154 99.5 244t264.5 90q58 0 121 -17v-209q-58 7 -102 7q-60 0 -92.5 -35
t-32.5 -96v-199h344v518z" />
    <glyph glyph-name=".notdef" horiz-adv-x="1185" 
d="M154 1434h878v-1434h-878v1434zM803 217v1000h-420v-1000h420z" />
    <glyph glyph-name=".null" horiz-adv-x="0" 
 />
    <glyph glyph-name="nonmarkingreturn" horiz-adv-x="682" 
 />
    <glyph glyph-name="CR" unicode="&#xd;" horiz-adv-x="450" 
 />
    <glyph glyph-name="space" unicode=" " horiz-adv-x="450" 
 />
    <glyph glyph-name="exclam" unicode="!" horiz-adv-x="585" 
d="M176 481l-35 953h303l-34 -953h-234zM113 145q0 77 52 127t128 50t128 -50t52 -127q0 -75 -52.5 -125.5t-127.5 -50.5t-127.5 50.5t-52.5 125.5z" />
    <glyph glyph-name="quotedbl" unicode="&#x22;" horiz-adv-x="905" 
d="M119 1524h258v-629h-258v629zM526 1524h260v-629h-260v629z" />
    <glyph glyph-name="numbersign" unicode="#" horiz-adv-x="1558" 
d="M1493 872h-285l-73 -299h221v-215h-273l-88 -358h-247l88 358h-291l-88 -358h-248l88 358h-231v215h282l74 299h-217v215h270l84 347h248l-84 -347h291l84 347h248l-84 -347h231v-215zM887 573l74 299h-291l-74 -299h291z" />
    <glyph glyph-name="dollar" unicode="$" horiz-adv-x="1095" 
d="M664 76v-205h-236v201q-133 25 -235 103t-132 185l228 99q29 -80 95.5 -127t150.5 -47q105 0 168 46.5t63 131.5q0 128 -178 174l-137 37q-151 39 -231.5 125.5t-80.5 218.5q0 123 80 212.5t209 119.5v204h236v-213q88 -25 153 -77.5t96 -124.5l-215 -105
q-25 50 -69 77.5t-101 27.5q-61 0 -101 -31.5t-40 -81.5q0 -92 127 -127l133 -35q174 -46 275.5 -147t101.5 -248q0 -148 -102 -256q-99 -102 -258 -137z" />
    <glyph glyph-name="percent" unicode="%" horiz-adv-x="1802" 
d="M59 1092q0 153 110.5 262.5t266.5 109.5q155 0 265 -109.5t110 -262.5t-110 -262t-265 -109q-156 0 -266.5 109t-110.5 262zM1454 1434l-852 -1434h-254l856 1434h250zM604 1092q0 70 -49.5 120t-120.5 50t-117.5 -50t-46.5 -120t46.5 -119t117.5 -49q72 0 121 49t49 119
zM991 340q0 153 110.5 263t266.5 110t265.5 -110t109.5 -263t-110 -262t-265 -109q-156 0 -266.5 109.5t-110.5 261.5zM1536 340q0 70 -49 120t-121 50q-68 0 -116 -50t-48 -120q0 -69 47.5 -118.5t116.5 -49.5q73 0 121.5 49t48.5 119z" />
    <glyph glyph-name="ampersand" unicode="&#x26;" horiz-adv-x="1384" 
d="M1182 770h178v-217h-176v-51q0 -124 -43 -225.5t-118 -168.5t-176.5 -103t-219.5 -36q-149 0 -273.5 58t-200 166t-75.5 245q0 119 66.5 223.5t172.5 151.5q-68 38 -107.5 110.5t-39.5 159.5q0 86 36 158.5t98 121t144.5 75t174.5 26.5q143 0 259 -65.5t167 -177.5
l-218 -127q-29 62 -84 96.5t-124 34.5q-85 0 -140 -41.5t-55 -112.5q0 -72 53.5 -115t145.5 -43h63v-217h-63q-121 0 -197 -65.5t-76 -169.5q0 -113 73.5 -173.5t199.5 -60.5q136 0 213.5 73.5t77.5 213.5v39h-189l346 424h107v-207z" />
    <glyph glyph-name="quotesingle" unicode="'" horiz-adv-x="473" 
d="M119 1524h235v-629h-235v629z" />
    <glyph glyph-name="parenleft" unicode="(" horiz-adv-x="665" 
d="M629 -203l-232 -98q-126 164 -224 455t-95 561q-3 268 95 559t224 455l232 -99q-114 -173 -193 -416q-82 -250 -82 -499t82 -502q79 -243 193 -416z" />
    <glyph glyph-name="parenright" unicode=")" horiz-adv-x="665" 
d="M37 1630l231 99q125 -165 224 -456t96 -558q3 -269 -96 -559.5t-224 -456.5l-231 98q109 164 190 416q84 260 84 502t-84 499q-81 252 -190 416z" />
    <glyph glyph-name="asterisk" unicode="*" horiz-adv-x="942" 
d="M332 924l-250 75l51 168l252 -86l-10 275h192l-6 -273l248 84l51 -168l-248 -75l162 -215l-151 -101l-152 221l-149 -221l-152 101z" />
    <glyph glyph-name="plus" unicode="+" 
d="M113 475v223h385v389h233v-389h385v-223h-385v-389h-233v389h-385z" />
    <glyph glyph-name="comma" unicode="," horiz-adv-x="530" 
d="M262 -252h-139v629h315z" />
    <glyph glyph-name="hyphen" unicode="-" horiz-adv-x="851" 
d="M117 700h618v-227h-618v227z" />
    <glyph glyph-name="period" unicode="." horiz-adv-x="538" 
d="M88 145q0 77 53 127t129 50t128.5 -50t52.5 -127q0 -75 -53 -125.5t-128 -50.5q-76 0 -129 51t-53 125z" />
    <glyph glyph-name="slash" unicode="/" horiz-adv-x="1134" 
d="M41 -111l764 1635h285l-762 -1635h-287z" />
    <glyph glyph-name="zero" unicode="0" horiz-adv-x="1345" 
d="M96 719q0 214 68 382t200.5 265.5t309.5 97.5q132 0 240.5 -56.5t181.5 -156t113 -236.5t40 -296q0 -215 -68 -384t-200 -267.5t-307 -98.5q-177 0 -309.5 98.5t-200.5 267.5t-68 384zM971 719q0 209 -76 346q-77 139 -221 139q-146 0 -223 -139q-76 -137 -76 -346
q0 -210 76 -350q78 -140 223 -140q143 0 221 140q76 140 76 350z" />
    <glyph glyph-name="one" unicode="1" horiz-adv-x="727" 
d="M287 0v1006h-256l305 436h221v-1442h-270z" />
    <glyph glyph-name="two" unicode="2" horiz-adv-x="1138" 
d="M37 0l596 829q76 105 76 195q0 83 -44.5 132.5t-123.5 49.5t-127.5 -51t-46.5 -131h-261q-6 195 115.5 317.5t319.5 122.5q199 0 322.5 -115t123.5 -302q0 -156 -129 -338l-330 -457h535v-252h-1026z" />
    <glyph glyph-name="three" unicode="3" horiz-adv-x="1198" 
d="M35 258l201 170q44 -88 126 -144.5t189 -56.5q127 0 207 71.5t80 182.5q0 108 -82 181t-215 73h-179l224 449h-414v250h834l-263 -506q73 -16 138 -52t118 -91t84 -133.5t31 -170.5q0 -146 -73 -263.5t-200 -183t-284 -65.5q-182 0 -316.5 80.5t-205.5 208.5z" />
    <glyph glyph-name="four" unicode="4" horiz-adv-x="1269" 
d="M1001 1462v-1011h213v-250h-213v-201h-258v201h-725l799 1261h184zM449 440h294v473z" />
    <glyph glyph-name="five" unicode="5" horiz-adv-x="1212" 
d="M49 258l201 170q44 -88 126 -144.5t189 -56.5q134 0 213.5 70t79.5 184q0 113 -80.5 181.5t-216.5 68.5q-159 0 -385 -61l131 766h682v-252h-467l-45 -238q87 19 176 19q215 0 348.5 -134.5t133.5 -343.5q0 -231 -156.5 -374.5t-407.5 -143.5q-183 0 -319 81t-203 208z
" />
    <glyph glyph-name="six" unicode="6" horiz-adv-x="1243" 
d="M86 506q0 199 168 477l276 451h326l-293 -441q53 31 131 31q98 2 189.5 -40t157.5 -113t105 -167t38 -198q3 -143 -69 -267.5t-200 -198.5t-280 -71q-123 0 -227 42t-174 114.5t-109 170.5t-39 210zM907 498q0 113 -77.5 196.5t-194.5 83.5q-118 0 -194 -83t-76 -197
t73 -193q78 -78 197 -78q118 0 196 78q76 79 76 193z" />
    <glyph glyph-name="seven" unicode="7" horiz-adv-x="1071" 
d="M154 0l522 1184h-633v252h1022l-614 -1436h-297z" />
    <glyph glyph-name="eight" unicode="8" horiz-adv-x="1261" 
d="M311 856q-45 39 -75.5 104.5t-30.5 129.5q0 165 123 269.5t301 104.5t303 -104t125 -270q0 -65 -32.5 -130t-80.5 -104q108 -58 171 -159.5t63 -229.5q0 -101 -40.5 -192t-111.5 -158t-174 -106.5t-223 -39.5q-159 0 -284.5 67.5t-193 180t-67.5 248.5q0 128 60.5 229.5
t166.5 159.5zM629 940q67 0 112 41t45 104t-45.5 104.5t-111.5 41.5q-63 0 -108 -41.5t-46 -104.5q1 -62 45.5 -103.5t108.5 -41.5zM629 221q112 0 188 70q80 71 80 178t-80 178q-76 70 -188 70q-111 0 -187 -70t-77 -178q1 -108 77 -178t187 -70z" />
    <glyph glyph-name="nine" unicode="9" horiz-adv-x="1218" 
d="M1133 956q0 -151 -62 -284q-59 -130 -178 -301l-254 -371h-305l373 535q-77 -50 -179 -50q-130 0 -238.5 63.5t-169.5 171.5t-61 236q0 106 42 200.5t114.5 162t172.5 106.5t212 39q232 0 382.5 -144.5t150.5 -363.5zM338 956q0 -105 74 -177t186 -72q116 0 187 70.5
t71 178.5t-71 179t-187 71q-112 0 -186 -72.5t-74 -177.5z" />
    <glyph glyph-name="colon" unicode=":" horiz-adv-x="569" 
d="M102 145q0 77 53.5 127t129.5 50t128 -50t52 -127q0 -75 -52.5 -125.5t-127.5 -50.5q-76 0 -129.5 51t-53.5 125zM102 829q0 77 53.5 127t129.5 50t128 -50t52 -127q0 -75 -52.5 -125.5t-127.5 -50.5q-76 0 -129.5 51t-53.5 125z" />
    <glyph glyph-name="semicolon" unicode=";" horiz-adv-x="536" 
d="M96 829q0 77 53.5 127t129.5 50t128 -50t52 -127q0 -75 -52.5 -125.5t-127.5 -50.5q-76 0 -129.5 51t-53.5 125zM264 -252h-139v629h315z" />
    <glyph glyph-name="less" unicode="&#x3c;" 
d="M90 479v215l983 451v-258l-657 -299l657 -301v-256z" />
    <glyph glyph-name="equal" unicode="=" 
d="M113 922h1003v-224h-1003v224zM113 473h1003v-223h-1003v223z" />
    <glyph glyph-name="greater" unicode="&#x3e;" 
d="M1139 479l-983 -448v256l657 301l-657 299v258l983 -451v-215z" />
    <glyph glyph-name="question" unicode="?" horiz-adv-x="1089" 
d="M494 432l-156 191l190 145q114 89 163.5 149t49.5 125q0 80 -57.5 127.5t-159.5 47.5q-100 0 -164 -53.5t-75 -135.5l-230 57q22 163 150 271t317 108q202 0 342 -120.5t140 -292.5q0 -105 -39 -179q-35 -71 -103 -139q-51 -51 -194 -164zM309 145q0 77 53.5 127
t129.5 50t128 -50t52 -127q0 -75 -52.5 -125.5t-127.5 -50.5q-76 0 -129.5 51t-53.5 125z" />
    <glyph glyph-name="at" unicode="@" horiz-adv-x="2058" 
d="M70 518q0 8 4 90q15 206 103.5 387t227.5 310t327 202t394 70q150 2 288 -39t246 -117.5t188 -178.5t121.5 -227t39.5 -257q0 -6 -4 -76q-10 -137 -79.5 -255.5t-183 -189t-243.5 -67.5q-97 0 -163 49t-87 131q-45 -80 -132 -129t-195 -49q-154 0 -259.5 105.5
t-105.5 269.5q0 3 4 65q27 197 153 310.5t294 113.5q98 0 167 -40.5t103 -102.5l16 127h181l-58 -479q-2 -10 -2 -43q0 -136 117 -136q105 0 180 97q77 95 86 227q2 14 2 66q0 134 -49 250t-137.5 199.5t-218.5 131t-285 47.5q-159 3 -306.5 -56.5t-257 -163t-180.5 -247
t-83 -303.5q-4 -70 -4 -80q0 -303 193 -492.5t507 -189.5q116 0 234 33t217 90l57 -184q-111 -63 -250.5 -99t-275.5 -36q-185 -3 -351.5 64t-285.5 183.5t-188 278t-66 340.5zM1225 643q0 90 -55.5 145.5t-139.5 55.5q-95 0 -167 -65.5t-89 -172.5q-1 -9 -2 -19.5t-1.5 -16
t-0.5 -9.5q0 -90 55.5 -144.5t143.5 -54.5q103 0 179.5 77t76.5 204z" />
    <glyph glyph-name="A" unicode="A" horiz-adv-x="1413" 
d="M12 0l617 1446h155l617 -1446h-291l-102 246h-602l-103 -246h-291zM506 492h401l-200 483z" />
    <glyph glyph-name="B" unicode="B" horiz-adv-x="1333" 
d="M166 0v1434h545q185 0 308.5 -106t123.5 -286q0 -85 -34 -158t-89 -112q110 -43 175 -136.5t65 -211.5q0 -192 -128.5 -308t-328.5 -116h-637zM432 844h234q97 0 150.5 46t53.5 128t-54 128t-152 46h-232v-348zM432 242h342q100 0 156.5 48t56.5 134q0 84 -56.5 131
t-156.5 47h-342v-360z" />
    <glyph glyph-name="C" unicode="C" horiz-adv-x="1552" 
d="M82 717q-2 149 53.5 286.5t154 240.5t242 163t306.5 57q225 0 400 -104t269 -285l-245 -125q-57 119 -167 187.5t-257 68.5q-144 0 -255 -68.5t-168 -179t-57 -241.5t57 -242t168 -179.5t255 -68.5q147 0 257 68.5t167 187.5l245 -125q-94 -181 -269 -285t-400 -104
q-163 -3 -306.5 57.5t-242 163t-154 240.5t-53.5 287z" />
    <glyph glyph-name="D" unicode="D" horiz-adv-x="1544" 
d="M164 0v1434h553q162 2 302 -52t237 -149.5t151.5 -229t52.5 -286.5q2 -153 -52.5 -286.5t-151.5 -229t-237 -149.5t-302 -52h-553zM436 252h252q234 0 364 125t130 338t-130 340t-364 127h-252v-930z" />
    <glyph glyph-name="E" unicode="E" horiz-adv-x="1220" 
d="M164 1434h956v-252h-686v-334h627v-248h-627v-348h686v-252h-956v1434z" />
    <glyph glyph-name="F" unicode="F" horiz-adv-x="1181" 
d="M164 1434h950v-252h-680v-351h633v-247h-633v-584h-270v1434z" />
    <glyph glyph-name="G" unicode="G" horiz-adv-x="1648" 
d="M1587 717q1 -149 -54.5 -287t-153 -240.5t-239 -163t-302.5 -57.5q-163 -3 -306.5 57.5t-242 163t-154 240.5t-53.5 287q-2 149 53.5 286.5t154 240.5t242 163t306.5 57q165 0 308 -59t247 -166l-203 -178q-63 69 -153.5 107t-198.5 38q-145 0 -255.5 -68.5
t-166.5 -178.5t-56 -242q0 -98 33 -186.5t93 -156t151.5 -107.5t200.5 -40q158 0 273.5 81.5t166.5 219.5l-221 269h526q4 -62 4 -80z" />
    <glyph glyph-name="H" unicode="H" horiz-adv-x="1572" 
d="M164 1434h272v-584h701v584h270v-1434h-270v598h-701v-598h-272v1434z" />
    <glyph glyph-name="I" unicode="I" horiz-adv-x="600" 
d="M164 1434h272v-1434h-272v1434z" />
    <glyph glyph-name="J" unicode="J" horiz-adv-x="1251" 
d="M37 518h270q0 -134 70 -212.5t192 -78.5q126 0 194 79t68 216v912h271v-916q0 -251 -142.5 -400t-390.5 -149q-247 0 -389.5 149t-142.5 400z" />
    <glyph glyph-name="K" unicode="K" horiz-adv-x="1376" 
d="M164 0v1434h274v-789l582 789h313l-491 -666l534 -768h-325l-402 588h-211v-588h-274z" />
    <glyph glyph-name="L" unicode="L" horiz-adv-x="1132" 
d="M164 0v1434h272v-1182h662v-252h-934z" />
    <glyph glyph-name="M" unicode="M" horiz-adv-x="1818" 
d="M164 0v1454h155l588 -649l590 649h156v-1454h-271v938l-475 -502l-473 502v-938h-270z" />
    <glyph glyph-name="N" unicode="N" horiz-adv-x="1579" 
d="M1260 -12l-824 932l-2 -920h-270v1446h155l822 -932l2 920h272v-1446h-155z" />
    <glyph glyph-name="O" unicode="O" horiz-adv-x="1675" 
d="M82 717q-2 149 53.5 286.5t154 240.5t242 163t306.5 57q130 2 249 -36t211 -108.5t159.5 -164t102.5 -206.5t33 -232q2 -151 -54 -289t-154.5 -240.5t-241.5 -162t-305 -56.5q-163 -3 -306.5 56.5t-242 162t-154 240.5t-53.5 289zM1317 717q0 98 -33.5 186.5t-94 155.5
t-152 107t-199.5 40q-145 0 -255.5 -68.5t-166.5 -178.5t-56 -242t56 -242.5t166.5 -179t255.5 -68.5q108 0 199.5 39.5t152 107t94 156.5t33.5 187z" />
    <glyph glyph-name="P" unicode="P" horiz-adv-x="1310" 
d="M164 1434h592q222 0 363 -130.5t141 -345.5t-140.5 -348t-363.5 -133h-322v-477h-270v1434zM983 956q0 111 -71.5 171.5t-204.5 60.5h-273v-465h273q133 0 204.5 60t71.5 173z" />
    <glyph glyph-name="Q" unicode="Q" horiz-adv-x="1677" 
d="M1407 207l127 -238h-696q-163 -3 -306.5 56.5t-242 162t-154 240.5t-53.5 289q-3 202 92 374t271 274.5t393 98.5q163 3 305.5 -56.5t241 -161.5t154.5 -240t54 -289q0 -147 -48 -279t-138 -231zM838 227q146 0 256.5 68.5t166.5 178.5t56 243t-56 243t-166.5 178
t-256.5 68q-110 0 -201.5 -39.5t-151 -107t-92.5 -155.5t-33 -187q0 -133 55.5 -243t166 -178.5t256.5 -68.5z" />
    <glyph glyph-name="R" unicode="R" horiz-adv-x="1384" 
d="M1313 0h-312l-364 594l-205 2v-596h-270v1434h590q141 0 251 -48t175 -143.5t65 -226.5q0 -153 -85 -258t-234 -144zM432 1188v-346h328q98 0 152.5 46t54.5 128t-54.5 127t-152.5 45h-328z" />
    <glyph glyph-name="S" unicode="S" horiz-adv-x="1193" 
d="M55 309l232 117q31 -98 109.5 -156.5t181.5 -58.5q125 0 201.5 58t76.5 161q0 80 -54 128t-161 79l-160 45q-164 45 -253 142.5t-89 246.5q0 173 123 283t307 110q148 0 265.5 -69t164.5 -185l-231 -118q-30 62 -81 96.5t-118 34.5q-70 0 -116.5 -39t-46.5 -101
q0 -60 37 -96t112 -57l156 -43q411 -117 411 -449q0 -139 -74.5 -247t-198 -165t-271.5 -57q-177 0 -329 95t-194 245z" />
    <glyph glyph-name="T" unicode="T" horiz-adv-x="1210" 
d="M471 1188h-436v246h1141v-246h-435v-1188h-270v1188z" />
    <glyph glyph-name="U" unicode="U" horiz-adv-x="1503" 
d="M147 553v881h271v-863q0 -156 90 -250t244 -94t243.5 94t89.5 250v863h271v-881q0 -123 -40.5 -229t-116 -185t-190.5 -124.5t-257 -45.5q-140 0 -255.5 45.5t-191.5 124.5t-117 185.5t-41 228.5z" />
    <glyph glyph-name="V" unicode="V" horiz-adv-x="1495" 
d="M670 -12l-660 1446h305l433 -963l432 963h305l-660 -1446h-155z" />
    <glyph glyph-name="W" unicode="W" horiz-adv-x="2240" 
d="M1042 1446h156l377 -940l358 928h293l-567 -1446h-156l-383 958l-383 -958h-155l-568 1446h293l359 -928z" />
    <glyph glyph-name="X" unicode="X" horiz-adv-x="1421" 
d="M508 754l-465 680h322l346 -500l344 500h323l-465 -680l510 -754h-327l-385 563l-385 -563h-328z" />
    <glyph glyph-name="Y" unicode="Y" horiz-adv-x="1396" 
d="M563 451l-543 983h316l364 -678l361 678h315l-542 -983v-451h-271v451z" />
    <glyph glyph-name="Z" unicode="Z" horiz-adv-x="1193" 
d="M696 1182h-614v252h1067l-670 -1180l656 -2v-252h-1102z" />
    <glyph glyph-name="bracketleft" unicode="[" horiz-adv-x="659" 
d="M600 1626v-203h-201v-1532h201v-202h-444v1937h444z" />
    <glyph glyph-name="backslash" unicode="\" horiz-adv-x="1134" 
d="M809 -111l-764 1635h285l764 -1635h-285z" />
    <glyph glyph-name="bracketright" unicode="]" horiz-adv-x="659" 
d="M506 1626v-1937h-447v202h203v1532h-203v203h447z" />
    <glyph glyph-name="asciicircum" unicode="^" 
d="M612 1524l553 -709v-6h-274l-277 358l-276 -358h-275v6z" />
    <glyph glyph-name="underscore" unicode="_" horiz-adv-x="907" 
d="M-8 -104h923v-205h-923v205z" />
    <glyph glyph-name="grave" unicode="`" 
d="M877 1147h-197l-238 311h303z" />
    <glyph glyph-name="a" unicode="a" horiz-adv-x="1255" 
d="M70 492q0 144 59 261.5t167.5 186t246.5 68.5q199 0 325 -123v92h258v-977h-258v94q-123 -123 -325 -123q-137 0 -246 70t-168 188.5t-59 262.5zM858 492q0 124 -70.5 201t-191.5 77q-120 0 -190 -77t-70 -201q0 -126 69.5 -204.5t190.5 -78.5t191.5 78t70.5 205z" />
    <glyph glyph-name="b" unicode="b" horiz-adv-x="1257" 
d="M387 94v-94h-258v1495h258v-598q59 54 145 82.5t181 28.5q211 0 342 -146.5t131 -369.5t-131.5 -372t-341.5 -149q-203 0 -326 123zM920 492q0 124 -70 201t-191 77t-191.5 -77t-70.5 -201q0 -127 70 -205t192 -78q121 0 191 78t70 205z" />
    <glyph glyph-name="c" unicode="c" horiz-adv-x="1112" 
d="M70 489q0 222 147.5 370.5t382.5 148.5q156 0 279 -69t190 -189l-229 -117q-31 64 -93.5 100.5t-146.5 36.5q-123 0 -195.5 -78t-72.5 -203t72.5 -202.5t195.5 -77.5q84 0 146.5 36.5t93.5 100.5l229 -115q-67 -123 -189 -191.5t-280 -68.5q-156 0 -278 69t-187 186.5
t-65 262.5z" />
    <glyph glyph-name="d" unicode="d" horiz-adv-x="1257" 
d="M72 492q0 223 131 369.5t342 146.5q95 0 180.5 -28.5t144.5 -82.5v598h258v-1495h-258v94q-123 -123 -325 -123q-210 0 -341.5 149t-131.5 372zM860 492q0 124 -70.5 201t-191.5 77t-190.5 -77t-69.5 -201q0 -127 69.5 -205t190.5 -78q122 0 192 78t70 205z" />
    <glyph glyph-name="e" unicode="e" horiz-adv-x="1142" 
d="M1071 397h-731q24 -90 86.5 -142t153.5 -52q160 0 247 125l222 -107q-65 -121 -189 -186.5t-280 -65.5q-227 0 -367.5 147t-140.5 373q0 225 140.5 372t367.5 147q149 0 263 -68t174 -184.5t60 -263.5q0 -26 -6 -95zM346 602h461q-48 176 -227 176q-85 0 -147 -47.5
t-87 -128.5z" />
    <glyph glyph-name="f" unicode="f" horiz-adv-x="753" 
d="M467 1174v-197h260v-238h-260v-739h-258v739h-164v238h164v182q0 162 101.5 264.5t260.5 102.5q164 0 261 -95.5t96 -256.5h-250q0 51 -29 82.5t-78 31.5t-76.5 -31t-27.5 -83z" />
    <glyph glyph-name="g" unicode="g" horiz-adv-x="1226" 
d="M119 -70h262q9 -143 207 -143q117 0 185.5 56t68.5 159v117q-119 -119 -310 -119q-134 0 -240 67t-163 182t-57 257q0 140 57 254t163 181t240 67q185 0 310 -119v88h258v-948q0 -218 -141 -343.5t-371 -125.5q-205 0 -336 94q-133 95 -133 276zM834 506
q0 117 -67.5 190.5t-182.5 73.5t-182.5 -73.5t-67.5 -190.5q0 -119 67.5 -194.5t182.5 -75.5q116 0 183 74.5t67 195.5z" />
    <glyph glyph-name="h" unicode="h" horiz-adv-x="1167" 
d="M129 1495h248v-610q95 123 291 123q180 0 282.5 -119.5t102.5 -317.5v-571h-258v551q0 100 -53.5 157.5t-149.5 57.5t-150.5 -57.5t-54.5 -157.5v-551h-258v1495z" />
    <glyph glyph-name="i" unicode="i" horiz-adv-x="516" 
d="M90 1284q0 69 48 115.5t120 46.5t120 -46.5t48 -115.5t-48 -115.5t-120 -46.5t-120 46.5t-48 115.5zM129 977h258v-977h-258v977z" />
    <glyph glyph-name="j" unicode="j" horiz-adv-x="516" 
d="M90 1284q0 71 49 116.5t119 45.5t119 -45.5t49 -116.5q0 -67 -49.5 -113.5t-118.5 -46.5t-118.5 46.5t-49.5 113.5zM129 -410v1387h258v-1387h-258z" />
    <glyph glyph-name="k" unicode="k" horiz-adv-x="1126" 
d="M129 0v1495h258v-1055l377 537h295l-305 -418l356 -559h-297l-266 426h-160v-426h-258z" />
    <glyph glyph-name="l" unicode="l" horiz-adv-x="516" 
d="M129 0v1495h258v-1495h-258z" />
    <glyph glyph-name="m" unicode="m" horiz-adv-x="1783" 
d="M129 0v977h236v-107q91 127 294 127q210 0 295 -147q88 147 328 147q173 0 280 -116t107 -299v-582h-258v541q0 99 -50.5 157t-141.5 58t-141 -57.5t-50 -157.5v-541h-258v541q0 100 -49.5 157.5t-140.5 57.5t-142 -58t-51 -157v-541h-258z" />
    <glyph glyph-name="n" unicode="n" horiz-adv-x="1171" 
d="M129 977h248v-92q95 123 293 123q181 0 284 -119.5t103 -317.5v-571h-258v551q0 100 -54.5 157.5t-150.5 57.5q-97 0 -152 -58t-55 -157v-551h-258v977z" />
    <glyph glyph-name="o" unicode="o" horiz-adv-x="1202" 
d="M70 492q0 221 147.5 368.5t382.5 147.5q155 0 277.5 -68.5t189 -186t66.5 -261.5q0 -146 -66.5 -264.5t-189 -187.5t-277.5 -69q-156 0 -278 69t-187 187.5t-65 264.5zM872 492q0 124 -73.5 201t-198.5 77q-123 0 -195.5 -77.5t-72.5 -200.5q0 -125 72.5 -204t195.5 -79
q126 0 199 78.5t73 204.5z" />
    <glyph glyph-name="p" unicode="p" horiz-adv-x="1257" 
d="M129 -410v1387h258v-94q123 123 326 123q210 0 341.5 -149t131.5 -372t-131 -369.5t-342 -146.5q-95 0 -181 28.5t-145 82.5v-490h-258zM920 485q0 127 -70 205t-191 78q-122 0 -192 -78t-70 -205q0 -124 70.5 -201t191.5 -77t191 77t70 201z" />
    <glyph glyph-name="q" unicode="q" horiz-adv-x="1257" 
d="M868 -410v490q-59 -54 -144.5 -82.5t-180.5 -28.5q-211 0 -342 146.5t-131 369.5t131.5 372t341.5 149q202 0 325 -123v94h258v-1387h-258zM858 485q0 127 -70 205t-192 78q-121 0 -190.5 -78t-69.5 -205q0 -124 69.5 -201t190.5 -77t191.5 77t70.5 201z" />
    <glyph glyph-name="r" unicode="r" horiz-adv-x="890" 
d="M129 0v977h258v-98q55 114 205 114q138 0 209 -92.5t65 -249.5h-254q2 56 -28 88.5t-84 32.5t-83.5 -39t-29.5 -112v-621h-258z" />
    <glyph glyph-name="s" unicode="s" horiz-adv-x="927" 
d="M51 217l219 102q63 -124 201 -124q57 0 93 21.5t36 62.5q0 35 -29.5 61.5t-78.5 40.5l-121 35q-269 80 -269 297q0 86 52 154t134 103.5t175 35.5q124 0 216.5 -50t133.5 -143l-215 -100q-37 67 -135 67q-40 0 -67 -16.5t-27 -46.5q0 -49 96 -76l106 -29
q140 -38 217.5 -120t77.5 -203q0 -144 -116 -232t-279 -88q-160 0 -272.5 66.5t-147.5 181.5z" />
    <glyph glyph-name="t" unicode="t" horiz-adv-x="806" 
d="M485 1300v-323h303v-238h-303v-739h-258v739h-213l365 561h106z" />
    <glyph glyph-name="u" unicode="u" horiz-adv-x="1155" 
d="M786 418v559h258v-582q0 -192 -131 -308t-335 -116t-335.5 116t-131.5 308v582h258v-559q0 -99 56 -158t153 -59t152.5 59t55.5 158z" />
    <glyph glyph-name="v" unicode="v" horiz-adv-x="1157" 
d="M12 977h291l277 -539l274 539h291l-514 -987h-109z" />
    <glyph glyph-name="w" unicode="w" horiz-adv-x="1654" 
d="M449 -10l-424 987h276l215 -522l256 532h111l256 -532l215 522h276l-424 -987h-108l-271 590l-272 -590h-106z" />
    <glyph glyph-name="x" unicode="x" horiz-adv-x="1107" 
d="M8 0l344 489l-344 488h326l221 -326l219 326h326l-342 -488l342 -489h-326l-219 326l-221 -326h-326z" />
    <glyph glyph-name="y" unicode="y" horiz-adv-x="1144" 
d="M844 977h280l-565 -1387h-262l158 398l-439 989h285l283 -660z" />
    <glyph glyph-name="z" unicode="z" horiz-adv-x="1015" 
d="M37 0l465 739h-426v238h878l-465 -739h472v-238h-924z" />
    <glyph glyph-name="braceleft" unicode="{" horiz-adv-x="714" 
d="M203 940v358q0 181 75.5 265t239.5 84q70 0 146 -15v-202q-58 10 -91 10q-74 0 -100.5 -44t-26.5 -155v-360q0 -88 -42.5 -145.5t-114.5 -78.5q72 -21 114.5 -78t42.5 -145v-360q0 -112 26.5 -155.5t100.5 -43.5q33 0 91 10v-202q-76 -15 -146 -15q-166 0 -240.5 79
t-74.5 257v371q0 80 -36.5 123t-107.5 43v233q71 0 107.5 43t36.5 123z" />
    <glyph glyph-name="bar" unicode="|" horiz-adv-x="579" 
d="M426 1434v-1844h-270v1844h270z" />
    <glyph glyph-name="braceright" unicode="}" horiz-adv-x="714" 
d="M655 774v-233q-143 0 -143 -166v-371q0 -178 -75 -257t-240 -79q-69 0 -146 15v202q52 -10 90 -10q74 0 100.5 43.5t26.5 155.5v360q0 88 42 145t114 78q-72 21 -114 78.5t-42 145.5v360q0 111 -26.5 155t-100.5 44q-38 0 -90 -10v202q77 15 146 15q162 0 238.5 -84.5
t76.5 -264.5v-358q0 -166 143 -166z" />
    <glyph glyph-name="asciitilde" unicode="~" 
d="M598 479q-82 26 -126 35.5t-89 9.5q-117 0 -258 -84v228q121 77 254 77q59 0 113 -11.5t143 -39.5q133 -43 213 -43q121 0 258 84v-227q-124 -80 -254 -80q-57 0 -107 11t-147 40z" />
    <glyph glyph-name="exclamdown" unicode="&#xa1;" horiz-adv-x="567" 
d="M465 911q0 -75 -52.5 -125.5t-127.5 -50.5q-76 0 -129.5 51t-53.5 125t53.5 125t129.5 51q75 0 127.5 -50.5t52.5 -125.5zM399 575l35 -952h-301l35 952h231z" />
    <glyph glyph-name="cent" unicode="&#xa2;" 
d="M907 426l215 -104q-51 -101 -144.5 -166.5t-217.5 -85.5v-199h-236v203q-184 40 -295 178q-108 141 -108 328t108 325q110 139 295 180v205h236v-200q123 -20 216.5 -85.5t145.5 -164.5l-215 -105q-78 146 -254 146q-132 0 -211 -88q-77 -86 -77 -213q0 -126 77 -215
q80 -86 211 -86q85 0 150 38.5t104 108.5z" />
    <glyph glyph-name="sterling" unicode="&#xa3;" horiz-adv-x="1224" 
d="M502 596v-373h612v-223h-1003v223h118l-2 373h-116v225h116v131q0 228 129 370t349 142q167 0 282 -78.5t166 -218.5l-235 -110q-37 78 -83 113.5t-122 35.5q-104 0 -157.5 -67t-53.5 -187v-131h502v-225h-502z" />
    <glyph glyph-name="currency" unicode="&#xa4;" 
d="M991 418l152 -152l-193 -190l-151 151q-83 -47 -189 -47t-186 45l-150 -149l-190 192l147 148q-51 83 -51 190q0 105 51 191l-147 147l190 191l152 -150q80 45 184 45q98 0 187 -47l153 154l193 -193l-152 -149q53 -83 53 -189q0 -105 -53 -188zM805 606q0 81 -55.5 137
t-139.5 56q-85 0 -139.5 -56t-54.5 -137q0 -83 54.5 -138.5t139.5 -55.5q84 0 139.5 56t55.5 138z" />
    <glyph glyph-name="yen" unicode="&#xa5;" horiz-adv-x="1263" 
d="M1249 1434l-225 -455h117v-225h-228l-36 -74h264v-225h-373v-455h-272v455h-373v225h264l-37 74h-227v225h117l-226 455h314l305 -689l303 689h313z" />
    <glyph glyph-name="brokenbar" unicode="&#xa6;" horiz-adv-x="579" 
d="M426 1434v-758h-270v758h270zM426 401v-772h-270v772h270z" />
    <glyph glyph-name="section" unicode="&#xa7;" horiz-adv-x="1146" 
d="M326 956q-78 40 -125 106.5t-47 149.5q0 138 124.5 228t301.5 90q173 0 298 -76.5t166 -210.5l-198 -80q-24 74 -95 118t-157 44q-88 0 -141.5 -34.5t-53.5 -94.5q0 -104 170 -147l140 -35q164 -35 260 -145t96 -259q0 -108 -64.5 -200.5t-175.5 -143.5
q76 -38 122 -105.5t46 -150.5q0 -141 -124 -229t-302 -88q-172 0 -297 75.5t-166 208.5l199 82q24 -74 95 -118.5t157 -44.5q88 0 140.5 34t52.5 95q0 53 -45.5 90t-124.5 57l-125 33q-173 35 -272 143.5t-99 261.5q0 110 65.5 202.5t178.5 143.5zM573 399q108 0 175 59.5
t67 149.5q0 88 -67 148.5t-175 60.5t-175.5 -60t-67.5 -149t67.5 -149t175.5 -60z" />
    <glyph glyph-name="dieresis" unicode="&#xa8;" 
d="M229 1350q0 65 44 105t108 40t105.5 -40t41.5 -105q0 -63 -42.5 -104.5t-104.5 -41.5q-64 0 -108 42t-44 104zM700 1350q0 65 44 105t108 40q62 0 104.5 -41.5t42.5 -103.5q0 -63 -42.5 -104.5t-104.5 -41.5q-64 0 -108 42t-44 104z" />
    <glyph glyph-name="copyright" unicode="&#xa9;" horiz-adv-x="1837" 
d="M80 762q-3 169 62 325.5t177 270t269.5 180.5t331.5 64q174 3 331 -64t268.5 -180.5t176 -270t61.5 -325.5q3 -169 -61.5 -326t-176 -271.5t-268.5 -182t-331 -64.5q-174 -3 -331.5 64.5t-269.5 182t-177 271.5t-62 326zM1567 762q2 134 -47 256t-134.5 211t-207.5 140.5
t-258 49.5q-136 2 -258.5 -49.5t-208.5 -140.5t-135.5 -211t-47.5 -256q-2 -179 82.5 -332t235.5 -243t332 -87q136 -2 258 50.5t207.5 142.5t134.5 212.5t47 256.5zM506 760q0 183 115 304.5t301 121.5q127 0 222.5 -59t147.5 -164l-170 -82q-63 116 -198 116
q-103 0 -165.5 -68t-62.5 -169t62.5 -169.5t165.5 -68.5q135 0 198 117l170 -82q-52 -105 -147.5 -164t-222.5 -59q-186 0 -301 121.5t-115 304.5z" />
    <glyph glyph-name="ordfeminine" unicode="&#xaa;" horiz-adv-x="718" 
d="M78 983q0 93 67.5 137.5t188.5 44.5h129v19q0 112 -117 112q-82 0 -108 -75l-125 53q24 68 88 105.5t147 37.5q118 0 188 -62t70 -171v-369h-131v80q-68 -92 -199 -92q-88 0 -143 48.5t-55 131.5zM465 1073h-125q-51 0 -82 -21t-31 -61q0 -80 101 -80q62 0 99.5 46
t37.5 116z" />
    <glyph glyph-name="guillemotleft" unicode="&#xab;" horiz-adv-x="1263" 
d="M666 150h-289l-311 438l311 436h289l-310 -436zM1190 150h-289l-311 438l311 436h289l-307 -436z" />
    <glyph glyph-name="logicalnot" unicode="&#xac;" 
d="M74 659v222h1038v-592h-260v370h-778z" />
    <glyph glyph-name="uni00AD" unicode="&#xad;" horiz-adv-x="843" 
d="M111 702h620v-229h-620v229z" />
    <glyph glyph-name="registered" unicode="&#xae;" horiz-adv-x="1036" 
d="M80 1126q0 186 126 310.5t312 124.5t312 -124.5t126 -310.5t-126 -310t-312 -124t-312 124t-126 310zM846 1126q0 148 -90 238t-238 90t-239 -90t-91 -238t90.5 -238.5t239.5 -90.5q148 0 238 90.5t90 238.5zM342 920v413h215q58 0 99.5 -35.5t41.5 -91.5q0 -43 -24 -73
t-62 -43l103 -170h-115l-90 161h-70v-161h-98zM440 1163h101q23 0 37 11.5t14 31.5t-14 31.5t-37 11.5h-101v-86z" />
    <glyph glyph-name="overscore" unicode="&#xaf;" 
d="M276 1436h676v-207h-676v207z" />
    <glyph glyph-name="degree" unicode="&#xb0;" horiz-adv-x="827" 
d="M68 1128q0 142 98 242t248 100q145 0 246.5 -101.5t101.5 -240.5t-101.5 -240.5t-246.5 -101.5q-150 0 -248 100t-98 242zM594 1128q0 74 -51.5 126.5t-128.5 52.5q-78 0 -129.5 -51.5t-51.5 -127.5q0 -75 51.5 -126.5t129.5 -51.5q77 0 128.5 52t51.5 126z" />
    <glyph glyph-name="plusminus" unicode="&#xb1;" 
d="M113 758v223h385v389h233v-389h385v-223h-385v-322h-233v322h-385zM113 88v223h1003v-223h-1003z" />
    <glyph glyph-name="uni00B2" unicode="&#xb2;" horiz-adv-x="641" 
d="M23 803l329 461q43 58 43 106q0 47 -25.5 75t-68.5 28q-44 0 -70 -28t-26 -75h-146q-2 110 65 178t177 68q111 0 180.5 -64t69.5 -168q0 -85 -74 -188l-182 -254h297v-139h-569z" />
    <glyph glyph-name="uni00B3" unicode="&#xb3;" horiz-adv-x="675" 
d="M29 940l112 94q21 -47 68 -78.5t106 -31.5q71 0 115.5 39.5t44.5 101.5q0 61 -46.5 101t-119.5 40h-90l127 248h-242v139h463l-145 -280q89 -18 148 -83.5t59 -164.5q0 -126 -88 -205q-89 -80 -222 -80q-100 0 -175.5 44.5t-114.5 115.5z" />
    <glyph glyph-name="acute" unicode="&#xb4;" 
d="M410 1147l131 311h303l-238 -311h-196z" />
    <glyph glyph-name="uni00B5" unicode="&#xb5;" horiz-adv-x="1226" 
d="M819 977h258v-977h-248v92q-95 -123 -292 -123q-67 0 -129 19v-398h-258v1387h258v-551q0 -100 54 -157.5t150 -57.5q97 0 152 58t55 157v551z" />
    <glyph glyph-name="paragraph" unicode="&#xb6;" horiz-adv-x="1402" 
d="M745 -137h-270v672h-33q-171 0 -276 121.5t-105 318.5q0 200 106 329.5t275 129.5h303v-1571zM909 1434h414v-252h-141v-1319h-273v1571z" />
    <glyph glyph-name="middot" unicode="&#xb7;" horiz-adv-x="550" 
d="M94 674q0 77 53 126.5t129 49.5t128.5 -49.5t52.5 -126.5q0 -75 -53 -125.5t-128 -50.5q-76 0 -129 51t-53 125z" />
    <glyph glyph-name="cedilla" unicode="&#xb8;" horiz-adv-x="1220" 
d="M393 -356l47 102q42 -25 78 -25q31 0 49.5 13t18.5 37q0 50 -76 65l-76 14l98 197l136 -47l-43 -78q61 -17 97 -59.5t36 -98.5q0 -73 -56.5 -115t-144.5 -42q-86 0 -164 37z" />
    <glyph glyph-name="uni00B9" unicode="&#xb9;" horiz-adv-x="428" 
d="M168 801v559h-150l185 242h125v-801h-160z" />
    <glyph glyph-name="ordmasculine" unicode="&#xba;" horiz-adv-x="776" 
d="M70 1106q0 126 88.5 217.5t228.5 91.5q142 0 231 -91.5t89 -217.5q0 -125 -89.5 -216t-230.5 -91q-140 0 -228.5 91t-88.5 216zM563 1108q0 74 -49.5 123t-124.5 49t-124.5 -49t-49.5 -123t49.5 -124t124.5 -50q73 0 123.5 50t50.5 124z" />
    <glyph glyph-name="guillemotright" unicode="&#xbb;" horiz-adv-x="1263" 
d="M72 150l309 438l-309 436h288l314 -436l-314 -438h-288zM596 150l309 438l-309 436h291l311 -436l-311 -438h-291z" />
    <glyph glyph-name="onequarter" unicode="&#xbc;" horiz-adv-x="1417" 
d="M236 637v559h-150l184 242h125v-801h-159zM102 0l992 1434h180l-991 -1434h-181zM1227 805v-561h106v-140h-106v-112h-144v112h-401l442 701h103zM920 238h163v262z" />
    <glyph glyph-name="onehalf" unicode="&#xbd;" horiz-adv-x="1480" 
d="M236 637v559h-150l184 242h125v-801h-159zM102 0l992 1434h180l-991 -1434h-181zM829 2l330 461q43 58 43 106q0 47 -25.5 75t-68.5 28q-44 0 -70 -28t-26 -75h-146q-2 110 65 178t177 68q111 0 180.5 -63.5t69.5 -167.5q0 -86 -74 -189l-182 -254h297v-139h-570z" />
    <glyph glyph-name="threequarters" unicode="&#xbe;" horiz-adv-x="1587" 
d="M57 776l113 94q21 -47 68 -78.5t106 -31.5q71 0 115.5 39.5t44.5 101.5q0 61 -46.5 101t-119.5 40h-90l127 248h-242v140h463l-145 -281q89 -18 147.5 -83.5t58.5 -164.5q0 -126 -88 -205q-89 -80 -221 -80q-101 0 -176.5 44.5t-114.5 115.5zM266 0l991 1434h181
l-992 -1434h-180zM1393 805v-561h106v-140h-106v-112h-144v112h-401l442 701h103zM1085 238h164v262z" />
    <glyph glyph-name="questiondown" unicode="&#xbf;" horiz-adv-x="1075" 
d="M772 911q0 -77 -53 -126.5t-129 -49.5t-128 49.5t-52 126.5q0 75 52.5 125.5t127.5 50.5q76 0 129 -51t53 -125zM588 625l155 -191l-190 -145q-114 -89 -163.5 -149.5t-49.5 -125.5q0 -80 57.5 -127t159.5 -47q100 0 164.5 53.5t75.5 135.5l229 -58q-22 -163 -150 -271
t-317 -108q-202 0 -341.5 121t-139.5 293q0 103 37 178q41 76 104 140q42 42 195 163z" />
    <glyph glyph-name="Agrave" unicode="&#xc0;" horiz-adv-x="1413" 
d="M12 0l617 1446h155l617 -1446h-291l-102 246h-602l-103 -246h-291zM506 492h401l-200 483zM811 1573h-203l-237 301h321z" />
    <glyph glyph-name="Aacute" unicode="&#xc1;" horiz-adv-x="1413" 
d="M12 0l617 1446h155l617 -1446h-291l-102 246h-602l-103 -246h-291zM506 492h401l-200 483zM610 1573l119 301h320l-236 -301h-203z" />
    <glyph glyph-name="Acircumflex" unicode="&#xc2;" horiz-adv-x="1413" 
d="M12 0l617 1446h155l617 -1446h-291l-102 246h-602l-103 -246h-291zM506 492h401l-200 483zM336 1571l371 311l370 -311h-268l-102 94l-103 -94h-268z" />
    <glyph glyph-name="Atilde" unicode="&#xc3;" horiz-adv-x="1413" 
d="M12 0l617 1446h155l617 -1446h-291l-102 246h-602l-103 -246h-291zM506 492h401l-200 483zM686 1628q-70 37 -94 37q-67 0 -57 -92h-177q-2 10 -2 41q0 105 53 164t154 59q60 0 168 -57q70 -37 96 -37q66 0 56 94h176l2 -37q0 -108 -53 -167.5t-156 -59.5q-22 0 -49 7.5
t-48 16.5t-69 31z" />
    <glyph glyph-name="Adieresis" unicode="&#xc4;" horiz-adv-x="1413" 
d="M12 0l617 1446h155l617 -1446h-291l-102 246h-602l-103 -246h-291zM506 492h401l-200 483zM336 1724q0 67 43 108.5t110 41.5q64 0 107 -42t43 -108q0 -65 -43 -106t-107 -41t-108.5 41t-44.5 106zM772 1724q0 67 44.5 108.5t111.5 41.5q64 0 106.5 -41.5t42.5 -108.5
q0 -65 -42.5 -106t-106.5 -41q-67 0 -111.5 41t-44.5 106z" />
    <glyph glyph-name="Aring" unicode="&#xc5;" horiz-adv-x="1413" 
d="M803 1403l598 -1403h-291l-102 246h-602l-103 -246h-291l598 1403q-67 26 -106 83t-39 128q0 97 69.5 162t172.5 65q102 0 169.5 -65t67.5 -162q0 -74 -37.5 -130t-103.5 -81zM614 1614q0 -38 26 -62t65 -24q37 0 63.5 25t26.5 61t-26.5 60t-63.5 24q-39 0 -65 -24
t-26 -60zM506 492h401l-200 483z" />
    <glyph glyph-name="AE" unicode="&#xc6;" horiz-adv-x="2131" 
d="M-59 0l1054 1434h1035v-252h-662v-353h602v-213h-602v-364h662v-252h-932v272h-643l-197 -272h-317zM612 487h486v670z" />
    <glyph glyph-name="Ccedilla" unicode="&#xc7;" horiz-adv-x="1552" 
d="M1262 483l245 -125q-88 -168 -246 -271t-362 -116l-29 -49q61 -18 97.5 -60t36.5 -98q0 -72 -56 -114.5t-143 -42.5q-88 0 -166 37l47 102q42 -25 80 -25q30 0 47.5 13t17.5 37q0 50 -73 65l-78 14l63 123q-195 22 -347 127.5t-233 266.5t-81 350q-2 149 53.5 286.5
t154 240.5t242 163t306.5 57q225 0 400 -104t269 -285l-245 -125q-57 119 -167 187.5t-257 68.5q-144 0 -255 -68.5t-168 -179t-57 -241.5t57 -242t168 -179.5t255 -68.5q147 0 257 68.5t167 187.5z" />
    <glyph glyph-name="Egrave" unicode="&#xc8;" horiz-adv-x="1220" 
d="M164 1434h956v-252h-686v-334h627v-248h-627v-348h686v-252h-956v1434zM743 1573h-202l-238 301h322z" />
    <glyph glyph-name="Eacute" unicode="&#xc9;" horiz-adv-x="1220" 
d="M164 1434h956v-252h-686v-334h627v-248h-627v-348h686v-252h-956v1434zM543 1573l119 301h319l-236 -301h-202z" />
    <glyph glyph-name="Ecircumflex" unicode="&#xca;" horiz-adv-x="1220" 
d="M164 1434h956v-252h-686v-334h627v-248h-627v-348h686v-252h-956v1434zM268 1571l371 311l371 -311h-269l-102 94l-102 -94h-269z" />
    <glyph glyph-name="Edieresis" unicode="&#xcb;" horiz-adv-x="1220" 
d="M164 1434h956v-252h-686v-334h627v-248h-627v-348h686v-252h-956v1434zM268 1724q0 67 43.5 108.5t110.5 41.5q64 0 106.5 -41.5t42.5 -108.5q0 -65 -42.5 -106t-106.5 -41t-109 41t-45 106zM705 1724q0 67 44 108.5t111 41.5q64 0 107 -42t43 -108q0 -65 -43 -106
t-107 -41q-67 0 -111 41t-44 106z" />
    <glyph glyph-name="Igrave" unicode="&#xcc;" horiz-adv-x="600" 
d="M164 1434h272v-1434h-272v1434zM406 1573h-203l-238 301h322z" />
    <glyph glyph-name="Iacute" unicode="&#xcd;" horiz-adv-x="600" 
d="M164 1434h272v-1434h-272v1434zM203 1573l119 301h319l-235 -301h-203z" />
    <glyph glyph-name="Icircumflex" unicode="&#xce;" horiz-adv-x="600" 
d="M164 1434h272v-1434h-272v1434zM-70 1571l371 311l371 -311h-269l-102 94l-102 -94h-269z" />
    <glyph glyph-name="Idieresis" unicode="&#xcf;" horiz-adv-x="600" 
d="M164 1434h272v-1434h-272v1434zM-70 1724q0 67 43.5 108.5t110.5 41.5q64 0 106.5 -41.5t42.5 -108.5q0 -65 -42.5 -106t-106.5 -41t-109 41t-45 106zM367 1724q0 67 44 108.5t111 41.5q64 0 107 -42t43 -108q0 -65 -43 -106t-107 -41q-67 0 -111 41t-44 106z" />
    <glyph glyph-name="Eth" unicode="&#xd0;" horiz-adv-x="1544" 
d="M1460 717q2 -153 -52.5 -286.5t-151.5 -229t-237 -149.5t-302 -52h-553v604h-139v205h139v625h553q162 2 302 -52t237 -149.5t151.5 -229t52.5 -286.5zM1182 715q0 213 -130 340t-364 127h-252v-373h258v-205h-258v-352h252q234 0 364 125t130 338z" />
    <glyph glyph-name="Ntilde" unicode="&#xd1;" horiz-adv-x="1579" 
d="M1260 -12l-824 932l-2 -920h-270v1446h155l822 -932l2 920h272v-1446h-155zM768 1628q-70 37 -94 37q-68 0 -58 -92h-176q-2 10 -2 41q0 105 53 164t154 59q60 0 168 -57q70 -37 96 -37q66 0 56 94h176l2 -37q0 -108 -53 -167.5t-156 -59.5q-22 0 -49 7.5t-48 16.5
t-69 31z" />
    <glyph glyph-name="Ograve" unicode="&#xd2;" horiz-adv-x="1675" 
d="M82 717q-2 149 53.5 286.5t154 240.5t242 163t306.5 57q130 2 249 -36t211 -108.5t159.5 -164t102.5 -206.5t33 -232q2 -151 -54 -289t-154.5 -240.5t-241.5 -162t-305 -56.5q-163 -3 -306.5 56.5t-242 162t-154 240.5t-53.5 289zM1317 717q0 98 -33.5 186.5t-94 155.5
t-152 107t-199.5 40q-145 0 -255.5 -68.5t-166.5 -178.5t-56 -242t56 -242.5t166.5 -179t255.5 -68.5q108 0 199.5 39.5t152 107t94 156.5t33.5 187zM942 1577h-203l-237 301h321z" />
    <glyph glyph-name="Oacute" unicode="&#xd3;" horiz-adv-x="1675" 
d="M82 717q-2 149 53.5 286.5t154 240.5t242 163t306.5 57q130 2 249 -36t211 -108.5t159.5 -164t102.5 -206.5t33 -232q2 -151 -54 -289t-154.5 -240.5t-241.5 -162t-305 -56.5q-163 -3 -306.5 56.5t-242 162t-154 240.5t-53.5 289zM1317 717q0 98 -33.5 186.5t-94 155.5
t-152 107t-199.5 40q-145 0 -255.5 -68.5t-166.5 -178.5t-56 -242t56 -242.5t166.5 -179t255.5 -68.5q108 0 199.5 39.5t152 107t94 156.5t33.5 187zM741 1577l119 301h320l-236 -301h-203z" />
    <glyph glyph-name="Ocircumflex" unicode="&#xd4;" horiz-adv-x="1675" 
d="M82 717q-2 149 53.5 286.5t154 240.5t242 163t306.5 57q130 2 249 -36t211 -108.5t159.5 -164t102.5 -206.5t33 -232q2 -151 -54 -289t-154.5 -240.5t-241.5 -162t-305 -56.5q-163 -3 -306.5 56.5t-242 162t-154 240.5t-53.5 289zM1317 717q0 98 -33.5 186.5t-94 155.5
t-152 107t-199.5 40q-145 0 -255.5 -68.5t-166.5 -178.5t-56 -242t56 -242.5t166.5 -179t255.5 -68.5q108 0 199.5 39.5t152 107t94 156.5t33.5 187zM467 1575l371 311l370 -311h-268l-102 94l-103 -94h-268z" />
    <glyph glyph-name="Otilde" unicode="&#xd5;" horiz-adv-x="1675" 
d="M82 717q-2 149 53.5 286.5t154 240.5t242 163t306.5 57q130 2 249 -36t211 -108.5t159.5 -164t102.5 -206.5t33 -232q2 -151 -54 -289t-154.5 -240.5t-241.5 -162t-305 -56.5q-163 -3 -306.5 56.5t-242 162t-154 240.5t-53.5 289zM1317 717q0 98 -33.5 186.5t-94 155.5
t-152 107t-199.5 40q-145 0 -255.5 -68.5t-166.5 -178.5t-56 -242t56 -242.5t166.5 -179t255.5 -68.5q108 0 199.5 39.5t152 107t94 156.5t33.5 187zM817 1632q-70 37 -94 37q-67 0 -57 -92h-177q-2 10 -2 41q0 105 53 164t154 59q60 0 168 -57q70 -37 96 -37q66 0 56 94
h176l2 -37q0 -108 -53 -167.5t-156 -59.5q-22 0 -49 7.5t-48 16.5t-69 31z" />
    <glyph glyph-name="Odieresis" unicode="&#xd6;" horiz-adv-x="1675" 
d="M82 717q-2 149 53.5 286.5t154 240.5t242 163t306.5 57q130 2 249 -36t211 -108.5t159.5 -164t102.5 -206.5t33 -232q2 -151 -54 -289t-154.5 -240.5t-241.5 -162t-305 -56.5q-163 -3 -306.5 56.5t-242 162t-154 240.5t-53.5 289zM1317 717q0 98 -33.5 186.5t-94 155.5
t-152 107t-199.5 40q-145 0 -255.5 -68.5t-166.5 -178.5t-56 -242t56 -242.5t166.5 -179t255.5 -68.5q108 0 199.5 39.5t152 107t94 156.5t33.5 187zM467 1729q0 67 43.5 108t110.5 41q64 0 106.5 -41.5t42.5 -107.5q0 -65 -42.5 -106.5t-106.5 -41.5t-109 41.5t-45 106.5z
M903 1729q0 66 44.5 107.5t111.5 41.5q64 0 106.5 -41.5t42.5 -107.5q0 -65 -42.5 -106.5t-106.5 -41.5q-67 0 -111.5 41.5t-44.5 106.5z" />
    <glyph glyph-name="multiply" unicode="&#xd7;" 
d="M1057 309l-158 -159l-285 278l-280 -285l-158 160l279 283l-285 280l160 160l282 -278l281 284l160 -160l-281 -282z" />
    <glyph glyph-name="Oslash" unicode="&#xd8;" horiz-adv-x="1675" 
d="M1593 717q2 -151 -54 -289t-154.5 -240.5t-241.5 -162t-305 -56.5q-203 0 -375 90l-68 -90h-254l158 209q-104 103 -160.5 243.5t-56.5 295.5q-2 149 53.5 286.5t154 240.5t242 163t306.5 57q201 0 370 -88l66 86h254l-156 -205q106 -103 163.5 -242.5t57.5 -297.5z
M467 397l580 766q-93 43 -209 43q-145 0 -255.5 -68.5t-166.5 -178.5t-56 -242q0 -182 107 -320zM1317 717q0 188 -111 323l-581 -768q91 -45 213 -45q108 0 199.5 39.5t152 107t94 156.5t33.5 187z" />
    <glyph glyph-name="Ugrave" unicode="&#xd9;" horiz-adv-x="1503" 
d="M147 553v881h271v-863q0 -156 90 -250t244 -94t243.5 94t89.5 250v863h271v-881q0 -123 -40.5 -229t-116 -185t-190.5 -124.5t-257 -45.5q-140 0 -255.5 45.5t-191.5 124.5t-117 185.5t-41 228.5zM856 1546h-203l-237 301h321z" />
    <glyph glyph-name="Uacute" unicode="&#xda;" horiz-adv-x="1503" 
d="M147 553v881h271v-863q0 -156 90 -250t244 -94t243.5 94t89.5 250v863h271v-881q0 -123 -40.5 -229t-116 -185t-190.5 -124.5t-257 -45.5q-140 0 -255.5 45.5t-191.5 124.5t-117 185.5t-41 228.5zM655 1546l119 301h320l-236 -301h-203z" />
    <glyph glyph-name="Ucircumflex" unicode="&#xdb;" horiz-adv-x="1503" 
d="M147 553v881h271v-863q0 -156 90 -250t244 -94t243.5 94t89.5 250v863h271v-881q0 -123 -40.5 -229t-116 -185t-190.5 -124.5t-257 -45.5q-140 0 -255.5 45.5t-191.5 124.5t-117 185.5t-41 228.5zM381 1544l371 311l370 -311h-268l-102 94l-103 -94h-268z" />
    <glyph glyph-name="Udieresis" unicode="&#xdc;" horiz-adv-x="1503" 
d="M147 553v881h271v-863q0 -156 90 -250t244 -94t243.5 94t89.5 250v863h271v-881q0 -123 -40.5 -229t-116 -185t-190.5 -124.5t-257 -45.5q-140 0 -255.5 45.5t-191.5 124.5t-117 185.5t-41 228.5zM381 1698q0 67 43.5 108t110.5 41q64 0 106.5 -41.5t42.5 -107.5
q0 -65 -42.5 -106.5t-106.5 -41.5t-109 41.5t-45 106.5zM817 1698q0 66 44.5 107.5t111.5 41.5q64 0 106.5 -41.5t42.5 -107.5q0 -65 -42.5 -106.5t-106.5 -41.5q-67 0 -111.5 41.5t-44.5 106.5z" />
    <glyph glyph-name="Yacute" unicode="&#xdd;" horiz-adv-x="1396" 
d="M563 451l-543 983h316l364 -678l361 678h315l-542 -983v-451h-271v451zM604 1546l119 301h319l-235 -301h-203z" />
    <glyph glyph-name="Thorn" unicode="&#xde;" horiz-adv-x="1335" 
d="M1262 723q0 -215 -138 -346t-364 -131h-324v-246h-272v1434h272v-240h324q226 0 364 -129.5t138 -341.5zM983 723q0 106 -70.5 165.5t-185.5 59.5h-291v-454h291q116 0 186 59.5t70 169.5z" />
    <glyph glyph-name="germandbls" unicode="&#xdf;" horiz-adv-x="1271" 
d="M1227 39q0 -206 -144 -342.5t-356 -136.5q-183 0 -332 98l99 211q49 -30 111 -51t108 -21q116 0 184 65t68 177q0 111 -67.5 173t-184.5 62h-199l242 465h-369v-739h-258v1192q0 154 99.5 244t265.5 90q57 0 120 -17v-209q-58 7 -102 7q-60 0 -92.5 -35t-32.5 -96v-199
h758l-260 -481q159 -50 250.5 -171.5t91.5 -285.5z" />
    <glyph glyph-name="agrave" unicode="&#xe0;" horiz-adv-x="1255" 
d="M70 492q0 144 59 261.5t167.5 186t246.5 68.5q199 0 325 -123v92h258v-977h-258v94q-123 -123 -325 -123q-137 0 -246 70t-168 188.5t-59 262.5zM858 492q0 124 -70.5 201t-191.5 77q-120 0 -190 -77t-70 -201q0 -126 69.5 -204.5t190.5 -78.5t191.5 78t70.5 205z
M737 1143h-196l-232 301h303z" />
    <glyph glyph-name="aacute" unicode="&#xe1;" horiz-adv-x="1255" 
d="M70 492q0 144 59 261.5t167.5 186t246.5 68.5q199 0 325 -123v92h258v-977h-258v94q-123 -123 -325 -123q-137 0 -246 70t-168 188.5t-59 262.5zM858 492q0 124 -70.5 201t-191.5 77q-120 0 -190 -77t-70 -201q0 -126 69.5 -204.5t190.5 -78.5t191.5 78t70.5 205z
M532 1139l123 301h303l-231 -301h-195z" />
    <glyph glyph-name="acircumflex" unicode="&#xe2;" horiz-adv-x="1255" 
d="M70 492q0 144 59 261.5t167.5 186t246.5 68.5q199 0 325 -123v92h258v-977h-258v94q-123 -123 -325 -123q-137 0 -246 70t-168 188.5t-59 262.5zM858 492q0 124 -70.5 201t-191.5 77q-120 0 -190 -77t-70 -201q0 -126 69.5 -204.5t190.5 -78.5t191.5 78t70.5 205z
M270 1133l365 313l364 -313h-266l-98 92l-96 -92h-269z" />
    <glyph glyph-name="atilde" unicode="&#xe3;" horiz-adv-x="1255" 
d="M70 492q0 144 59 261.5t167.5 186t246.5 68.5q199 0 325 -123v92h258v-977h-258v94q-123 -123 -325 -123q-137 0 -246 70t-168 188.5t-59 262.5zM858 492q0 124 -70.5 201t-191.5 77q-120 0 -190 -77t-70 -201q0 -126 69.5 -204.5t190.5 -78.5t191.5 78t70.5 205z
M627 1171q-73 37 -107 37t-45.5 -18t-9.5 -62h-166q-4 54 -4 58q0 92 49.5 142t147.5 50q55 0 155 -49q76 -35 105 -35q32 0 44.5 18.5t10.5 61.5h166q4 -54 4 -57q0 -92 -50.5 -142.5t-148.5 -50.5q-55 0 -151 47z" />
    <glyph glyph-name="adieresis" unicode="&#xe4;" horiz-adv-x="1255" 
d="M70 492q0 144 59 261.5t167.5 186t246.5 68.5q199 0 325 -123v92h258v-977h-258v94q-123 -123 -325 -123q-137 0 -246 70t-168 188.5t-59 262.5zM858 492q0 124 -70.5 201t-191.5 77q-120 0 -190 -77t-70 -201q0 -126 69.5 -204.5t190.5 -78.5t191.5 78t70.5 205z
M279 1282q0 63 41.5 103t107.5 40q62 0 103.5 -40.5t41.5 -102.5q0 -61 -41.5 -102t-103.5 -41q-66 0 -107.5 40t-41.5 103zM694 1282q0 62 44 102.5t108 40.5q62 0 103.5 -40.5t41.5 -102.5q0 -61 -41.5 -102t-103.5 -41q-64 0 -108 41t-44 102z" />
    <glyph glyph-name="aring" unicode="&#xe5;" horiz-adv-x="1255" 
d="M70 492q0 144 59 261.5t167.5 186t246.5 68.5q199 0 325 -123v92h258v-977h-258v94q-123 -123 -325 -123q-137 0 -246 70t-168 188.5t-59 262.5zM858 492q0 124 -70.5 201t-191.5 77q-120 0 -190 -77t-70 -201q0 -126 69.5 -204.5t190.5 -78.5t191.5 78t70.5 205z
M418 1321q0 87 63 146t156 59q92 0 152.5 -58.5t60.5 -146.5t-60.5 -147.5t-152.5 -59.5t-155.5 59.5t-63.5 147.5zM719 1321q0 33 -23.5 55.5t-58.5 22.5q-37 0 -60.5 -21.5t-23.5 -56.5t23.5 -56.5t60.5 -21.5q35 0 58.5 22.5t23.5 55.5z" />
    <glyph glyph-name="ae" unicode="&#xe6;" horiz-adv-x="1763" 
d="M66 287q0 143 116 222t307 79h216v35q0 69 -45 108t-125 39q-140 0 -195 -131l-219 106q48 120 158.5 190.5t255.5 70.5q111 0 198.5 -43.5t138.5 -124.5q57 81 150.5 125.5t204.5 44.5q209 0 340 -148t131 -371q0 -61 -8 -94h-713q19 -92 81 -142t159 -50q83 0 138.5 29
t92.5 90l211 -103q-56 -118 -169 -183t-271 -65q-122 0 -224 51.5t-159 139.5q-54 -91 -156 -141t-231 -50q-171 0 -277 83t-106 233zM981 602h461q-19 85 -77 130.5t-148 45.5t-150.5 -45.5t-85.5 -130.5zM707 389h-218q-157 0 -157 -98q0 -46 37 -71t100 -25
q105 0 171.5 53.5t66.5 140.5z" />
    <glyph glyph-name="ccedilla" unicode="&#xe7;" horiz-adv-x="1112" 
d="M840 346l229 -115q-61 -110 -166.5 -177.5t-243.5 -80.5l-26 -47q57 -18 91 -57t34 -92q0 -70 -53.5 -110t-135.5 -40t-157 35l45 96q36 -22 75 -22q62 0 62 47q0 46 -70 61l-73 15l59 118q-200 27 -320 170t-120 342q0 222 147.5 370.5t382.5 148.5q156 0 279 -69
t190 -189l-229 -117q-31 64 -93.5 100.5t-146.5 36.5q-123 0 -195.5 -78t-72.5 -203t72.5 -202.5t195.5 -77.5q84 0 146.5 36.5t93.5 100.5z" />
    <glyph glyph-name="egrave" unicode="&#xe8;" horiz-adv-x="1142" 
d="M1071 397h-731q24 -90 86.5 -142t153.5 -52q160 0 247 125l222 -107q-65 -121 -189 -186.5t-280 -65.5q-227 0 -367.5 147t-140.5 373q0 225 140.5 372t367.5 147q149 0 263 -68t174 -184.5t60 -263.5q0 -26 -6 -95zM346 602h461q-48 176 -227 176q-85 0 -147 -47.5
t-87 -128.5zM682 1143h-197l-231 301h303z" />
    <glyph glyph-name="eacute" unicode="&#xe9;" horiz-adv-x="1142" 
d="M1071 397h-731q24 -90 86.5 -142t153.5 -52q160 0 247 125l222 -107q-65 -121 -189 -186.5t-280 -65.5q-227 0 -367.5 147t-140.5 373q0 225 140.5 372t367.5 147q149 0 263 -68t174 -184.5t60 -263.5q0 -26 -6 -95zM346 602h461q-48 176 -227 176q-85 0 -147 -47.5
t-87 -128.5zM477 1139l123 301h303l-231 -301h-195z" />
    <glyph glyph-name="ecircumflex" unicode="&#xea;" horiz-adv-x="1142" 
d="M1071 397h-731q24 -90 86.5 -142t153.5 -52q160 0 247 125l222 -107q-65 -121 -189 -186.5t-280 -65.5q-227 0 -367.5 147t-140.5 373q0 225 140.5 372t367.5 147q149 0 263 -68t174 -184.5t60 -263.5q0 -26 -6 -95zM346 602h461q-48 176 -227 176q-85 0 -147 -47.5
t-87 -128.5zM215 1133l365 313l364 -313h-266l-98 92l-97 -92h-268z" />
    <glyph glyph-name="edieresis" unicode="&#xeb;" horiz-adv-x="1142" 
d="M1071 397h-731q24 -90 86.5 -142t153.5 -52q160 0 247 125l222 -107q-65 -121 -189 -186.5t-280 -65.5q-227 0 -367.5 147t-140.5 373q0 225 140.5 372t367.5 147q149 0 263 -68t174 -184.5t60 -263.5q0 -26 -6 -95zM346 602h461q-48 176 -227 176q-85 0 -147 -47.5
t-87 -128.5zM223 1282q0 63 42 103t108 40q62 0 103.5 -40.5t41.5 -102.5q0 -61 -41.5 -102t-103.5 -41q-66 0 -108 40t-42 103zM639 1282q0 62 44 102.5t108 40.5q62 0 103.5 -40.5t41.5 -102.5q0 -61 -41.5 -102t-103.5 -41q-64 0 -108 41t-44 102z" />
    <glyph glyph-name="igrave" unicode="&#xec;" horiz-adv-x="516" 
d="M129 977h258v-977h-258v977zM360 1143h-196l-232 301h304z" />
    <glyph glyph-name="iacute" unicode="&#xed;" horiz-adv-x="516" 
d="M129 977h258v-977h-258v977zM156 1139l123 301h303l-232 -301h-194z" />
    <glyph glyph-name="icircumflex" unicode="&#xee;" horiz-adv-x="516" 
d="M129 977h258v-977h-258v977zM-106 1133l364 313l365 -313h-267l-98 92l-96 -92h-268z" />
    <glyph glyph-name="idieresis" unicode="&#xef;" horiz-adv-x="516" 
d="M129 977h258v-977h-258v977zM-98 1282q0 63 41.5 103t107.5 40q62 0 104 -40.5t42 -102.5q0 -61 -42 -102t-104 -41q-66 0 -107.5 40t-41.5 103zM317 1282q0 62 44 102.5t108 40.5q62 0 103.5 -40.5t41.5 -102.5q0 -61 -41.5 -102t-103.5 -41q-64 0 -108 41t-44 102z" />
    <glyph glyph-name="eth" unicode="&#xf0;" horiz-adv-x="1230" 
d="M1147 528q0 -252 -149 -404.5t-388 -152.5q-229 0 -384.5 145t-155.5 361q0 201 143 336t360 135q169 0 279 -110q-54 172 -164 305l-151 -103l-99 129l135 93q-76 70 -163 129l188 127q77 -52 160 -129l149 102l103 -131l-138 -92q134 -160 204.5 -349.5t70.5 -390.5z
M889 477q0 118 -78 196.5t-203 78.5q-119 0 -198.5 -81t-79.5 -194q0 -112 79.5 -193t198.5 -81q125 0 203 78t78 196z" />
    <glyph glyph-name="ntilde" unicode="&#xf1;" horiz-adv-x="1171" 
d="M129 977h248v-92q95 123 293 123q181 0 284 -119.5t103 -317.5v-571h-258v551q0 100 -54.5 157.5t-150.5 57.5q-97 0 -152 -58t-55 -157v-551h-258v977zM580 1171q-73 37 -107 37t-45.5 -18t-9.5 -62h-166q-4 54 -4 58q0 93 49 142.5t147 49.5q56 0 156 -49
q76 -35 105 -35q32 0 44.5 18.5t10.5 61.5h166q4 -54 4 -57q0 -92 -50.5 -142.5t-148.5 -50.5q-55 0 -151 47z" />
    <glyph glyph-name="ograve" unicode="&#xf2;" horiz-adv-x="1202" 
d="M70 492q0 221 147.5 368.5t382.5 147.5q155 0 277.5 -68.5t189 -186t66.5 -261.5q0 -146 -66.5 -264.5t-189 -187.5t-277.5 -69q-156 0 -278 69t-187 187.5t-65 264.5zM872 492q0 124 -73.5 201t-198.5 77q-123 0 -195.5 -77.5t-72.5 -200.5q0 -125 72.5 -204t195.5 -79
q126 0 199 78.5t73 204.5zM702 1143h-196l-232 301h304z" />
    <glyph glyph-name="oacute" unicode="&#xf3;" horiz-adv-x="1202" 
d="M70 492q0 221 147.5 368.5t382.5 147.5q155 0 277.5 -68.5t189 -186t66.5 -261.5q0 -146 -66.5 -264.5t-189 -187.5t-277.5 -69q-156 0 -278 69t-187 187.5t-65 264.5zM872 492q0 124 -73.5 201t-198.5 77q-123 0 -195.5 -77.5t-72.5 -200.5q0 -125 72.5 -204t195.5 -79
q126 0 199 78.5t73 204.5zM498 1139l123 301h303l-232 -301h-194z" />
    <glyph glyph-name="ocircumflex" unicode="&#xf4;" horiz-adv-x="1202" 
d="M70 492q0 221 147.5 368.5t382.5 147.5q155 0 277.5 -68.5t189 -186t66.5 -261.5q0 -146 -66.5 -264.5t-189 -187.5t-277.5 -69q-156 0 -278 69t-187 187.5t-65 264.5zM872 492q0 124 -73.5 201t-198.5 77q-123 0 -195.5 -77.5t-72.5 -200.5q0 -125 72.5 -204t195.5 -79
q126 0 199 78.5t73 204.5zM236 1133l364 313l365 -313h-267l-98 92l-96 -92h-268z" />
    <glyph glyph-name="otilde" unicode="&#xf5;" horiz-adv-x="1202" 
d="M70 492q0 221 147.5 368.5t382.5 147.5q155 0 277.5 -68.5t189 -186t66.5 -261.5q0 -146 -66.5 -264.5t-189 -187.5t-277.5 -69q-156 0 -278 69t-187 187.5t-65 264.5zM872 492q0 124 -73.5 201t-198.5 77q-123 0 -195.5 -77.5t-72.5 -200.5q0 -125 72.5 -204t195.5 -79
q126 0 199 78.5t73 204.5zM592 1171q-73 37 -107 37t-45.5 -18t-9.5 -62h-166q-4 54 -4 58q0 92 49.5 142t147.5 50q55 0 155 -49q76 -35 105 -35q32 0 44.5 18.5t10.5 61.5h166q4 -54 4 -57q0 -92 -50.5 -142.5t-148.5 -50.5q-55 0 -151 47z" />
    <glyph glyph-name="odieresis" unicode="&#xf6;" horiz-adv-x="1202" 
d="M70 492q0 221 147.5 368.5t382.5 147.5q155 0 277.5 -68.5t189 -186t66.5 -261.5q0 -146 -66.5 -264.5t-189 -187.5t-277.5 -69q-156 0 -278 69t-187 187.5t-65 264.5zM872 492q0 124 -73.5 201t-198.5 77q-123 0 -195.5 -77.5t-72.5 -200.5q0 -125 72.5 -204t195.5 -79
q126 0 199 78.5t73 204.5zM244 1282q0 63 41.5 103t107.5 40q62 0 104 -40.5t42 -102.5q0 -61 -42 -102t-104 -41q-66 0 -107.5 40t-41.5 103zM659 1282q0 62 44 102.5t108 40.5q62 0 103.5 -40.5t41.5 -102.5q0 -61 -41.5 -102t-103.5 -41q-64 0 -108 41t-44 102z" />
    <glyph glyph-name="divide" unicode="&#xf7;" 
d="M449 997q0 71 49.5 118.5t122.5 47.5q72 0 121 -47t49 -119q0 -71 -48.5 -117t-121.5 -46t-122.5 46t-49.5 117zM113 477v223h1003v-223h-1003zM449 178q0 71 49.5 118.5t122.5 47.5q72 0 121 -47t49 -119t-49 -119t-121 -47q-73 0 -122.5 47.5t-49.5 118.5z" />
    <glyph glyph-name="oslash" unicode="&#xf8;" horiz-adv-x="1202" 
d="M1133 489q0 -225 -151 -372.5t-380 -147.5q-134 0 -252 56l-55 -76h-154l103 145q-83 70 -128.5 172.5t-45.5 222.5q0 227 151.5 373t380.5 146q138 0 250 -56l55 80h156l-105 -147q83 -70 129 -172.5t46 -223.5zM383 293l334 469q-58 22 -115 22q-124 0 -205 -84
q-80 -83 -80 -211q0 -112 66 -196zM885 489q0 117 -68 197l-334 -471q61 -22 119 -22q126 0 203 83q80 86 80 213z" />
    <glyph glyph-name="ugrave" unicode="&#xf9;" horiz-adv-x="1155" 
d="M786 418v559h258v-582q0 -192 -131 -308t-335 -116t-335.5 116t-131.5 308v582h258v-559q0 -99 56 -158t153 -59t152.5 59t55.5 158zM680 1143h-197l-231 301h303z" />
    <glyph glyph-name="uacute" unicode="&#xfa;" horiz-adv-x="1155" 
d="M786 418v559h258v-582q0 -192 -131 -308t-335 -116t-335.5 116t-131.5 308v582h258v-559q0 -99 56 -158t153 -59t152.5 59t55.5 158zM475 1139l123 301h303l-231 -301h-195z" />
    <glyph glyph-name="ucircumflex" unicode="&#xfb;" horiz-adv-x="1155" 
d="M786 418v559h258v-582q0 -192 -131 -308t-335 -116t-335.5 116t-131.5 308v582h258v-559q0 -99 56 -158t153 -59t152.5 59t55.5 158zM213 1133l365 313l364 -313h-266l-98 92l-97 -92h-268z" />
    <glyph glyph-name="udieresis" unicode="&#xfc;" horiz-adv-x="1155" 
d="M786 418v559h258v-582q0 -192 -131 -308t-335 -116t-335.5 116t-131.5 308v582h258v-559q0 -99 56 -158t153 -59t152.5 59t55.5 158zM221 1282q0 63 42 103t108 40q62 0 103.5 -40.5t41.5 -102.5q0 -61 -41.5 -102t-103.5 -41q-66 0 -108 40t-42 103zM637 1282
q0 62 43.5 102.5t107.5 40.5q62 0 104 -40.5t42 -102.5q0 -61 -42 -102t-104 -41q-63 0 -107 41t-44 102z" />
    <glyph glyph-name="yacute" unicode="&#xfd;" horiz-adv-x="1144" 
d="M844 977h280l-565 -1387h-262l158 398l-439 989h285l283 -660zM459 1139l123 301h303l-232 -301h-194z" />
    <glyph glyph-name="thorn" unicode="&#xfe;" horiz-adv-x="1257" 
d="M129 -410v1905h258v-612q123 123 326 123q210 0 341.5 -149t131.5 -372t-131 -369.5t-342 -146.5q-95 0 -181 28.5t-145 82.5v-490h-258zM920 485q0 127 -70 205t-191 78q-122 0 -192 -78t-70 -205q0 -124 70.5 -201t191.5 -77t191 77t70 201z" />
    <glyph glyph-name="ydieresis" unicode="&#xff;" horiz-adv-x="1144" 
d="M844 977h280l-565 -1387h-262l158 398l-439 989h285l283 -660zM205 1282q0 63 41.5 103t107.5 40q62 0 104 -40.5t42 -102.5q0 -61 -42 -102t-104 -41q-66 0 -107.5 40t-41.5 103zM621 1282q0 62 43.5 102.5t107.5 40.5q62 0 104 -40.5t42 -102.5q0 -61 -42 -102
t-104 -41q-63 0 -107 41t-44 102z" />
    <glyph glyph-name="Amacron" unicode="&#x100;" horiz-adv-x="1413" 
d="M12 0l617 1446h155l617 -1446h-291l-102 246h-602l-103 -246h-291zM506 492h401l-200 483zM399 1788h615v-199h-615v199z" />
    <glyph glyph-name="amacron" unicode="&#x101;" horiz-adv-x="1255" 
d="M70 492q0 144 59 261.5t167.5 186t246.5 68.5q199 0 325 -123v92h258v-977h-258v94q-123 -123 -325 -123q-137 0 -246 70t-168 188.5t-59 262.5zM858 492q0 124 -70.5 201t-191.5 77q-120 0 -190 -77t-70 -201q0 -126 69.5 -204.5t190.5 -78.5t191.5 78t70.5 205z
M332 1348h606v-187h-606v187z" />
    <glyph glyph-name="Abreve" unicode="&#x102;" horiz-adv-x="1413" 
d="M12 0l617 1446h155l617 -1446h-291l-102 246h-602l-103 -246h-291zM506 492h401l-200 483zM375 1858h209q0 -56 34 -89.5t91 -33.5t91 33.5t34 89.5h208q0 -132 -96 -216q-94 -79 -239 -79q-144 0 -238 79q-94 82 -94 216z" />
    <glyph glyph-name="abreve" unicode="&#x103;" horiz-adv-x="1255" 
d="M70 492q0 144 59 261.5t167.5 186t246.5 68.5q199 0 325 -123v92h258v-977h-258v94q-123 -123 -325 -123q-137 0 -246 70t-168 188.5t-59 262.5zM858 492q0 124 -70.5 201t-191.5 77q-120 0 -190 -77t-70 -201q0 -126 69.5 -204.5t190.5 -78.5t191.5 78t70.5 205z
M633 1118q-149 0 -242.5 84.5t-93.5 224.5h215q0 -61 33.5 -98t89.5 -37t89.5 37t33.5 98h213q0 -137 -97 -225q-96 -84 -241 -84z" />
    <glyph glyph-name="Aogonek" unicode="&#x104;" horiz-adv-x="1413" 
d="M1395 -217l26 -150q-80 -45 -166 -45q-89 0 -146.5 53t-57.5 140q0 59 31.5 110t95.5 109h-68l-102 246h-602l-103 -246h-291l617 1446h155l617 -1446l-74 -53q-86 -59 -86 -117q0 -29 22 -49.5t52 -20.5q39 0 80 23zM506 492h401l-200 483z" />
    <glyph glyph-name="aogonek" unicode="&#x105;" horiz-adv-x="1255" 
d="M1122 -205l27 -141q-76 -43 -158 -43q-85 0 -138.5 50.5t-53.5 131.5q0 57 29.5 106t89.5 101h-50v94q-123 -123 -325 -123q-137 0 -246 70t-168 188.5t-59 262.5t59 261.5t167.5 186t246.5 68.5q199 0 325 -123v92h258v-977l-67 -51q-82 -55 -82 -109q0 -29 20 -47
t50 -18q42 0 75 20zM858 492q0 124 -70.5 201t-191.5 77q-120 0 -190 -77t-70 -201q0 -126 69.5 -204.5t190.5 -78.5t191.5 78t70.5 205z" />
    <glyph glyph-name="Cacute" unicode="&#x106;" horiz-adv-x="1552" 
d="M82 717q-2 149 53.5 286.5t154 240.5t242 163t306.5 57q225 0 400 -104t269 -285l-245 -125q-57 119 -167 187.5t-257 68.5q-144 0 -255 -68.5t-168 -179t-57 -241.5t57 -242t168 -179.5t255 -68.5q147 0 257 68.5t167 187.5l245 -125q-94 -181 -269 -285t-400 -104
q-163 -3 -306.5 57.5t-242 163t-154 240.5t-53.5 287zM741 1573l119 301h320l-236 -301h-203z" />
    <glyph glyph-name="cacute" unicode="&#x107;" horiz-adv-x="1112" 
d="M70 489q0 222 147.5 370.5t382.5 148.5q156 0 279 -69t190 -189l-229 -117q-31 64 -93.5 100.5t-146.5 36.5q-123 0 -195.5 -78t-72.5 -203t72.5 -202.5t195.5 -77.5q84 0 146.5 36.5t93.5 100.5l229 -115q-67 -123 -189 -191.5t-280 -68.5q-156 0 -278 69t-187 186.5
t-65 262.5zM492 1139l122 301h304l-232 -301h-194z" />
    <glyph glyph-name="Ccircumflex" unicode="&#x108;" horiz-adv-x="1552" 
d="M82 717q-2 149 53.5 286.5t154 240.5t242 163t306.5 57q225 0 400 -104t269 -285l-245 -125q-57 119 -167 187.5t-257 68.5q-144 0 -255 -68.5t-168 -179t-57 -241.5t57 -242t168 -179.5t255 -68.5q147 0 257 68.5t167 187.5l245 -125q-94 -181 -269 -285t-400 -104
q-163 -3 -306.5 57.5t-242 163t-154 240.5t-53.5 287zM467 1571l371 311l370 -311h-268l-102 94l-103 -94h-268z" />
    <glyph glyph-name="ccircumflex" unicode="&#x109;" horiz-adv-x="1112" 
d="M70 489q0 222 147.5 370.5t382.5 148.5q156 0 279 -69t190 -189l-229 -117q-31 64 -93.5 100.5t-146.5 36.5q-123 0 -195.5 -78t-72.5 -203t72.5 -202.5t195.5 -77.5q84 0 146.5 36.5t93.5 100.5l229 -115q-67 -123 -189 -191.5t-280 -68.5q-156 0 -278 69t-187 186.5
t-65 262.5zM229 1133l365 313l364 -313h-266l-98 92l-96 -92h-269z" />
    <glyph glyph-name="Cdotaccent" unicode="&#x10a;" horiz-adv-x="1552" 
d="M82 717q-2 149 53.5 286.5t154 240.5t242 163t306.5 57q225 0 400 -104t269 -285l-245 -125q-57 119 -167 187.5t-257 68.5q-144 0 -255 -68.5t-168 -179t-57 -241.5t57 -242t168 -179.5t255 -68.5q147 0 257 68.5t167 187.5l245 -125q-94 -181 -269 -285t-400 -104
q-163 -3 -306.5 57.5t-242 163t-154 240.5t-53.5 287zM684 1731q0 63 44 105t110 42t109.5 -42t43.5 -105t-43.5 -105.5t-109.5 -42.5t-110 42.5t-44 105.5z" />
    <glyph glyph-name="cdotaccent" unicode="&#x10b;" horiz-adv-x="1112" 
d="M70 489q0 222 147.5 370.5t382.5 148.5q156 0 279 -69t190 -189l-229 -117q-31 64 -93.5 100.5t-146.5 36.5q-123 0 -195.5 -78t-72.5 -203t72.5 -202.5t195.5 -77.5q84 0 146.5 36.5t93.5 100.5l229 -115q-67 -123 -189 -191.5t-280 -68.5q-156 0 -278 69t-187 186.5
t-65 262.5zM442 1288q0 63 44 104.5t110 41.5q62 0 104.5 -41.5t42.5 -104.5q0 -61 -42.5 -103t-104.5 -42q-66 0 -110 41t-44 104z" />
    <glyph glyph-name="Ccaron" unicode="&#x10c;" horiz-adv-x="1552" 
d="M82 717q-2 149 53.5 286.5t154 240.5t242 163t306.5 57q225 0 400 -104t269 -285l-245 -125q-57 119 -167 187.5t-257 68.5q-144 0 -255 -68.5t-168 -179t-57 -241.5t57 -242t168 -179.5t255 -68.5q147 0 257 68.5t167 187.5l245 -125q-94 -181 -269 -285t-400 -104
q-163 -3 -306.5 57.5t-242 163t-154 240.5t-53.5 287zM838 1546l-379 309h266l113 -96l112 96h267z" />
    <glyph glyph-name="ccaron" unicode="&#x10d;" horiz-adv-x="1112" 
d="M70 489q0 222 147.5 370.5t382.5 148.5q156 0 279 -69t190 -189l-229 -117q-31 64 -93.5 100.5t-146.5 36.5q-123 0 -195.5 -78t-72.5 -203t72.5 -202.5t195.5 -77.5q84 0 146.5 36.5t93.5 100.5l229 -115q-67 -123 -189 -191.5t-280 -68.5q-156 0 -278 69t-187 186.5
t-65 262.5zM594 1108l-358 311h266l92 -92l92 92h266z" />
    <glyph glyph-name="Dcaron" unicode="&#x10e;" horiz-adv-x="1544" 
d="M164 0v1434h553q162 2 302 -52t237 -149.5t151.5 -229t52.5 -286.5q2 -153 -52.5 -286.5t-151.5 -229t-237 -149.5t-302 -52h-553zM436 252h252q234 0 364 125t130 338t-130 340t-364 127h-252v-930zM694 1546l-379 309h267l112 -96l113 96h266z" />
    <glyph glyph-name="dcaron" unicode="&#x10f;" horiz-adv-x="1257" 
d="M72 492q0 223 131 369.5t342 146.5q95 0 180.5 -28.5t144.5 -82.5v598h258v-1495h-258v94q-123 -123 -325 -123q-210 0 -341.5 149t-131.5 372zM860 492q0 124 -70.5 201t-191.5 77t-190.5 -77t-69.5 -201q0 -127 69.5 -205t190.5 -78q122 0 192 78t70 205zM1391 1008
h-138v487h314z" />
    <glyph glyph-name="Dcroat" unicode="&#x110;" horiz-adv-x="1544" 
d="M1460 717q2 -153 -52.5 -286.5t-151.5 -229t-237 -149.5t-302 -52h-553v604h-139v205h139v625h553q162 2 302 -52t237 -149.5t151.5 -229t52.5 -286.5zM1182 715q0 213 -130 340t-364 127h-252v-373h258v-205h-258v-352h252q234 0 364 125t130 338z" />
    <glyph glyph-name="dslash" unicode="&#x111;" horiz-adv-x="1257" 
d="M1292 1286v-205h-164v-1081h-258v94q-123 -123 -325 -123q-210 0 -341.5 149t-131.5 372t131 369.5t342 146.5q95 0 180.5 -28.5t144.5 -82.5v184h-247v205h247v209h258v-209h164zM860 492q0 124 -70.5 201t-191.5 77t-190.5 -77t-69.5 -201q0 -127 69.5 -205t190.5 -78
q122 0 192 78t70 205z" />
    <glyph glyph-name="Emacron" unicode="&#x112;" horiz-adv-x="1220" 
d="M164 1434h956v-252h-686v-334h627v-248h-627v-348h686v-252h-956v1434zM332 1788h614v-199h-614v199z" />
    <glyph glyph-name="emacron" unicode="&#x113;" horiz-adv-x="1142" 
d="M1071 397h-731q24 -90 86.5 -142t153.5 -52q160 0 247 125l222 -107q-65 -121 -189 -186.5t-280 -65.5q-227 0 -367.5 147t-140.5 373q0 225 140.5 372t367.5 147q149 0 263 -68t174 -184.5t60 -263.5q0 -26 -6 -95zM346 602h461q-48 176 -227 176q-85 0 -147 -47.5
t-87 -128.5zM276 1348h607v-187h-607v187z" />
    <glyph glyph-name="Ebreve" unicode="&#x114;" horiz-adv-x="1220" 
d="M164 1434h956v-252h-686v-334h627v-248h-627v-348h686v-252h-956v1434zM307 1858h209q0 -56 34 -89.5t91 -33.5t91 33.5t34 89.5h209q0 -132 -96 -216q-94 -79 -240 -79q-144 0 -238 79q-94 82 -94 216z" />
    <glyph glyph-name="ebreve" unicode="&#x115;" horiz-adv-x="1142" 
d="M1071 397h-731q24 -90 86.5 -142t153.5 -52q160 0 247 125l222 -107q-65 -121 -189 -186.5t-280 -65.5q-227 0 -367.5 147t-140.5 373q0 225 140.5 372t367.5 147q149 0 263 -68t174 -184.5t60 -263.5q0 -26 -6 -95zM346 602h461q-48 176 -227 176q-85 0 -147 -47.5
t-87 -128.5zM578 1118q-149 0 -242.5 84.5t-93.5 224.5h215q0 -61 33.5 -98t89.5 -37t89 37t33 98h213q0 -138 -96 -225q-96 -84 -241 -84z" />
    <glyph glyph-name="Edotaccent" unicode="&#x116;" horiz-adv-x="1220" 
d="M164 1434h956v-252h-686v-334h627v-248h-627v-348h686v-252h-956v1434zM485 1731q0 63 44 105t110 42t110 -42t44 -105t-44 -105.5t-110 -42.5t-110 42.5t-44 105.5z" />
    <glyph glyph-name="edotaccent" unicode="&#x117;" horiz-adv-x="1142" 
d="M1071 397h-731q24 -90 86.5 -142t153.5 -52q160 0 247 125l222 -107q-65 -121 -189 -186.5t-280 -65.5q-227 0 -367.5 147t-140.5 373q0 225 140.5 372t367.5 147q149 0 263 -68t174 -184.5t60 -263.5q0 -26 -6 -95zM346 602h461q-48 176 -227 176q-85 0 -147 -47.5
t-87 -128.5zM428 1288q0 63 44 104.5t110 41.5q62 0 104.5 -41.5t42.5 -104.5q0 -61 -42.5 -103t-104.5 -42q-66 0 -110 41t-44 104z" />
    <glyph glyph-name="Eogonek" unicode="&#x118;" horiz-adv-x="1220" 
d="M1182 -197l26 -149q-80 -45 -166 -45q-89 0 -146.5 52.5t-57.5 139.5q0 105 104 199h-778v1434h956v-252h-686v-334h627v-248h-627v-348h686v-193l68 -39l-74 -53q-86 -59 -86 -117q0 -29 22 -49t52 -20q41 0 80 22z" />
    <glyph glyph-name="eogonek" unicode="&#x119;" horiz-adv-x="1142" 
d="M651 -211q0 115 70 197q-66 -17 -141 -17q-227 0 -367.5 147t-140.5 373q0 225 140.5 372t367.5 147q225 0 361 -145.5t136 -370.5q0 -26 -6 -95h-731q24 -90 86.5 -142t153.5 -52q159 0 243 125l219 -107q-110 -152 -133 -188q-78 -120 -78 -191q0 -33 20.5 -50
t51.5 -17q36 0 72 20l26 -141q-79 -43 -157 -43q-82 0 -137.5 50.5t-55.5 127.5zM346 602h461q-24 84 -81 130t-146 46q-87 0 -148 -46.5t-86 -129.5z" />
    <glyph glyph-name="Ecaron" unicode="&#x11a;" horiz-adv-x="1220" 
d="M164 1434h956v-252h-686v-334h627v-248h-627v-348h686v-252h-956v1434zM639 1546l-379 309h266l113 -96l113 96h266z" />
    <glyph glyph-name="ecaron" unicode="&#x11b;" horiz-adv-x="1142" 
d="M1071 397h-731q24 -90 86.5 -142t153.5 -52q160 0 247 125l222 -107q-65 -121 -189 -186.5t-280 -65.5q-227 0 -367.5 147t-140.5 373q0 225 140.5 372t367.5 147q149 0 263 -68t174 -184.5t60 -263.5q0 -26 -6 -95zM346 602h461q-48 176 -227 176q-85 0 -147 -47.5
t-87 -128.5zM580 1108l-359 311h266l93 -92l92 92h266z" />
    <glyph glyph-name="Gcircumflex" unicode="&#x11c;" horiz-adv-x="1648" 
d="M1587 717q1 -149 -54.5 -287t-153 -240.5t-239 -163t-302.5 -57.5q-163 -3 -306.5 57.5t-242 163t-154 240.5t-53.5 287q-2 149 53.5 286.5t154 240.5t242 163t306.5 57q165 0 308 -59t247 -166l-203 -178q-63 69 -153.5 107t-198.5 38q-145 0 -255.5 -68.5
t-166.5 -178.5t-56 -242q0 -98 33 -186.5t93 -156t151.5 -107.5t200.5 -40q158 0 273.5 81.5t166.5 219.5l-221 269h526q4 -62 4 -80zM467 1583l371 311l370 -311h-268l-102 94l-103 -94h-268z" />
    <glyph glyph-name="gcircumflex" unicode="&#x11d;" horiz-adv-x="1226" 
d="M119 -70h262q9 -143 207 -143q117 0 185.5 56t68.5 159v117q-119 -119 -310 -119q-134 0 -240 67t-163 182t-57 257q0 140 57 254t163 181t240 67q185 0 310 -119v88h258v-948q0 -218 -141 -343.5t-371 -125.5q-205 0 -336 94q-133 95 -133 276zM834 506
q0 117 -67.5 190.5t-182.5 73.5t-182.5 -73.5t-67.5 -190.5q0 -119 67.5 -194.5t182.5 -75.5q116 0 183 74.5t67 195.5zM240 1133l364 313l365 -313h-267l-98 92l-96 -92h-268z" />
    <glyph glyph-name="Gbreve" unicode="&#x11e;" horiz-adv-x="1648" 
d="M1587 717q1 -149 -54.5 -287t-153 -240.5t-239 -163t-302.5 -57.5q-163 -3 -306.5 57.5t-242 163t-154 240.5t-53.5 287q-2 149 53.5 286.5t154 240.5t242 163t306.5 57q165 0 308 -59t247 -166l-203 -178q-63 69 -153.5 107t-198.5 38q-145 0 -255.5 -68.5
t-166.5 -178.5t-56 -242q0 -98 33 -186.5t93 -156t151.5 -107.5t200.5 -40q158 0 273.5 81.5t166.5 219.5l-221 269h526q4 -62 4 -80zM506 1870h209q0 -56 34 -89.5t91 -33.5t91 33.5t34 89.5h209q0 -130 -97 -215q-95 -80 -239 -80q-143 0 -238 80q-94 82 -94 215z" />
    <glyph glyph-name="gbreve" unicode="&#x11f;" horiz-adv-x="1226" 
d="M119 -70h262q9 -143 207 -143q117 0 185.5 56t68.5 159v117q-119 -119 -310 -119q-134 0 -240 67t-163 182t-57 257q0 140 57 254t163 181t240 67q185 0 310 -119v88h258v-948q0 -218 -141 -343.5t-371 -125.5q-205 0 -336 94q-133 95 -133 276zM834 506
q0 117 -67.5 190.5t-182.5 73.5t-182.5 -73.5t-67.5 -190.5q0 -119 67.5 -194.5t182.5 -75.5q116 0 183 74.5t67 195.5zM602 1118q-149 0 -242.5 84.5t-93.5 224.5h215q0 -61 33.5 -98t89.5 -37t89.5 37t33.5 98h213q0 -138 -96 -225q-96 -84 -242 -84z" />
    <glyph glyph-name="Gdotaccent" unicode="&#x120;" horiz-adv-x="1648" 
d="M1587 717q1 -149 -54.5 -287t-153 -240.5t-239 -163t-302.5 -57.5q-163 -3 -306.5 57.5t-242 163t-154 240.5t-53.5 287q-2 149 53.5 286.5t154 240.5t242 163t306.5 57q165 0 308 -59t247 -166l-203 -178q-63 69 -153.5 107t-198.5 38q-145 0 -255.5 -68.5
t-166.5 -178.5t-56 -242q0 -98 33 -186.5t93 -156t151.5 -107.5t200.5 -40q158 0 273.5 81.5t166.5 219.5l-221 269h526q4 -62 4 -80zM684 1743q0 63 44 105t110 42t109.5 -42t43.5 -105t-43.5 -105.5t-109.5 -42.5t-110 42.5t-44 105.5z" />
    <glyph glyph-name="gdotaccent" unicode="&#x121;" horiz-adv-x="1226" 
d="M119 -70h262q9 -143 207 -143q117 0 185.5 56t68.5 159v117q-119 -119 -310 -119q-134 0 -240 67t-163 182t-57 257q0 140 57 254t163 181t240 67q185 0 310 -119v88h258v-948q0 -218 -141 -343.5t-371 -125.5q-205 0 -336 94q-133 95 -133 276zM834 506
q0 117 -67.5 190.5t-182.5 73.5t-182.5 -73.5t-67.5 -190.5q0 -119 67.5 -194.5t182.5 -75.5q116 0 183 74.5t67 195.5zM453 1288q0 63 43.5 104.5t109.5 41.5q62 0 105 -42t43 -104q0 -61 -43 -103t-105 -42q-66 0 -109.5 41t-43.5 104z" />
    <glyph glyph-name="uni0122" unicode="&#x122;" horiz-adv-x="1648" 
d="M1587 717q1 -149 -54.5 -287t-153 -240.5t-239 -163t-302.5 -57.5q-163 -3 -306.5 57.5t-242 163t-154 240.5t-53.5 287q-2 149 53.5 286.5t154 240.5t242 163t306.5 57q165 0 308 -59t247 -166l-203 -178q-63 69 -153.5 107t-198.5 38q-145 0 -255.5 -68.5
t-166.5 -178.5t-56 -242q0 -98 33 -186.5t93 -156t151.5 -107.5t200.5 -40q158 0 273.5 81.5t166.5 219.5l-221 269h526q4 -62 4 -80zM600 -461l105 311h290l-227 -311h-168z" />
    <glyph glyph-name="uni0123" unicode="&#x123;" horiz-adv-x="1226" 
d="M119 -70h262q9 -143 207 -143q117 0 185.5 56t68.5 159v117q-119 -119 -310 -119q-134 0 -240 67t-163 182t-57 257q0 140 57 254t163 181t240 67q185 0 310 -119v88h258v-948q0 -218 -141 -343.5t-371 -125.5q-205 0 -336 94q-133 95 -133 276zM834 506
q0 117 -67.5 190.5t-182.5 73.5t-182.5 -73.5t-67.5 -190.5q0 -119 67.5 -194.5t182.5 -75.5q116 0 183 74.5t67 195.5zM748 1493v-330h-291l153 330h138z" />
    <glyph glyph-name="Hcircumflex" unicode="&#x124;" horiz-adv-x="1572" 
d="M164 1434h272v-584h701v584h270v-1434h-270v598h-701v-598h-272v1434zM416 1563l370 311l371 -311h-268l-103 94l-102 -94h-268z" />
    <glyph glyph-name="hcircumflex" unicode="&#x125;" horiz-adv-x="1167" 
d="M129 1495h248v-610q95 123 291 123q180 0 282.5 -119.5t102.5 -317.5v-571h-258v551q0 100 -53.5 157.5t-149.5 57.5t-150.5 -57.5t-54.5 -157.5v-551h-258v1495zM248 1587l364 314l365 -314h-266l-99 92l-96 -92h-268z" />
    <glyph glyph-name="Hbar" unicode="&#x126;" horiz-adv-x="1572" 
d="M1528 1217v-164h-121v-1053h-270v598h-701v-598h-272v1053h-117v164h117v217h272v-217h701v217h270v-217h121zM1137 850v203h-701v-203h701z" />
    <glyph glyph-name="hbar" unicode="&#x127;" horiz-adv-x="1167" 
d="M1053 571v-571h-258v551q0 100 -53.5 157.5t-149.5 57.5t-150.5 -57.5t-54.5 -157.5v-551h-258v1112h-143v205h143v178h248v-178h278v-205h-278v-227q95 123 291 123q180 0 282.5 -119.5t102.5 -317.5z" />
    <glyph glyph-name="Itilde" unicode="&#x128;" horiz-adv-x="600" 
d="M164 1434h272v-1434h-272v1434zM281 1628q-70 37 -95 37q-67 0 -57 -92h-176q-2 10 -2 41q0 105 53 164t154 59q60 0 168 -57q70 -37 96 -37q65 0 55 94h176l2 -37q0 -108 -53 -167.5t-156 -59.5q-22 0 -49 7.5t-47 16t-69 31.5z" />
    <glyph glyph-name="itilde" unicode="&#x129;" horiz-adv-x="516" 
d="M129 977h258v-977h-258v977zM250 1171q-73 37 -107 37t-45.5 -18t-9.5 -62h-166q-4 54 -4 58q0 92 49.5 142t147.5 50q55 0 155 -49q76 -35 105 -35q32 0 44.5 18.5t10.5 61.5h166q4 -54 4 -57q0 -92 -50.5 -142.5t-148.5 -50.5q-55 0 -151 47z" />
    <glyph glyph-name="Imacron" unicode="&#x12a;" horiz-adv-x="600" 
d="M164 1434h272v-1434h-272v1434zM-6 1788h614v-199h-614v199z" />
    <glyph glyph-name="imacron" unicode="&#x12b;" horiz-adv-x="516" 
d="M129 977h258v-977h-258v977zM-45 1348h606v-187h-606v187z" />
    <glyph glyph-name="Ibreve" unicode="&#x12c;" horiz-adv-x="600" 
d="M164 1434h272v-1434h-272v1434zM-31 1858h209q0 -56 34 -89.5t91 -33.5t91 33.5t34 89.5h209q0 -132 -96 -216q-94 -79 -240 -79q-144 0 -238 79q-94 82 -94 216z" />
    <glyph glyph-name="ibreve" unicode="&#x12d;" horiz-adv-x="516" 
d="M129 977h258v-977h-258v977zM256 1118q-149 0 -242.5 84.5t-93.5 224.5h215q0 -61 33.5 -98t89.5 -37t89.5 37t33.5 98h213q0 -138 -96 -225q-96 -84 -242 -84z" />
    <glyph glyph-name="Iogonek" unicode="&#x12e;" horiz-adv-x="600" 
d="M430 -217l27 -150q-80 -45 -166 -45q-89 0 -147 53t-58 140q0 59 31.5 110t95.5 109h-49v1434h272v-1434l-74 -53q-86 -59 -86 -117q0 -29 22 -49.5t52 -20.5q39 0 80 23z" />
    <glyph glyph-name="iogonek" unicode="&#x12f;" horiz-adv-x="518" 
d="M90 1284q0 71 48.5 116.5t121.5 45.5q70 0 119 -45.5t49 -116.5q0 -68 -49 -115t-119 -47q-72 0 -121 46.5t-49 115.5zM59 -209q0 103 119 209h-47v977h258v-977l-70 -51q-79 -56 -79 -109q0 -29 19.5 -47t49.5 -18q43 0 72 20l27 -141q-76 -43 -158 -43q-83 0 -137 49.5
t-54 130.5z" />
    <glyph glyph-name="Idot" unicode="&#x130;" horiz-adv-x="600" 
d="M164 1434h272v-1434h-272v1434zM147 1731q0 63 44 105t110 42t110 -42t44 -105t-44 -105.5t-110 -42.5t-110 42.5t-44 105.5z" />
    <glyph glyph-name="dotlessi" unicode="&#x131;" horiz-adv-x="516" 
d="M129 977h258v-977h-258v977z" />
    <glyph glyph-name="IJ" unicode="&#x132;" horiz-adv-x="1851" 
d="M164 1434h272v-1434h-272v1434zM637 518h270q0 -134 70 -212.5t192 -78.5q126 0 194.5 79t68.5 216v912h270v-916q0 -251 -142.5 -400t-390.5 -149q-247 0 -389.5 149t-142.5 400z" />
    <glyph glyph-name="ij" unicode="&#x133;" horiz-adv-x="1034" 
d="M90 1284q0 69 48 115.5t120 46.5t120 -46.5t48 -115.5t-48 -115.5t-120 -46.5t-120 46.5t-48 115.5zM129 977h258v-977h-258v977zM606 1284q0 71 49 116.5t119 45.5t119 -45.5t49 -116.5q0 -67 -49.5 -113.5t-118.5 -46.5t-118.5 46.5t-49.5 113.5zM645 -410v1387h258
v-1387h-258z" />
    <glyph glyph-name="Jcircumflex" unicode="&#x134;" horiz-adv-x="1251" 
d="M37 518h270q0 -134 70 -212.5t192 -78.5q126 0 194 79t68 216v912h271v-916q0 -251 -142.5 -400t-390.5 -149q-247 0 -389.5 149t-142.5 400zM596 1571l371 311l370 -311h-268l-102 94l-103 -94h-268z" />
    <glyph glyph-name="jcircumflex" unicode="&#x135;" horiz-adv-x="516" 
d="M129 -410v1387h258v-1387h-258zM-106 1133l364 313l365 -313h-267l-98 92l-96 -92h-268z" />
    <glyph glyph-name="uni0136" unicode="&#x136;" horiz-adv-x="1376" 
d="M164 0v1434h274v-789l582 789h313l-491 -666l534 -768h-325l-402 588h-211v-588h-274zM489 -461l105 311h291l-228 -311h-168z" />
    <glyph glyph-name="uni0137" unicode="&#x137;" horiz-adv-x="1126" 
d="M129 0v1495h258v-1055l377 537h295l-305 -418l356 -559h-297l-266 426h-160v-426h-258zM334 -461l104 311h291l-227 -311h-168z" />
    <glyph glyph-name="kgreenlandic" unicode="&#x138;" horiz-adv-x="1118" 
d="M125 0v977h258v-537l377 537h293l-308 -420l359 -557h-297l-264 426h-160v-426h-258z" />
    <glyph glyph-name="Lacute" unicode="&#x139;" horiz-adv-x="1132" 
d="M164 0v1434h272v-1182h662v-252h-934zM199 1573l118 301h320l-236 -301h-202z" />
    <glyph glyph-name="lacute" unicode="&#x13a;" horiz-adv-x="516" 
d="M129 0v1495h258v-1495h-258zM160 1610l119 301h319l-236 -301h-202z" />
    <glyph glyph-name="uni013B" unicode="&#x13b;" horiz-adv-x="1132" 
d="M164 0v1434h272v-1182h662v-252h-934zM367 -461l104 311h291l-227 -311h-168z" />
    <glyph glyph-name="uni013C" unicode="&#x13c;" horiz-adv-x="516" 
d="M129 0v1495h258v-1495h-258zM2 -461l104 311h291l-227 -311h-168z" />
    <glyph glyph-name="Lcaron" unicode="&#x13d;" horiz-adv-x="1132" 
d="M164 0v1434h272v-1182h662v-252h-934zM780 977h-131v457h299z" />
    <glyph glyph-name="lcaron" unicode="&#x13e;" horiz-adv-x="516" 
d="M129 0v1495h258v-1495h-258zM649 1032h-137v463h313z" />
    <glyph glyph-name="Ldot" unicode="&#x13f;" horiz-adv-x="1132" 
d="M164 0v1434h272v-1182h662v-252h-934zM700 791q0 65 45.5 108t112.5 43t111.5 -42.5t44.5 -108.5q0 -63 -45 -106.5t-111 -43.5t-112 43.5t-46 106.5z" />
    <glyph glyph-name="ldot" unicode="&#x140;" horiz-adv-x="722" 
d="M129 0v1495h258v-1495h-258zM463 745q0 65 45.5 108.5t112.5 43.5q66 0 110.5 -43t44.5 -109q0 -63 -44.5 -106t-110.5 -43t-112 43t-46 106z" />
    <glyph glyph-name="Lslash" unicode="&#x141;" horiz-adv-x="1200" 
d="M70 365v202l161 113v754h273v-568l241 170v-205l-241 -169v-410h661v-252h-934v479z" />
    <glyph glyph-name="lslash" unicode="&#x142;" horiz-adv-x="716" 
d="M55 430v201l187 131v733h258v-559l186 131v-203l-186 -129v-735h-258v561z" />
    <glyph glyph-name="Nacute" unicode="&#x143;" horiz-adv-x="1579" 
d="M1260 -12l-824 932l-2 -920h-270v1446h155l822 -932l2 920h272v-1446h-155zM692 1573l119 301h319l-235 -301h-203z" />
    <glyph glyph-name="nacute" unicode="&#x144;" horiz-adv-x="1171" 
d="M129 977h248v-92q95 123 293 123q181 0 284 -119.5t103 -317.5v-571h-258v551q0 100 -54.5 157.5t-150.5 57.5q-97 0 -152 -58t-55 -157v-551h-258v977zM485 1139l123 301h303l-231 -301h-195z" />
    <glyph glyph-name="uni0145" unicode="&#x145;" horiz-adv-x="1579" 
d="M1260 -12l-824 932l-2 -920h-270v1446h155l822 -932l2 920h272v-1446h-155zM551 -461l104 311h291l-227 -311h-168z" />
    <glyph glyph-name="uni0146" unicode="&#x146;" horiz-adv-x="1171" 
d="M129 977h248v-92q95 123 293 123q181 0 284 -119.5t103 -317.5v-571h-258v551q0 100 -54.5 157.5t-150.5 57.5q-97 0 -152 -58t-55 -157v-551h-258v977zM350 -461l105 311h290l-227 -311h-168z" />
    <glyph glyph-name="Ncaron" unicode="&#x147;" horiz-adv-x="1579" 
d="M1260 -12l-824 932l-2 -920h-270v1446h155l822 -932l2 920h272v-1446h-155zM788 1546l-378 309h266l112 -96l113 96h266z" />
    <glyph glyph-name="ncaron" unicode="&#x148;" horiz-adv-x="1171" 
d="M129 977h248v-92q95 123 293 123q181 0 284 -119.5t103 -317.5v-571h-258v551q0 100 -54.5 157.5t-150.5 57.5q-97 0 -152 -58t-55 -157v-551h-258v977zM588 1108l-359 311h267l92 -92l92 92h266z" />
    <glyph glyph-name="Eng" unicode="&#x14a;" horiz-adv-x="1579" 
d="M854 -350l92 209q52 -25 92 -25q48 0 76.5 39t28.5 96v152l-707 799l-2 -920h-270v1446h155l822 -932l2 920h272v-1467q0 -171 -99.5 -273t-268.5 -102q-99 0 -193 58z" />
    <glyph glyph-name="eng" unicode="&#x14b;" horiz-adv-x="1167" 
d="M489 -346l84 174q38 -23 82 -23q67 0 103.5 42.5t36.5 115.5v588q0 100 -53.5 157.5t-149.5 57.5t-150.5 -57.5t-54.5 -157.5v-551h-258v977h248v-92q95 123 291 123q180 0 282.5 -119.5t102.5 -317.5v-610q0 -161 -98.5 -258.5t-262.5 -97.5q-112 0 -203 49z" />
    <glyph glyph-name="Omacron" unicode="&#x14c;" horiz-adv-x="1675" 
d="M82 717q-2 149 53.5 286.5t154 240.5t242 163t306.5 57q130 2 249 -36t211 -108.5t159.5 -164t102.5 -206.5t33 -232q2 -151 -54 -289t-154.5 -240.5t-241.5 -162t-305 -56.5q-163 -3 -306.5 56.5t-242 162t-154 240.5t-53.5 289zM1317 717q0 98 -33.5 186.5t-94 155.5
t-152 107t-199.5 40q-145 0 -255.5 -68.5t-166.5 -178.5t-56 -242t56 -242.5t166.5 -179t255.5 -68.5q108 0 199.5 39.5t152 107t94 156.5t33.5 187zM530 1792h615v-199h-615v199z" />
    <glyph glyph-name="omacron" unicode="&#x14d;" horiz-adv-x="1202" 
d="M70 492q0 221 147.5 368.5t382.5 147.5q155 0 277.5 -68.5t189 -186t66.5 -261.5q0 -146 -66.5 -264.5t-189 -187.5t-277.5 -69q-156 0 -278 69t-187 187.5t-65 264.5zM872 492q0 124 -73.5 201t-198.5 77q-123 0 -195.5 -77.5t-72.5 -200.5q0 -125 72.5 -204t195.5 -79
q126 0 199 78.5t73 204.5zM297 1348h606v-187h-606v187z" />
    <glyph glyph-name="Obreve" unicode="&#x14e;" horiz-adv-x="1675" 
d="M82 717q-2 149 53.5 286.5t154 240.5t242 163t306.5 57q130 2 249 -36t211 -108.5t159.5 -164t102.5 -206.5t33 -232q2 -151 -54 -289t-154.5 -240.5t-241.5 -162t-305 -56.5q-163 -3 -306.5 56.5t-242 162t-154 240.5t-53.5 289zM1317 717q0 98 -33.5 186.5t-94 155.5
t-152 107t-199.5 40q-145 0 -255.5 -68.5t-166.5 -178.5t-56 -242t56 -242.5t166.5 -179t255.5 -68.5q108 0 199.5 39.5t152 107t94 156.5t33.5 187zM506 1862h209q0 -56 34 -89.5t91 -33.5t91 33.5t34 89.5h209q0 -130 -97 -215q-95 -80 -239 -80q-143 0 -238 80
q-94 82 -94 215z" />
    <glyph glyph-name="obreve" unicode="&#x14f;" horiz-adv-x="1202" 
d="M70 492q0 221 147.5 368.5t382.5 147.5q155 0 277.5 -68.5t189 -186t66.5 -261.5q0 -146 -66.5 -264.5t-189 -187.5t-277.5 -69q-156 0 -278 69t-187 187.5t-65 264.5zM872 492q0 124 -73.5 201t-198.5 77q-123 0 -195.5 -77.5t-72.5 -200.5q0 -125 72.5 -204t195.5 -79
q126 0 199 78.5t73 204.5zM598 1118q-149 0 -242.5 84.5t-93.5 224.5h215q0 -61 33.5 -98t89.5 -37t89.5 37t33.5 98h213q0 -138 -96 -225q-96 -84 -242 -84z" />
    <glyph glyph-name="Ohungarumlaut" unicode="&#x150;" horiz-adv-x="1675" 
d="M82 717q-2 149 53.5 286.5t154 240.5t242 163t306.5 57q130 2 249 -36t211 -108.5t159.5 -164t102.5 -206.5t33 -232q2 -151 -54 -289t-154.5 -240.5t-241.5 -162t-305 -56.5q-163 -3 -306.5 56.5t-242 162t-154 240.5t-53.5 289zM1317 717q0 98 -33.5 186.5t-94 155.5
t-152 107t-199.5 40q-145 0 -255.5 -68.5t-166.5 -178.5t-56 -242t56 -242.5t166.5 -179t255.5 -68.5q108 0 199.5 39.5t152 107t94 156.5t33.5 187zM557 1575l119 326h272l-213 -326h-178zM950 1575l119 326h272l-213 -326h-178z" />
    <glyph glyph-name="ohungarumlaut" unicode="&#x151;" horiz-adv-x="1202" 
d="M70 492q0 221 147.5 368.5t382.5 147.5q155 0 277.5 -68.5t189 -186t66.5 -261.5q0 -146 -66.5 -264.5t-189 -187.5t-277.5 -69q-156 0 -278 69t-187 187.5t-65 264.5zM872 492q0 124 -73.5 201t-198.5 77q-123 0 -195.5 -77.5t-72.5 -200.5q0 -125 72.5 -204t195.5 -79
q126 0 199 78.5t73 204.5zM348 1141l115 309h270l-211 -309h-174zM700 1141l115 309h270l-211 -309h-174z" />
    <glyph glyph-name="OE" unicode="&#x152;" horiz-adv-x="2373" 
d="M82 717q-2 149 53.5 286.5t154 240.5t242 163t306.5 57q276 0 479 -157v127h956v-252h-686v-353h627v-213h-627v-364h686v-252h-956v127q-204 -158 -479 -158q-163 -3 -306.5 56.5t-242 162t-154 240.5t-53.5 289zM1315 717q0 98 -33 186t-93 155.5t-151 107.5t-200 40
q-144 0 -255 -68.5t-168 -179t-57 -241.5q0 -132 57 -243t168 -179t255 -68q145 0 255 68.5t166 178.5t56 243z" />
    <glyph glyph-name="oe" unicode="&#x153;" horiz-adv-x="1912" 
d="M1841 397h-741q23 -92 88 -142t164 -50q155 0 241 133l222 -113q-62 -120 -181.5 -187t-281.5 -67q-253 0 -387 183q-64 -88 -162 -135.5t-221 -47.5q-149 0 -266.5 69t-180.5 187.5t-63 264.5q0 220 142.5 368t367.5 148q123 0 221 -47.5t162 -135.5q140 183 387 183
q223 0 359 -146t136 -370q0 -40 -6 -95zM1110 614h467q-50 160 -225 160q-89 0 -150.5 -42t-91.5 -118zM836 492q0 125 -67.5 201.5t-186.5 76.5t-184.5 -76t-65.5 -202q0 -128 65.5 -205.5t184.5 -77.5q121 0 187.5 76.5t66.5 206.5z" />
    <glyph glyph-name="Racute" unicode="&#x154;" horiz-adv-x="1384" 
d="M1313 0h-312l-364 594l-205 2v-596h-270v1434h590q141 0 251 -48t175 -143.5t65 -226.5q0 -153 -85 -258t-234 -144zM432 1188v-346h328q98 0 152.5 46t54.5 128t-54.5 127t-152.5 45h-328zM545 1573l119 301h319l-235 -301h-203z" />
    <glyph glyph-name="racute" unicode="&#x155;" horiz-adv-x="890" 
d="M129 0v977h258v-98q55 114 205 114q138 0 209 -92.5t65 -249.5h-254q2 56 -28 88.5t-84 32.5t-83.5 -39t-29.5 -112v-621h-258zM371 1139l123 301h303l-232 -301h-194z" />
    <glyph glyph-name="uni0156" unicode="&#x156;" horiz-adv-x="1384" 
d="M1313 0h-312l-364 594l-205 2v-596h-270v1434h590q141 0 251 -48t175 -143.5t65 -226.5q0 -153 -85 -258t-234 -144zM432 1188v-346h328q98 0 152.5 46t54.5 128t-54.5 127t-152.5 45h-328zM473 -461l105 311h290l-227 -311h-168z" />
    <glyph glyph-name="uni0157" unicode="&#x157;" horiz-adv-x="890" 
d="M129 0v977h258v-98q55 114 205 114q138 0 209 -92.5t65 -249.5h-254q2 56 -28 88.5t-84 32.5t-83.5 -39t-29.5 -112v-621h-258zM27 -461l104 311h291l-227 -311h-168z" />
    <glyph glyph-name="Rcaron" unicode="&#x158;" horiz-adv-x="1384" 
d="M1313 0h-312l-364 594l-205 2v-596h-270v1434h590q141 0 251 -48t175 -143.5t65 -226.5q0 -153 -85 -258t-234 -144zM432 1188v-346h328q98 0 152.5 46t54.5 128t-54.5 127t-152.5 45h-328zM641 1546l-379 309h266l113 -96l113 96h266z" />
    <glyph glyph-name="rcaron" unicode="&#x159;" horiz-adv-x="890" 
d="M129 0v977h258v-98q55 114 205 114q138 0 209 -92.5t65 -249.5h-254q2 56 -28 88.5t-84 32.5t-83.5 -39t-29.5 -112v-621h-258zM473 1108l-358 311h266l92 -92l92 92h266z" />
    <glyph glyph-name="Sacute" unicode="&#x15a;" horiz-adv-x="1193" 
d="M55 309l232 117q31 -98 109.5 -156.5t181.5 -58.5q125 0 201.5 58t76.5 161q0 80 -54 128t-161 79l-160 45q-164 45 -253 142.5t-89 246.5q0 173 123 283t307 110q148 0 265.5 -69t164.5 -185l-231 -118q-30 62 -81 96.5t-118 34.5q-70 0 -116.5 -39t-46.5 -101
q0 -60 37 -96t112 -57l156 -43q411 -117 411 -449q0 -139 -74.5 -247t-198 -165t-271.5 -57q-177 0 -329 95t-194 245zM522 1573l119 301h320l-236 -301h-203z" />
    <glyph glyph-name="sacute" unicode="&#x15b;" horiz-adv-x="927" 
d="M51 217l219 102q63 -124 201 -124q57 0 93 21.5t36 62.5q0 35 -29.5 61.5t-78.5 40.5l-121 35q-269 80 -269 297q0 86 52 154t134 103.5t175 35.5q124 0 216.5 -50t133.5 -143l-215 -100q-37 67 -135 67q-40 0 -67 -16.5t-27 -46.5q0 -49 96 -76l106 -29
q140 -38 217.5 -120t77.5 -203q0 -144 -116 -232t-279 -88q-160 0 -272.5 66.5t-147.5 181.5zM365 1139l122 301h304l-232 -301h-194z" />
    <glyph glyph-name="Scircumflex" unicode="&#x15c;" horiz-adv-x="1193" 
d="M55 309l232 117q31 -98 109.5 -156.5t181.5 -58.5q125 0 201.5 58t76.5 161q0 80 -54 128t-161 79l-160 45q-164 45 -253 142.5t-89 246.5q0 173 123 283t307 110q148 0 265.5 -69t164.5 -185l-231 -118q-30 62 -81 96.5t-118 34.5q-70 0 -116.5 -39t-46.5 -101
q0 -60 37 -96t112 -57l156 -43q411 -117 411 -449q0 -139 -74.5 -247t-198 -165t-271.5 -57q-177 0 -329 95t-194 245zM248 1571l370 311l371 -311h-268l-103 94l-102 -94h-268z" />
    <glyph glyph-name="scircumflex" unicode="&#x15d;" horiz-adv-x="927" 
d="M51 217l219 102q63 -124 201 -124q57 0 93 21.5t36 62.5q0 35 -29.5 61.5t-78.5 40.5l-121 35q-269 80 -269 297q0 86 52 154t134 103.5t175 35.5q124 0 216.5 -50t133.5 -143l-215 -100q-37 67 -135 67q-40 0 -67 -16.5t-27 -46.5q0 -49 96 -76l106 -29
q140 -38 217.5 -120t77.5 -203q0 -144 -116 -232t-279 -88q-160 0 -272.5 66.5t-147.5 181.5zM102 1133l365 313l364 -313h-266l-98 92l-96 -92h-269z" />
    <glyph glyph-name="Scedilla" unicode="&#x15e;" horiz-adv-x="1193" 
d="M684 -23l-33 -55q61 -17 97 -59.5t36 -98.5q0 -72 -55.5 -114.5t-142.5 -42.5q-88 0 -166 37l47 102q42 -25 80 -25q30 0 47.5 13t17.5 37q0 50 -73 65l-78 14l61 121q-160 15 -295 105q-131 91 -172 233l232 117q31 -98 109.5 -156.5t181.5 -58.5q125 0 201.5 58
t76.5 161q0 80 -54 128t-161 79l-160 45q-164 45 -253 142.5t-89 246.5q0 173 123 283t307 110q148 0 265.5 -69t164.5 -185l-231 -118q-30 62 -81 96.5t-118 34.5q-70 0 -116.5 -39t-46.5 -101q0 -60 37 -96t112 -57l156 -43q411 -117 411 -449q0 -182 -123.5 -307.5
t-314.5 -153.5z" />
    <glyph glyph-name="scedilla" unicode="&#x15f;" horiz-adv-x="927" 
d="M535 -27l-27 -47q55 -14 89 -53t34 -92q0 -70 -53 -110t-134 -40q-72 0 -153 35l43 96q40 -24 74 -24q27 0 44 12t17 35q0 46 -68 61l-71 15l57 114q-127 13 -216 78t-120 164l219 102q63 -124 201 -124q57 0 93 21.5t36 62.5q0 35 -29.5 61.5t-78.5 40.5l-121 35
q-269 80 -269 297q0 86 52 154t134 103.5t175 35.5q124 0 216.5 -50t133.5 -143l-215 -100q-37 67 -135 67q-40 0 -67 -16.5t-27 -46.5q0 -49 96 -76l106 -29q140 -38 217.5 -120t77.5 -203q0 -130 -92.5 -214t-238.5 -102z" />
    <glyph glyph-name="Scaron" unicode="&#x160;" horiz-adv-x="1193" 
d="M55 309l232 117q31 -98 109.5 -156.5t181.5 -58.5q125 0 201.5 58t76.5 161q0 80 -54 128t-161 79l-160 45q-164 45 -253 142.5t-89 246.5q0 173 123 283t307 110q148 0 265.5 -69t164.5 -185l-231 -118q-30 62 -81 96.5t-118 34.5q-70 0 -116.5 -39t-46.5 -101
q0 -60 37 -96t112 -57l156 -43q411 -117 411 -449q0 -139 -74.5 -247t-198 -165t-271.5 -57q-177 0 -329 95t-194 245zM618 1546l-378 309h266l112 -96l113 96h266z" />
    <glyph glyph-name="scaron" unicode="&#x161;" horiz-adv-x="927" 
d="M51 217l219 102q63 -124 201 -124q57 0 93 21.5t36 62.5q0 35 -29.5 61.5t-78.5 40.5l-121 35q-269 80 -269 297q0 86 52 154t134 103.5t175 35.5q124 0 216.5 -50t133.5 -143l-215 -100q-37 67 -135 67q-40 0 -67 -16.5t-27 -46.5q0 -49 96 -76l106 -29
q140 -38 217.5 -120t77.5 -203q0 -144 -116 -232t-279 -88q-160 0 -272.5 66.5t-147.5 181.5zM467 1108l-358 311h266l92 -92l92 92h266z" />
    <glyph glyph-name="uni0162" unicode="&#x162;" horiz-adv-x="1210" 
d="M741 0h-63l-45 -78q61 -17 97 -59.5t36 -98.5q0 -72 -56 -114.5t-143 -42.5q-88 0 -166 37l48 102q42 -25 79 -25q30 0 48 13t18 37q0 50 -74 65l-78 14l76 150h-47v1188h-436v246h1141v-246h-435v-1188z" />
    <glyph glyph-name="uni0163" unicode="&#x163;" horiz-adv-x="806" 
d="M485 0h-59l-41 -74q57 -18 91 -57t34 -92q0 -70 -53 -110t-135 -40q-83 0 -158 35l45 96q36 -22 76 -22q61 0 61 47q0 46 -70 61l-73 15l71 141h-47v739h-213l365 561h106v-323h303v-238h-303v-739z" />
    <glyph glyph-name="Tcaron" unicode="&#x164;" horiz-adv-x="1210" 
d="M471 1188h-436v246h1141v-246h-435v-1188h-270v1188zM604 1546l-379 309h267l112 -96l113 96h266z" />
    <glyph glyph-name="tcaron" unicode="&#x165;" horiz-adv-x="806" 
d="M748 1040h-138v394h314zM485 1300v-323h303v-238h-303v-739h-258v739h-213l365 561h106z" />
    <glyph glyph-name="Tbar" unicode="&#x166;" horiz-adv-x="1210" 
d="M1176 1188h-435v-430h217v-215h-217v-543h-270v543h-221v215h221v430h-436v246h1141v-246z" />
    <glyph glyph-name="tbar" unicode="&#x167;" horiz-adv-x="806" 
d="M788 739h-303v-149h217v-205h-217v-385h-258v385h-137v205h137v149h-213l365 561h106v-323h303v-238z" />
    <glyph glyph-name="Utilde" unicode="&#x168;" horiz-adv-x="1503" 
d="M147 553v881h271v-863q0 -156 90 -250t244 -94t243.5 94t89.5 250v863h271v-881q0 -123 -40.5 -229t-116 -185t-190.5 -124.5t-257 -45.5q-140 0 -255.5 45.5t-191.5 124.5t-117 185.5t-41 228.5zM731 1602q-68 36 -94 36q-67 0 -57 -92h-177q-2 10 -2 41q0 105 53 164
t154 59q60 0 168 -57q70 -37 96 -37q66 0 56 94h176l2 -36q0 -108 -53.5 -168t-155.5 -60q-22 0 -50 8t-46.5 16t-69.5 32z" />
    <glyph glyph-name="utilde" unicode="&#x169;" horiz-adv-x="1155" 
d="M786 418v559h258v-582q0 -192 -131 -308t-335 -116t-335.5 116t-131.5 308v582h258v-559q0 -99 56 -158t153 -59t152.5 59t55.5 158zM569 1171q-73 37 -106 37q-34 0 -45.5 -18t-9.5 -62h-166q-4 54 -4 58q0 93 49 142.5t147 49.5q56 0 156 -49q76 -35 104 -35
q32 0 45 18.5t11 61.5h165q1 -11 2 -23.5t2 -21t1 -12.5q0 -92 -50.5 -142.5t-148.5 -50.5q-56 0 -152 47z" />
    <glyph glyph-name="Umacron" unicode="&#x16a;" horiz-adv-x="1503" 
d="M147 553v881h271v-863q0 -156 90 -250t244 -94t243.5 94t89.5 250v863h271v-881q0 -123 -40.5 -229t-116 -185t-190.5 -124.5t-257 -45.5q-140 0 -255.5 45.5t-191.5 124.5t-117 185.5t-41 228.5zM444 1761h615v-198h-615v198z" />
    <glyph glyph-name="umacron" unicode="&#x16b;" horiz-adv-x="1155" 
d="M786 418v559h258v-582q0 -192 -131 -308t-335 -116t-335.5 116t-131.5 308v582h258v-559q0 -99 56 -158t153 -59t152.5 59t55.5 158zM274 1348h607v-187h-607v187z" />
    <glyph glyph-name="Ubreve" unicode="&#x16c;" horiz-adv-x="1503" 
d="M147 553v881h271v-863q0 -156 90 -250t244 -94t243.5 94t89.5 250v863h271v-881q0 -123 -40.5 -229t-116 -185t-190.5 -124.5t-257 -45.5q-140 0 -255.5 45.5t-191.5 124.5t-117 185.5t-41 228.5zM420 1831h209q0 -56 34 -89.5t91 -33.5t91 33.5t34 89.5h208
q0 -131 -96 -215q-95 -80 -239 -80q-143 0 -238 80q-94 82 -94 215z" />
    <glyph glyph-name="ubreve" unicode="&#x16d;" horiz-adv-x="1155" 
d="M786 418v559h258v-582q0 -192 -131 -308t-335 -116t-335.5 116t-131.5 308v582h258v-559q0 -99 56 -158t153 -59t152.5 59t55.5 158zM575 1118q-149 0 -242 84.5t-93 224.5h215q0 -61 33.5 -98t89.5 -37t89 37t33 98h213q0 -138 -96 -225q-96 -84 -242 -84z" />
    <glyph glyph-name="Uring" unicode="&#x16e;" horiz-adv-x="1503" 
d="M147 553v881h271v-863q0 -156 90 -250t244 -94t243.5 94t89.5 250v863h271v-881q0 -123 -40.5 -229t-116 -185t-190.5 -124.5t-257 -45.5q-140 0 -255.5 45.5t-191.5 124.5t-117 185.5t-41 228.5zM512 1694q0 97 69.5 162t172.5 65q102 0 169.5 -65t67.5 -162
q0 -99 -67.5 -164.5t-169.5 -65.5q-103 0 -172.5 66.5t-69.5 163.5zM842 1694q0 36 -26.5 60t-63.5 24q-39 0 -64.5 -23.5t-25.5 -60.5q0 -38 25.5 -62t64.5 -24q37 0 63.5 25t26.5 61z" />
    <glyph glyph-name="uring" unicode="&#x16f;" horiz-adv-x="1155" 
d="M786 418v559h258v-582q0 -192 -131 -308t-335 -116t-335.5 116t-131.5 308v582h258v-559q0 -99 56 -158t153 -59t152.5 59t55.5 158zM360 1321q0 87 63.5 146t156.5 59q92 0 152.5 -58.5t60.5 -146.5t-60.5 -147.5t-152.5 -59.5t-156 59.5t-64 147.5zM662 1321
q0 33 -23.5 55.5t-58.5 22.5q-37 0 -60.5 -21.5t-23.5 -56.5t23.5 -56.5t60.5 -21.5q35 0 58.5 22.5t23.5 55.5z" />
    <glyph glyph-name="Uhungarumlaut" unicode="&#x170;" horiz-adv-x="1503" 
d="M147 553v881h271v-863q0 -156 90 -250t244 -94t243.5 94t89.5 250v863h271v-881q0 -123 -40.5 -229t-116 -185t-190.5 -124.5t-257 -45.5q-140 0 -255.5 45.5t-191.5 124.5t-117 185.5t-41 228.5zM471 1544l119 326h272l-213 -326h-178zM864 1544l119 326h272l-213 -326
h-178z" />
    <glyph glyph-name="uhungarumlaut" unicode="&#x171;" horiz-adv-x="1155" 
d="M786 418v559h258v-582q0 -192 -131 -308t-335 -116t-335.5 116t-131.5 308v582h258v-559q0 -99 56 -158t153 -59t152.5 59t55.5 158zM326 1141l114 309h271l-211 -309h-174zM678 1141l115 309h270l-211 -309h-174z" />
    <glyph glyph-name="Uogonek" unicode="&#x172;" horiz-adv-x="1503" 
d="M573 -219q0 96 93 192q-161 18 -280 100t-179 205.5t-60 274.5v881h271v-863q0 -156 90 -250t244 -94t243.5 94t89.5 250v863h271v-881q0 -204 -106 -354t-298 -203q-63 -19 -103 -52t-40 -77q0 -53 47 -53q39 0 82 14l35 -193q-89 -45 -205 -45q-87 0 -141 52.5
t-54 138.5z" />
    <glyph glyph-name="uogonek" unicode="&#x173;" horiz-adv-x="1165" 
d="M115 977h258v-559q0 -99 56.5 -158t154.5 -59q97 0 153 59t56 158v559h258v-582q0 -156 -90 -263t-248 -152l-29 -9q-49 -13 -77.5 -48.5t-28.5 -78.5q0 -32 19 -51.5t50 -19.5q45 0 74 20l29 -141q-77 -45 -160 -45q-86 0 -140.5 50t-54.5 134q0 114 97 186
q-161 21 -271 134q-106 112 -106 284v582z" />
    <glyph glyph-name="Wcircumflex" unicode="&#x174;" horiz-adv-x="2240" 
d="M1042 1446h156l377 -940l358 928h293l-567 -1446h-156l-383 958l-383 -958h-155l-568 1446h293l359 -928zM750 1571l370 311l371 -311h-268l-103 94l-102 -94h-268z" />
    <glyph glyph-name="wcircumflex" unicode="&#x175;" horiz-adv-x="1654" 
d="M449 -10l-424 987h276l215 -522l256 532h111l256 -532l215 522h276l-424 -987h-108l-271 590l-272 -590h-106zM463 1133l364 313l365 -313h-266l-99 92l-96 -92h-268z" />
    <glyph glyph-name="Ycircumflex" unicode="&#x176;" horiz-adv-x="1396" 
d="M563 451l-543 983h316l364 -678l361 678h315l-542 -983v-451h-271v451zM330 1544l370 311l371 -311h-268l-103 94l-102 -94h-268z" />
    <glyph glyph-name="ycircumflex" unicode="&#x177;" horiz-adv-x="1144" 
d="M844 977h280l-565 -1387h-262l158 398l-439 989h285l283 -660zM197 1133l364 313l365 -313h-267l-98 92l-96 -92h-268z" />
    <glyph glyph-name="Ydieresis" unicode="&#x178;" horiz-adv-x="1396" 
d="M563 451l-543 983h316l364 -678l361 678h315l-542 -983v-451h-271v451zM330 1698q0 67 43 108t110 41q64 0 107 -41.5t43 -107.5q0 -65 -43 -106.5t-107 -41.5t-108.5 41.5t-44.5 106.5zM766 1698q0 66 44.5 107.5t111.5 41.5q64 0 106.5 -41.5t42.5 -107.5
q0 -65 -42.5 -106.5t-106.5 -41.5q-67 0 -111.5 41.5t-44.5 106.5z" />
    <glyph glyph-name="Zacute" unicode="&#x179;" horiz-adv-x="1193" 
d="M696 1182h-614v252h1067l-670 -1180l656 -2v-252h-1102zM504 1573l119 301h319l-235 -301h-203z" />
    <glyph glyph-name="zacute" unicode="&#x17a;" horiz-adv-x="1015" 
d="M37 0l465 739h-426v238h878l-465 -739h472v-238h-924zM391 1139l123 301h303l-231 -301h-195z" />
    <glyph glyph-name="Zdotaccent" unicode="&#x17b;" horiz-adv-x="1193" 
d="M696 1182h-614v252h1067l-670 -1180l656 -2v-252h-1102zM446 1731q0 63 44 105t110 42t110 -42t44 -105t-44 -105.5t-110 -42.5t-110 42.5t-44 105.5z" />
    <glyph glyph-name="zdotaccent" unicode="&#x17c;" horiz-adv-x="1015" 
d="M37 0l465 739h-426v238h878l-465 -739h472v-238h-924zM342 1288q0 63 44 104.5t110 41.5q62 0 104.5 -41.5t42.5 -104.5q0 -61 -42.5 -103t-104.5 -42q-66 0 -110 41t-44 104z" />
    <glyph glyph-name="Zcaron" unicode="&#x17d;" horiz-adv-x="1193" 
d="M696 1182h-614v252h1067l-670 -1180l656 -2v-252h-1102zM600 1546l-379 309h266l113 -96l113 96h266z" />
    <glyph glyph-name="zcaron" unicode="&#x17e;" horiz-adv-x="1015" 
d="M37 0l465 739h-426v238h878l-465 -739h472v-238h-924zM494 1108l-359 311h266l93 -92l92 92h266z" />
    <glyph glyph-name="uni018F" unicode="&#x18f;" horiz-adv-x="1634" 
d="M1550 717q2 -155 -52.5 -293.5t-151.5 -239.5t-237 -159t-302 -56q-162 -2 -300.5 56t-232.5 159t-146 239t-50 294q0 81 8 117h1167q-33 175 -154.5 280t-301.5 105q-134 0 -246.5 -67.5t-163.5 -176.5l-248 108q83 180 254.5 280.5t413.5 100.5q163 2 303.5 -55.5
t236.5 -158.5t150 -239.5t53 -293.5zM1253 602h-880q31 -176 146 -281.5t288 -105.5q176 0 295 107q121 109 151 280z" />
    <glyph glyph-name="florin" unicode="&#x192;" horiz-adv-x="1261" 
d="M694 1204l-47 -366h305v-226h-334l-126 -989h-248l129 989h-250v226h278l48 366q24 176 113 262t257 86q148 0 245 -95t91 -240h-242q0 45 -27 71.5t-77 26.5t-79.5 -28.5t-35.5 -82.5z" />
    <glyph glyph-name="uni01E2" unicode="&#x1e2;" horiz-adv-x="2131" 
d="M-59 0l1054 1434h1035v-252h-662v-353h602v-213h-602v-364h662v-252h-932v272h-643l-197 -272h-317zM612 487h486v670zM1169 1796h615v-199h-615v199z" />
    <glyph glyph-name="Gcaron" unicode="&#x1e6;" horiz-adv-x="1648" 
d="M1587 717q1 -149 -54.5 -287t-153 -240.5t-239 -163t-302.5 -57.5q-163 -3 -306.5 57.5t-242 163t-154 240.5t-53.5 287q-2 149 53.5 286.5t154 240.5t242 163t306.5 57q165 0 308 -59t247 -166l-203 -178q-63 69 -153.5 107t-198.5 38q-145 0 -255.5 -68.5
t-166.5 -178.5t-56 -242q0 -98 33 -186.5t93 -156t151.5 -107.5t200.5 -40q158 0 273.5 81.5t166.5 219.5l-221 269h526q4 -62 4 -80zM838 1559l-379 309h266l113 -96l112 96h267z" />
    <glyph glyph-name="gcaron" unicode="&#x1e7;" horiz-adv-x="1226" 
d="M119 -70h262q9 -143 207 -143q117 0 185.5 56t68.5 159v117q-119 -119 -310 -119q-134 0 -240 67t-163 182t-57 257q0 140 57 254t163 181t240 67q185 0 310 -119v88h258v-948q0 -218 -141 -343.5t-371 -125.5q-205 0 -336 94q-133 95 -133 276zM834 506
q0 117 -67.5 190.5t-182.5 73.5t-182.5 -73.5t-67.5 -190.5q0 -119 67.5 -194.5t182.5 -75.5q116 0 183 74.5t67 195.5zM604 1108l-358 311h266l92 -92l92 92h267z" />
    <glyph glyph-name="Aringacute" unicode="&#x1fa;" horiz-adv-x="1413" 
d="M803 1403l598 -1403h-291l-102 246h-602l-103 -246h-291l598 1403q-67 26 -106 83t-39 128q0 80 48.5 140t127.5 79l66 149h233l-131 -161q62 -26 98.5 -82t36.5 -125q0 -74 -37.5 -130t-103.5 -81zM614 1614q0 -38 26 -62t65 -24q37 0 63.5 25t26.5 61t-26.5 60
t-63.5 24q-39 0 -65 -24t-26 -60zM506 492h401l-200 483z" />
    <glyph glyph-name="aringacute" unicode="&#x1fb;" horiz-adv-x="1255" 
d="M418 1321q0 72 44 126t116 73l69 157h207l-137 -166q62 -24 97.5 -73.5t35.5 -116.5q0 -88 -60.5 -147.5t-152.5 -59.5t-155.5 59.5t-63.5 147.5zM553 1321q0 -35 23.5 -56.5t60.5 -21.5q35 0 58.5 22.5t23.5 55.5t-23.5 55.5t-58.5 22.5q-37 0 -60.5 -21.5t-23.5 -56.5z
M868 977h258v-977h-258v94q-123 -123 -325 -123q-137 0 -246 70t-168 188.5t-59 262.5t59 261.5t167.5 186t246.5 68.5q199 0 325 -123v92zM858 492q0 124 -70.5 201t-191.5 77q-120 0 -190 -77t-70 -201q0 -126 69.5 -204.5t190.5 -78.5t191.5 78t70.5 205z" />
    <glyph glyph-name="AEacute" unicode="&#x1fc;" horiz-adv-x="2131" 
d="M-59 0l1054 1434h1035v-252h-662v-353h602v-213h-602v-364h662v-252h-932v272h-643l-197 -272h-317zM612 487h486v670zM1380 1581l119 301h320l-236 -301h-203z" />
    <glyph glyph-name="aeacute" unicode="&#x1fd;" horiz-adv-x="1763" 
d="M66 287q0 143 116 222t307 79h216v35q0 69 -45 108t-125 39q-140 0 -195 -131l-219 106q48 120 158.5 190.5t255.5 70.5q111 0 198.5 -43.5t138.5 -124.5q57 81 150.5 125.5t204.5 44.5q209 0 340 -148t131 -371q0 -61 -8 -94h-713q19 -92 81 -142t159 -50q83 0 138.5 29
t92.5 90l211 -103q-56 -118 -169 -183t-271 -65q-122 0 -224 51.5t-159 139.5q-54 -91 -156 -141t-231 -50q-171 0 -277 83t-106 233zM981 602h461q-19 85 -77 130.5t-148 45.5t-150.5 -45.5t-85.5 -130.5zM707 389h-218q-157 0 -157 -98q0 -46 37 -71t100 -25
q105 0 171.5 53.5t66.5 140.5zM776 1102l123 301h303l-231 -301h-195z" />
    <glyph glyph-name="Oslashacute" unicode="&#x1fe;" horiz-adv-x="1675" 
d="M1593 717q2 -151 -54 -289t-154.5 -240.5t-241.5 -162t-305 -56.5q-203 0 -375 90l-68 -90h-254l158 209q-104 103 -160.5 243.5t-56.5 295.5q-2 149 53.5 286.5t154 240.5t242 163t306.5 57q201 0 370 -88l66 86h254l-156 -205q106 -103 163.5 -242.5t57.5 -297.5z
M467 397l580 766q-93 43 -209 43q-145 0 -255.5 -68.5t-166.5 -178.5t-56 -242q0 -182 107 -320zM1317 717q0 188 -111 323l-581 -768q91 -45 213 -45q108 0 199.5 39.5t152 107t94 156.5t33.5 187zM741 1577l119 301h320l-236 -301h-203z" />
    <glyph glyph-name="oslashacute" unicode="&#x1ff;" horiz-adv-x="1202" 
d="M1133 489q0 -225 -151 -372.5t-380 -147.5q-134 0 -252 56l-55 -76h-154l103 145q-83 70 -128.5 172.5t-45.5 222.5q0 227 151.5 373t380.5 146q138 0 250 -56l55 80h156l-105 -147q83 -70 129 -172.5t46 -223.5zM383 293l334 469q-58 22 -115 22q-124 0 -205 -84
q-80 -83 -80 -211q0 -112 66 -196zM885 489q0 117 -68 197l-334 -471q61 -22 119 -22q126 0 203 83q80 86 80 213zM500 1139l123 301h303l-232 -301h-194z" />
    <glyph glyph-name="uni0218" unicode="&#x218;" horiz-adv-x="1193" 
d="M55 309l232 117q31 -98 109.5 -156.5t181.5 -58.5q125 0 201.5 58t76.5 161q0 80 -54 128t-161 79l-160 45q-164 45 -253 142.5t-89 246.5q0 173 123 283t307 110q148 0 265.5 -69t164.5 -185l-231 -118q-30 62 -81 96.5t-118 34.5q-70 0 -116.5 -39t-46.5 -101
q0 -60 37 -96t112 -57l156 -43q411 -117 411 -449q0 -139 -74.5 -247t-198 -165t-271.5 -57q-177 0 -329 95t-194 245zM381 -461l104 311h291l-227 -311h-168z" />
    <glyph glyph-name="uni0219" unicode="&#x219;" horiz-adv-x="927" 
d="M51 217l219 102q63 -124 201 -124q57 0 93 21.5t36 62.5q0 35 -29.5 61.5t-78.5 40.5l-121 35q-269 80 -269 297q0 86 52 154t134 103.5t175 35.5q124 0 216.5 -50t133.5 -143l-215 -100q-37 67 -135 67q-40 0 -67 -16.5t-27 -46.5q0 -49 96 -76l106 -29
q140 -38 217.5 -120t77.5 -203q0 -144 -116 -232t-279 -88q-160 0 -272.5 66.5t-147.5 181.5zM238 -461l104 311h291l-227 -311h-168z" />
    <glyph glyph-name="uni021A" unicode="&#x21a;" horiz-adv-x="1210" 
d="M471 1188h-436v246h1141v-246h-435v-1188h-270v1188zM360 -461l105 311h291l-228 -311h-168z" />
    <glyph glyph-name="uni021B" unicode="&#x21b;" horiz-adv-x="806" 
d="M485 1300v-323h303v-238h-303v-739h-258v739h-213l365 561h106zM115 -461l104 311h291l-227 -311h-168z" />
    <glyph glyph-name="uni021C" unicode="&#x21c;" horiz-adv-x="1097" 
d="M508 0l-350 -133l-95 223l355 137q158 62 246 133t88 162q0 103 -79.5 161t-211.5 58h-170l227 441h-440v252h848l-275 -519q182 -39 280.5 -142t98.5 -263q0 -181 -147 -301q-145 -121 -375 -209z" />
    <glyph glyph-name="uni021D" unicode="&#x21d;" horiz-adv-x="1005" 
d="M504 -276l-340 -123l-90 243l334 117q270 94 270 238q0 75 -65 105t-187 30h-207l248 405h-428v238h844l-262 -418q153 -29 238 -125.5t85 -243.5q0 -310 -440 -466z" />
    <glyph glyph-name="uni0232" unicode="&#x232;" horiz-adv-x="1396" 
d="M563 451l-543 983h316l364 -678l361 678h315l-542 -983v-451h-271v451zM393 1761h615v-198h-615v198z" />
    <glyph glyph-name="uni0233" unicode="&#x233;" horiz-adv-x="1144" 
d="M844 977h280l-565 -1387h-262l158 398l-439 989h285l283 -660zM258 1348h606v-187h-606v187z" />
    <glyph glyph-name="uni0237" unicode="&#x237;" horiz-adv-x="516" 
d="M129 -410v1387h258v-1387h-258z" />
    <glyph glyph-name="uni0259" unicode="&#x259;" horiz-adv-x="1142" 
d="M1071 487q0 -224 -140.5 -371t-367.5 -147q-149 0 -263 68t-174 184.5t-60 263.5q0 26 6 95h731q-24 90 -86.5 142t-153.5 52q-161 0 -248 -125l-221 107q65 121 189 186.5t280 65.5q227 0 367.5 -147.5t140.5 -373.5zM797 375h-461q48 -176 227 -176q85 0 147 47.5
t87 128.5z" />
    <glyph glyph-name="uni02BB" unicode="&#x2bb;" horiz-adv-x="536" 
d="M143 1190v330h291l-153 -330h-138z" />
    <glyph glyph-name="uni02BC" unicode="&#x2bc;" horiz-adv-x="536" 
d="M393 1501v-327h-291l154 327h137z" />
    <glyph glyph-name="circumflex" unicode="&#x2c6;" 
d="M614 1536l349 -326h-242l-107 109l-106 -109h-242z" />
    <glyph glyph-name="caron" unicode="&#x2c7;" 
d="M614 1153l-348 326h242l106 -109l107 109h242z" />
    <glyph glyph-name="breve" unicode="&#x2d8;" 
d="M612 1171q-153 0 -256 89q-100 87 -100 235h219q0 -64 37 -102.5t102 -38.5t102.5 38.5t37.5 102.5h219q0 -141 -104 -232.5t-257 -91.5z" />
    <glyph glyph-name="dotaccent" unicode="&#x2d9;" 
d="M453 1393q0 65 45 108t112 43t111.5 -42.5t44.5 -108.5q0 -63 -45 -106.5t-111 -43.5t-111.5 43.5t-45.5 106.5z" />
    <glyph glyph-name="ring" unicode="&#x2da;" 
d="M367 1372q0 103 73.5 172.5t182.5 69.5q108 0 179.5 -69.5t71.5 -172.5t-71.5 -172.5t-179.5 -69.5q-109 0 -182.5 69.5t-73.5 172.5zM725 1372q0 41 -29.5 68.5t-72.5 27.5q-44 0 -74.5 -27.5t-30.5 -68.5q0 -42 30 -69t75 -27q43 0 72.5 27t29.5 69z" />
    <glyph glyph-name="ogonek" unicode="&#x2db;" 
d="M745 -207l27 -141q-74 -45 -158 -45q-86 0 -140 50t-54 134q0 63 36.5 118t110.5 116l64 47l121 -72l-70 -51q-82 -55 -82 -111q0 -29 20.5 -47t51.5 -18q40 0 73 20z" />
    <glyph glyph-name="tilde" unicode="&#x2dc;" 
d="M608 1214q-13 9 -40.5 23t-47.5 14q-41 0 -62.5 -24.5t-21.5 -69.5h-186q-8 125 50.5 200t162.5 75q41 0 76 -13.5t86 -44.5q55 -37 86 -37q41 0 62.5 26t21.5 71h186q8 -128 -50.5 -202.5t-166.5 -74.5q-39 0 -70 12.5t-86 44.5z" />
    <glyph glyph-name="hungarumlaut" unicode="&#x2dd;" 
d="M246 1147l116 311h269l-211 -311h-174zM643 1147l117 311h268l-211 -311h-174z" />
    <glyph glyph-name="gravecomb" unicode="&#x300;" horiz-adv-x="0" 
d="M-467 1174h-197l-231 301h303z" />
    <glyph glyph-name="acutecomb" unicode="&#x301;" horiz-adv-x="0" 
d="M-754 1139l123 301h303l-231 -301h-195z" />
    <glyph glyph-name="uni0302" unicode="&#x302;" horiz-adv-x="0" 
d="M-979 1141l365 313l364 -313h-266l-98 92l-97 -92h-268z" />
    <glyph glyph-name="tildecomb" unicode="&#x303;" horiz-adv-x="0" 
d="M-625 1202q-73 37 -106 37q-34 0 -45.5 -18t-9.5 -62h-166q-4 54 -4 58q0 93 49 142.5t147 49.5q56 0 156 -49q76 -35 104 -35q32 0 45 18.5t11 61.5h165q1 -11 2 -23.5t2 -21t1 -12.5q0 -92 -50.5 -142.5t-148.5 -50.5q-56 0 -152 47z" />
    <glyph glyph-name="uni0304" unicode="&#x304;" horiz-adv-x="0" 
d="M-918 1356h607v-187h-607v187z" />
    <glyph glyph-name="uni0306" unicode="&#x306;" horiz-adv-x="0" 
d="M-616 1126q-149 0 -242.5 85t-93.5 225h215q0 -61 33.5 -98.5t89.5 -37.5t89 37.5t33 98.5h213q0 -139 -96 -226q-96 -84 -241 -84z" />
    <glyph glyph-name="uni0307" unicode="&#x307;" horiz-adv-x="0" 
d="M-770 1288q0 63 44 104.5t110 41.5q62 0 104.5 -41.5t42.5 -104.5q0 -61 -42.5 -103t-104.5 -42q-66 0 -110 41t-44 104z" />
    <glyph glyph-name="uni0308" unicode="&#x308;" horiz-adv-x="0" 
d="M-971 1282q0 63 42 103t108 40q62 0 103.5 -40.5t41.5 -102.5q0 -61 -41.5 -102t-103.5 -41q-66 0 -108 40t-42 103zM-555 1282q0 62 44 102.5t108 40.5q62 0 103.5 -40.5t41.5 -102.5q0 -61 -41.5 -102t-103.5 -41q-64 0 -108 41t-44 102z" />
    <glyph glyph-name="uni030A" unicode="&#x30a;" horiz-adv-x="0" 
d="M-825 1329q0 87 63 146t156 59q92 0 152.5 -58.5t60.5 -146.5t-60.5 -147.5t-152.5 -59.5t-155.5 59.5t-63.5 147.5zM-524 1329q0 33 -23.5 55.5t-58.5 22.5q-37 0 -60.5 -21.5t-23.5 -56.5t23.5 -56.5t60.5 -21.5q35 0 58.5 22.5t23.5 55.5z" />
    <glyph glyph-name="uni030B" unicode="&#x30b;" horiz-adv-x="0" 
d="M-848 1186l115 309h270l-211 -309h-174zM-496 1186l115 309h270l-211 -309h-174z" />
    <glyph glyph-name="uni030C" unicode="&#x30c;" horiz-adv-x="0" 
d="M-614 1116l-359 311h266l93 -92l92 92h266z" />
    <glyph glyph-name="uni0312" unicode="&#x312;" horiz-adv-x="0" 
d="M-143 1538v-330h-291l153 330h138z" />
    <glyph glyph-name="uni0326" unicode="&#x326;" horiz-adv-x="0" 
d="M-840 -461l105 311h291l-228 -311h-168z" />
    <glyph glyph-name="uni0327" unicode="&#x327;" horiz-adv-x="0" 
d="M-831 -356l47 102q42 -25 77 -25q31 0 49.5 13t18.5 37q0 50 -76 65l-76 14l99 197l135 -47l-43 -78q61 -17 97 -59.5t36 -98.5q0 -73 -56.5 -115t-144.5 -42q-85 0 -163 37z" />
    <glyph glyph-name="uni0328" unicode="&#x328;" horiz-adv-x="0" 
d="M-481 -205l26 -141q-76 -43 -157 -43q-85 0 -139 50.5t-54 131.5q0 63 36 116t110 114l63 49l119 -72l-68 -51q-82 -55 -82 -109q0 -29 20 -47t50 -18q43 0 76 20z" />
    <glyph glyph-name="uni0335" unicode="&#x335;" horiz-adv-x="0" 
d="M-924 768h670v-205h-670v205z" />
    <glyph glyph-name="uni0336" unicode="&#x336;" horiz-adv-x="0" 
d="M-1559 1202h1481v-155h-1481v155z" />
    <glyph glyph-name="uni0337" unicode="&#x337;" horiz-adv-x="0" 
d="M-1049 4l768 1086h154l-768 -1086h-154z" />
    <glyph glyph-name="uni0338" unicode="&#x338;" horiz-adv-x="0" 
d="M-1286 -31l1132 1495h254l-1132 -1495h-254z" />
    <glyph glyph-name="uni1E6A" unicode="&#x1e6a;" horiz-adv-x="1210" 
d="M471 1188h-436v246h1141v-246h-435v-1188h-270v1188zM451 1731q0 63 43.5 105t109.5 42t110 -42t44 -105t-44 -105.5t-110 -42.5t-109.5 42.5t-43.5 105.5z" />
    <glyph glyph-name="uni1E6B" unicode="&#x1e6b;" horiz-adv-x="806" 
d="M485 1300v-323h303v-238h-303v-739h-258v739h-213l365 561h106zM246 1542q0 63 43.5 104.5t109.5 41.5q62 0 105 -42t43 -104q0 -61 -43 -103t-105 -42q-66 0 -109.5 41t-43.5 104z" />
    <glyph glyph-name="Wgrave" unicode="&#x1e80;" horiz-adv-x="2240" 
d="M1042 1446h156l377 -940l358 928h293l-567 -1446h-156l-383 958l-383 -958h-155l-568 1446h293l359 -928zM1225 1573h-203l-238 301h322z" />
    <glyph glyph-name="wgrave" unicode="&#x1e81;" horiz-adv-x="1654" 
d="M449 -10l-424 987h276l215 -522l256 532h111l256 -532l215 522h276l-424 -987h-108l-271 590l-272 -590h-106zM930 1143h-197l-231 301h303z" />
    <glyph glyph-name="Wacute" unicode="&#x1e82;" horiz-adv-x="2240" 
d="M1042 1446h156l377 -940l358 928h293l-567 -1446h-156l-383 958l-383 -958h-155l-568 1446h293l359 -928zM1024 1573l119 301h319l-235 -301h-203z" />
    <glyph glyph-name="wacute" unicode="&#x1e83;" horiz-adv-x="1654" 
d="M449 -10l-424 987h276l215 -522l256 532h111l256 -532l215 522h276l-424 -987h-108l-271 590l-272 -590h-106zM725 1139l123 301h303l-231 -301h-195z" />
    <glyph glyph-name="Wdieresis" unicode="&#x1e84;" horiz-adv-x="2240" 
d="M1042 1446h156l377 -940l358 928h293l-567 -1446h-156l-383 958l-383 -958h-155l-568 1446h293l359 -928zM750 1724q0 67 43 108.5t110 41.5q64 0 107 -42t43 -108q0 -65 -43 -106t-107 -41t-108.5 41t-44.5 106zM1186 1724q0 67 44 108.5t111 41.5q64 0 107 -42t43 -108
q0 -65 -43 -106t-107 -41q-67 0 -111 41t-44 106z" />
    <glyph glyph-name="wdieresis" unicode="&#x1e85;" horiz-adv-x="1654" 
d="M449 -10l-424 987h276l215 -522l256 532h111l256 -532l215 522h276l-424 -987h-108l-271 590l-272 -590h-106zM471 1282q0 63 42 103t108 40q62 0 103.5 -40.5t41.5 -102.5q0 -61 -41.5 -102t-103.5 -41q-66 0 -108 40t-42 103zM887 1282q0 62 43.5 102.5t107.5 40.5
q62 0 104 -40.5t42 -102.5q0 -61 -42 -102t-104 -41q-63 0 -107 41t-44 102z" />
    <glyph glyph-name="uni1E9E" unicode="&#x1e9e;" horiz-adv-x="1464" 
d="M545 61l88 232q36 -29 96.5 -46.5t122.5 -17.5q117 0 188.5 66t71.5 176q0 111 -71 178.5t-189 67.5l-256 -2l199 463h-361v-1180h-270v1436h1016l-219 -484q187 -27 307 -153q121 -124 121 -326q0 -221 -143 -359.5t-372 -138.5q-192 0 -329 88z" />
    <glyph glyph-name="uni1EBC" unicode="&#x1ebc;" horiz-adv-x="1220" 
d="M164 1434h956v-252h-686v-334h627v-248h-627v-348h686v-252h-956v1434zM618 1628q-70 37 -94 37q-67 0 -57 -92h-176q-2 10 -2 41q0 105 53 164t154 59q60 0 168 -57q70 -37 96 -37q65 0 55 94h176l2 -37q0 -108 -53 -167.5t-156 -59.5q-22 0 -49 7.5t-48 16.5t-69 31z
" />
    <glyph glyph-name="uni1EBD" unicode="&#x1ebd;" horiz-adv-x="1142" 
d="M1071 397h-731q24 -90 86.5 -142t153.5 -52q160 0 247 125l222 -107q-65 -121 -189 -186.5t-280 -65.5q-227 0 -367.5 147t-140.5 373q0 225 140.5 372t367.5 147q149 0 263 -68t174 -184.5t60 -263.5q0 -26 -6 -95zM346 602h461q-48 176 -227 176q-85 0 -147 -47.5
t-87 -128.5zM571 1171q-73 37 -106 37q-34 0 -45.5 -18t-9.5 -62h-166q-4 54 -4 58q0 93 49 142.5t147 49.5q56 0 156 -49q76 -35 104 -35q32 0 45 18.5t11 61.5h166q4 -54 4 -57q0 -92 -50.5 -142.5t-148.5 -50.5q-56 0 -152 47z" />
    <glyph glyph-name="Ygrave" unicode="&#x1ef2;" horiz-adv-x="1396" 
d="M563 451l-543 983h316l364 -678l361 678h315l-542 -983v-451h-271v451zM805 1546h-203l-237 301h321z" />
    <glyph glyph-name="ygrave" unicode="&#x1ef3;" horiz-adv-x="1144" 
d="M844 977h280l-565 -1387h-262l158 398l-439 989h285l283 -660zM664 1143h-197l-231 301h303z" />
    <glyph glyph-name="uni1EF8" unicode="&#x1ef8;" horiz-adv-x="1396" 
d="M563 451l-543 983h316l364 -678l361 678h315l-542 -983v-451h-271v451zM680 1602q-68 36 -94 36q-68 0 -58 -92h-176q-2 10 -2 41q0 105 53 164t154 59q60 0 168 -57q70 -37 96 -37q66 0 56 94h176l2 -36q0 -108 -53.5 -168t-155.5 -60q-22 0 -50 8t-46.5 16t-69.5 32z
" />
    <glyph glyph-name="uni1EF9" unicode="&#x1ef9;" horiz-adv-x="1144" 
d="M844 977h280l-565 -1387h-262l158 398l-439 989h285l283 -660zM553 1171q-73 37 -107 37t-45.5 -18t-9.5 -62h-166q-4 54 -4 58q0 92 49.5 142t147.5 50q55 0 155 -49q76 -35 105 -35q32 0 44.5 18.5t10.5 61.5h166q4 -54 4 -57q0 -92 -50 -142.5t-148 -50.5
q-56 0 -152 47z" />
    <glyph glyph-name="endash" unicode="&#x2013;" horiz-adv-x="1157" 
d="M117 700h923v-227h-923v227z" />
    <glyph glyph-name="emdash" unicode="&#x2014;" horiz-adv-x="1640" 
d="M117 473v227h1407v-227h-1407z" />
    <glyph glyph-name="quoteleft" unicode="&#x2018;" horiz-adv-x="501" 
d="M244 1434h137v-629h-313z" />
    <glyph glyph-name="quoteright" unicode="&#x2019;" horiz-adv-x="479" 
d="M260 805h-139v629h315z" />
    <glyph glyph-name="quotesinglbase" unicode="&#x201a;" horiz-adv-x="530" 
d="M262 -252h-139v629h315z" />
    <glyph glyph-name="quotedblleft" unicode="&#x201c;" horiz-adv-x="911" 
d="M244 1434h137v-629h-313zM653 1434h138v-629h-314z" />
    <glyph glyph-name="quotedblright" unicode="&#x201d;" horiz-adv-x="888" 
d="M260 805h-139v629h315zM668 805h-138v629h316z" />
    <glyph glyph-name="quotedblbase" unicode="&#x201e;" horiz-adv-x="940" 
d="M262 -252h-139v629h315zM670 -252h-138v629h316z" />
    <glyph glyph-name="dagger" unicode="&#x2020;" horiz-adv-x="786" 
d="M74 1036v170h227v228h184v-228h230v-170h-230v-522h-184v522h-227z" />
    <glyph glyph-name="daggerdbl" unicode="&#x2021;" horiz-adv-x="843" 
d="M332 514v215h-230v168h230v166h-230v170h230v201h182v-201h227v-170h-227v-166h227v-168h-227v-215h-182z" />
    <glyph glyph-name="bullet" unicode="&#x2022;" horiz-adv-x="849" 
d="M135 676q0 121 84.5 200.5t206.5 79.5q119 0 204 -79.5t85 -200.5q0 -119 -85.5 -200t-203.5 -81q-119 0 -205 80.5t-86 200.5z" />
    <glyph glyph-name="ellipsis" unicode="&#x2026;" horiz-adv-x="1533" 
d="M90 145q0 77 53 127t129 50t128.5 -50t52.5 -127q0 -75 -53 -125.5t-128 -50.5q-76 0 -129 51t-53 125zM586 145q0 77 53 127t129 50t128 -50t52 -127q0 -75 -52.5 -125.5t-127.5 -50.5q-76 0 -129 51t-53 125zM1081 145q0 77 53.5 127t129.5 50t128 -50t52 -127
q0 -75 -52.5 -125.5t-127.5 -50.5q-76 0 -129.5 51t-53.5 125z" />
    <glyph glyph-name="perthousand" unicode="&#x2030;" horiz-adv-x="2621" 
d="M59 1092q0 153 110.5 262.5t266.5 109.5q155 0 265 -109.5t110 -262.5t-110 -262t-265 -109q-156 0 -266.5 109t-110.5 262zM1454 1434l-852 -1434h-254l856 1434h250zM608 1092q0 72 -50.5 123t-123.5 51q-72 0 -121 -51t-49 -123q0 -70 49.5 -121t120.5 -51
q73 0 123.5 51t50.5 121zM991 340q0 153 110.5 263t266.5 110t265.5 -110t109.5 -263t-110 -262t-265 -109q-156 0 -266.5 109.5t-110.5 261.5zM1812 340q0 153 110 263t265 110q156 0 266.5 -110t110.5 -263t-110.5 -262t-266.5 -109q-155 0 -265 110t-110 261zM1542 340
q0 72 -51 123t-125 51q-71 0 -119.5 -50.5t-48.5 -123.5q0 -70 48.5 -121t119.5 -51q74 0 125 51t51 121zM2361 340q0 72 -50.5 123t-123.5 51q-72 0 -121 -51t-49 -123q0 -70 49.5 -121t120.5 -51q73 0 123.5 51t50.5 121z" />
    <glyph glyph-name="minute" unicode="&#x2032;" horiz-adv-x="530" 
d="M231 1524h252l-164 -715h-251z" />
    <glyph glyph-name="second" unicode="&#x2033;" horiz-adv-x="925" 
d="M231 1524h252l-164 -715h-251zM627 1524h252l-164 -715h-252z" />
    <glyph glyph-name="guilsinglleft" unicode="&#x2039;" horiz-adv-x="788" 
d="M432 150l-371 438l371 436h289l-365 -436l365 -438h-289z" />
    <glyph glyph-name="guilsinglright" unicode="&#x203a;" horiz-adv-x="788" 
d="M354 1024l371 -436l-371 -438h-288l368 438l-368 436h288z" />
    <glyph glyph-name="fraction" unicode="&#x2044;" horiz-adv-x="339" 
d="M-420 0l991 1434h181l-992 -1434h-180z" />
    <glyph glyph-name="uni2070" unicode="&#x2070;" horiz-adv-x="784" 
d="M59 1196q0 187 90.5 300.5t243.5 113.5q152 0 242 -113.5t90 -300.5q0 -190 -89.5 -303t-242.5 -113t-243.5 113t-90.5 303zM561 1196q-1 123 -47 195.5t-121 72.5q-78 0 -124 -73t-44 -195q0 -124 45 -197t123 -73q78 1 123 74t45 196z" />
    <glyph glyph-name="uni2074" unicode="&#x2074;" horiz-adv-x="681" 
d="M547 1606v-562h106v-139h-106v-112h-144v112h-401l442 701h103zM240 1038h163v262z" />
    <glyph glyph-name="uni2075" unicode="&#x2075;" horiz-adv-x="684" 
d="M35 942l110 94q25 -50 71 -81t106 -31q73 0 117 39t44 102q0 62 -45 100.5t-119 38.5q-87 0 -215 -35l74 426h379v-139h-260l-25 -133q52 10 99 10q121 0 193.5 -73t72.5 -191q0 -129 -86.5 -209t-226.5 -80q-101 0 -176.5 45t-112.5 117z" />
    <glyph glyph-name="uni2076" unicode="&#x2076;" horiz-adv-x="702" 
d="M53 1077q0 117 94 266l154 250h180l-162 -243q29 18 72 18q117 0 195 -84t78 -207t-88 -210t-218 -87q-138 0 -221.5 84t-83.5 213zM510 1073q0 64 -43.5 110t-108.5 46t-107 -46t-42 -110t42 -106.5t107 -42.5q66 0 109 43t43 106z" />
    <glyph glyph-name="uni2077" unicode="&#x2077;" horiz-adv-x="612" 
d="M96 803l291 657h-352v139h567l-342 -796h-164z" />
    <glyph glyph-name="uni2078" unicode="&#x2078;" horiz-adv-x="700" 
d="M190 1288q-55 52 -55 131q0 85 60.5 139t154.5 54t154.5 -54t60.5 -139q0 -79 -55 -131q64 -36 101.5 -96.5t37.5 -132.5q0 -121 -86 -201q-84 -78 -213 -78q-128 0 -215 78q-84 81 -84 201q0 72 37.5 132.5t101.5 96.5zM350 1331q35 0 56.5 22.5t21.5 57.5t-21.5 56.5
t-56.5 21.5t-56.5 -21.5t-21.5 -56.5t21.5 -57.5t56.5 -22.5zM350 924q64 0 108 39t44 100q0 60 -44 98.5t-108 38.5t-107.5 -38.5t-43.5 -98.5q0 -61 43.5 -100t107.5 -39z" />
    <glyph glyph-name="uni2079" unicode="&#x2079;" horiz-adv-x="688" 
d="M639 1333q0 -75 -27.5 -143t-85.5 -152l-164 -235h-180l207 293q-42 -25 -86 -25q-112 0 -188 76q-74 77 -74 186q0 120 86.5 201.5t212.5 81.5q133 0 215 -82q84 -81 84 -201zM205 1333q0 -55 38 -92t97 -37q61 0 98 36.5t37 92.5q0 58 -36.5 94.5t-98.5 36.5
q-59 0 -97 -37.5t-38 -93.5z" />
    <glyph glyph-name="uni207F" unicode="&#x207f;" horiz-adv-x="802" 
d="M121 1407h153v-70q54 80 168 80q110 0 179 -69.5t69 -178.5v-352h-141v332q0 66 -39 105.5t-102 39.5t-103.5 -39.5t-40.5 -101.5v-336h-143v590z" />
    <glyph glyph-name="uni2080" unicode="&#x2080;" horiz-adv-x="784" 
d="M59 111q0 187 90.5 300t243.5 113q152 0 242 -113t90 -300q0 -190 -89.5 -303t-242.5 -113t-243.5 113t-90.5 303zM561 111q-1 123 -47 195.5t-121 72.5q-78 0 -124 -73t-44 -195q0 -124 45 -197.5t123 -73.5q78 1 123 74.5t45 196.5z" />
    <glyph glyph-name="uni2081" unicode="&#x2081;" horiz-adv-x="428" 
d="M168 -281v560h-150l185 241h125v-801h-160z" />
    <glyph glyph-name="uni2082" unicode="&#x2082;" horiz-adv-x="641" 
d="M23 -279l329 461q43 58 43 107q0 47 -25.5 74.5t-68.5 27.5q-44 0 -70 -27.5t-26 -74.5h-146q-2 110 65 178t177 68q111 0 180.5 -64t69.5 -168q0 -85 -74 -188l-182 -254h297v-140h-569z" />
    <glyph glyph-name="uni2083" unicode="&#x2083;" horiz-adv-x="675" 
d="M29 -141l112 94q22 -47 68.5 -79t105.5 -32q71 0 115.5 40t44.5 102q0 61 -46.5 101t-119.5 40h-90l127 248h-242v139h463l-145 -281q90 -18 148.5 -83.5t58.5 -163.5q0 -126 -88 -205q-89 -80 -222 -80q-100 0 -175.5 44.5t-114.5 115.5z" />
    <glyph glyph-name="uni2084" unicode="&#x2084;" horiz-adv-x="681" 
d="M547 528v-561h106v-139h-106v-113h-144v113h-401l442 700h103zM240 -39h163v262z" />
    <glyph glyph-name="uni2085" unicode="&#x2085;" horiz-adv-x="684" 
d="M35 -141l110 94q25 -50 71 -81.5t106 -31.5q73 0 117 39.5t44 102.5q0 62 -45 100.5t-119 38.5q-87 0 -215 -35l74 426h379v-139h-260l-25 -133q52 10 99 10q121 0 193.5 -73t72.5 -191q0 -129 -86.5 -209t-226.5 -80q-101 0 -176.5 45t-112.5 117z" />
    <glyph glyph-name="uni2086" unicode="&#x2086;" horiz-adv-x="702" 
d="M53 -4q0 117 94 266l154 250h180l-162 -244q30 19 72 19q117 0 195 -84t78 -207t-88 -210t-218 -87q-138 0 -221.5 83.5t-83.5 213.5zM510 -8q0 64 -43.5 109.5t-108.5 45.5t-107 -45.5t-42 -109.5t42 -107t107 -43q66 0 109 43t43 107z" />
    <glyph glyph-name="uni2087" unicode="&#x2087;" horiz-adv-x="612" 
d="M96 -283l291 658h-352v139h567l-342 -797h-164z" />
    <glyph glyph-name="uni2088" unicode="&#x2088;" horiz-adv-x="700" 
d="M190 203q-55 52 -55 131q0 85 60.5 138.5t154.5 53.5t154.5 -53.5t60.5 -138.5q0 -79 -55 -131q64 -36 101.5 -97t37.5 -133q0 -121 -86 -198q-83 -80 -213 -80q-129 0 -215 80q-84 78 -84 198q0 72 37.5 133t101.5 97zM350 246q35 0 56.5 22.5t21.5 57.5t-21.5 56
t-56.5 21t-56.5 -21t-21.5 -56t21.5 -57.5t56.5 -22.5zM350 -162q64 0 108 39t44 100t-44 99.5t-108 38.5t-107.5 -38.5t-43.5 -99.5t43.5 -100t107.5 -39z" />
    <glyph glyph-name="uni2089" unicode="&#x2089;" horiz-adv-x="688" 
d="M639 248q0 -75 -27.5 -143t-85.5 -152l-164 -236h-180l207 293q-41 -24 -86 -24q-113 0 -188 75q-74 77 -74 187q0 120 86.5 201t212.5 81q134 0 215 -81q84 -81 84 -201zM205 248q0 -55 38 -92t97 -37q61 0 98 36.5t37 92.5q0 58 -36.5 94.5t-98.5 36.5q-59 0 -97 -37.5
t-38 -93.5z" />
    <glyph glyph-name="Euro" unicode="&#x20ac;" horiz-adv-x="1544" 
d="M1270 399l205 -168q-98 -125 -242 -193.5t-318 -68.5q-246 0 -426 131q-179 130 -251 355h-166v225h125v37v37h-125v225h166q71 221 251 352q183 133 426 133q174 0 319 -69.5t243 -196.5l-203 -168q-61 84 -152.5 130t-206.5 46q-127 0 -227 -60.5t-158 -166.5h564v-225
h-627q-2 -8 -2 -37t2 -37h627v-225h-564q58 -106 158 -167t227 -61q229 0 355 172z" />
    <glyph glyph-name="uni20B9" unicode="&#x20b9;" horiz-adv-x="1236" 
d="M1112 1208h-252q18 -41 25 -73h227v-226h-223q-43 -233 -301 -327l354 -582h-309l-492 809h303q84 0 136.5 55.5t52.5 143.5q0 85 -52.5 140.5t-136.5 55.5h-313v230h981v-226z" />
    <glyph glyph-name="uni2113" unicode="&#x2113;" horiz-adv-x="1038" 
d="M190 485h-122v226h112v346q0 230 99 363.5t290 133.5q192 0 287.5 -131.5t95.5 -365.5q0 -114 -32.5 -216t-94 -182t-160 -127t-221.5 -47q0 -133 51 -202.5t164 -69.5q136 0 259 57l69 -211q-158 -73 -328 -73q-232 0 -350.5 128.5t-118.5 370.5zM692 1057
q0 132 -27 199t-96 67q-70 0 -97.5 -67.5t-27.5 -198.5v-346q118 0 183 96.5t65 249.5z" />
    <glyph glyph-name="uni2116" unicode="&#x2116;" horiz-adv-x="2332" 
d="M1546 1118q0 139 100 242.5t257 103.5t258.5 -103.5t101.5 -242.5q0 -138 -101.5 -243t-258.5 -105q-155 0 -256 105t-101 243zM168 0v1442h215l764 -971v963h272v-1442h-217l-764 971v-963h-270zM2075 1118q0 69 -49 117.5t-123 48.5q-72 0 -120 -48.5t-48 -117.5
q0 -70 48 -119t120 -49q74 0 123 49.5t49 118.5zM1595 479v180h619v-180h-619z" />
    <glyph glyph-name="uni2117" unicode="&#x2117;" horiz-adv-x="1837" 
d="M920 1602q174 3 331 -64t268.5 -180.5t176 -270t61.5 -325.5q3 -169 -61.5 -326t-176 -271.5t-268.5 -182t-331 -64.5q-174 -3 -331.5 64.5t-269.5 182t-177 271.5t-62 326q-3 169 62 325.5t177 270t269.5 180.5t331.5 64zM920 102q136 -3 258 49t207.5 142t134.5 212.5
t47 256.5q2 134 -47 256t-134.5 211t-207.5 140.5t-258 49.5q-136 2 -258.5 -49.5t-208.5 -140.5t-135.5 -211t-47.5 -256q-2 -179 82.5 -332t235.5 -242.5t332 -85.5zM623 350v819h374q137 0 225.5 -77.5t88.5 -206.5q0 -127 -88.5 -205t-225.5 -78h-186v-252h-188z
M811 772h160q69 0 108 29.5t39 85.5q0 55 -39 83.5t-108 28.5h-160v-227z" />
    <glyph glyph-name="trademark" unicode="&#x2122;" horiz-adv-x="1579" 
d="M63 1282v152h562v-152h-197v-465h-166v465h-199zM1438 1434v-617h-164v359l-195 -189l-194 191v-361h-166v617h115l245 -246l244 246h115z" />
    <glyph glyph-name="uni2126" unicode="&#x2126;" horiz-adv-x="1722" 
d="M1386 254h232v-254h-596v254q150 79 233.5 207.5t83.5 286.5q0 126 -57 229.5t-167 166t-253 62.5q-144 0 -254.5 -62.5t-167.5 -166t-57 -229.5q0 -158 83.5 -286.5t233.5 -207.5v-254h-594v254h230q-107 106 -168.5 242t-61.5 276q-3 147 55.5 277t160 221.5
t242.5 143.5t298 50q156 2 296.5 -50.5t242 -144.5t160.5 -222t57 -275q0 -142 -61.5 -278.5t-170.5 -239.5z" />
    <glyph glyph-name="estimated" unicode="&#x212e;" horiz-adv-x="1642" 
d="M90 739q-3 163 56 308t160.5 246t239.5 158t288 54q150 3 287.5 -54t238.5 -158t160 -245.5t57 -308.5v-37h-1182v-497q187 -164 477 -164q178 0 326.5 77.5t239.5 217.5l59 -43q-100 -152 -265 -237t-360 -85q-165 -2 -310 54.5t-250 157t-164.5 245t-57.5 311.5z
M395 1276v-506h887v498q-190 168 -448 168q-245 0 -439 -160z" />
    <glyph glyph-name="uni2153" unicode="&#x2153;" horiz-adv-x="1525" 
d="M236 637v559h-150l184 242h125v-801h-159zM102 0l992 1434h180l-991 -1434h-181zM862 139l113 94q21 -47 68 -78.5t106 -31.5q71 0 115.5 39.5t44.5 101.5q0 61 -46.5 101.5t-119.5 40.5h-90l127 247h-242v140h463l-146 -281q89 -18 148 -83.5t59 -164.5q0 -126 -88 -205
t-221 -79q-101 0 -176.5 44.5t-114.5 114.5z" />
    <glyph glyph-name="uni2154" unicode="&#x2154;" horiz-adv-x="1654" 
d="M23 643l329 461q43 58 43 106q0 47 -25.5 75t-68.5 28q-44 0 -70 -28t-26 -75h-146q-2 110 65 178t177 68q111 0 180.5 -63.5t69.5 -167.5q0 -86 -74 -189l-182 -254h297v-139h-569zM233 0l992 1434h180l-991 -1434h-181zM993 139l113 94q21 -47 68 -78.5t106 -31.5
q71 0 115.5 39.5t44.5 101.5q0 61 -46.5 101.5t-119.5 40.5h-90l127 247h-242v140h463l-146 -281q89 -18 148 -83.5t59 -164.5q0 -126 -88 -205t-221 -79q-101 0 -176.5 44.5t-114.5 114.5z" />
    <glyph glyph-name="oneeighth" unicode="&#x215b;" horiz-adv-x="1509" 
d="M236 637v559h-150l184 242h125v-801h-159zM102 0l992 1434h180l-991 -1434h-181zM971 487q-56 53 -56 131q0 85 60.5 139t154.5 54t155 -54t61 -139q0 -78 -56 -131q64 -36 102 -96.5t38 -132.5q0 -120 -87 -201q-83 -77 -213 -77q-129 0 -215 77q-84 81 -84 201
q0 72 38 132.5t102 96.5zM1130 530q35 0 56.5 22.5t21.5 57.5t-21.5 56.5t-56.5 21.5t-56 -21.5t-21 -56.5q0 -36 21 -58t56 -22zM1130 123q64 0 108 39t44 100q0 60 -44 98.5t-108 38.5t-107.5 -38.5t-43.5 -98.5q0 -61 43.5 -100t107.5 -39z" />
    <glyph glyph-name="threeeighths" unicode="&#x215c;" horiz-adv-x="1675" 
d="M57 776l113 94q21 -47 68 -78.5t106 -31.5q71 0 115.5 39.5t44.5 101.5q0 61 -46.5 101t-119.5 40h-90l127 248h-242v140h463l-145 -281q89 -18 147.5 -83.5t58.5 -164.5q0 -126 -88 -205q-89 -80 -221 -80q-101 0 -176.5 44.5t-114.5 115.5zM266 0l991 1434h181
l-992 -1434h-180zM1135 487q-56 53 -56 131q0 85 60.5 139t154.5 54t154.5 -54t60.5 -139q0 -79 -55 -131q64 -36 101.5 -96.5t37.5 -132.5q0 -121 -86 -201q-83 -77 -213 -77q-129 0 -215 77q-84 81 -84 201q0 72 38 132.5t102 96.5zM1294 530q35 0 56.5 22.5t21.5 57.5
t-21.5 56.5t-56.5 21.5t-56 -21.5t-21 -56.5q0 -36 21 -58t56 -22zM1294 123q64 0 108 39t44 100q0 60 -44 98.5t-108 38.5t-107.5 -38.5t-43.5 -98.5q0 -61 43.5 -100t107.5 -39z" />
    <glyph glyph-name="fiveeighths" unicode="&#x215d;" horiz-adv-x="1675" 
d="M57 778l111 94q25 -50 70.5 -81t105.5 -31q73 0 117.5 39t44.5 102q0 62 -45 100.5t-119 38.5q-91 0 -215 -34l74 426h379v-140h-261l-24 -133q52 10 98 10q121 0 193.5 -73t72.5 -191q0 -129 -86.5 -209t-226.5 -80q-101 0 -176.5 45t-112.5 117zM268 0l992 1434h180
l-991 -1434h-181zM1137 487q-56 53 -56 131q0 85 60.5 139t154.5 54t154.5 -54t60.5 -139q0 -79 -55 -131q64 -36 101.5 -96.5t37.5 -132.5q0 -121 -86 -201q-83 -77 -213 -77q-129 0 -215 77q-84 81 -84 201q0 72 38 132.5t102 96.5zM1296 530q35 0 56.5 22.5t21.5 57.5
t-21.5 56.5t-56.5 21.5t-56 -21.5t-21 -56.5q0 -36 21 -58t56 -22zM1296 123q64 0 108 39t44 100q0 60 -44 98.5t-108 38.5t-107.5 -38.5t-43.5 -98.5q0 -61 43.5 -100t107.5 -39z" />
    <glyph glyph-name="seveneighths" unicode="&#x215e;" horiz-adv-x="1519" 
d="M135 639l291 657h-352v140h567l-342 -797h-164zM111 0l991 1434h180l-991 -1434h-180zM979 487q-55 52 -55 131q0 85 60.5 139t154.5 54t154.5 -54t60.5 -139q0 -78 -56 -131q64 -36 102 -96.5t38 -132.5q0 -121 -86 -201q-83 -77 -213 -77q-129 0 -215 77
q-84 81 -84 201q0 72 37.5 132.5t101.5 96.5zM1139 530q35 0 56.5 22.5t21.5 57.5t-21.5 56.5t-56.5 21.5t-56.5 -21.5t-21.5 -56.5t21.5 -57.5t56.5 -22.5zM1139 123q64 0 107.5 39t43.5 100q0 60 -43.5 98.5t-107.5 38.5t-108 -38.5t-44 -98.5q0 -61 44 -100t108 -39z" />
    <glyph glyph-name="arrowleft" unicode="&#x2190;" horiz-adv-x="1392" 
d="M49 586l604 604l156 -156l-336 -338l846 2v-225l-846 2l336 -336l-158 -157z" />
    <glyph glyph-name="arrowup" unicode="&#x2191;" horiz-adv-x="1302" 
d="M762 -10h-223v848l-336 -338l-156 155l606 605l602 -603l-157 -157l-336 336v-846z" />
    <glyph glyph-name="arrowright" unicode="&#x2192;" horiz-adv-x="1392" 
d="M1346 586l-605 -604l-155 157l334 336l-844 -2v225l846 -2l-336 338l155 156z" />
    <glyph glyph-name="arrowdown" unicode="&#x2193;" horiz-adv-x="1302" 
d="M653 -12l-606 604l158 158l336 -338v848h223v-848l334 338l159 -158z" />
    <glyph glyph-name="uni2196" unicode="&#x2196;" horiz-adv-x="1185" 
d="M150 1024h854v-221h-478l600 -596l-159 -160l-596 598v-475h-221v854z" />
    <glyph glyph-name="uni2197" unicode="&#x2197;" horiz-adv-x="1187" 
d="M1038 1022v-854h-223v475l-596 -598l-160 160l600 596h-477v221h856z" />
    <glyph glyph-name="uni2198" unicode="&#x2198;" horiz-adv-x="1193" 
d="M1036 45h-856v221h477l-600 596l160 160l596 -598v475h223v-854z" />
    <glyph glyph-name="uni2199" unicode="&#x2199;" horiz-adv-x="1193" 
d="M158 45v854h223v-475l596 598l158 -160l-598 -596h477v-221h-856z" />
    <glyph glyph-name="partialdiff" unicode="&#x2202;" horiz-adv-x="1304" 
d="M68 500q0 220 149 366t375 146q125 0 221 -55.5t143 -135.5q-9 189 -114 312q-101 122 -275 122q-144 0 -260 -92l-127 189q160 131 402 131q194 0 337.5 -97.5t219 -274.5t75.5 -413q0 -211 -71 -374.5t-205.5 -255t-312.5 -91.5q-157 0 -285.5 71t-200 191t-71.5 261z
M909 506q0 110 -81 190t-199 80q-123 0 -203 -80.5t-80 -197.5t80 -198t203 -81q83 0 149 44t98.5 109t32.5 134z" />
    <glyph glyph-name="uni2206" unicode="&#x2206;" horiz-adv-x="1458" 
d="M842 1434l571 -1434h-1368l582 1434h215zM414 252h630l-315 797z" />
    <glyph glyph-name="productmicro" unicode="&#x220f;" horiz-adv-x="1470" 
d="M1307 1434v-1844h-273v1592h-598v-1592h-272v1844h1143z" />
    <glyph glyph-name="summation" unicode="&#x2211;" horiz-adv-x="1243" 
d="M55 1434h1104v-252h-690l332 -670l-332 -670h694v-252h-1108l463 922z" />
    <glyph glyph-name="minus" unicode="&#x2212;" 
d="M113 475v223h1003v-223h-1003z" />
    <glyph glyph-name="uni2215" unicode="&#x2215;" horiz-adv-x="1071" 
d="M-53 0l991 1434h180l-991 -1434h-180z" />
    <glyph glyph-name="uni2219" unicode="&#x2219;" horiz-adv-x="739" 
d="M188 555q0 77 53.5 126.5t129.5 49.5t128 -49.5t52 -126.5q0 -75 -52.5 -125.5t-127.5 -50.5q-76 0 -129.5 51t-53.5 125z" />
    <glyph glyph-name="radical" unicode="&#x221a;" horiz-adv-x="1232" 
d="M393 -8l-395 880h266l236 -546l499 1198h267l-656 -1532h-217z" />
    <glyph glyph-name="infinity" unicode="&#x221e;" horiz-adv-x="1622" 
d="M94 588q0 152 100.5 255t247.5 103q106 0 191 -51t178 -164q93 113 178 164t191 51q149 0 248.5 -102.5t99.5 -255.5t-100.5 -258t-247.5 -105q-107 0 -191.5 51t-177.5 166q-93 -115 -177.5 -166t-191.5 -51q-146 0 -247 105.5t-101 257.5zM674 588q-57 77 -106 113
t-107 36q-67 0 -109.5 -41.5t-42.5 -107.5q0 -68 42.5 -111t109.5 -43q57 0 106.5 37.5t106.5 116.5zM1315 588q0 66 -42.5 107.5t-109.5 41.5q-58 0 -107.5 -36t-107.5 -113q59 -80 108.5 -117t106.5 -37q67 0 109.5 43t42.5 111z" />
    <glyph glyph-name="integral" unicode="&#x222b;" horiz-adv-x="958" 
d="M-25 -373l11 223q49 -12 125 -12q65 0 99.5 47.5t53.5 159.5l162 1053q33 223 104.5 315t229.5 92q56 0 127 -6q54 -2 94 -8l-8 -223q-72 10 -121 10q-71 0 -104.5 -47t-51.5 -158l-166 -1057q-18 -114 -41 -187.5t-61.5 -123.5t-93.5 -71t-135 -21q-57 0 -127 6
q-50 2 -97 8z" />
    <glyph glyph-name="approxequal" unicode="&#x2248;" 
d="M598 735q-82 26 -126 35.5t-89 9.5q-124 0 -258 -84v228q124 80 254 80q58 0 111 -11.5t145 -40.5q86 -27 127 -36t86 -9q121 0 258 84v-227q-124 -80 -254 -80q-57 0 -107 11t-147 40zM598 219q-82 26 -126 35.5t-89 9.5q-124 0 -258 -82v226q122 79 254 79
q59 0 113 -11.5t143 -39.5q133 -43 213 -43q127 0 258 82v-225q-124 -80 -254 -80q-100 0 -254 49z" />
    <glyph glyph-name="notequal" unicode="&#x2260;" 
d="M1116 731h-330l-135 -291h465v-223h-569l-111 -233h-239l110 233h-194v223h299l135 291h-434v223h538l111 234h239l-110 -234h225v-223z" />
    <glyph glyph-name="lessequal" unicode="&#x2264;" 
d="M1102 371l-1004 374v177l1004 374v-235l-619 -227l619 -226v-237zM98 88v223h1004v-223h-1004z" />
    <glyph glyph-name="greaterequal" unicode="&#x2265;" 
d="M1130 745l-1003 -374v237l618 226l-618 227v235l1003 -374v-177zM127 311h1003v-223h-1003v223z" />
    <glyph glyph-name="filledbox" unicode="&#x25a0;" 
d="M217 299v795h795v-795h-795z" />
    <glyph glyph-name="uni25A1" unicode="&#x25a1;" 
d="M217 299v795h795v-795h-795zM326 408h577v577h-577v-577z" />
    <glyph glyph-name="uni25B4" unicode="&#x25b4;" 
d="M1004 250h-781l391 674z" />
    <glyph glyph-name="uni25B8" unicode="&#x25b8;" 
d="M301 184v783l676 -392z" />
    <glyph glyph-name="uni25BE" unicode="&#x25be;" 
d="M225 924h781l-392 -674z" />
    <glyph glyph-name="uni25C2" unicode="&#x25c2;" 
d="M928 979v-784l-676 393z" />
    <glyph glyph-name="lozenge" unicode="&#x25ca;" 
d="M616 1509l543 -831l-543 -832l-546 832zM616 262l263 416l-263 416l-264 -416z" />
    <glyph glyph-name="circle" unicode="&#x25cb;" 
d="M614 1139q186 0 314.5 -128.5t128.5 -314.5t-128.5 -314t-314.5 -128t-314 128t-128 314t128 314.5t314 128.5zM614 362q139 0 234.5 96t95.5 238t-95.5 238t-234.5 96t-235 -96t-96 -238t96 -238t235 -96z" />
    <glyph glyph-name="uni25CF" unicode="&#x25cf;" 
d="M614 1137q184 0 312.5 -128.5t128.5 -312.5t-128 -312t-313 -128q-184 0 -312 128t-128 312q0 185 128 313t312 128z" />
    <glyph glyph-name="uni2610" unicode="&#x2610;" horiz-adv-x="1634" 
d="M164 1368h1304v-1305h-1304v1305zM272 1260v-1088h1090v1088h-1090z" />
    <glyph glyph-name="uni2611" unicode="&#x2611;" horiz-adv-x="1634" 
d="M164 1368h1304v-1305h-1304v1305zM272 1260v-1088h1090v1088h-1090zM1174 1106l90 -64l-547 -694l-318 299l78 80l232 -219z" />
    <glyph glyph-name="uni2612" unicode="&#x2612;" horiz-adv-x="1634" 
d="M164 1368h1304v-1305h-1304v1305zM1362 172v1088h-1090v-1088h1090zM561 385l-80 78l258 260l-258 258l80 78l258 -256l256 258l80 -80l-258 -258l260 -258l-80 -80l-258 258z" />
    <glyph glyph-name="uni2713" unicode="&#x2713;" horiz-adv-x="1675" 
d="M635 -47l-584 573l168 195l389 -387l822 1126l204 -153z" />
    <glyph glyph-name="uniEA00" unicode="&#xea00;" horiz-adv-x="1536" 
d="M969 1169q0 -70 -27.5 -135.5t-71.5 -111.5q-49 -46 -49 -103q0 -56 58 -90q26 -16 59 -16q55 0 102 47q46 46 37 112q-2 12 -2 52q0 236 209 250q-39 -68 -39 -136q0 -41 15 -75t57 -105q55 -82 79.5 -145.5t24.5 -149.5q0 -247 -151 -401q-153 -153 -369 -205
q64 31 91.5 79.5t29.5 119.5q0 80 -48.5 125t-156.5 57q-103 9 -180 63q-78 57 -78 174q0 43 8 74q-85 -77 -129.5 -172.5t-44.5 -195.5q0 -114 54.5 -209t150.5 -144q-253 59 -369 199q-114 144 -114 319q0 86 26.5 170.5t71.5 147.5q43 62 92.5 107.5t155.5 129.5
q78 59 137 115q115 110 115 260q0 96 -47 223q153 -91 228 -202t75 -228z" />
    <glyph glyph-name="NULL" horiz-adv-x="0" 
 />
    <glyph glyph-name="Iacute_J.loclNLD" horiz-adv-x="1851" 
d="M164 1434h272v-1434h-272v1434zM203 1573l119 301h319l-235 -301h-203zM637 518h270q0 -134 70 -212.5t192 -78.5q126 0 194.5 79t68.5 216v912h270v-916q0 -251 -142.5 -400t-390.5 -149q-247 0 -389.5 149t-142.5 400zM1470 1573l119 301h320l-236 -301h-203z" />
    <glyph glyph-name="Q.ss07" horiz-adv-x="1675" 
d="M1624 0h-336l-55 70q-174 -101 -395 -101q-163 -3 -306.5 56.5t-242 162t-154 240.5t-53.5 289q-2 149 53.5 286.5t154 240.5t242 163t306.5 57q130 2 249 -36t211 -108.5t159.5 -164t102.5 -206.5t33 -232q0 -275 -161 -475zM1065 279l-205 256l209 163l186 -233
q62 115 62 252q0 98 -33.5 186.5t-94 155.5t-152 107t-199.5 40q-145 0 -255.5 -68.5t-166.5 -178.5t-56 -242t56 -242.5t166.5 -179t255.5 -68.5q129 0 227 52z" />
    <glyph glyph-name="i.loclTRK" horiz-adv-x="516" 
d="M90 1284q0 69 48 115.5t120 46.5t120 -46.5t48 -115.5t-48 -115.5t-120 -46.5t-120 46.5t-48 115.5zM129 977h258v-977h-258v977z" />
    <glyph glyph-name="f.alt01" horiz-adv-x="774" 
d="M201 0v739h-156v238h156v215q0 154 99.5 244t264.5 90q58 0 121 -17v-209q-58 7 -102 7q-60 0 -92.5 -35t-32.5 -96v-199h370v-238h-370v-739h-258z" />
    <glyph glyph-name="f.alt02" horiz-adv-x="843" 
d="M205 0v739h-160v238h160v153q0 177 112.5 286.5t294.5 109.5q172 0 290 -112.5t118 -283.5h-234q0 74 -42 116t-115 42q-76 0 -121 -42.5t-45 -115.5v-153h387v-238h-387v-739h-258z" />
    <glyph glyph-name="iacute_j.loclNLD" horiz-adv-x="1032" 
d="M129 977h258v-977h-258v977zM156 1139l123 301h303l-232 -301h-194zM645 -410v1387h258v-1387h-258zM672 1139l123 301h303l-232 -301h-194z" />
    <glyph glyph-name="a.ss02" horiz-adv-x="1058" 
d="M66 281q0 154 118 229q119 76 297 76h201v37q0 68 -45.5 107.5t-118.5 39.5q-138 0 -196 -135l-203 106q42 122 151.5 194.5t247.5 72.5q186 0 304 -104t118 -281v-623h-258v100q-47 -50 -127 -82t-156 -32q-152 0 -242.5 78t-90.5 217zM682 389h-201q-69 0 -109 -26.5
t-40 -79.5q0 -43 35.5 -65.5t91.5 -22.5q95 0 159 54t64 140z" />
    <glyph glyph-name="aacute.ss02" horiz-adv-x="1058" 
d="M66 281q0 154 118 229q119 76 297 76h201v37q0 68 -45.5 107.5t-118.5 39.5q-138 0 -196 -135l-203 106q42 122 151.5 194.5t247.5 72.5q186 0 304 -104t118 -281v-623h-258v100q-47 -50 -127 -82t-156 -32q-152 0 -242.5 78t-90.5 217zM682 389h-201q-69 0 -109 -26.5
t-40 -79.5q0 -43 35.5 -65.5t91.5 -22.5q95 0 159 54t64 140zM430 1139l123 301h303l-231 -301h-195z" />
    <glyph glyph-name="abreve.ss02" horiz-adv-x="1058" 
d="M66 281q0 154 118 229q119 76 297 76h201v37q0 68 -45.5 107.5t-118.5 39.5q-138 0 -196 -135l-203 106q42 122 151.5 194.5t247.5 72.5q186 0 304 -104t118 -281v-623h-258v100q-47 -50 -127 -82t-156 -32q-152 0 -242.5 78t-90.5 217zM682 389h-201q-69 0 -109 -26.5
t-40 -79.5q0 -43 35.5 -65.5t91.5 -22.5q95 0 159 54t64 140zM530 1118q-149 0 -242 84.5t-93 224.5h215q0 -61 33 -98t89 -37t89.5 37t33.5 98h213q0 -138 -96 -225q-96 -84 -242 -84z" />
    <glyph glyph-name="acircumflex.ss02" horiz-adv-x="1058" 
d="M66 281q0 154 118 229q119 76 297 76h201v37q0 68 -45.5 107.5t-118.5 39.5q-138 0 -196 -135l-203 106q42 122 151.5 194.5t247.5 72.5q186 0 304 -104t118 -281v-623h-258v100q-47 -50 -127 -82t-156 -32q-152 0 -242.5 78t-90.5 217zM682 389h-201q-69 0 -109 -26.5
t-40 -79.5q0 -43 35.5 -65.5t91.5 -22.5q95 0 159 54t64 140zM168 1133l364 313l365 -313h-266l-99 92l-96 -92h-268z" />
    <glyph glyph-name="adieresis.ss02" horiz-adv-x="1058" 
d="M66 281q0 154 118 229q119 76 297 76h201v37q0 68 -45.5 107.5t-118.5 39.5q-138 0 -196 -135l-203 106q42 122 151.5 194.5t247.5 72.5q186 0 304 -104t118 -281v-623h-258v100q-47 -50 -127 -82t-156 -32q-152 0 -242.5 78t-90.5 217zM682 389h-201q-69 0 -109 -26.5
t-40 -79.5q0 -43 35.5 -65.5t91.5 -22.5q95 0 159 54t64 140zM176 1282q0 63 42 103t108 40q62 0 103.5 -40.5t41.5 -102.5q0 -61 -41.5 -102t-103.5 -41q-66 0 -108 40t-42 103zM592 1282q0 62 43.5 102.5t107.5 40.5q62 0 104 -40.5t42 -102.5q0 -61 -42 -102t-104 -41
q-63 0 -107 41t-44 102z" />
    <glyph glyph-name="agrave.ss02" horiz-adv-x="1058" 
d="M66 281q0 154 118 229q119 76 297 76h201v37q0 68 -45.5 107.5t-118.5 39.5q-138 0 -196 -135l-203 106q42 122 151.5 194.5t247.5 72.5q186 0 304 -104t118 -281v-623h-258v100q-47 -50 -127 -82t-156 -32q-152 0 -242.5 78t-90.5 217zM682 389h-201q-69 0 -109 -26.5
t-40 -79.5q0 -43 35.5 -65.5t91.5 -22.5q95 0 159 54t64 140zM635 1143h-197l-231 301h303z" />
    <glyph glyph-name="amacron.ss02" horiz-adv-x="1058" 
d="M66 281q0 154 118 229q119 76 297 76h201v37q0 68 -45.5 107.5t-118.5 39.5q-138 0 -196 -135l-203 106q42 122 151.5 194.5t247.5 72.5q186 0 304 -104t118 -281v-623h-258v100q-47 -50 -127 -82t-156 -32q-152 0 -242.5 78t-90.5 217zM682 389h-201q-69 0 -109 -26.5
t-40 -79.5q0 -43 35.5 -65.5t91.5 -22.5q95 0 159 54t64 140zM229 1348h607v-187h-607v187z" />
    <glyph glyph-name="aogonek.ss02" horiz-adv-x="1058" 
d="M936 -205l27 -141q-76 -43 -158 -43q-85 0 -139 50.5t-54 131.5q0 57 29.5 106t89.5 101h-49v100q-47 -50 -127 -82t-156 -32q-152 0 -242.5 78t-90.5 217q0 154 118 229q119 76 297 76h201v37q0 68 -45.5 107.5t-118.5 39.5q-138 0 -196 -135l-203 106
q42 122 151.5 194.5t247.5 72.5q186 0 304 -104t118 -281v-623l-68 -51q-81 -55 -81 -109q0 -29 19.5 -47t49.5 -18q43 0 76 20zM682 389h-201q-69 0 -109 -26.5t-40 -79.5q0 -43 35.5 -65.5t91.5 -22.5q95 0 159 54t64 140z" />
    <glyph glyph-name="aring.ss02" horiz-adv-x="1058" 
d="M66 281q0 154 118 229q119 76 297 76h201v37q0 68 -45.5 107.5t-118.5 39.5q-138 0 -196 -135l-203 106q42 122 151.5 194.5t247.5 72.5q186 0 304 -104t118 -281v-623h-258v100q-47 -50 -127 -82t-156 -32q-152 0 -242.5 78t-90.5 217zM682 389h-201q-69 0 -109 -26.5
t-40 -79.5q0 -43 35.5 -65.5t91.5 -22.5q95 0 159 54t64 140zM315 1321q0 87 63.5 146t156.5 59q92 0 152.5 -58.5t60.5 -146.5t-60.5 -147.5t-152.5 -59.5t-156 59.5t-64 147.5zM616 1321q0 33 -23 55.5t-58 22.5q-37 0 -60.5 -21.5t-23.5 -56.5t23.5 -56.5t60.5 -21.5
q35 0 58 22.5t23 55.5z" />
    <glyph glyph-name="aringacute.ss02" horiz-adv-x="1058" 
d="M315 1321q0 71 44 125.5t114 71.5l72 168h207l-142 -173q63 -24 100.5 -75t37.5 -117q0 -88 -60.5 -147.5t-152.5 -59.5t-156 59.5t-64 147.5zM451 1321q0 -35 23.5 -56.5t60.5 -21.5q35 0 58 22.5t23 55.5t-23 55.5t-58 22.5q-37 0 -60.5 -21.5t-23.5 -56.5zM940 623
v-623h-258v100q-47 -50 -127 -82t-156 -32q-152 0 -242.5 78t-90.5 217q0 154 118 229q119 76 297 76h201v37q0 68 -45.5 107.5t-118.5 39.5q-138 0 -196 -135l-203 106q42 122 151.5 194.5t247.5 72.5q186 0 304 -104t118 -281zM682 389h-201q-69 0 -109 -26.5t-40 -79.5
q0 -43 35.5 -65.5t91.5 -22.5q95 0 159 54t64 140z" />
    <glyph glyph-name="atilde.ss02" horiz-adv-x="1058" 
d="M66 281q0 154 118 229q119 76 297 76h201v37q0 68 -45.5 107.5t-118.5 39.5q-138 0 -196 -135l-203 106q42 122 151.5 194.5t247.5 72.5q186 0 304 -104t118 -281v-623h-258v100q-47 -50 -127 -82t-156 -32q-152 0 -242.5 78t-90.5 217zM682 389h-201q-69 0 -109 -26.5
t-40 -79.5q0 -43 35.5 -65.5t91.5 -22.5q95 0 159 54t64 140zM524 1171q-73 37 -106 37q-34 0 -46 -18t-10 -62h-165q-4 54 -4 58q0 93 49 142.5t147 49.5q56 0 156 -49q76 -35 104 -35q32 0 45 18.5t11 61.5h165q4 -54 4 -57q0 -92 -50 -142.5t-148 -50.5q-56 0 -152 47z
" />
    <glyph glyph-name="f.ss03" horiz-adv-x="724" 
d="M205 0v739h-156v238h156v215q0 154 99.5 244t264.5 90q58 0 121 -17v-209q-58 7 -102 7q-60 0 -92.5 -35t-32.5 -96v-199h227v-238h-227v-739h-258z" />
    <glyph glyph-name="r.ss04" horiz-adv-x="706" 
d="M129 0v977h233v-133q82 153 308 153v-272q-132 6 -207.5 -47.5t-75.5 -165.5v-512h-258z" />
    <glyph glyph-name="racute.ss04" horiz-adv-x="706" 
d="M129 0v977h233v-133q82 153 308 153v-272q-132 6 -207.5 -47.5t-75.5 -165.5v-512h-258zM289 1139l123 301h303l-232 -301h-194z" />
    <glyph glyph-name="rcaron.ss04" horiz-adv-x="706" 
d="M129 0v977h233v-133q82 153 308 153v-272q-132 6 -207.5 -47.5t-75.5 -165.5v-512h-258zM391 1108l-358 311h266l92 -92l92 92h267z" />
    <glyph glyph-name="uni0157.ss04" horiz-adv-x="706" 
d="M129 0v977h233v-133q82 153 308 153v-272q-132 6 -207.5 -47.5t-75.5 -165.5v-512h-258zM18 -461l105 311h291l-228 -311h-168z" />
    <glyph glyph-name="t.ss05" horiz-adv-x="745" 
d="M471 1305v-328h254v-238h-254v-739h-258v739h-168v238h168v328h258z" />
    <glyph glyph-name="tbar.ss05" horiz-adv-x="745" 
d="M725 739h-254v-184h244v-205h-244v-350h-258v350h-168v205h168v184h-168v238h168v328h258v-328h254v-238z" />
    <glyph glyph-name="tcaron.ss05" horiz-adv-x="745" 
d="M733 1102h-137v393h313zM471 1305v-328h254v-238h-254v-739h-258v739h-168v238h168v328h258z" />
    <glyph glyph-name="uni0163.ss05" horiz-adv-x="745" 
d="M471 0h-59l-41 -74q57 -18 91 -57t34 -92q0 -70 -53.5 -110t-135.5 -40t-157 35l45 96q36 -22 75 -22q62 0 62 47q0 46 -70 61l-74 15l72 141h-47v739h-168v238h168v328h258v-328h254v-238h-254v-739z" />
    <glyph glyph-name="uni021B.ss05" horiz-adv-x="745" 
d="M471 1305v-328h254v-238h-254v-739h-258v739h-168v238h168v328h258zM100 -461l105 311h291l-228 -311h-168z" />
    <glyph glyph-name="uni1E6B.ss05" horiz-adv-x="745" 
d="M471 1305v-328h254v-238h-254v-739h-258v739h-168v238h168v328h258zM188 1585q0 63 44 104.5t110 41.5q62 0 104.5 -41.5t42.5 -104.5q0 -61 -42.5 -103t-104.5 -42q-66 0 -110 41t-44 104z" />
    <glyph glyph-name="germandbls.ss06" horiz-adv-x="1292" 
d="M1225 463q0 -217 -145 -350t-369 -133q-50 0 -111.5 12t-105.5 31l67 227q73 -33 150 -33q113 0 180 67t67 179q0 119 -63 185.5t-184 66.5h-146v229q82 0 132.5 47t50.5 125t-50.5 125t-132.5 47q-80 0 -128 -46.5t-48 -125.5v-1116h-258v1122q0 185 121 294.5
t311 109.5q189 0 317 -107.5t128 -283.5q0 -127 -84 -228q140 -54 220.5 -172.5t80.5 -271.5z" />
    <glyph glyph-name="f_b" horiz-adv-x="1931" 
d="M1864 492q0 -223 -131.5 -372t-341.5 -149q-203 0 -326 123v-94h-258v739h-344v-739h-258v739h-156v238h156v215q0 154 99.5 244t264.5 90q58 0 121 -17v-209q-58 7 -102 7q-60 0 -92.5 -35t-32.5 -96v-199h344v518h258v-598q59 54 145 82.5t181 28.5q211 0 342 -146.5
t131 -369.5zM1597 492q0 124 -69.5 201t-190.5 77t-191.5 -77t-70.5 -201q0 -127 70 -205t192 -78q121 0 190.5 78t69.5 205z" />
    <glyph glyph-name="f_f_b" horiz-adv-x="2533" 
d="M2466 492q0 -223 -131.5 -372t-341.5 -149q-203 0 -326 123v-94h-258v739h-344v-739h-258v739h-344v-739h-258v739h-156v238h156v215q0 154 99.5 244t264.5 90q58 0 121 -17v-209q-58 7 -102 7q-60 0 -92.5 -35t-32.5 -96v-199h344v215q0 154 99.5 244t264.5 90
q58 0 121 -17v-209q-58 7 -102 7q-60 0 -92.5 -35t-32.5 -96v-199h344v518h258v-598q59 54 145 82.5t181 28.5q211 0 342 -146.5t131 -369.5zM2200 492q0 124 -70 201t-191 77t-191.5 -77t-70.5 -201q0 -127 70 -205t192 -78q121 0 191 78t70 205z" />
    <glyph glyph-name="f_f_f" horiz-adv-x="1939" 
d="M1647 1174v-197h260v-238h-260v-739h-258v739h-330v-739h-258v739h-332v-739h-258v739h-160v238h160v153q0 177 112.5 286.5t294.5 109.5q175 0 291 -113q113 113 299 113q169 0 281 -103q103 103 262 103q164 0 260.5 -95.5t95.5 -256.5h-249q0 51 -29 82.5t-78 31.5
t-76.5 -31t-27.5 -83zM801 977v153h-8q0 74 -42.5 116t-115.5 42q-76 0 -121 -42.5t-45 -115.5v-153h332zM1389 977v153h-7q0 74 -42 116t-115 42q-76 0 -121 -42.5t-45 -115.5v-153h330z" />
    <glyph glyph-name="f_f_h" horiz-adv-x="2471" 
d="M2333 571v-571h-258v551q0 100 -53.5 157.5t-149.5 57.5t-150.5 -57.5t-54.5 -157.5v-551h-258v739h-344v-739h-258v739h-344v-739h-258v739h-156v238h156v215q0 154 99.5 244t264.5 90q58 0 121 -17v-209q-58 7 -102 7q-60 0 -92.5 -35t-32.5 -96v-199h344v215
q0 154 99.5 244t264.5 90q58 0 121 -17v-209q-58 7 -102 7q-60 0 -92.5 -35t-32.5 -96v-199h344v518h248v-610q95 123 291 123q180 0 282.5 -119.5t102.5 -317.5z" />
    <glyph glyph-name="f_f_j" horiz-adv-x="1769" 
d="M1049 977h589v-1387h-258v1149h-331v-739h-258v739h-328v-739h-258v739h-160v238h160v153q0 177 112.5 286.5t294.5 109.5q175 0 287 -109q112 109 297 109q174 0 287.5 -103.5t113.5 -271.5h-258q0 65 -38.5 101t-106.5 36t-106.5 -36t-38.5 -101v-174zM791 977v153h-5
q0 74 -42 116t-115 42q-76 0 -121 -42.5t-45 -115.5v-153h328z" />
    <glyph glyph-name="f_f_k" horiz-adv-x="2414" 
d="M2034 559l356 -559h-299l-266 426h-158v-426h-258v739h-344v-739h-258v739h-344v-739h-258v739h-156v238h156v215q0 154 99.5 244t264.5 90q58 0 121 -17v-209q-58 7 -102 7q-60 0 -92.5 -35t-32.5 -96v-199h344v215q0 154 99.5 244t264.5 90q58 0 121 -17v-209
q-58 7 -102 7q-60 0 -92.5 -35t-32.5 -96v-199h344v518h258v-1055l375 537h297z" />
    <glyph glyph-name="f_h" horiz-adv-x="1869" 
d="M1731 571v-571h-258v551q0 100 -53.5 157.5t-149.5 57.5t-150.5 -57.5t-54.5 -157.5v-551h-258v739h-344v-739h-258v739h-156v238h156v215q0 154 99.5 244t264.5 90q58 0 121 -17v-209q-58 7 -102 7q-60 0 -92.5 -35t-32.5 -96v-199h344v518h248v-610q95 123 291 123
q180 0 282.5 -119.5t102.5 -317.5z" />
    <glyph glyph-name="f_j" horiz-adv-x="1181" 
d="M49 739v238h156v174q0 168 115 271.5t290 103.5q174 0 288 -103.5t114 -271.5h-258q0 65 -39 101t-107 36t-106.5 -36t-38.5 -101v-174h590v-1387h-258v1149h-332v-739h-258v739h-156z" />
    <glyph glyph-name="f_k" horiz-adv-x="1808" 
d="M1427 559l357 -559h-297l-266 426h-160v-426h-258v739h-344v-739h-258v739h-156v238h156v215q0 154 99.5 244t264.5 90q58 0 121 -17v-209q-58 7 -102 7q-60 0 -92.5 -35t-32.5 -96v-199h344v518h258v-1055l377 537h295z" />
    <glyph glyph-name="t_t" horiz-adv-x="1353" 
d="M1079 977h254v-238h-254v-739h-258v739h-336v-739h-258v739h-213l365 561h106v-323h336v328h258v-328z" />
    <glyph glyph-name="zero.tf" 
d="M76 719q0 162 35 298t101.5 236t169.5 155.5t234 55.5q171 0 294.5 -97t185 -264t61.5 -384q0 -218 -61.5 -386t-185 -266t-294.5 -98q-173 0 -297 98.5t-183.5 265.5t-59.5 386zM891 719q0 198 -72 342q-70 143 -203 143q-134 0 -204 -143q-70 -140 -70 -342
q0 -205 70 -348q71 -142 204 -142q132 0 203 142q72 147 72 348z" />
    <glyph glyph-name="one.tf" 
d="M756 252h315v-252h-913v252h325v754h-256l308 436h221v-1190z" />
    <glyph glyph-name="two.tf" 
d="M94 0l596 829q76 105 76 195q0 83 -44.5 132.5t-123.5 49.5t-127.5 -51t-46.5 -131h-260q-6 195 115 317.5t319 122.5q199 0 322.5 -115t123.5 -302q0 -156 -129 -338l-329 -457h534v-252h-1026z" />
    <glyph glyph-name="three.tf" 
d="M61 258l201 170q44 -88 126.5 -144.5t189.5 -56.5q127 0 206.5 71.5t79.5 182.5q0 108 -82 181t-215 73h-182l227 449h-413v250h833l-262 -506q73 -16 138 -52t118 -91t84 -133.5t31 -170.5q0 -146 -73 -263.5t-200 -183t-284 -65.5q-182 0 -317 81t-206 208z" />
    <glyph glyph-name="four.tf" 
d="M987 1462v-1011h193v-250h-193v-201h-258v201h-725l799 1261h184zM434 440h295v473z" />
    <glyph glyph-name="five.tf" 
d="M47 258l201 170q44 -88 126 -144.5t189 -56.5q134 0 213.5 70t79.5 184q0 113 -80.5 181.5t-216.5 68.5q-159 0 -385 -61l131 766h682v-252h-467l-45 -238q87 19 176 19q215 0 348.5 -134.5t133.5 -343.5q0 -231 -156.5 -374.5t-407.5 -143.5q-183 0 -319 81t-203 208z
" />
    <glyph glyph-name="six.tf" 
d="M78 506q0 212 162 477l274 451h320l-287 -441q21 14 58.5 24.5t68.5 10.5q135 0 246 -70t173 -189.5t62 -262.5q0 -145 -69.5 -268t-194 -196t-275.5 -73q-121 0 -223 42t-170.5 114.5t-106.5 170.5t-38 210zM881 498q0 114 -75 197t-190 83q-114 0 -188 -83t-74 -197
q0 -117 73 -194t189 -77t191 78q74 80 74 193z" />
    <glyph glyph-name="seven.tf" 
d="M276 0l488 1184h-674v252h1063l-580 -1436h-297z" />
    <glyph glyph-name="eight.tf" 
d="M328 881q-45 40 -73 103t-28 132q0 150 110.5 249t276.5 99t276.5 -99t110.5 -249q0 -70 -28 -132.5t-72 -102.5q117 -62 184.5 -170.5t67.5 -241.5q0 -143 -71 -258t-194 -178.5t-274 -63.5q-230 0 -384 141.5t-154 358.5q0 132 67.5 241t184.5 171zM614 973q57 0 93 36
t36 93t-36 93t-93 36t-93 -36t-36 -93t36 -93t93 -36zM614 227q116 0 194.5 70t78.5 178t-78.5 178t-194.5 70t-194 -70t-78 -178t78 -178t194 -70z" />
    <glyph glyph-name="nine.tf" 
d="M1149 956q0 -152 -62 -282q-54 -118 -180 -303l-252 -371h-307l375 535q-94 -50 -176 -50q-133 0 -241.5 63.5t-169 171.5t-60.5 236q0 142 70.5 258.5t194 183t273.5 66.5q152 0 274.5 -66.5t191.5 -182.5t69 -259zM354 956q0 -106 73 -177.5t187 -71.5
q115 0 185.5 70.5t70.5 178.5t-70.5 179t-185.5 71q-114 0 -187 -72t-73 -178z" />
    <glyph glyph-name="zero.dnom" horiz-adv-x="784" 
d="M59 393q0 187 90.5 300.5t243.5 113.5q152 0 242 -113.5t90 -300.5q0 -190 -89.5 -303t-242.5 -113t-243.5 113t-90.5 303zM561 393q-1 123 -47 196t-121 73q-78 0 -124 -73.5t-44 -195.5q0 -124 45 -197t123 -73q78 1 123 74t45 196z" />
    <glyph glyph-name="one.dnom" horiz-adv-x="428" 
d="M168 0v559h-150l185 242h125v-801h-160z" />
    <glyph glyph-name="two.dnom" horiz-adv-x="641" 
d="M23 2l329 461q43 58 43 106q0 47 -25.5 75t-68.5 28q-44 0 -70 -28t-26 -75h-146q-2 110 65 178t177 68q111 0 180.5 -63.5t69.5 -167.5q0 -86 -74 -189l-182 -254h297v-139h-569z" />
    <glyph glyph-name="three.dnom" horiz-adv-x="675" 
d="M29 139l112 94q21 -47 68 -78.5t106 -31.5q71 0 115.5 39.5t44.5 101.5q0 61 -46.5 101.5t-119.5 40.5h-90l127 247h-242v140h463l-145 -281q89 -18 148 -83.5t59 -164.5q0 -126 -88 -205t-222 -79q-101 0 -176 44.5t-114 114.5z" />
    <glyph glyph-name="four.dnom" horiz-adv-x="681" 
d="M547 805v-561h106v-140h-106v-112h-144v112h-401l442 701h103zM240 238h163v262z" />
    <glyph glyph-name="five.dnom" horiz-adv-x="684" 
d="M35 139l110 94q25 -50 71 -81t106 -31q73 0 117 39t44 102q0 62 -45 100.5t-119 38.5q-91 0 -215 -34l74 426h379v-140h-260l-25 -133q52 10 99 10q121 0 193.5 -73t72.5 -191q0 -129 -86.5 -209t-226.5 -80q-101 0 -176.5 45t-112.5 117z" />
    <glyph glyph-name="six.dnom" horiz-adv-x="702" 
d="M53 274q0 118 94 267l154 250h180l-162 -244q29 18 72 18q117 0 195 -84t78 -207t-88 -210t-218 -87q-138 0 -221.5 83.5t-83.5 213.5zM510 270q0 64 -43.5 110t-108.5 46t-107 -46t-42 -110t42 -106.5t107 -42.5q66 0 109 43t43 106z" />
    <glyph glyph-name="seven.dnom" horiz-adv-x="612" 
d="M96 0l291 657h-352v140h567l-342 -797h-164z" />
    <glyph glyph-name="eight.dnom" horiz-adv-x="700" 
d="M190 487q-55 52 -55 131q0 85 60.5 139t154.5 54t154.5 -54t60.5 -139q0 -79 -55 -131q64 -36 101.5 -96.5t37.5 -132.5q0 -121 -86 -201q-83 -77 -213 -77q-129 0 -215 77q-84 81 -84 201q0 72 37.5 132.5t101.5 96.5zM350 530q35 0 56.5 22.5t21.5 57.5t-21.5 56.5
t-56.5 21.5t-56.5 -21.5t-21.5 -56.5t21.5 -57.5t56.5 -22.5zM350 123q64 0 108 39t44 100q0 60 -44 98.5t-108 38.5t-107.5 -38.5t-43.5 -98.5q0 -61 43.5 -100t107.5 -39z" />
    <glyph glyph-name="nine.dnom" horiz-adv-x="688" 
d="M639 532q0 -75 -27.5 -142.5t-85.5 -151.5l-164 -236h-180l207 293q-42 -25 -86 -25q-112 0 -188 76q-74 77 -74 186q0 120 86.5 201.5t212.5 81.5q133 0 215 -82q84 -81 84 -201zM205 532q0 -55 38 -92t97 -37q61 0 98 36.5t37 92.5q0 58 -36.5 95t-98.5 37
q-59 0 -97 -38t-38 -94z" />
    <glyph glyph-name="zero.numr" horiz-adv-x="784" 
d="M59 1032q0 187 90.5 300.5t243.5 113.5q152 0 242 -113.5t90 -300.5q0 -190 -89.5 -303t-242.5 -113t-243.5 113t-90.5 303zM561 1032q-1 123 -47 195.5t-121 72.5q-78 0 -124 -73t-44 -195q0 -124 45 -197t123 -73q78 1 123 74t45 196z" />
    <glyph glyph-name="one.numr" horiz-adv-x="428" 
d="M168 637v559h-150l185 242h125v-801h-160z" />
    <glyph glyph-name="two.numr" horiz-adv-x="641" 
d="M23 643l329 461q43 58 43 106q0 47 -25.5 75t-68.5 28q-44 0 -70 -28t-26 -75h-146q-2 110 65 178t177 68q111 0 180.5 -63.5t69.5 -167.5q0 -86 -74 -189l-182 -254h297v-139h-569z" />
    <glyph glyph-name="three.numr" horiz-adv-x="675" 
d="M29 776l112 94q21 -47 68 -78.5t106 -31.5q71 0 115.5 39.5t44.5 101.5q0 61 -46.5 101t-119.5 40h-90l127 248h-242v140h463l-145 -281q89 -18 148 -83.5t59 -164.5q0 -126 -88 -205q-89 -80 -222 -80q-100 0 -175.5 44.5t-114.5 115.5z" />
    <glyph glyph-name="four.numr" horiz-adv-x="681" 
d="M547 1442v-561h106v-140h-106v-112h-144v112h-401l442 701h103zM240 874h163v263z" />
    <glyph glyph-name="five.numr" horiz-adv-x="684" 
d="M35 778l110 94q25 -50 71 -81t106 -31q73 0 117 39t44 102q0 62 -45 100.5t-119 38.5q-91 0 -215 -34l74 426h379v-140h-260l-25 -133q52 10 99 10q121 0 193.5 -73t72.5 -191q0 -129 -86.5 -209t-226.5 -80q-101 0 -176.5 45t-112.5 117z" />
    <glyph glyph-name="six.numr" horiz-adv-x="702" 
d="M53 918q0 117 94 266l154 250h180l-162 -244q29 18 72 18q117 0 195 -84t78 -206q0 -123 -88 -210t-218 -87q-138 0 -221.5 83.5t-83.5 213.5zM510 913q0 64 -43.5 110t-108.5 46t-107 -46t-42 -110t42 -106.5t107 -42.5q66 0 109 43t43 106z" />
    <glyph glyph-name="seven.numr" horiz-adv-x="612" 
d="M96 639l291 657h-352v140h567l-342 -797h-164z" />
    <glyph glyph-name="eight.numr" horiz-adv-x="700" 
d="M190 1124q-55 52 -55 131q0 85 60.5 139t154.5 54t154.5 -54t60.5 -139q0 -79 -55 -131q64 -36 101.5 -96.5t37.5 -132.5q0 -121 -86 -201q-84 -78 -213 -78q-128 0 -215 78q-84 81 -84 201q0 72 37.5 132.5t101.5 96.5zM350 1167q35 0 56.5 22.5t21.5 57.5t-21.5 56.5
t-56.5 21.5t-56.5 -21.5t-21.5 -56.5t21.5 -57.5t56.5 -22.5zM350 760q64 0 108 39t44 100q0 60 -44 98.5t-108 38.5t-107.5 -38.5t-43.5 -98.5q0 -61 43.5 -100t107.5 -39z" />
    <glyph glyph-name="nine.numr" horiz-adv-x="688" 
d="M639 1169q0 -75 -27.5 -143t-85.5 -152l-164 -235h-180l207 293q-42 -25 -86 -25q-112 0 -188 76q-74 77 -74 186q0 120 86.5 201.5t212.5 81.5q133 0 215 -82q84 -81 84 -201zM205 1169q0 -55 38 -92t97 -37q61 0 98 36.5t37 92.5q0 58 -36.5 94.5t-98.5 36.5
q-59 0 -97 -37.5t-38 -93.5z" />
    <glyph glyph-name="colon.case" horiz-adv-x="602" 
d="M117 254q0 77 53 126.5t129 49.5t128 -49.5t52 -126.5q0 -75 -52.5 -125.5t-127.5 -50.5q-76 0 -129 51t-53 125zM117 938q0 77 53 126.5t129 49.5t128 -49.5t52 -126.5q0 -75 -52.5 -125.5t-127.5 -50.5q-76 0 -129 51t-53 125z" />
    <glyph glyph-name="exclamdown.case" horiz-adv-x="608" 
d="M483 1290q0 -75 -52.5 -125.5t-127.5 -50.5q-76 0 -129 51t-53 125t53 125t129 51q75 0 127.5 -50.5t52.5 -125.5zM418 954l35 -952h-301l34 952h232z" />
    <glyph glyph-name="questiondown.case" horiz-adv-x="1087" 
d="M778 1288q0 -77 -53 -126.5t-129 -49.5t-128 49.5t-52 126.5q0 75 52.5 125.5t127.5 50.5q76 0 129 -51t53 -125zM594 1001l156 -190l-191 -145q-114 -89 -163.5 -149.5t-49.5 -125.5q0 -80 57.5 -127t159.5 -47q100 0 164.5 53.5t75.5 135.5l229 -58q-22 -163 -150 -271
t-317 -108q-202 0 -341.5 121t-139.5 293q0 103 37 178q39 74 104 139q47 47 195 164z" />
    <glyph glyph-name="bullet.case" horiz-adv-x="843" 
d="M133 858q0 121 84.5 201t206.5 80q119 0 204 -80t85 -201q0 -119 -85.5 -199.5t-203.5 -80.5q-119 0 -205 80.5t-86 199.5z" />
    <glyph glyph-name="numbersign.case" horiz-adv-x="1558" 
d="M1493 872h-285l-73 -299h221v-215h-273l-88 -358h-247l88 358h-291l-88 -358h-248l88 358h-231v215h282l74 299h-217v215h270l84 347h248l-84 -347h291l84 347h248l-84 -347h231v-215zM887 573l74 299h-291l-74 -299h291z" />
    <glyph glyph-name="slash.case" horiz-adv-x="1134" 
d="M41 -111l764 1635h285l-762 -1635h-287z" />
    <glyph glyph-name="backslash.case" horiz-adv-x="1134" 
d="M809 -111l-764 1635h285l764 -1635h-285z" />
    <glyph glyph-name="parenleft.case" horiz-adv-x="684" 
d="M635 -168l-232 -98q-126 164 -224 455t-95 561q-3 268 95 558.5t224 454.5l232 -98q-114 -173 -193 -416q-82 -250 -82 -499t82 -502q79 -243 193 -416z" />
    <glyph glyph-name="parenright.case" horiz-adv-x="684" 
d="M49 1665l232 98q125 -165 223.5 -455.5t95.5 -557.5q3 -269 -95.5 -559.5t-223.5 -456.5l-232 98q111 167 191 416q84 260 84 502t-84 499q-80 249 -191 416z" />
    <glyph glyph-name="braceleft.case" horiz-adv-x="737" 
d="M211 1022v358q0 181 75.5 265t239.5 84q69 0 146 -15v-203q-64 11 -90 11q-74 0 -100.5 -44t-26.5 -155v-360q0 -88 -43 -145.5t-115 -78.5q72 -21 115 -78t43 -145v-360q0 -112 26.5 -155.5t100.5 -43.5q32 0 90 10v-203q-71 -14 -146 -14q-166 0 -240.5 79t-74.5 257
v371q0 166 -143 166v233q143 0 143 166z" />
    <glyph glyph-name="braceright.case" horiz-adv-x="737" 
d="M670 856v-233q-71 0 -107.5 -43t-36.5 -123v-371q0 -178 -75 -257t-240 -79q-74 0 -145 14v203q52 -10 90 -10q74 0 100.5 43.5t26.5 155.5v360q0 88 41.5 145t113.5 78q-71 21 -113 78.5t-42 145.5v360q0 111 -26.5 155t-100.5 44q-33 0 -90 -11v203q77 15 145 15
q162 0 238.5 -84.5t76.5 -264.5v-358q0 -80 36.5 -123t107.5 -43z" />
    <glyph glyph-name="bracketleft.case" horiz-adv-x="684" 
d="M612 1708v-203h-200v-1532h200v-202h-444v1937h444z" />
    <glyph glyph-name="bracketright.case" horiz-adv-x="684" 
d="M518 1708v-1937h-446v202h202v1532h-202v203h446z" />
    <glyph glyph-name="hyphen.case" horiz-adv-x="868" 
d="M125 831h618v-227h-618v227z" />
    <glyph glyph-name="uni00AD.case" horiz-adv-x="868" 
d="M125 831h618v-227h-618v227z" />
    <glyph glyph-name="endash.case" horiz-adv-x="1181" 
d="M129 829h924v-227h-924v227z" />
    <glyph glyph-name="emdash.case" horiz-adv-x="1665" 
d="M129 602v227h1407v-227h-1407z" />
    <glyph glyph-name="guillemotleft.case" horiz-adv-x="1316" 
d="M682 279h-289l-311 438l311 436h289l-309 -436zM1206 279h-288l-312 438l312 436h288l-307 -436z" />
    <glyph glyph-name="guillemotright.case" horiz-adv-x="1316" 
d="M109 279l309 438l-309 436h288l314 -436l-314 -438h-288zM633 279l309 438l-309 436h291l311 -436l-311 -438h-291z" />
    <glyph glyph-name="guilsinglleft.case" horiz-adv-x="843" 
d="M449 279l-371 438l371 436h288l-364 -436l364 -438h-288z" />
    <glyph glyph-name="guilsinglright.case" horiz-adv-x="843" 
d="M395 1153l371 -436l-371 -438h-289l369 438l-369 436h289z" />
    <glyph glyph-name="Euro.tf" 
d="M954 422l250 -98q-67 -173 -191 -264t-302 -91q-211 0 -347.5 129.5t-187.5 356.5h-141v225h112v37v37h-112v225h141q51 227 187.5 356t347.5 129q178 0 302 -91t191 -263l-250 -98q-77 194 -241 194q-202 0 -260 -227h397v-225h-426v-37v-37h426v-225h-397
q59 -228 260 -228q164 0 241 195z" />
    <glyph glyph-name="minus.case" horiz-adv-x="1253" 
d="M125 602v229h1003v-229h-1003z" />
    <glyph glyph-name="arrowup.case" horiz-adv-x="1304" 
d="M762 131h-223v848l-336 -338l-156 156l606 604l602 -602l-157 -158l-336 336v-846z" />
    <glyph glyph-name="uni2197.case" 
d="M1061 1178v-854h-223v475l-596 -598l-160 159l600 596h-477v222h856z" />
    <glyph glyph-name="arrowright.case" horiz-adv-x="1396" 
d="M1348 741l-605 -604l-155 158l334 336l-844 -2v225l846 -2l-336 338l155 156z" />
    <glyph glyph-name="uni2198.case" horiz-adv-x="1230" 
d="M1061 201h-856v221h477l-600 596l160 160l596 -598v475h223v-854z" />
    <glyph glyph-name="arrowdown.case" horiz-adv-x="1302" 
d="M653 143l-606 605l158 157l336 -338v848h223v-848l334 338l159 -157z" />
    <glyph glyph-name="uni2199.case" horiz-adv-x="1230" 
d="M170 201v854h223v-475l596 598l158 -160l-598 -596h477v-221h-856z" />
    <glyph glyph-name="arrowleft.case" horiz-adv-x="1396" 
d="M51 741l604 605l156 -156l-336 -338l846 2v-225l-846 2l336 -336l-158 -158z" />
    <glyph glyph-name="uni2196.case" 
d="M172 1180h854v-222h-477l600 -596l-160 -159l-596 598v-475h-221v854z" />
    <glyph glyph-name="arrowup.ss09.case" 
d="M1063 799h-334v-645h-229v645h-332l446 549z" />
    <glyph glyph-name="arrowright.ss09.case" 
d="M1217 743l-549 -448v334h-645v229h645v332z" />
    <glyph glyph-name="arrowdown.ss09.case" 
d="M729 690h332l-447 -549l-448 549h334v643h229v-643z" />
    <glyph glyph-name="arrowleft.ss09.case" 
d="M1206 858v-229h-645v-332l-549 446l549 449v-334h645z" />
    <glyph glyph-name="arrowup.ss09" 
d="M1063 641h-334v-645h-229v645h-332l446 549z" />
    <glyph glyph-name="arrowright.ss09" 
d="M1217 586l-549 -449v334h-645v229h645v332z" />
    <glyph glyph-name="arrowdown.ss09" 
d="M729 532h332l-447 -548l-448 548h334v644h229v-644z" />
    <glyph glyph-name="arrowleft.ss09" 
d="M1206 700v-229h-645v-332l-549 447l549 448v-334h645z" />
    <glyph glyph-name="uni25B4.case" 
d="M1004 379h-781l391 674z" />
    <glyph glyph-name="uni25B8.case" 
d="M303 326v782l676 -391z" />
    <glyph glyph-name="uni25BE.case" 
d="M225 1055h781l-392 -674z" />
    <glyph glyph-name="uni25C2.case" 
d="M926 1108v-784l-676 393z" />
    <glyph glyph-name="bar.case" horiz-adv-x="602" 
d="M436 1604v-1844h-270v1844h270z" />
    <glyph glyph-name="brokenbar.case" horiz-adv-x="602" 
d="M436 1604v-758h-270v758h270zM436 571v-772h-270v772h270z" />
    <glyph glyph-name="ampersand.ss08" horiz-adv-x="1298" 
d="M74 352q0 122 78.5 231.5t248.5 256.5q-74 103 -108.5 176.5t-34.5 150.5q0 130 102 213.5t242 83.5q139 0 237.5 -83.5t98.5 -213.5q0 -103 -49 -184.5t-154 -173.5l230 -320l161 142l150 -201l-166 -143l207 -287h-313l-95 131q-199 -162 -420 -162q-187 0 -301 103
t-114 280zM680 1151q0 32 -23.5 54t-58.5 22t-58.5 -22t-23.5 -54q0 -36 31.5 -84.5t50.5 -67.5q82 67 82 152zM770 328l-229 319q-95 -79 -145 -149.5t-50 -145.5q0 -62 44 -100.5t112 -38.5q69 0 131 28.5t137 86.5z" />
    <glyph glyph-name="uni0327..case" horiz-adv-x="0" 
d="M-836 -356l48 102q42 -25 77 -25q31 0 49.5 13t18.5 37q0 50 -76 65l-76 14l99 197l135 -47l-43 -78q61 -17 97 -59.5t36 -98.5q0 -73 -56.5 -115t-144.5 -42q-86 0 -164 37z" />
    <glyph glyph-name="uni0308.case" horiz-adv-x="0" 
d="M-985 1724q0 67 43.5 108.5t110.5 41.5q64 0 106.5 -41.5t42.5 -108.5q0 -65 -42.5 -106t-106.5 -41t-109 41t-45 106zM-549 1724q0 67 44.5 108.5t111.5 41.5q64 0 106.5 -41.5t42.5 -108.5q0 -65 -42.5 -106t-106.5 -41q-67 0 -111.5 41t-44.5 106z" />
    <glyph glyph-name="uni0307.case" horiz-adv-x="0" 
d="M-772 1731q0 63 44 105t110 42t109.5 -42t43.5 -105t-43.5 -105.5t-109.5 -42.5t-110 42.5t-44 105.5z" />
    <glyph glyph-name="gravecomb.case" horiz-adv-x="0" 
d="M-465 1573h-203l-237 301h321z" />
    <glyph glyph-name="acutecomb.case" horiz-adv-x="0" 
d="M-698 1573l118 301h320l-236 -301h-202z" />
    <glyph glyph-name="uni030B.case" horiz-adv-x="0" 
d="M-877 1571l119 325h273l-213 -325h-179zM-483 1571l118 325h273l-213 -325h-178z" />
    <glyph glyph-name="uni0302.case" horiz-adv-x="0" 
d="M-985 1571l371 311l370 -311h-268l-102 94l-103 -94h-268z" />
    <glyph glyph-name="uni030C.case" horiz-adv-x="0" 
d="M-614 1546l-379 309h266l113 -96l112 96h266z" />
    <glyph glyph-name="uni0306.case" horiz-adv-x="0" 
d="M-946 1858h209q0 -56 34 -89.5t91 -33.5t91 33.5t34 89.5h208q0 -132 -96 -216q-94 -79 -239 -79q-144 0 -238 79q-94 82 -94 216z" />
    <glyph glyph-name="uni030A.case" horiz-adv-x="0" 
d="M-848 1720q0 97 69.5 162.5t172.5 65.5q102 0 169.5 -65.5t67.5 -162.5q0 -98 -67 -163.5t-170 -65.5t-172.5 66t-69.5 163zM-518 1720q0 36 -26.5 60t-63.5 24q-39 0 -64.5 -23.5t-25.5 -60.5q0 -38 25.5 -62t64.5 -24q37 0 63.5 25t26.5 61z" />
    <glyph glyph-name="tildecomb.case" horiz-adv-x="0" 
d="M-635 1628q-70 37 -94 37q-67 0 -57 -92h-177q-2 10 -2 41q0 105 53 164t154 59q60 0 168 -57q70 -37 96 -37q66 0 56 94h176l2 -37q0 -108 -53 -167.5t-156 -59.5q-22 0 -49 7.5t-48 16.5t-69 31z" />
    <glyph glyph-name="uni0304.case" horiz-adv-x="0" 
d="M-922 1788h615v-199h-615v199z" />
    <glyph glyph-name="uni0312.case" horiz-adv-x="0" 
d="M-143 1501v-327h-291l153 327h138z" />
    <glyph glyph-name="uni0328.case" horiz-adv-x="0" 
d="M-483 -217l26 -150q-80 -45 -166 -45q-89 0 -146.5 53t-57.5 140q0 65 38 121.5t117 122.5l66 51l129 -76l-74 -53q-86 -59 -86 -117q0 -29 22 -49.5t52 -20.5q39 0 80 23z" />
    <glyph glyph-name="cedilla.case" 
d="M393 -356l47 102q42 -25 78 -25q31 0 49.5 13t18.5 37q0 50 -76 65l-76 14l98 197l136 -47l-43 -78q61 -17 97 -59.5t36 -98.5q0 -73 -56.5 -115t-144.5 -42q-86 0 -164 37z" />
    <glyph glyph-name="ogonek.i.case" 
d="M745 -207l27 -141q-74 -45 -158 -45q-86 0 -140 50t-54 134q0 63 36.5 118t110.5 116l64 47l121 -72l-70 -51q-82 -55 -82 -111q0 -29 20.5 -47t51.5 -18q40 0 73 20z" />
    <glyph glyph-name="ogonek.case" 
d="M745 -207l27 -141q-74 -45 -158 -45q-86 0 -140 50t-54 134q0 63 36.5 118t110.5 116l64 47l121 -72l-70 -51q-82 -55 -82 -111q0 -29 20.5 -47t51.5 -18q40 0 73 20z" />
    <glyph glyph-name="ogonek.i" 
d="M745 -207l27 -141q-74 -45 -158 -45q-86 0 -140 50t-54 134q0 63 36.5 118t110.5 116l64 47l121 -72l-70 -51q-82 -55 -82 -111q0 -29 20.5 -47t51.5 -18q40 0 73 20z" />
    <glyph glyph-name="dotaccent.l" 
d="M461 702q0 66 45 109t112 43q66 0 111 -43t45 -109q0 -63 -45 -106t-111 -43t-111.5 43t-45.5 106z" />
    <glyph glyph-name="caron.slovak" horiz-adv-x="542" 
d="M131 1200v311h313l-176 -311h-137z" />
    <glyph glyph-name="litdash" horiz-adv-x="6320" 
d="M117 473v227h6086v-227h-6086z" />
    <glyph glyph-name="crossmark" horiz-adv-x="1335" 
d="M1251 1006l-417 -418l417 -418l-166 -166l-417 418l-418 -418l-166 166l418 418l-416 418l164 165l418 -417l417 417z" />
    <glyph glyph-name="caronaltcomb" 
d="M676 946h-137v488h313z" />
    <glyph glyph-name="litdash.case" horiz-adv-x="6320" 
d="M117 631v227h6086v-227h-6086z" />
    </font>
</defs>
</svg>
