<svg width="244" height="70" viewBox="0 0 244 70" fill="none" xmlns="http://www.w3.org/2000/svg">
<path d="M243.95 63C243.95 66.85 240.8 70 236.95 70H7C3.15 70 0 66.85 0 63V7C0 3.15 3.15 0 7 0H236.88C240.8 0 243.88 3.15 243.88 7L243.95 63Z" fill="white"/>
<path d="M53.5501 34.65C53.4801 28.77 58.3801 25.9 58.5901 25.76C55.7901 21.7 51.5201 21.14 50.0501 21.14C46.4801 20.79 42.9801 23.31 41.0901 23.31C39.2001 23.31 36.4001 21.21 33.3201 21.28C29.4001 21.35 25.7601 23.59 23.7301 27.16C19.6001 34.23 22.7501 44.8 26.6701 50.61C28.6301 53.48 31.0101 56.63 34.0201 56.49C37.0301 56.35 38.0801 54.6 41.7201 54.6C45.2901 54.6 46.3401 56.49 49.4201 56.42C52.6401 56.35 54.6001 53.55 56.5601 50.68C58.8701 47.39 59.7801 44.24 59.8501 44.03C59.7801 44.03 53.6201 41.72 53.5501 34.65Z" fill="black"/>
<path d="M47.6702 17.22C49.2802 15.19 50.4002 12.46 50.0502 9.72998C47.7402 9.79998 44.8002 11.34 43.1902 13.3C41.7202 15.05 40.3902 17.85 40.7402 20.51C43.3302 20.72 46.0602 19.25 47.6702 17.22Z" fill="black"/>
<path d="M96.6701 56.07H92.5401L90.2301 48.93H82.3201L80.1501 56.07H76.0901L83.9301 31.71H88.7601L96.6701 56.07ZM89.5301 45.92L87.5001 39.55C87.2901 38.92 86.8701 37.38 86.2401 34.93H86.1701C85.9601 35.98 85.5401 37.52 84.9801 39.55L82.9501 45.92H89.5301Z" fill="black"/>
<path d="M116.83 47.1099C116.83 50.1199 115.99 52.4299 114.38 54.1799C112.91 55.7199 111.16 56.4899 108.99 56.4899C106.68 56.4899 105 55.6499 104.02 53.9699H103.95V63.2099H100.03V44.3099C100.03 42.4199 99.9601 40.5299 99.8901 38.4999H103.32L103.53 41.2999H103.6C104.93 39.1999 106.89 38.1499 109.55 38.1499C111.65 38.1499 113.33 38.9899 114.73 40.5999C116.13 42.2799 116.83 44.3799 116.83 47.1099ZM112.84 47.2499C112.84 45.5699 112.49 44.0999 111.65 43.0499C110.81 41.8599 109.69 41.2999 108.22 41.2999C107.24 41.2999 106.4 41.6499 105.63 42.2799C104.86 42.9099 104.3 43.7499 104.09 44.7999C103.95 45.2899 103.88 45.7099 103.88 45.9899V48.9299C103.88 50.1899 104.3 51.3099 105.07 52.1499C105.84 52.9899 106.89 53.4799 108.15 53.4799C109.62 53.4799 110.74 52.9199 111.58 51.7999C112.42 50.6099 112.84 49.0699 112.84 47.2499Z" fill="black"/>
<path d="M137.06 47.1099C137.06 50.1199 136.22 52.4299 134.61 54.1799C133.14 55.7199 131.39 56.4899 129.22 56.4899C126.91 56.4899 125.23 55.6499 124.25 53.9699H124.18V63.2099H120.26V44.3099C120.26 42.4199 120.19 40.5299 120.12 38.4999H123.55L123.76 41.2999H123.83C125.16 39.1999 127.12 38.1499 129.78 38.1499C131.88 38.1499 133.56 38.9899 134.96 40.5999C136.36 42.2799 137.06 44.3799 137.06 47.1099ZM133.07 47.2499C133.07 45.5699 132.65 44.0999 131.88 43.0499C131.04 41.8599 129.92 41.2999 128.45 41.2999C127.47 41.2999 126.63 41.6499 125.86 42.2799C125.09 42.9099 124.53 43.7499 124.32 44.7999C124.18 45.2899 124.11 45.7099 124.11 45.9899V48.9299C124.11 50.1899 124.53 51.3099 125.3 52.1499C126.07 53.0599 127.12 53.4799 128.38 53.4799C129.85 53.4799 130.97 52.9199 131.81 51.7999C132.65 50.6099 133.07 49.0699 133.07 47.2499Z" fill="black"/>
<path d="M159.67 49.2798C159.67 51.3798 158.97 53.0598 157.5 54.3198C155.89 55.7198 153.72 56.4198 150.85 56.4198C148.26 56.4198 146.09 55.9298 144.55 54.8798L145.46 51.5898C147.14 52.6398 149.03 53.1298 151.13 53.1298C152.6 53.1298 153.72 52.7798 154.56 52.1498C155.4 51.5198 155.82 50.6098 155.82 49.4898C155.82 48.5098 155.47 47.6698 154.84 46.9698C154.14 46.2698 153.02 45.6398 151.48 45.0798C147.21 43.4698 145.11 41.1598 145.11 38.0798C145.11 36.0498 145.88 34.4398 147.35 33.1798C148.82 31.9198 150.85 31.2898 153.3 31.2898C155.54 31.2898 157.36 31.7098 158.83 32.4798L157.85 35.6298C156.45 34.8598 154.91 34.5098 153.16 34.5098C151.76 34.5098 150.71 34.8598 149.94 35.4898C149.31 36.1198 148.96 36.8198 148.96 37.7298C148.96 38.7098 149.31 39.4798 150.08 40.1098C150.71 40.6698 151.9 41.2998 153.65 41.9998C155.75 42.8398 157.29 43.8198 158.27 44.9398C159.18 46.1298 159.67 47.5298 159.67 49.2798Z" fill="black"/>
<path d="M172.55 41.4398H168.21V49.9798C168.21 52.1498 168.98 53.2698 170.52 53.2698C171.22 53.2698 171.78 53.1998 172.27 53.0598L172.41 55.9998C171.64 56.2798 170.66 56.4198 169.4 56.4198C167.86 56.4198 166.67 55.9298 165.76 55.0198C164.92 54.1098 164.43 52.4998 164.43 50.2598V41.4398H161.84V38.4998H164.43V35.2798L168.28 34.0898V38.4998H172.62C172.55 38.4998 172.55 41.4398 172.55 41.4398Z" fill="black"/>
<path d="M192.01 47.1799C192.01 49.9099 191.24 52.0799 189.7 53.8299C188.09 55.6499 185.92 56.4899 183.26 56.4899C180.67 56.4899 178.64 55.6499 177.1 53.8999C175.56 52.1499 174.79 50.0499 174.79 47.4599C174.79 44.7299 175.56 42.4899 177.17 40.7399C178.78 38.9899 180.88 38.1499 183.54 38.1499C186.13 38.1499 188.23 38.9899 189.77 40.7399C191.24 42.3499 192.01 44.5199 192.01 47.1799ZM187.95 47.2499C187.95 45.6399 187.6 44.2399 186.9 43.0499C186.06 41.6499 184.94 40.9499 183.4 40.9499C181.86 40.9499 180.67 41.6499 179.83 43.0499C179.13 44.2399 178.78 45.6399 178.78 47.3199C178.78 48.9299 179.13 50.3299 179.83 51.5199C180.67 52.9199 181.86 53.6199 183.4 53.6199C184.87 53.6199 186.06 52.9199 186.9 51.4499C187.6 50.3299 187.95 48.9299 187.95 47.2499Z" fill="black"/>
<path d="M204.68 41.9299C204.26 41.8599 203.91 41.7899 203.42 41.7899C202.02 41.7899 200.97 42.2799 200.27 43.3299C199.64 44.2399 199.29 45.4299 199.29 46.8299V56.0699H195.37L195.44 44.0299C195.44 41.9999 195.37 40.1799 195.3 38.4999H198.73L198.87 41.8599H199.01C199.43 40.6699 200.06 39.7599 200.97 39.0599C201.81 38.4299 202.79 38.1499 203.77 38.1499C204.12 38.1499 204.47 38.1499 204.75 38.2199C204.68 38.2199 204.68 41.9299 204.68 41.9299Z" fill="black"/>
<path d="M222.18 46.4799C222.18 47.1799 222.11 47.7399 222.04 48.2299H210.35C210.42 49.9799 210.98 51.3099 212.03 52.2199C213.01 53.0599 214.27 53.4799 215.88 53.4799C217.63 53.4799 219.17 53.1999 220.64 52.6399L221.2 55.2999C219.52 55.9999 217.56 56.4199 215.32 56.4199C212.59 56.4199 210.42 55.6499 208.88 54.0399C207.34 52.4299 206.57 50.2599 206.57 47.5999C206.57 44.9399 207.27 42.7699 208.74 40.9499C210.28 39.0599 212.31 38.1499 214.9 38.1499C217.42 38.1499 219.38 39.0599 220.64 40.9499C221.62 42.4199 222.18 44.2399 222.18 46.4799ZM218.47 45.4299C218.47 44.2399 218.26 43.2599 217.7 42.4199C217 41.2999 216.02 40.8099 214.62 40.8099C213.36 40.8099 212.31 41.3699 211.54 42.4199C210.91 43.2599 210.49 44.3099 210.35 45.4299H218.47Z" fill="black"/>
<path d="M88.1998 16.7301C88.1998 18.9001 87.5698 20.5101 86.2398 21.6301C85.0498 22.6101 83.3698 23.1701 81.1298 23.1701C80.0098 23.1701 79.0998 23.1001 78.3298 23.0301V11.1301C79.3798 10.9901 80.4298 10.8501 81.6198 10.8501C83.7198 10.8501 85.3298 11.3401 86.3798 12.2501C87.6398 13.3001 88.1998 14.7701 88.1998 16.7301ZM86.2398 16.7301C86.2398 15.3301 85.8898 14.2801 85.1198 13.5101C84.3498 12.7401 83.2998 12.3901 81.8998 12.3901C81.2698 12.3901 80.7798 12.4601 80.3598 12.5301V21.4901C80.5698 21.5601 81.0598 21.5601 81.6898 21.5601C83.1598 21.5601 84.2798 21.1401 85.1198 20.3001C85.8198 19.5301 86.2398 18.3401 86.2398 16.7301Z" fill="#B0B3B8"/>
<path d="M98.9798 18.62C98.9798 19.95 98.6298 21.07 97.8598 21.91C97.0898 22.82 96.0398 23.24 94.7098 23.24C93.4498 23.24 92.3998 22.82 91.6998 21.98C90.9298 21.14 90.5798 20.09 90.5798 18.83C90.5798 17.5 90.9998 16.38 91.7698 15.54C92.5398 14.7 93.5898 14.28 94.9198 14.28C96.1798 14.28 97.2298 14.7 97.9998 15.54C98.6298 16.24 98.9798 17.29 98.9798 18.62ZM96.9498 18.62C96.9498 17.85 96.8098 17.15 96.4598 16.59C96.0398 15.89 95.4798 15.54 94.7098 15.54C93.9398 15.54 93.3798 15.89 92.9598 16.59C92.6098 17.15 92.4698 17.85 92.4698 18.69C92.4698 19.46 92.6098 20.16 92.9598 20.72C93.3798 21.42 93.9398 21.77 94.7098 21.77C95.4098 21.77 96.0398 21.42 96.4598 20.72C96.8098 20.16 96.9498 19.46 96.9498 18.62Z" fill="#B0B3B8"/>
<path d="M113.33 14.3501L110.6 22.9601H108.85L107.73 19.1801C107.45 18.2701 107.24 17.2901 107.03 16.3801C106.89 17.3601 106.61 18.2701 106.33 19.1801L105.14 22.9601H103.39L100.87 14.3501H102.83L103.81 18.4801C104.02 19.4601 104.23 20.3701 104.37 21.2801C104.51 20.5801 104.72 19.6701 105.07 18.5501L106.33 14.4201H107.87L109.06 18.4801C109.34 19.4601 109.55 20.4401 109.76 21.3501H109.83C109.97 20.4401 110.18 19.5301 110.39 18.4801L111.44 14.4201L113.33 14.3501Z" fill="#B0B3B8"/>
<path d="M123.34 22.9599H121.45V17.9899C121.45 16.4499 120.89 15.6799 119.7 15.6799C119.14 15.6799 118.65 15.8899 118.3 16.3099C117.95 16.7299 117.74 17.2199 117.74 17.7799V22.8899H115.85V16.7999C115.85 16.0299 115.85 15.1899 115.78 14.3499H117.46L117.53 15.6799H117.6C117.81 15.2599 118.16 14.9099 118.58 14.6299C119.07 14.2799 119.7 14.1399 120.33 14.1399C121.17 14.1399 121.8 14.4199 122.36 14.9099C122.99 15.5399 123.34 16.5199 123.34 17.7799V22.9599V22.9599Z" fill="#B0B3B8"/>
<path d="M128.59 22.9601H126.7V10.3601H128.59V22.9601Z" fill="#B0B3B8"/>
<path d="M139.93 18.62C139.93 19.95 139.58 21.07 138.81 21.91C138.04 22.82 136.99 23.24 135.66 23.24C134.4 23.24 133.35 22.82 132.65 21.98C131.88 21.14 131.53 20.09 131.53 18.83C131.53 17.5 131.95 16.38 132.72 15.54C133.49 14.7 134.54 14.28 135.87 14.28C137.13 14.28 138.18 14.7 138.95 15.54C139.51 16.24 139.93 17.29 139.93 18.62ZM137.9 18.62C137.9 17.85 137.76 17.15 137.41 16.59C136.99 15.89 136.43 15.54 135.66 15.54C134.89 15.54 134.33 15.89 133.91 16.59C133.56 17.15 133.42 17.85 133.42 18.69C133.42 19.46 133.56 20.16 133.91 20.72C134.33 21.42 134.89 21.77 135.66 21.77C136.36 21.77 136.99 21.42 137.41 20.72C137.76 20.16 137.9 19.46 137.9 18.62Z" fill="#B0B3B8"/>
<path d="M149.17 22.9599H147.42L147.28 21.9799H147.21C146.65 22.7499 145.81 23.1699 144.69 23.1699C143.85 23.1699 143.22 22.8899 142.73 22.3999C142.31 21.9099 142.03 21.3499 142.03 20.6499C142.03 19.5999 142.45 18.7599 143.36 18.1999C144.27 17.6399 145.46 17.3599 147.07 17.3599V17.2199C147.07 16.0999 146.44 15.5399 145.25 15.5399C144.41 15.5399 143.64 15.7499 143.01 16.1699L142.59 14.9099C143.36 14.4199 144.41 14.1399 145.53 14.1399C147.77 14.1399 148.89 15.3299 148.89 17.7099V20.8599C149.1 21.7699 149.1 22.4699 149.17 22.9599ZM147.21 20.0199V18.6899C145.11 18.6199 144.06 19.2499 144.06 20.4399C144.06 20.8599 144.2 21.2099 144.41 21.4199C144.69 21.6299 144.97 21.7699 145.32 21.7699C145.74 21.7699 146.16 21.6299 146.51 21.3499C146.86 21.0699 147.07 20.7199 147.21 20.2999C147.21 20.2299 147.21 20.1599 147.21 20.0199Z" fill="#B0B3B8"/>
<path d="M160.09 22.9602H158.41L158.34 21.5602H158.27C157.71 22.6102 156.8 23.1702 155.47 23.1702C154.42 23.1702 153.58 22.7502 152.88 21.9102C152.18 21.0702 151.83 20.0202 151.83 18.7602C151.83 17.3602 152.18 16.2402 152.95 15.4002C153.65 14.5602 154.56 14.2102 155.61 14.2102C156.8 14.2102 157.57 14.6302 158.06 15.4002H158.13V10.4302H160.02V20.7202C160.02 21.4902 160.09 22.2602 160.09 22.9602ZM158.13 19.3202V17.8502C158.13 17.5702 158.13 17.4302 158.06 17.2202C157.92 16.7302 157.71 16.3802 157.36 16.0302C157.01 15.7502 156.59 15.5402 156.1 15.5402C155.4 15.5402 154.84 15.8202 154.42 16.3802C154 16.9402 153.79 17.7102 153.79 18.5502C153.79 19.3902 154 20.0902 154.35 20.6502C154.77 21.2102 155.33 21.4902 156.03 21.4902C156.66 21.4902 157.15 21.2802 157.57 20.7902C157.92 20.5102 158.13 19.9502 158.13 19.3202Z" fill="#B0B3B8"/>
<path d="M176.54 18.62C176.54 19.95 176.19 21.07 175.42 21.91C174.65 22.82 173.6 23.24 172.27 23.24C171.01 23.24 169.96 22.82 169.26 21.98C168.49 21.14 168.14 20.09 168.14 18.83C168.14 17.5 168.56 16.38 169.33 15.54C170.1 14.7 171.15 14.28 172.48 14.28C173.74 14.28 174.79 14.7 175.56 15.54C176.19 16.24 176.54 17.29 176.54 18.62ZM174.58 18.62C174.58 17.85 174.44 17.15 174.09 16.59C173.67 15.89 173.11 15.54 172.34 15.54C171.57 15.54 171.01 15.89 170.59 16.59C170.24 17.15 170.1 17.85 170.1 18.69C170.1 19.46 170.24 20.16 170.59 20.72C171.01 21.42 171.57 21.77 172.34 21.77C173.04 21.77 173.67 21.42 174.09 20.72C174.37 20.16 174.58 19.46 174.58 18.62Z" fill="#B0B3B8"/>
<path d="M186.83 22.9599H184.94V17.9899C184.94 16.4499 184.38 15.6799 183.19 15.6799C182.63 15.6799 182.14 15.8899 181.79 16.3099C181.44 16.7299 181.23 17.2199 181.23 17.7799V22.8899H179.34V16.7999C179.34 16.0299 179.34 15.1899 179.27 14.3499H180.95L181.02 15.6799H181.09C181.3 15.2599 181.65 14.9099 182.07 14.6299C182.56 14.2799 183.19 14.1399 183.82 14.1399C184.59 14.1399 185.29 14.4199 185.85 14.9099C186.55 15.5399 186.83 16.5199 186.83 17.7799V22.9599V22.9599Z" fill="#B0B3B8"/>
<path d="M199.78 15.7502H197.68V19.9502C197.68 21.0002 198.03 21.5602 198.8 21.5602C199.15 21.5602 199.43 21.5602 199.64 21.4902L199.71 22.9602C199.36 23.1002 198.8 23.1702 198.24 23.1702C197.47 23.1702 196.91 22.9602 196.49 22.4702C196.07 21.9802 195.86 21.2102 195.86 20.1602V15.8202H194.6V14.3502H195.86V12.7402L197.75 12.1802V14.3502H199.85L199.78 15.7502Z" fill="#B0B3B8"/>
<path d="M209.93 22.9601H208.04V18.0601C208.04 16.5201 207.48 15.7501 206.29 15.7501C205.38 15.7501 204.82 16.1701 204.47 17.0801C204.4 17.2901 204.4 17.5001 204.4 17.7801V22.9601H202.51V10.3601H204.4V15.5401H204.47C205.1 14.5601 205.94 14.1401 207.06 14.1401C207.83 14.1401 208.53 14.4201 209.02 14.9101C209.65 15.5401 210 16.5201 210 17.7801C209.93 17.8501 209.93 22.9601 209.93 22.9601Z" fill="#B0B3B8"/>
<path d="M220.43 18.27C220.43 18.62 220.43 18.9 220.36 19.11H214.62C214.62 19.95 214.9 20.58 215.46 21.07C215.95 21.49 216.58 21.7 217.35 21.7C218.19 21.7 218.96 21.56 219.66 21.28L219.94 22.61C219.1 22.96 218.19 23.17 217.07 23.17C215.74 23.17 214.69 22.75 213.92 21.98C213.15 21.21 212.8 20.16 212.8 18.83C212.8 17.5 213.15 16.45 213.85 15.61C214.62 14.7 215.6 14.21 216.86 14.21C218.12 14.21 219.03 14.7 219.66 15.61C220.15 16.24 220.43 17.15 220.43 18.27ZM218.61 17.78C218.61 17.22 218.47 16.73 218.26 16.31C217.91 15.75 217.42 15.54 216.72 15.54C216.09 15.54 215.6 15.82 215.18 16.31C214.83 16.73 214.69 17.22 214.62 17.78H218.61Z" fill="#B0B3B8"/>
</svg>
