<svg width="40" height="40" viewBox="0 0 40 40" fill="none" xmlns="http://www.w3.org/2000/svg">
<path d="M14.1467 17.0711C16.2319 20.7344 19.2656 23.7681 22.9289 25.8533L24.8933 23.1022C25.2092 22.6599 25.6763 22.3486 26.2062 22.2274C26.7361 22.1062 27.2921 22.1834 27.7689 22.4444C30.9118 24.1621 34.3827 25.1951 37.9533 25.4756C38.5106 25.5197 39.0308 25.7723 39.4101 26.1829C39.7894 26.5936 40.0001 27.1321 40 27.6911V37.6067C40.0001 38.1569 39.7961 38.6876 39.4275 39.096C39.0588 39.5045 38.5518 39.7617 38.0044 39.8178C36.8267 39.94 35.64 40 34.4444 40C15.4222 40 0 24.5778 0 5.55556C0 4.36 0.06 3.17333 0.182222 1.99556C0.238344 1.44822 0.495521 0.941157 0.903977 0.57252C1.31243 0.203883 1.84312 -0.000118573 2.39333 5.1705e-08H12.3089C12.8679 -7.00411e-05 13.4064 0.210559 13.8171 0.589891C14.2277 0.969222 14.4803 1.48939 14.5244 2.04667C14.8049 5.61732 15.8379 9.08818 17.5556 12.2311C17.8166 12.7079 17.8938 13.2639 17.7726 13.7938C17.6514 14.3237 17.3401 14.7908 16.8978 15.1067L14.1467 17.0711ZM8.54222 15.6111L12.7644 12.5956C11.5662 10.0091 10.7452 7.26409 10.3267 4.44444H4.46667C4.45333 4.81333 4.44667 5.18444 4.44667 5.55556C4.44444 22.1244 17.8756 35.5556 34.4444 35.5556C34.8156 35.5556 35.1867 35.5489 35.5556 35.5333V29.6733C32.7359 29.2548 29.9909 28.4338 27.4044 27.2356L24.3889 31.4578C23.1748 30.986 21.9956 30.4291 20.86 29.7911L20.7311 29.7178C16.3724 27.2372 12.7628 23.6276 10.2822 19.2689L10.2089 19.14C9.57091 18.0044 9.01396 16.8252 8.54222 15.6111Z" fill="#FF3761"/>
</svg>
