<svg width="70" height="58" viewBox="0 0 70 58" fill="none" xmlns="http://www.w3.org/2000/svg">
<path d="M32.6245 24.7605H4.04886C1.86871 24.7605 0 26.6292 0 28.8872V47.4964C0 49.7544 1.86871 51.5453 4.04886 51.5453H8.48704L7.942 57.7743L18.4535 51.5453H32.6245C34.8825 51.5453 36.6733 49.6766 36.6733 47.4964V28.8872C36.7512 26.6292 34.8825 24.7605 32.6245 24.7605Z" fill="#FF3761"/>
<path d="M62.9908 0H20.0884C16.1953 0 13.0029 3.19237 13.0029 7.08551V21.1008H32.6243C36.9068 21.1008 40.3328 24.6046 40.3328 28.8092V42.0459H41.1114L58.1633 52.168L57.3068 42.0459H62.9129C66.8061 42.0459 69.9985 38.8535 69.9985 34.9604V7.08551C70.0763 3.19237 66.8839 0 62.9908 0Z" fill="#FF3761"/>
</svg>
