<svg width="58" height="52" viewBox="0 0 58 52" fill="none" xmlns="http://www.w3.org/2000/svg">
<g filter="url(#filter0_d)">
<path d="M8.12037 0C5.85737 0 4 1.862 4 4.125V32.1065C4 34.3695 5.85737 36.2268 8.12037 36.2268H23.5787L22.162 41.2593H18.3472C17.6927 41.2593 17.162 41.7899 17.162 42.4444C17.162 43.099 17.6927 43.6296 18.3472 43.6296H39.6528C40.3073 43.6296 40.838 43.099 40.838 42.4444C40.838 41.7899 40.3073 41.2593 39.6528 41.2593H35.8426L34.4583 36.2268H49.8796C52.1426 36.2268 54 34.3695 54 32.1065V4.125C54 1.862 52.1426 0 49.8796 0H8.12037ZM31.3194 7.40741C31.949 7.5908 32.31 8.25054 32.125 8.87963L28.1481 22.5324C27.9647 23.1596 27.3082 23.52 26.6806 23.338C26.0534 23.1545 25.693 22.498 25.875 21.8704L29.8518 8.21296C30.0297 7.54927 30.6874 7.23806 31.3194 7.40741ZM35.7639 9.7963L40.5046 14.537C40.9673 14.9999 40.9673 15.7501 40.5046 16.213L35.7639 20.9537C35.3011 21.4164 34.5508 21.4164 34.088 20.9537C33.6252 20.4909 33.6252 19.7406 34.088 19.2778L37.9907 15.375L34.088 11.4722C33.6252 11.0094 33.6252 10.2591 34.088 9.7963C34.5893 9.29497 35.3805 9.41293 35.7639 9.7963ZM23.912 9.7963C24.3748 10.2591 24.3748 11.0094 23.912 11.4722L20.0093 15.375L23.912 19.2778C24.3748 19.7406 24.3748 20.4909 23.912 20.9537C23.4492 21.4164 22.6989 21.4164 22.2361 20.9537L17.4954 16.213C17.0327 15.7501 17.0327 14.9999 17.4954 14.537L22.2361 9.7963C22.7096 9.32278 23.4232 9.30747 23.912 9.7963ZM6.37037 29.7685H51.6296V32.1065C51.6296 33.0973 50.8704 33.8565 49.8796 33.8565H8.12037C7.12956 33.8565 6.37037 33.0973 6.37037 32.1065V29.7685ZM26.0417 36.2268H32L33.3843 41.2593H24.625L26.0417 36.2268Z" fill="white"/>
</g>
<defs>
<filter id="filter0_d" x="0" y="0" width="58" height="51.6296" filterUnits="userSpaceOnUse" color-interpolation-filters="sRGB">
<feFlood flood-opacity="0" result="BackgroundImageFix"/>
<feColorMatrix in="SourceAlpha" type="matrix" values="0 0 0 0 0 0 0 0 0 0 0 0 0 0 0 0 0 0 127 0"/>
<feOffset dy="4"/>
<feGaussianBlur stdDeviation="2"/>
<feColorMatrix type="matrix" values="0 0 0 0 0 0 0 0 0 0 0 0 0 0 0 0 0 0 0.25 0"/>
<feBlend mode="normal" in2="BackgroundImageFix" result="effect1_dropShadow"/>
<feBlend mode="normal" in="SourceGraphic" in2="effect1_dropShadow" result="shape"/>
</filter>
</defs>
</svg>
