<svg width="38" height="40" viewBox="0 0 38 40" fill="none" xmlns="http://www.w3.org/2000/svg">
<path d="M37.7162 26.5286C37.8423 26.7885 37.8866 27.0806 37.8432 27.3663C37.7999 27.6519 37.6709 27.9177 37.4734 28.1286C37.3389 28.2696 37.1771 28.3816 36.9977 28.4578C36.8184 28.534 36.6254 28.5726 36.4305 28.5714C36.2438 28.5692 36.0594 28.5303 35.8877 28.4571L18.7448 21.3143C18.4871 21.2045 18.2674 21.0214 18.1129 20.7877C17.9585 20.554 17.8761 20.2801 17.8761 20C17.8761 19.7199 17.9585 19.446 18.1129 19.2123C18.2674 18.9786 18.4871 18.7955 18.7448 18.6857L35.8877 11.5429C36.1535 11.4358 36.4455 11.4111 36.7255 11.4722C37.0056 11.5332 37.2608 11.6771 37.458 11.8851C37.6553 12.0931 37.7853 12.3556 37.8314 12.6385C37.8774 12.9214 37.8373 13.2116 37.7162 13.4714L34.5877 20L37.7162 26.5286ZM27.2734 0L16.8591 6.58571C16.119 6.02423 15.2166 5.7184 14.2877 5.71429C13.2826 5.72208 12.3123 6.08288 11.5462 6.73359C10.7802 7.38431 10.2673 8.28356 10.0971 9.27413C9.9269 10.2647 10.1103 11.2836 10.6151 12.1527C11.12 13.0218 11.9143 13.6857 12.8591 14.0286V17.2571L0.816239 8.82857C0.577376 8.66184 0.29325 8.57212 0.00195312 8.57143V1.42857C0.00195312 1.04969 0.152463 0.686328 0.420372 0.418419C0.688281 0.15051 1.05164 0 1.43052 0H27.1448H27.2734ZM18.5734 2.85714C18.5734 2.47826 18.4229 2.1149 18.155 1.84699C17.8871 1.57908 17.5237 1.42857 17.1448 1.42857H11.4305C11.0516 1.42857 10.6883 1.57908 10.4204 1.84699C10.1525 2.1149 10.002 2.47826 10.002 2.85714C10.002 3.23602 10.1525 3.59939 10.4204 3.8673C10.6883 4.1352 11.0516 4.28571 11.4305 4.28571H17.1448C17.5237 4.28571 17.8871 4.1352 18.155 3.8673C18.4229 3.59939 18.5734 3.23602 18.5734 2.85714ZM14.2877 8.57143C14.0051 8.57143 13.7289 8.65521 13.494 8.81219C13.2591 8.96916 13.076 9.19227 12.9678 9.45331C12.8597 9.71435 12.8314 10.0016 12.8865 10.2787C12.9417 10.5558 13.0777 10.8104 13.2775 11.0102C13.4773 11.2099 13.7319 11.346 14.009 11.4011C14.2861 11.4562 14.5733 11.428 14.8344 11.3198C15.0954 11.2117 15.3185 11.0286 15.4755 10.7937C15.6325 10.5587 15.7162 10.2825 15.7162 10C15.7162 9.62112 15.5657 9.25776 15.2978 8.98985C15.0299 8.72194 14.6665 8.57143 14.2877 8.57143ZM28.5734 2.58571V13.0286L18.1877 17.3143C17.5884 17.5468 17.0851 17.9746 16.7591 18.5286H15.7162V14.0286C16.5499 13.7338 17.272 13.1885 17.7835 12.4672C18.295 11.746 18.5709 10.8842 18.5734 10C18.57 9.65244 18.522 9.30675 18.4305 8.97143L28.5734 2.58571ZM12.8591 28.5714C12.8591 28.9503 13.0096 29.3137 13.2775 29.5816C13.5454 29.8495 13.9088 30 14.2877 30H28.5734V38.5714C28.5734 38.9503 28.4229 39.3137 28.155 39.5816C27.8871 39.8495 27.5237 40 27.1448 40H1.43052C1.05164 40 0.688281 39.8495 0.420372 39.5816C0.152463 39.3137 0.00195312 38.9503 0.00195312 38.5714V11.7429L13.4734 21.1714C13.5259 21.2084 13.5837 21.2373 13.6448 21.2571C13.6877 21.2894 13.7361 21.3136 13.7877 21.3286C13.947 21.3916 14.1164 21.4255 14.2877 21.4286H16.8162C17.1423 21.9825 17.6456 22.4103 18.2448 22.6429L28.6305 26.9286V27.1429H14.2877C13.9088 27.1429 13.5454 27.2934 13.2775 27.5613C13.0096 27.8292 12.8591 28.1925 12.8591 28.5714ZM4.28767 28.5714C4.28767 28.854 4.37145 29.1302 4.52843 29.3651C4.6854 29.6 4.90851 29.7831 5.16955 29.8913C5.43059 29.9994 5.71782 30.0277 5.99494 29.9726C6.27206 29.9174 6.5266 29.7814 6.72639 29.5816C6.92618 29.3818 7.06224 29.1272 7.11736 28.8501C7.17248 28.573 7.14419 28.2858 7.03607 28.0247C6.92794 27.7637 6.74484 27.5406 6.50991 27.3836C6.27498 27.2266 5.99878 27.1429 5.71624 27.1429C5.33736 27.1429 4.974 27.2934 4.70609 27.5613C4.43818 27.8292 4.28767 28.1925 4.28767 28.5714ZM10.002 34.2857C10.002 33.9068 9.85144 33.5435 9.58353 33.2756C9.31563 33.0077 8.95226 32.8571 8.57338 32.8571H5.71624C5.33736 32.8571 4.974 33.0077 4.70609 33.2756C4.43818 33.5435 4.28767 33.9068 4.28767 34.2857C4.28767 34.6646 4.43818 35.028 4.70609 35.2959C4.974 35.5638 5.33736 35.7143 5.71624 35.7143H8.57338C8.95226 35.7143 9.31563 35.5638 9.58353 35.2959C9.85144 35.028 10.002 34.6646 10.002 34.2857ZM11.4305 28.5714C11.4305 28.2889 11.3467 28.0127 11.1898 27.7778C11.0328 27.5428 10.8097 27.3597 10.5486 27.2516C10.2876 27.1435 10.0004 27.1152 9.72325 27.1703C9.44614 27.2254 9.19159 27.3615 8.9918 27.5613C8.79201 27.7611 8.65595 28.0156 8.60083 28.2927C8.54571 28.5698 8.574 28.8571 8.68213 29.1181C8.79025 29.3792 8.97335 29.6023 9.20828 29.7592C9.44321 29.9162 9.71941 30 10.002 30C10.3808 30 10.7442 29.8495 11.0121 29.5816C11.28 29.3137 11.4305 28.9503 11.4305 28.5714ZM18.5734 34.2857C18.5734 34.6646 18.7239 35.028 18.9918 35.2959C19.2597 35.5638 19.6231 35.7143 20.002 35.7143H22.8591C23.238 35.7143 23.6013 35.5638 23.8692 35.2959C24.1372 35.028 24.2877 34.6646 24.2877 34.2857C24.2877 33.9068 24.1372 33.5435 23.8692 33.2756C23.6013 33.0077 23.238 32.8571 22.8591 32.8571H20.002C19.6231 32.8571 19.2597 33.0077 18.9918 33.2756C18.7239 33.5435 18.5734 33.9068 18.5734 34.2857ZM11.4305 34.2857C11.4305 34.8508 11.5981 35.4032 11.912 35.8731C12.226 36.3429 12.6722 36.7091 13.1943 36.9254C13.7164 37.1416 14.2908 37.1982 14.8451 37.088C15.3993 36.9777 15.9084 36.7056 16.308 36.306C16.7076 35.9064 16.9797 35.3973 17.0899 34.8431C17.2002 34.2889 17.1436 33.7144 16.9273 33.1923C16.7111 32.6703 16.3449 32.224 15.875 31.9101C15.4052 31.5961 14.8528 31.4286 14.2877 31.4286C13.5299 31.4286 12.8032 31.7296 12.2674 32.2654C11.7315 32.8012 11.4305 33.528 11.4305 34.2857Z" fill="#FF3761"/>
</svg>
