<svg width="41" height="40" viewBox="0 0 41 40" fill="none" xmlns="http://www.w3.org/2000/svg">
<path d="M20.0715 0C9.04262 0 0.0703125 8.97149 0.0703125 19.9988C0.0703125 31.0261 9.04262 39.9975 20.0715 39.9975C31.0988 39.9975 40.0703 31.0261 40.0703 19.9988C40.0703 8.97108 31.0988 0 20.0715 0ZM20.0715 37.7043C18.9401 37.7043 17.8373 37.5877 16.7643 37.3834C16.7557 33.6034 13.6897 30.541 9.90596 30.541C8.69016 30.541 7.56361 30.8783 6.57624 31.4354C3.9543 28.3468 2.36313 24.3572 2.36313 19.9988C2.36313 16.432 3.43319 13.1138 5.25483 10.331C5.70881 10.9082 6.3122 11.4338 6.95449 11.2893C8.27303 10.9909 9.15274 7.2661 10.3255 7.56453C11.4975 7.86213 12.8169 10.0976 15.0152 9.20319C17.213 8.30997 16.321 5.1268 17.213 3.69077C17.5593 3.13486 18.0837 2.70217 18.6507 2.36445C19.121 2.32679 19.5918 2.29281 20.0707 2.29281C22.35 2.29281 24.5233 2.74065 26.5267 3.52867C27.0233 4.21229 27.2328 5.11697 26.7903 6.30616C25.5332 9.68336 23.4643 5.77318 20.9488 7.99476C18.6728 10.0047 20.32 13.684 20.32 13.684C20.32 13.684 17.2126 12.7707 14.3147 13.5346C10.886 14.4381 7.3053 20.1298 9.76432 23.8537C12.9172 28.6297 17.5364 23.8087 20.7503 26.1473C23.8065 28.3689 22.3427 27.9628 24.4283 31.2557C27.1506 35.5548 35.2039 27.3865 31.1631 21.5114C28.7917 18.0662 25.2626 19.1952 26.1624 16.5295C27.1281 13.6603 30.7337 17.6437 33.4866 15.3505C34.8174 14.2416 35.0786 12.1301 35.0823 10.656C36.7783 13.3721 37.7755 16.5675 37.7755 19.9988C37.7771 29.762 29.8343 37.7043 20.0715 37.7043Z" fill="#FF3761"/>
</svg>
