<svg width="45" height="40" viewBox="0 0 45 40" fill="none" xmlns="http://www.w3.org/2000/svg">
<path d="M2.22222 0H42.2222C42.8116 0 43.3768 0.234126 43.7936 0.650874C44.2103 1.06762 44.4444 1.63285 44.4444 2.22222V37.7778C44.4444 38.3671 44.2103 38.9324 43.7936 39.3491C43.3768 39.7659 42.8116 40 42.2222 40H2.22222C1.63285 40 1.06762 39.7659 0.650874 39.3491C0.234126 38.9324 0 38.3671 0 37.7778V2.22222C0 1.63285 0.234126 1.06762 0.650874 0.650874C1.06762 0.234126 1.63285 0 2.22222 0ZM40 9.41778L22.3822 25.1956L4.44444 9.36889V35.5556H40V9.41778ZM5.58 4.44444L22.3578 19.2489L38.8933 4.44444H5.58Z" fill="#FF3761"/>
</svg>
