<svg width="38" height="45" viewBox="0 0 38 45" fill="none" xmlns="http://www.w3.org/2000/svg">
<path d="M18.6396 39.143L28.8914 28.8912C30.9188 26.8637 32.2994 24.2805 32.8586 21.4683C33.4179 18.6561 33.1307 15.7412 32.0334 13.0922C30.9361 10.4432 29.0779 8.17912 26.6938 6.58618C24.3098 4.99325 21.5069 4.14302 18.6396 4.14302C15.7724 4.14302 12.9695 4.99325 10.5854 6.58618C8.20134 8.17912 6.34317 10.4432 5.24584 13.0922C4.14852 15.7412 3.86133 18.6561 4.4206 21.4683C4.97987 24.2805 6.36048 26.8637 8.38784 28.8912L18.6396 39.143ZM18.6396 45L5.45935 31.8197C2.85257 29.2129 1.07734 25.8917 0.358147 22.2759C-0.361049 18.6602 0.00809135 14.9124 1.41889 11.5065C2.82968 8.10056 5.21877 5.18946 8.28403 3.14132C11.3493 1.09319 14.9531 0 18.6396 0C22.3262 0 25.93 1.09319 28.9952 3.14132C32.0605 5.18946 34.4496 8.10056 35.8604 11.5065C37.2712 14.9124 37.6403 18.6602 36.9211 22.2759C36.2019 25.8917 34.4267 29.2129 31.8199 31.8197L18.6396 45ZM18.6396 22.7816C19.7382 22.7816 20.7918 22.3452 21.5686 21.5684C22.3454 20.7916 22.7818 19.738 22.7818 18.6394C22.7818 17.5409 22.3454 16.4873 21.5686 15.7105C20.7918 14.9337 19.7382 14.4973 18.6396 14.4973C17.5411 14.4973 16.4875 14.9337 15.7107 15.7105C14.9339 16.4873 14.4975 17.5409 14.4975 18.6394C14.4975 19.738 14.9339 20.7916 15.7107 21.5684C16.4875 22.3452 17.5411 22.7816 18.6396 22.7816ZM18.6396 26.9237C16.4425 26.9237 14.3354 26.0509 12.7818 24.4973C11.2282 22.9437 10.3554 20.8366 10.3554 18.6394C10.3554 16.4423 11.2282 14.3352 12.7818 12.7816C14.3354 11.228 16.4425 10.3552 18.6396 10.3552C20.8368 10.3552 22.9439 11.228 24.4975 12.7816C26.0511 14.3352 26.9239 16.4423 26.9239 18.6394C26.9239 20.8366 26.0511 22.9437 24.4975 24.4973C22.9439 26.0509 20.8368 26.9237 18.6396 26.9237Z" fill="#FF3761"/>
</svg>
