<svg width="40" height="40" viewBox="0 0 40 40" fill="none" xmlns="http://www.w3.org/2000/svg">
<path d="M19.3637 36.2513V38.184C19.3637 39.1837 18.5473 40.0001 17.5477 40.0001H1.82773C0.828102 40.0001 0.0117188 39.1837 0.0117188 38.184V36.2513C0.0117188 32.5442 3.03584 29.5286 6.74292 29.5286H12.6327C16.3398 29.5286 19.3637 32.5443 19.3637 36.2513Z" fill="#FF3761"/>
<path d="M30.309 16.2661C32.9163 16.2661 35.0741 18.3738 35.324 21.1645C35.4822 22.8473 36.1154 24.5551 37.2234 26.2296C37.365 26.4379 37.3983 26.7044 37.3233 26.9459C37.2401 27.1875 37.0566 27.3791 36.815 27.4709C34.6742 28.2455 32.5082 28.6371 30.3755 28.6371C28.243 28.6371 26.0936 28.2455 23.986 27.4709C23.7527 27.3875 23.5778 27.2042 23.4946 26.9709C23.4028 26.7376 23.4279 26.4878 23.5527 26.2712C24.5274 24.5635 25.1107 22.839 25.2939 21.1478C25.5854 18.3654 27.7431 16.2661 30.309 16.2661Z" fill="#FF3761"/>
<path d="M4.50195 21.7144C4.50195 18.707 6.89273 16.2661 9.83346 16.2661C12.7659 16.2661 15.1566 18.707 15.1566 21.7144C15.1566 24.7801 12.7825 28.4955 9.83346 28.4955C6.87605 28.4955 4.50195 24.7801 4.50195 21.7144Z" fill="#FF3761"/>
<path d="M40.0002 36.326V38.1837C40.0002 39.1835 39.1922 39.9999 38.1842 39.9999H22.6227C21.623 39.9999 20.8066 39.1835 20.8066 38.1837V36.326C20.8066 32.619 23.8222 29.6033 27.5293 29.6033H33.2773C36.9846 29.6033 40.0002 32.619 40.0002 36.326Z" fill="#FF3761"/>
<path d="M21.1967 18.6903C20.8969 19.0318 20.4637 19.2234 20.0055 19.2234C19.5558 19.2234 19.1226 19.0318 18.8226 18.6903L10.9502 9.90147C7.73777 6.30732 9.90027 0.343233 14.6573 0.0297104C16.3643 -0.160211 18.5385 0.559929 20.0055 2.20399C21.3551 0.70444 23.3377 -0.103604 25.3539 0.0297104C30.1407 0.36251 32.27 6.31997 29.0693 9.90147L21.1967 18.6903Z" fill="#FF3761"/>
</svg>
