<svg width="41" height="28" viewBox="0 0 41 28" fill="none" xmlns="http://www.w3.org/2000/svg">
<path d="M7.68146 13.4704C9.59067 13.4704 11.6403 10.9339 11.6403 8.32804C11.6403 5.72177 9.86833 4.03345 7.68146 4.03345C5.49549 4.03345 3.72266 5.72177 3.72266 8.32804C3.7231 10.9339 5.71011 13.4704 7.68146 13.4704Z" fill="#FF3761"/>
<path d="M32.4608 13.4704C34.37 13.4704 36.4196 10.9339 36.4196 8.32804C36.4196 5.72177 34.6472 4.03345 32.4608 4.03345C30.2743 4.03345 28.502 5.72177 28.502 8.32804C28.502 10.9339 30.4894 13.4704 32.4608 13.4704Z" fill="#FF3761"/>
<path d="M20.137 14.4719C23.0643 14.4719 26.2075 10.5816 26.2075 6.58564C26.2075 2.58928 23.4899 0 20.137 0C16.7845 0 14.0664 2.58928 14.0664 6.58564C14.0664 10.5816 17.114 14.4719 20.137 14.4719Z" fill="#FF3761"/>
<path d="M30.9948 21.2759C30.2611 19.8214 29.7263 19.0885 28.7301 18.053C27.869 17.1579 25.2989 15.8966 23.6401 16.4514C22.3171 16.7412 22.2545 17.5031 20.1351 17.5031C18.0158 17.5031 17.9527 16.7412 16.6292 16.4514C14.9704 15.8966 12.4008 17.1579 11.5392 18.053C10.5426 19.0885 10.0083 19.8218 9.27501 21.2759C8.90703 22.0051 8.14021 24.1321 8.61595 25.0473C9.21777 26.2054 10.683 26.6847 14.7102 27.177C17.1224 27.4721 20.1351 27.4721 20.1351 27.4721C20.1351 27.4721 23.1469 27.4721 25.5596 27.177C29.5868 26.6847 31.0511 26.2054 31.6538 25.0473C32.13 24.1321 31.3628 22.0051 30.9948 21.2759Z" fill="#FF3761"/>
<path d="M39.5433 17.9073C39.0657 16.9585 38.7165 16.4815 38.0669 15.8054C37.5053 15.2215 35.8295 14.3992 34.7479 14.7609C33.8841 14.9501 33.8443 15.4468 32.4622 15.4468C31.0802 15.4468 31.0395 14.9501 30.1765 14.7609C29.3069 14.4703 28.055 14.9447 27.3047 15.445C28.3366 15.8702 29.2537 16.4604 29.7996 17.0278C30.9335 18.2064 31.5456 19.077 32.3196 20.6106C32.4694 20.9079 32.6715 21.3886 32.8526 21.9444C33.5027 21.9341 34.853 21.8961 35.9989 21.7557C38.6253 21.4347 39.5808 21.1221 39.9734 20.3669C40.2837 19.77 39.7838 18.3826 39.5433 17.9073Z" fill="#FF3761"/>
<path d="M7.95707 20.61C8.73059 19.0759 9.34269 18.2058 10.4766 17.0272C11.0078 16.4754 11.8904 15.9018 12.8884 15.4797C12.1452 14.9669 10.8553 14.4638 9.96553 14.7612C9.10259 14.9503 9.0619 15.4471 7.6803 15.4471C6.2978 15.4471 6.25711 14.9503 5.39462 14.7612C4.31259 14.3995 2.63723 15.2217 2.0752 15.8057C1.42553 16.4813 1.07722 16.9588 0.598356 17.9076C0.3587 18.3829 -0.141181 19.7703 0.168673 20.3667C0.561245 21.1224 1.51629 21.4345 4.14223 21.7555C5.37092 21.9057 6.83345 21.9388 7.41739 21.946C7.66376 21.2024 7.93069 20.6627 7.95707 20.61Z" fill="#FF3761"/>
</svg>
