<svg width="238" height="70" viewBox="0 0 238 70" fill="none" xmlns="http://www.w3.org/2000/svg">
<path fill-rule="evenodd" clip-rule="evenodd" d="M228.41 70H8.82C3.92 70 0 66.08 0 61.25V8.75C0 3.92 3.92 0 8.82 0H228.48C233.31 0 237.3 3.92 237.3 8.75V61.25C237.23 66.08 233.24 70 228.41 70Z" fill="white"/>
<path d="M124.95 23.1698C123.34 23.1698 122.01 22.6098 120.96 21.4898C119.91 20.4398 119.35 18.9698 119.35 17.4998C119.35 15.8898 119.91 14.5598 120.96 13.5098C122.01 12.3898 123.34 11.8298 124.95 11.8298C126.49 11.8298 127.82 12.3898 128.94 13.5098C129.99 14.6298 130.55 15.9598 130.55 17.4998C130.55 19.1098 129.99 20.4398 128.94 21.4898C127.89 22.6098 126.56 23.1698 124.95 23.1698ZM77.8402 23.1698C76.3002 23.1698 74.9702 22.6098 73.8502 21.5598C72.7302 20.5098 72.1702 19.1098 72.1702 17.4998C72.1702 15.8898 72.7302 14.5598 73.8502 13.4398C74.9002 12.3898 76.3002 11.8298 77.8402 11.8298C78.6102 11.8298 79.3802 11.9698 80.0802 12.3198C80.7802 12.5998 81.3402 13.0198 81.7602 13.5098L81.8302 13.6498L80.6402 14.8398L80.5002 14.6998C79.8002 13.9298 78.9602 13.5098 77.7702 13.5098C76.7202 13.5098 75.8102 13.8598 75.0402 14.6298C74.2702 15.3998 73.9202 16.3798 73.9202 17.5698C73.9202 18.7598 74.3402 19.7398 75.0402 20.5098C75.8102 21.2798 76.7202 21.6298 77.7702 21.6298C78.8902 21.6298 79.8702 21.2798 80.5702 20.5098C80.9902 20.0898 81.2702 19.4598 81.3402 18.6898H77.5602V17.0798H82.9502V17.2198C83.0202 17.4998 83.0202 17.7798 83.0202 18.0598C83.0202 19.5998 82.6002 20.7898 81.6902 21.6998C80.7802 22.6098 79.4502 23.1698 77.8402 23.1698ZM140.49 22.8898H138.81L133.7 14.6998L133.77 16.1698V22.8898H132.09V12.1098H133.98L134.05 12.1798L138.88 19.8798L138.81 18.4098V12.1098H140.49V22.8898ZM112.42 22.8898H110.74V13.7198H107.8V12.1098H115.36V13.7198H112.42V22.8898ZM106.4 22.8898H104.72V12.1098H106.4V22.8898ZM96.8802 22.8898H95.2002V13.7198H92.2602V12.1098H99.8202V13.7198H96.8802V22.8898V22.8898ZM91.2102 22.8898H84.7002V12.1098H91.2102V13.7198H86.4502V16.7298H90.7902V18.3398H86.4502V21.3498H91.2102V22.8898ZM122.22 20.3698C122.99 21.1398 123.9 21.4898 124.95 21.4898C126.07 21.4898 126.91 21.1398 127.68 20.3698C128.45 19.5998 128.8 18.6198 128.8 17.4998C128.8 16.3798 128.45 15.3298 127.68 14.6298C126.91 13.8598 126 13.5098 124.95 13.5098C123.83 13.5098 122.99 13.8598 122.22 14.6298C121.45 15.3998 121.1 16.3798 121.1 17.4998C121.1 18.6198 121.52 19.6698 122.22 20.3698Z" fill="#B0B3B8"/>
<path fill-rule="evenodd" clip-rule="evenodd" d="M119.21 38.08C115.08 38.08 111.72 41.23 111.72 45.5C111.72 49.77 115.08 52.92 119.21 52.92C123.34 52.92 126.7 49.77 126.7 45.5C126.7 41.23 123.34 38.08 119.21 38.08ZM119.21 49.98C116.97 49.98 115.01 48.09 115.01 45.5C115.01 42.84 116.97 41.02 119.21 41.02C121.45 41.02 123.41 42.84 123.41 45.5C123.41 48.16 121.52 49.98 119.21 49.98ZM102.97 38.08C98.8399 38.08 95.4799 41.23 95.4799 45.5C95.4799 49.77 98.8399 52.92 102.97 52.92C107.1 52.92 110.46 49.77 110.46 45.5C110.39 41.23 107.03 38.08 102.97 38.08ZM102.97 49.98C100.73 49.98 98.7699 48.09 98.7699 45.5C98.7699 42.84 100.73 41.02 102.97 41.02C105.21 41.02 107.17 42.84 107.17 45.5C107.17 48.16 105.21 49.98 102.97 49.98ZM83.5799 40.32V43.47H91.1399C90.9299 45.22 90.2999 46.55 89.4599 47.46C88.3399 48.58 86.6599 49.77 83.6499 49.77C79.0299 49.77 75.3899 45.99 75.3899 41.37C75.3899 36.75 79.0299 32.97 83.6499 32.97C86.1699 32.97 87.9899 33.95 89.3199 35.21L91.5599 32.97C89.6699 31.15 87.1499 29.75 83.6499 29.75C77.2799 29.75 71.8899 34.93 71.8899 41.3C71.8899 47.67 77.2099 52.85 83.6499 52.85C87.0799 52.85 89.6699 51.73 91.6999 49.63C93.7999 47.53 94.4299 44.59 94.4299 42.21C94.4299 41.44 94.3599 40.81 94.2899 40.25L83.5799 40.32ZM162.82 42.77C162.19 41.09 160.3 38.01 156.45 38.01C152.6 38.01 149.45 41.02 149.45 45.43C149.45 49.63 152.6 52.85 156.87 52.85C160.3 52.85 162.26 50.75 163.1 49.56L160.58 47.88C159.74 49.14 158.55 49.91 156.94 49.91C155.26 49.91 154.07 49.14 153.3 47.67L163.24 43.54C163.17 43.61 162.82 42.77 162.82 42.77ZM152.67 45.29C152.6 42.42 154.91 40.95 156.59 40.95C157.92 40.95 158.97 41.58 159.32 42.56L152.67 45.29ZM144.62 52.5H147.91V30.66H144.62V52.5ZM139.23 39.76H139.09C138.32 38.85 136.92 38.08 135.17 38.08C131.46 38.08 128.03 41.37 128.03 45.57C128.03 49.77 131.46 52.99 135.17 52.99C136.92 52.99 138.39 52.22 139.09 51.31H139.23V52.36C139.23 55.23 137.69 56.7 135.24 56.7C133.21 56.7 132.02 55.23 131.46 54.04L128.59 55.23C129.43 57.19 131.6 59.64 135.17 59.64C139.02 59.64 142.24 57.4 142.24 51.87V38.5H139.16L139.23 39.76ZM135.52 49.98C133.28 49.98 131.39 48.09 131.39 45.5C131.39 42.84 133.28 40.95 135.52 40.95C137.76 40.95 139.51 42.84 139.51 45.5C139.51 48.16 137.76 49.98 135.52 49.98ZM178.15 30.66H170.31V52.5H173.6V44.24H178.15C181.79 44.24 185.29 41.65 185.29 37.45C185.29 33.25 181.79 30.66 178.15 30.66ZM178.22 41.16H173.6V33.67H178.22C180.67 33.67 182.07 35.7 182.07 37.45C182.07 39.13 180.67 41.16 178.22 41.16ZM198.45 38.01C196.07 38.01 193.62 39.06 192.64 41.37L195.51 42.56C196.14 41.37 197.26 40.95 198.52 40.95C200.2 40.95 201.95 41.93 201.95 43.75V43.96C201.39 43.61 200.06 43.12 198.52 43.12C195.37 43.12 192.22 44.8 192.22 48.02C192.22 50.96 194.81 52.85 197.61 52.85C199.78 52.85 201.04 51.87 201.74 50.68H201.88V52.5H205.03V44.1C205.03 40.18 202.16 38.01 198.45 38.01ZM198.03 49.98C196.98 49.98 195.44 49.49 195.44 48.09C195.44 46.41 197.33 45.78 198.87 45.78C200.34 45.78 200.97 46.06 201.88 46.55C201.67 48.51 199.99 49.98 198.03 49.98ZM216.58 38.5L212.8 48.02H212.66L208.81 38.5H205.31L211.12 51.73L207.76 59.08H211.19L220.15 38.5H216.58ZM187.11 52.5H190.4V30.66H187.11V52.5Z" fill="black"/>
<path fill-rule="evenodd" clip-rule="evenodd" d="M18.27 13.16C17.78 13.72 17.5 14.56 17.5 15.61V54.32C17.5 55.44 17.78 56.21 18.34 56.77L18.48 56.91L40.18 35.21V34.72L18.48 13.02L18.27 13.16Z" fill="url(#paint0_linear)"/>
<path fill-rule="evenodd" clip-rule="evenodd" d="M47.3201 42.4898L40.1101 35.2798V34.7898L47.3201 27.5798L47.4601 27.6498L56.0001 32.4798C58.4501 33.8798 58.4501 36.1198 56.0001 37.5198L47.4601 42.3498C47.4601 42.4198 47.3201 42.4898 47.3201 42.4898Z" fill="url(#paint1_linear)"/>
<path fill-rule="evenodd" clip-rule="evenodd" d="M47.46 42.42L40.11 35L18.27 56.84C19.04 57.68 20.44 57.82 21.91 56.98L47.46 42.42Z" fill="url(#paint2_linear)"/>
<path fill-rule="evenodd" clip-rule="evenodd" d="M47.46 27.5801L21.91 13.0901C20.44 12.2501 19.04 12.3201 18.27 13.2301L40.11 35.0001L47.46 27.5801Z" fill="url(#paint3_linear)"/>
<path opacity="0.2" fill-rule="evenodd" clip-rule="evenodd" d="M47.32 42.21L21.91 56.63C20.51 57.47 19.25 57.4 18.41 56.63L18.27 56.77L18.41 56.91C19.25 57.68 20.51 57.68 21.91 56.91L47.46 42.42L47.32 42.21Z" fill="black"/>
<path opacity="0.12" fill-rule="evenodd" clip-rule="evenodd" d="M56 37.24L47.25 42.21L47.39 42.35L56 37.52C57.26 36.82 57.82 35.91 57.82 35C57.75 35.84 57.12 36.61 56 37.24Z" fill="black"/>
<path opacity="0.25" fill-rule="evenodd" clip-rule="evenodd" d="M21.91 13.37L56 32.76C57.12 33.39 57.75 34.23 57.82 35C57.82 34.09 57.19 33.18 56 32.48L21.91 13.09C19.46 11.69 17.5 12.88 17.5 15.68V15.96C17.43 13.09 19.46 11.97 21.91 13.37Z" fill="white"/>
<defs>
<linearGradient id="paint0_linear" x1="38.1476" y1="15.2368" x2="3.41966" y2="24.4906" gradientUnits="userSpaceOnUse">
<stop stop-color="#00A0FF"/>
<stop offset="0.00657" stop-color="#00A1FF"/>
<stop offset="0.2601" stop-color="#00BEFF"/>
<stop offset="0.5122" stop-color="#00D2FF"/>
<stop offset="0.7604" stop-color="#00DFFF"/>
<stop offset="1" stop-color="#00E3FF"/>
</linearGradient>
<linearGradient id="paint1_linear" x1="59.2105" y1="34.9998" x2="16.8658" y2="34.9998" gradientUnits="userSpaceOnUse">
<stop stop-color="#FFE000"/>
<stop offset="0.4087" stop-color="#FFBD00"/>
<stop offset="0.7754" stop-color="#FFA500"/>
<stop offset="1" stop-color="#FF9C00"/>
</linearGradient>
<linearGradient id="paint2_linear" x1="43.4446" y1="39.02" x2="15.5642" y2="85.9441" gradientUnits="userSpaceOnUse">
<stop stop-color="#FF3A44"/>
<stop offset="1" stop-color="#C31162"/>
</linearGradient>
<linearGradient id="paint3_linear" x1="12.7657" y1="0.312564" x2="25.2035" y2="21.2696" gradientUnits="userSpaceOnUse">
<stop stop-color="#32A071"/>
<stop offset="0.0685" stop-color="#2DA771"/>
<stop offset="0.4762" stop-color="#15CF74"/>
<stop offset="0.8009" stop-color="#06E775"/>
<stop offset="1" stop-color="#00F076"/>
</linearGradient>
</defs>
</svg>
