<svg width="70" height="69" viewBox="0 0 70 69" fill="none" xmlns="http://www.w3.org/2000/svg">
<path d="M25.3092 15.3382C25.1475 15.7916 24.7362 16.109 24.2564 16.1505C23.7754 16.2028 23.31 15.9599 23.0779 15.5348C21.0685 11.9922 16.9715 8.60229 12.1482 8.60229C11.8487 8.60229 11.5463 8.61611 11.2421 8.64317C7.98924 8.92336 4.98112 10.486 2.88091 12.9861C0.781306 15.4861 -0.238435 18.7191 0.0471649 21.9714C1.30621 36.365 21.9403 48.5249 26.9434 51.2709L26.9013 51.2083C26.8142 51.0851 26.7264 50.9618 26.6392 50.8301C26.4227 50.5175 26.2045 50.2048 25.988 49.882C25.8744 49.7124 25.7613 49.5362 25.6465 49.3625C25.4595 49.0769 25.2773 48.7913 25.0849 48.5003C24.9623 48.3024 24.839 48.098 24.7158 47.896C24.5444 47.6188 24.3724 47.3416 24.2035 47.0584C24.0802 46.8432 23.9497 46.6225 23.8229 46.4049C23.6629 46.1265 23.503 45.8493 23.3455 45.5673C23.2222 45.337 23.099 45.1055 22.9757 44.8728C22.8254 44.5933 22.6781 44.3137 22.5326 44.0293C22.4093 43.7906 22.2861 43.5489 22.1718 43.3065C22.0323 43.0234 21.8958 42.7402 21.7618 42.4534C21.6457 42.2068 21.5351 41.9609 21.4232 41.7072C21.3 41.4186 21.1767 41.1306 21.0535 40.845C20.9488 40.5931 20.8466 40.3399 20.7468 40.085C20.6314 39.7922 20.5219 39.497 20.4131 39.2011C20.3199 38.945 20.2285 38.6889 20.1413 38.4303C20.0403 38.1321 19.9465 37.8345 19.8545 37.5338C19.774 37.2753 19.6952 37.0179 19.6231 36.7582C19.5377 36.454 19.4613 36.1485 19.385 35.8419C19.3224 35.5857 19.2617 35.3284 19.2016 35.0711C19.1324 34.7596 19.0783 34.4469 19.0194 34.1337C18.9737 33.8806 18.9244 33.6268 18.8865 33.3731C18.8372 33.0514 18.8041 32.7315 18.7633 32.4099C18.735 32.164 18.7031 31.9174 18.6833 31.6709C18.6562 31.3336 18.6472 30.9975 18.6364 30.6602C18.6292 30.4299 18.6129 30.1996 18.6129 29.9693C18.6129 29.6002 18.634 29.2232 18.655 28.8516C18.6647 28.658 18.6647 28.4644 18.6809 28.2726C18.7278 27.7086 18.7975 27.147 18.8961 26.5878C20.3283 18.5616 27.9806 13.2037 36.0123 14.6041C41.3262 15.5403 45.0805 19.6649 46.8687 23.9285C47.218 23.5503 47.5914 23.1895 47.9768 22.8396C48.1001 22.7289 48.2227 22.6279 48.346 22.5209C48.5456 22.3495 48.7404 22.1734 48.9484 22.011C49.1853 20.5812 49.2437 19.128 49.1216 17.6838C48.5155 10.9105 42.5456 5.90322 35.77 6.48464C30.56 6.944 26.7612 11.2623 25.3092 15.3382Z" fill="#FF3761"/>
<path d="M29.9429 51.2258C32.9859 55.2885 36.3638 59.0897 40.0399 62.5903C44.387 60.7137 67.235 50.2001 69.815 35.5707C70.9796 28.8757 66.5165 22.4969 59.8274 21.2968C56.6173 20.8158 53.3512 21.6804 50.7989 23.6856C50.1405 24.1684 49.523 24.7035 48.9518 25.2867C48.3926 25.8573 47.8833 26.4754 47.4294 27.1338C47.1564 27.5313 46.6772 27.7327 46.2022 27.6491C45.7272 27.5661 45.3448 27.2132 45.2228 26.7472C44.1345 22.56 40.7307 17.9303 35.5749 17.0188C28.881 15.8463 22.5016 20.3161 21.3172 27.0082C19.8393 35.3928 25.1514 44.74 29.8725 51.1074C29.8984 51.1452 29.9218 51.1849 29.9429 51.2258Z" fill="#FF3761"/>
<path d="M9.8775 48.3812C9.75905 48.27 9.62136 48.1822 9.47105 48.1226C9.17162 47.9982 8.83491 47.9982 8.53488 48.1226C8.22583 48.2345 7.98232 48.478 7.86989 48.7876C7.67387 49.2458 7.77609 49.7773 8.12843 50.1297C8.48137 50.4826 9.01289 50.5848 9.47105 50.3882C9.62016 50.3257 9.75725 50.2379 9.8775 50.1297C10.2298 49.7773 10.3321 49.2458 10.136 48.7876C10.0765 48.6367 9.98873 48.499 9.8775 48.3812Z" fill="#FF3761"/>
<path d="M66.8789 8.61964C67.206 8.62265 67.5217 8.49398 67.7532 8.26249C67.9846 8.03101 68.1133 7.71594 68.1103 7.38826C68.1055 7.06237 67.978 6.74972 67.7532 6.51402C67.6924 6.4581 67.6263 6.4088 67.5559 6.36611C67.4928 6.31741 67.4219 6.28013 67.3467 6.25548C67.2727 6.2176 67.1934 6.19295 67.1116 6.18152C66.9541 6.14424 66.7899 6.14424 66.6324 6.18152C66.5554 6.19475 66.4803 6.22 66.4105 6.25548C66.3318 6.28254 66.2572 6.31981 66.1881 6.36611C66.1237 6.41181 66.063 6.46111 66.0041 6.51402C65.7786 6.74972 65.6511 7.06177 65.6475 7.38826C65.6439 7.71594 65.7726 8.03101 66.0041 8.26249C66.2362 8.49398 66.5512 8.62265 66.8789 8.61964Z" fill="#FF3761"/>
<path d="M61.0783 15.6508C61.4306 16.0062 61.9628 16.1126 62.4251 15.9208C62.8869 15.729 63.1869 15.2768 63.1845 14.7766C63.1797 14.4507 63.0522 14.1381 62.8274 13.9024C62.7654 13.8531 62.7041 13.8038 62.6302 13.7545C62.567 13.7057 62.4961 13.6685 62.4209 13.6438C62.347 13.6059 62.2676 13.5813 62.1858 13.5699C61.9501 13.5194 61.7048 13.5452 61.4848 13.6438C61.3344 13.7033 61.1961 13.7911 61.0783 13.9024C60.8528 14.1381 60.7254 14.4501 60.7218 14.7766C60.7181 15.1043 60.8468 15.4193 61.0783 15.6508Z" fill="#FF3761"/>
<path d="M19.7291 66.852C19.6107 66.7408 19.473 66.653 19.3227 66.5935C18.8639 66.4005 18.3342 66.5027 17.98 66.852C17.8718 66.9717 17.784 67.1093 17.7215 67.2585C17.6584 67.4064 17.6253 67.5651 17.6235 67.7262C17.6187 67.888 17.653 68.0479 17.7215 68.194C17.7846 68.3431 17.8718 68.4802 17.98 68.6005C18.4659 69.0767 19.2433 69.0767 19.7291 68.6005C19.8373 68.4802 19.9245 68.3431 19.9877 68.194C20.1187 67.8958 20.1187 67.5561 19.9877 67.2585C19.9251 67.1093 19.8373 66.9717 19.7291 66.852Z" fill="#FF3761"/>
<path d="M9.00361 56.6437H7.77222V55.4123C7.77222 54.7323 7.22086 54.1809 6.54084 54.1809C5.86021 54.1809 5.30945 54.7323 5.30945 55.4123V56.6437H4.07806C3.39744 56.6437 2.84668 57.195 2.84668 57.8751C2.84668 58.5551 3.39744 59.1064 4.07806 59.1064H5.30945V60.3378C5.30945 61.0179 5.86021 61.5692 6.54084 61.5692C7.22086 61.5692 7.77222 61.0179 7.77222 60.3378V59.1064H9.00361C9.68363 59.1064 10.235 58.5551 10.235 57.8751C10.235 57.195 9.68363 56.6437 9.00361 56.6437Z" fill="#FF3761"/>
<path d="M54.5644 4.92554H55.7958V6.15693C55.7958 6.83695 56.3465 7.38831 57.0272 7.38831C57.7072 7.38831 58.2585 6.83695 58.2585 6.15693V4.92554H59.4899C60.17 4.92554 60.7213 4.37418 60.7213 3.69416C60.7213 3.01413 60.17 2.46277 59.4899 2.46277H58.2585V1.23139C58.2585 0.551358 57.7072 0 57.0272 0C56.3465 0 55.7958 0.551358 55.7958 1.23139V2.46277H54.5644C53.8838 2.46277 53.333 3.01413 53.333 3.69416C53.333 4.37418 53.8838 4.92554 54.5644 4.92554Z" fill="#FF3761"/>
</svg>
