<svg width="70" height="68" viewBox="0 0 70 68" fill="none" xmlns="http://www.w3.org/2000/svg">
<path d="M43.8855 0.000576859C38.5245 0.000576859 34.5693 1.4091 32.1333 4.18688C30.4314 6.12844 29.8591 8.31494 29.6848 9.88523C27.6507 8.83321 25.2566 8.30066 22.5357 8.30066C10.2138 8.30066 9.497 18.8033 9.4886 18.9755V24.4073C8.72001 25.2458 8.30323 26.2109 8.30323 27.1704V31.2665C8.30323 32.5462 8.87565 33.7398 9.8577 34.5463C10.835 38.235 13.2424 41.023 14.1793 42.0012V45.2537C14.1793 46.1871 13.6703 47.0444 12.7902 47.526L4.90134 52.4738C1.87689 54.1224 0 57.287 0 60.7302V65.2336H16.6045H18.9766H32.0237C32.6796 65.2336 33.2104 64.7028 33.2104 64.047C33.2104 63.3911 32.6796 62.8616 32.0237 62.8616H18.9766V60.2038C18.9766 57.1544 20.6402 54.3523 23.316 52.8938L33.8977 47.123C35.6673 46.1563 36.7674 44.3038 36.7674 42.2887V37.5214L36.4926 37.1919C36.489 37.1883 36.4587 37.1525 36.416 37.1003C36.1433 36.754 35.1377 35.423 34.1616 33.4814L34.1083 33.372C34.1023 33.3614 34.0964 33.3513 34.0905 33.3406C33.9612 33.0809 33.8358 32.805 33.7077 32.5203L33.6475 32.3863C33.5811 32.2357 33.5143 32.0798 33.4479 31.9174C33.4254 31.8616 33.4035 31.8061 33.3809 31.7492C33.3181 31.5926 33.2544 31.4328 33.1868 31.2502C33.0646 30.9276 32.9527 30.5932 32.8436 30.2481L32.7575 29.9678C32.646 29.6001 32.5441 29.2222 32.454 28.8344C32.4528 28.8261 32.4483 28.8195 32.4472 28.8112L32.4294 28.7251L32.3405 28.3409L31.9358 28.0798C31.2479 27.6362 30.838 26.8937 30.838 26.0919V21.3479C30.838 20.6825 31.1199 20.0604 31.6323 19.5979L32.0233 19.2465V11.8595V11.4398L31.9919 11.4138C31.9504 10.5586 32.0026 7.93296 33.9169 5.74822C35.8822 3.50776 39.2367 2.36992 43.8847 2.36992C48.5163 2.36992 51.8632 3.49873 53.8309 5.72498C56.1402 8.33553 55.7595 11.6752 55.7559 11.7036L55.745 19.246L56.136 19.6001C56.6483 20.0627 56.9303 20.6834 56.9303 21.3487V26.0941C56.9303 27.1296 56.2539 28.0338 55.2446 28.3445C54.6195 28.5366 54.2679 29.2028 54.4612 29.8278C54.6534 30.4529 55.316 30.8022 55.9446 30.6112C57.9538 29.9921 59.3024 28.174 59.3024 26.0914V21.3473C59.3024 20.2051 58.8773 19.0963 58.117 18.2329V11.9261C58.1846 11.2738 58.4442 7.39009 55.6356 4.1863C53.1994 1.40733 49.2457 0 43.8849 0L43.8855 0.000576859ZM53.1331 36.7676C46.0723 36.7676 40.3267 42.5106 40.3267 49.5712C40.3267 56.6318 46.0724 62.3747 53.1331 62.3747C56.0282 62.3747 58.6918 61.3989 60.84 59.7716L67.9589 67.216C68.1914 67.4592 68.503 67.5824 68.8161 67.5824C69.1114 67.5824 69.4049 67.4724 69.635 67.2529C70.1071 66.7999 70.1236 66.05 69.6706 65.5768L62.5916 58.1709C64.6624 55.8949 65.9356 52.8829 65.9356 49.5715C65.9356 42.5107 60.194 36.7679 53.1335 36.7679L53.1331 36.7676Z" fill="#FF3761"/>
</svg>
