<svg xmlns="http://www.w3.org/2000/svg" viewBox="0 0 679.25 748.08"><defs><style>.cls-1{fill:none;}.cls-2{fill:#fff;}</style></defs><g id="Layer_2" data-name="Layer 2"><g id="Layer_1-2" data-name="Layer 1"><ellipse class="cls-1" cx="118.62" cy="226" rx="47.71" ry="45.95"/><ellipse class="cls-1" cx="345.62" cy="99" rx="57.02" ry="57"/><path class="cls-2" d="M380.15,377.17c-.54-4.77-1.1-9.52-1.71-14.28-.27-1.84-.53-3.69-.8-5.54C375.05,340,372,322.77,368,305.74c-1.15-4.91-2.4-9.8-3.71-14.69-.17.54-.37,1.06-.54,1.6-7.79,24.29-13.92,49.11-19.25,74.06-12.12,56.75-19.39,114.34-30.78,171.23-5.77,28.82-11.68,58.4-22.59,85.81-9.84,24.73-22.06,49-49.35,57.76-52.08,16.78-76.58-46-88.41-83.49C139.5,554.11,130,508.84,119.06,464.13q-3.12-12.76-6.41-25.52c-12.24,59.07-18.57,120-41.47,175.86l-.53,1.28,201,116.43c20.87,12.09,49.28,17.27,76.66,15.59.85-1.65,1.69-3.3,2.48-5,.7-1.48,1.37-2.95,2-4.44,2.94-7.4,5.67-14.9,8.05-22.51a483.19,483.19,0,0,0,13.67-55.37c1.9-10.07,3.59-20.17,5-30.31a.24.24,0,0,1,0-.12c.27-2.21.56-4.4.81-6.61q.94-8,1.75-16,3.23-32.79,4.29-65.77a1163.32,1163.32,0,0,0-3.16-133.86C382.3,397.56,381.33,387.35,380.15,377.17Z"/><path class="cls-2" d="M679.22,482.82h0V252.71c0-42.36-29.3-94.4-66-115.65L404.56,15.93c-36.67-21.24-96.48-21.24-133.14,0L64.51,137.06C27.85,158.31,0,210.35,0,252.71V495.39c0,13.17.84,27.26,5.94,41.08,8.75-36.14,13.71-72.87,21.19-109.31C32.78,399.56,38,371.07,49,345c9.33-22.3,22.2-49.88,48.92-55.1,28.65-5.58,51.72,8.44,66.1,32.73h0c20.89,35.24,29.59,79.05,39.17,118.36,7.63,31.14,14.54,62.58,22.73,93.64,5.37-24.32,9.7-48.91,13.77-73.42,2.73-16.46,5.38-33.07,8.16-49.56C255.23,368,263.43,324.41,276.09,282c9.17-30.76,20.74-72.92,47.25-94,34.43-27.46,71.05-19.14,96.81,14.68,16.94,22.25,25.29,53.07,31.48,79.94,19.61,85,24.94,174.88,21.71,261.86-1.92,51.64-5.89,106.46-18.09,158.56l158-92c36.66-21.25,66-73.29,66-115.66ZM118.62,272C92.27,272,70.91,251.38,70.91,226s21.36-45.95,47.71-45.95,47.71,20.57,47.71,45.95S145,272,118.62,272ZM345.62,156a57,57,0,1,1,57-57A57,57,0,0,1,345.62,156Z"/></g></g></svg>