<svg width="91" height="100" viewBox="0 0 91 100" fill="none" xmlns="http://www.w3.org/2000/svg">
<path d="M51.2014 54.5032C51.0812 53.14 50.961 51.7768 50.8005 50.4135C50.7336 49.772 50.6536 49.1439 50.5733 48.5023C50.5332 48.2617 50.5065 48.0078 50.4663 47.7672C50.1189 45.4552 49.718 43.143 49.1834 40.8709C49.0363 40.2161 48.8627 39.5611 48.6889 38.9062C48.6622 38.9731 48.6353 39.0533 48.6221 39.1202C47.5796 42.3678 46.7644 45.6824 46.056 49.0236C44.4387 56.6015 43.4632 64.2997 41.9395 71.9044C41.1643 75.7536 40.3758 79.7096 38.9191 83.3716C37.6093 86.6727 35.9653 89.9205 32.3168 91.0967C25.3536 93.3419 22.0792 84.9487 20.502 79.9368C18.6443 74.0695 17.388 68.0152 15.9179 62.0411C15.6372 60.905 15.3565 59.769 15.0625 58.6329C13.432 66.5316 12.5766 74.671 9.51604 82.142C9.48931 82.1956 9.46258 82.2624 9.44922 82.3158L36.2994 97.8726C39.0929 99.4898 42.8885 100.185 46.5505 99.9576C46.6574 99.7305 46.7777 99.5166 46.8846 99.2894C46.9781 99.0889 47.0717 98.8884 47.1519 98.7012C47.5394 97.7122 47.9137 96.7099 48.2344 95.6942C48.9963 93.2618 49.5978 90.7892 50.0656 88.29C50.3194 86.94 50.5466 85.5903 50.7336 84.2403V84.2271C50.7738 83.9329 50.8139 83.6389 50.8406 83.3449C50.9209 82.6365 51.0009 81.9148 51.0678 81.2064C51.3619 78.2796 51.549 75.3527 51.6425 72.4123C51.8297 66.4249 51.6961 60.4507 51.2014 54.5032Z" fill="white"/>
<path d="M63.2569 72.7597C63.0031 79.6561 62.375 87.1271 60.7444 94.0903L81.9546 81.6608C86.8595 78.814 90.7754 71.8643 90.7754 66.1976V64.5135L56.1602 27.0781C58.4188 30.0586 59.5414 34.1749 60.3702 37.7703C62.9896 49.1305 63.698 61.1455 63.2569 72.7597Z" fill="white"/>
<path d="M27.1307 58.9403C28.1464 63.0968 29.0687 67.3068 30.1646 71.45C30.8862 68.2022 31.461 64.9145 32.0088 61.64C32.3698 59.4348 32.7306 57.2295 33.1049 55.0243L21.8916 43.1162C24.6848 47.834 25.8476 53.6879 27.1307 58.9403Z" fill="white"/>
<g opacity="0.2">
<path opacity="0.2" d="M16.4649 37.4082C19.9859 37.4082 22.84 34.6617 22.84 31.2737C22.84 27.8856 19.9859 25.1392 16.4649 25.1392C12.9441 25.1392 10.0898 27.8856 10.0898 31.2737C10.0898 34.6617 12.9441 37.4082 16.4649 37.4082Z" fill="black"/>
</g>
<g opacity="0.2">
<path opacity="0.2" d="M47.1248 21.9314C51.3321 21.9314 54.7429 18.5208 54.7429 14.3135C54.7429 10.1062 51.3321 6.69531 47.1248 6.69531C42.9175 6.69531 39.5068 10.1062 39.5068 14.3135C39.5068 18.5208 42.9175 21.9314 47.1248 21.9314Z" fill="black"/>
</g>
<path fill-rule="evenodd" clip-rule="evenodd" d="M81.9675 18.3234L54.0748 2.12503C49.1698 -0.708345 41.1776 -0.708345 36.2861 2.12503L8.62042 18.3234C3.72883 21.1568 0 28.1201 0 33.7734V66.2103C0 67.9744 0.10692 69.859 0.788535 71.7032C1.49548 68.8032 2.0141 65.8694 2.53305 62.9337C2.87748 60.9853 3.22205 59.036 3.62192 57.0953C3.6966 56.7337 3.77064 56.3709 3.84483 56.0074L3.84486 56.0073C4.52745 52.6628 5.22285 49.2555 6.54886 46.1093C7.7918 43.1289 9.51589 39.4402 13.0843 38.7452C16.9201 37.9967 19.994 39.8678 21.9185 43.1156L33.1186 55.0238C34.1075 49.1833 35.2034 43.3562 36.9008 37.676C36.959 37.481 37.018 37.2826 37.0778 37.0812C38.2805 33.0327 39.8351 27.7993 43.2091 25.1129C47.8201 21.4375 52.7116 22.5601 56.1597 27.0776L90.7885 64.5264V33.7734C90.7751 28.1201 86.8593 21.1568 81.9675 18.3234ZM15.8507 36.3389C19.3716 36.3389 22.2257 33.5923 22.2257 30.2044C22.2257 26.8164 19.3716 24.0698 15.8507 24.0698C12.3298 24.0698 9.47559 26.8164 9.47559 30.2044C9.47559 33.5923 12.3298 36.3389 15.8507 36.3389ZM53.8074 13.2309C53.8074 17.4382 50.3966 20.8489 46.1893 20.8489C41.9819 20.8489 38.5713 17.4382 38.5713 13.2309C38.5713 9.02363 41.9819 5.61279 46.1893 5.61279C50.3966 5.61279 53.8074 9.02363 53.8074 13.2309Z" fill="white"/>
</svg>
