<svg width="666" height="500" viewBox="0 0 666 500" fill="none" xmlns="http://www.w3.org/2000/svg">
<path d="M322.867 437.125C443.576 437.125 541.43 339.271 541.43 218.562C541.43 97.8538 443.576 0 322.867 0C202.158 0 104.305 97.8538 104.305 218.562C104.305 339.271 202.158 437.125 322.867 437.125Z" fill="#E1E8F8"/>
<path d="M579.35 229.511C619.832 229.511 652.649 196.694 652.649 156.212C652.649 115.73 619.832 82.9124 579.35 82.9124C538.868 82.9124 506.051 115.73 506.051 156.212C506.051 196.694 538.868 229.511 579.35 229.511Z" fill="#E1E8F8"/>
<path d="M98.8607 158.865C104.692 134.481 89.6525 109.987 65.2686 104.156C40.8847 98.3241 16.3903 113.364 10.5588 137.748C4.72735 162.132 19.7671 186.626 44.151 192.458C68.5349 198.289 93.0293 183.249 98.8607 158.865Z" fill="#E1E8F8"/>
<path fill-rule="evenodd" clip-rule="evenodd" d="M207.512 148.334H401.775C401.775 148.334 402.976 138.054 391.895 133.381C380.813 128.574 370.265 145.263 370.265 145.263C370.265 145.263 360.919 97.1983 313.922 89.855C266.925 82.5118 256.511 143.795 256.511 143.795C256.511 143.795 254.642 135.65 249.569 136.318C244.495 136.985 241.825 146.064 241.825 146.064C241.825 146.064 221.931 128.441 207.512 148.334Z" fill="white"/>
<path fill-rule="evenodd" clip-rule="evenodd" d="M188.42 148.334H148.232C148.232 148.334 174.935 131.645 188.42 148.334Z" fill="white"/>
<path fill-rule="evenodd" clip-rule="evenodd" d="M119.525 66.6235L323.001 67.6916C323.001 67.6916 318.595 53.6726 297.366 64.6208C297.366 64.6208 290.824 29.2395 258.113 28.4385C225.402 27.6374 216.724 64.3537 216.724 64.3537C216.724 64.3537 208.579 54.0732 198.699 54.6072C188.819 55.1413 185.348 64.6208 185.348 64.6208C185.348 64.6208 171.195 34.7136 151.435 32.7109C131.675 30.7082 119.525 66.6235 119.525 66.6235Z" fill="white"/>
<path fill-rule="evenodd" clip-rule="evenodd" d="M448.771 52.4713L447.703 29.6404L448.237 30.4415L449.038 52.4713H448.771Z" fill="black"/>
<path fill-rule="evenodd" clip-rule="evenodd" d="M475.608 42.5911C475.608 42.5911 470.401 44.1932 466.663 44.3268C466.129 44.3268 465.728 44.3268 465.194 44.3268C461.856 44.0597 461.723 40.4548 459.987 39.1197C459.854 38.9862 459.72 38.9862 459.587 38.8527C457.584 37.6511 448.238 40.7219 448.238 40.7219L447.57 29.6402C447.57 29.6402 454.78 28.3051 458.251 28.4386C459.053 28.4386 459.72 28.7056 460.254 28.9726C461.99 30.0408 462.524 32.177 463.726 32.8445C464.26 33.1116 465.461 33.2451 467.063 33.2451C470.268 33.2451 474.54 32.8445 474.54 32.8445L475.608 42.5911Z" fill="#FF3761"/>
<path fill-rule="evenodd" clip-rule="evenodd" d="M467.063 33.2449L466.662 44.193C466.128 44.193 465.727 44.193 465.193 44.193C461.856 43.926 461.722 40.3211 459.986 38.986C460.12 35.7816 460.253 31.3757 460.253 28.9724C461.989 30.0405 462.523 32.1768 463.725 32.8443C464.259 33.1113 465.594 33.2449 467.063 33.2449Z" fill="#C62D4D"/>
<path d="M231.41 469.168C247.966 469.302 253.574 471.171 247.833 475.177C247.432 475.444 247.165 475.711 246.631 475.978C239.555 475.978 236.217 475.844 229.541 475.844C230.209 475.444 230.476 475.177 231.143 474.776C233.947 473.04 231.811 472.373 226.337 472.373C220.863 472.373 216.857 472.907 214.054 474.776C205.642 479.85 240.089 481.852 226.47 490.664C214.187 498.675 196.964 499.743 182.144 499.877C163.986 500.01 164.653 495.871 173.332 490.264C174.667 489.463 175.335 488.929 176.67 488.127C182.01 488.127 184.814 488.261 191.089 488.261C189.621 489.196 188.819 489.73 187.217 490.664C183.212 493.201 184.814 494.269 190.555 494.269C196.296 494.269 201.904 493.335 205.642 490.798C216.724 483.588 186.55 481.986 197.631 474.91C203.773 471.038 214.855 469.168 231.41 469.168Z" fill="#FF3761"/>
<path d="M261.318 469.702C279.743 469.836 298.168 470.103 316.46 470.37C315.792 471.571 315.392 472.239 314.724 473.574C306.58 473.441 302.574 473.441 294.563 473.307L272.133 499.476H245.697L275.604 473.04C267.861 472.906 263.989 472.907 256.378 472.907C258.381 471.571 259.449 470.904 261.318 469.702Z" fill="#FF3761"/>
<path d="M397.235 499.609C385.753 499.609 379.879 499.609 368.129 499.609L362.121 493.601C348.903 493.468 343.963 493.468 330.879 493.468L322.468 499.609C311.92 499.609 306.579 499.609 296.299 499.609L331.947 470.77C342.762 470.904 348.102 471.037 359.05 471.304L397.235 499.609ZM334.35 489.062C344.097 489.195 349.037 489.195 358.917 489.329L346.634 475.71L334.35 489.062Z" fill="#FF3761"/>
<path d="M466.395 499.609C464.126 498.942 462.924 498.408 459.853 496.004C457.583 494.135 456.382 493.201 453.712 491.331C449.973 488.528 443.965 487.46 433.417 487.326C430.213 487.326 428.611 487.326 425.407 487.192L437.823 499.609C427.009 499.609 421.535 499.609 410.186 499.609L386.688 471.705C398.036 471.972 403.777 471.972 415.393 472.239C428.077 472.372 441.295 472.639 453.044 477.713C454.379 478.514 455.18 478.915 456.515 479.716C461.188 482.386 460.254 484.389 452.109 485.19C464.393 486.258 471.469 488.528 476.275 491.732C479.079 493.601 480.548 494.536 483.085 496.271C485.087 497.74 486.823 498.675 490.428 499.743C481.616 499.609 476.676 499.609 466.395 499.609ZM410.052 475.043C413.924 477.846 416.194 479.582 420.467 483.054C423.938 483.054 425.674 483.187 429.145 483.187C437.423 483.321 441.161 482.653 437.823 480.383C436.221 479.315 435.42 478.781 433.818 477.846C431.014 476.111 426.742 475.31 419.665 475.176C415.794 475.176 413.924 475.043 410.052 475.043Z" fill="#FF3761"/>
<path d="M451.176 472.907C471.203 473.307 491.096 473.708 511.124 473.975C512.592 474.909 513.527 475.577 515.396 476.779C507.786 476.645 503.914 476.645 496.037 476.512L541.431 499.743C535.023 499.743 526.211 499.743 518.467 499.743L477.077 476.245C469.067 476.111 465.061 475.978 456.783 475.844C454.38 474.509 453.312 473.975 451.176 472.907Z" fill="#FF3761"/>
<path fill-rule="evenodd" clip-rule="evenodd" d="M444.498 52.2039L444.765 245.265L488.958 253.276L515.527 95.5959L444.498 52.2039Z" fill="url(#paint0_linear)"/>
<path fill-rule="evenodd" clip-rule="evenodd" d="M552.113 432.052L529.148 104.408L492.165 128.307L402.577 204.01L399.105 226.574L552.113 432.052Z" fill="url(#paint1_linear)"/>
<path fill-rule="evenodd" clip-rule="evenodd" d="M42.2207 413.893L47.4278 458.22L656.118 467.699L665.998 413.893H42.2207Z" fill="url(#paint2_linear)"/>
<path fill-rule="evenodd" clip-rule="evenodd" d="M594.7 391.062L595.368 359.152H113.115L117.655 386.389L594.7 391.062Z" fill="url(#paint3_linear)"/>
<path fill-rule="evenodd" clip-rule="evenodd" d="M554.514 346.335L554.915 327.243L157.844 325.641L160.247 346.335H554.514Z" fill="url(#paint4_linear)"/>
<path fill-rule="evenodd" clip-rule="evenodd" d="M524.071 321.101L523.937 304.278L185.346 304.946L186.948 322.303L524.071 321.101Z" fill="url(#paint5_linear)"/>
<path fill-rule="evenodd" clip-rule="evenodd" d="M507.118 303.344V291.327L206.311 289.592L206.711 303.344H507.118Z" fill="url(#paint6_linear)"/>
<path fill-rule="evenodd" clip-rule="evenodd" d="M221.664 288.524L489.493 289.592V276.908H474.806V266.227H466.261L465.594 258.617H452.776L452.509 249.404H444.365L443.831 242.728H435.954L435.687 236.453L426.608 236.32V229.377H418.196L418.33 226.573V221.366L529.146 104.408L451.975 52.6044L444.498 52.2039L496.969 95.1954L292.292 229.377H285.75V235.519H277.739V241.66H269.328V249.404H259.181L259.314 257.415L249.034 257.281L249.167 266.894H236.484L236.884 278.243H221.396L221.664 288.524Z" fill="url(#paint7_linear)"/>
<path fill-rule="evenodd" clip-rule="evenodd" d="M665.998 413.894L594.702 391.063L117.656 386.39L42.2207 413.894H665.998Z" fill="url(#paint8_linear)"/>
<path fill-rule="evenodd" clip-rule="evenodd" d="M113.115 359.153L160.513 346.335H554.513L595.368 359.153H113.115Z" fill="url(#paint9_linear)"/>
<path fill-rule="evenodd" clip-rule="evenodd" d="M157.844 325.641L189.086 322.303L524.073 321.101L554.915 327.243L157.844 325.641Z" fill="url(#paint10_linear)"/>
<path fill-rule="evenodd" clip-rule="evenodd" d="M507.118 291.327L489.494 289.592L221.798 288.524L206.311 289.592L507.118 291.327Z" fill="url(#paint11_linear)"/>
<path fill-rule="evenodd" clip-rule="evenodd" d="M221.396 278.243L236.884 276.775L474.806 275.172L489.493 276.908L221.396 278.243Z" fill="url(#paint12_linear)"/>
<path fill-rule="evenodd" clip-rule="evenodd" d="M523.937 304.279L507.115 302.276L203.637 303.344L185.346 304.946L523.937 304.279Z" fill="url(#paint13_linear)"/>
<path fill-rule="evenodd" clip-rule="evenodd" d="M46.8927 453.414L7.10547 467.7H656.117L665.997 413.894H42.2197L46.8927 453.414Z" fill="#BEA5BB"/>
<path fill-rule="evenodd" clip-rule="evenodd" d="M117.655 386.39L102.568 391.864L594.701 391.063L595.369 359.153H113.116L117.655 386.39Z" fill="#BEA5BB"/>
<path opacity="0.5" fill-rule="evenodd" clip-rule="evenodd" d="M554.512 346.336L150.766 349.006L160.245 346.336L157.842 325.641L554.913 327.243L554.512 346.336Z" fill="#BEA5BB"/>
<path opacity="0.2" fill-rule="evenodd" clip-rule="evenodd" d="M186.95 322.303L180.941 323.104L526.209 321.635L524.072 321.101L523.939 304.279L185.347 304.946L186.95 322.303Z" fill="#BEA5BB"/>
<path d="M61.4473 319.366L56.2402 318.564L58.2429 375.441L61.4473 375.041V319.366Z" fill="#A9224E"/>
<path d="M161.051 280.646L139.955 263.29L139.288 273.837L61.4492 319.365V375.041L136.618 318.297L136.751 311.355L135.817 327.243L161.051 280.646Z" fill="url(#paint14_linear)"/>
<path d="M56.2402 318.564L137.55 273.437L138.084 263.29H139.954L139.286 273.837L61.4473 319.365L56.2402 318.564Z" fill="#A9224E"/>
<path d="M137.55 273.437L139.286 273.837L61.4473 319.366L56.2402 318.565L137.55 273.437Z" fill="#A9224E"/>
<path d="M135.815 327.243H134.213L135.014 319.499L136.616 318.297L135.815 327.243Z" fill="#A9224E"/>
<path d="M409.252 127.506L407.65 127.239L407.383 144.462H408.451L409.252 127.506Z" fill="#A9224E"/>
<path d="M439.962 117.359L433.954 111.751L433.554 114.956L409.254 127.506L408.453 144.462L432.085 128.44L432.219 126.304L431.685 131.111L439.962 117.359Z" fill="url(#paint15_linear)"/>
<path d="M407.648 127.239L433.016 114.822L433.417 111.751H433.951L433.55 114.956L409.251 127.506L407.648 127.239Z" fill="#A9224E"/>
<path d="M433.016 114.823L433.55 114.956L409.251 127.507L407.648 127.24L433.016 114.823Z" fill="#A9224E"/>
<path d="M431.683 131.111H431.148L431.549 128.708L432.083 128.44L431.683 131.111Z" fill="#A9224E"/>
<path d="M550.508 247.401L555.848 246.6L553.846 303.477L550.508 303.077V247.401Z" fill="#A9224E"/>
<path d="M451.039 208.683L472.134 191.326L472.802 201.873L550.507 247.402V303.077L475.472 246.333L475.205 239.391L476.273 255.279L451.039 208.683Z" fill="url(#paint16_linear)"/>
<path d="M555.85 246.6L474.54 201.473L473.872 191.326H472.137L472.804 201.873L550.509 247.402L555.85 246.6Z" fill="#A9224E"/>
<path d="M474.54 201.473L472.805 201.873L550.51 247.402L555.85 246.601L474.54 201.473Z" fill="#A9224E"/>
<path d="M476.274 255.279H477.876L477.075 247.535L475.473 246.333L476.274 255.279Z" fill="#A9224E"/>
<path opacity="0.7" fill-rule="evenodd" clip-rule="evenodd" d="M289.355 389.327L245.829 413.893L242.225 461.291L433.55 464.228L426.741 413.893L385.085 390.929L381.48 359.153L367.995 355.414L364.79 349.006H356.379L349.97 353.946L293.227 359.153L289.355 389.327Z" fill="#A583A1"/>
<path fill-rule="evenodd" clip-rule="evenodd" d="M358.381 253.276C358.381 253.276 359.182 263.29 358.381 270.232C358.381 270.232 362.787 265.292 368.528 267.295C368.528 267.295 366.926 265.159 367.059 263.957C367.059 262.756 368.127 256.347 368.127 256.347L358.381 253.276Z" fill="#E85B48"/>
<path fill-rule="evenodd" clip-rule="evenodd" d="M372.269 299.873L356.114 300.273L355.18 299.339C356.915 290.393 358.384 269.298 358.384 269.298C358.384 269.298 361.321 264.358 364.259 264.358C367.329 264.358 368.531 266.895 368.531 266.895C370 269.698 371.068 275.974 371.068 275.974C371.068 275.974 369.733 285.987 371.068 290.527C372.269 295.066 372.269 299.873 372.269 299.873Z" fill="url(#paint17_linear)"/>
<path fill-rule="evenodd" clip-rule="evenodd" d="M372.268 299.873L356.113 300.273C356.113 300.273 357.048 284.385 359.718 278.777C362.388 273.17 369.331 273.437 371.067 275.84C371.067 275.84 369.732 285.854 371.067 290.393C372.268 295.066 372.268 299.873 372.268 299.873Z" fill="#B82557"/>
<path fill-rule="evenodd" clip-rule="evenodd" d="M358.516 259.017C358.516 259.017 364.791 264.358 367.595 259.551L367.862 257.549L358.115 254.211C358.115 254.344 358.516 257.949 358.516 259.017Z" fill="#B33748"/>
<path fill-rule="evenodd" clip-rule="evenodd" d="M375.474 228.576C375.474 233.783 369.065 257.014 369.065 257.014C363.858 260.219 359.986 256.347 358.251 254.344C357.85 253.944 357.583 253.543 357.449 253.276C356.381 252.074 354.779 251.674 354.779 251.674C355.313 239.257 353.311 212.154 353.311 212.154C356.648 207.881 371.736 209.483 371.736 209.483C371.468 211.086 372.003 213.222 372.537 215.625C373.605 220.165 375.474 225.238 375.474 228.576Z" fill="url(#paint18_linear)"/>
<path opacity="0.2" d="M363.458 223.235C363.458 223.235 357.984 242.328 358.385 253.276L358.118 254.344C357.717 253.944 357.45 253.543 357.317 253.276C356.249 252.074 354.646 251.674 354.646 251.674C355.18 239.257 353.178 212.154 353.178 212.154C356.516 207.881 371.603 209.483 371.603 209.483C371.336 211.086 371.87 213.222 372.404 215.625L363.458 223.235Z" fill="#935B9D"/>
<path opacity="0.91" fill-rule="evenodd" clip-rule="evenodd" d="M371.734 246.333C371.734 246.333 367.595 254.611 365.993 255.412C364.257 256.214 361.721 254.878 361.721 254.878C361.721 254.878 363.723 257.148 365.459 257.148C367.061 257.148 369.865 254.077 369.865 254.077L371.734 246.333Z" fill="#935B9D"/>
<path fill-rule="evenodd" clip-rule="evenodd" d="M319.932 354.079C319.932 354.079 320.866 356.883 321 360.889C321 360.889 327.675 361.022 330.613 365.028V345.802L319.932 354.079Z" fill="url(#paint19_linear)"/>
<path fill-rule="evenodd" clip-rule="evenodd" d="M336.084 405.215H314.187C314.187 405.215 313.52 402.278 314.187 396.67C314.855 391.063 315.122 377.177 314.988 375.041C314.855 372.905 320.863 360.889 320.863 360.889C326.471 357.818 330.476 365.028 330.476 365.028C330.476 365.028 330.877 369.166 331.411 375.709C332.078 382.651 332.212 392.665 334.081 397.605C336.084 402.678 336.084 405.215 336.084 405.215Z" fill="url(#paint20_linear)"/>
<path fill-rule="evenodd" clip-rule="evenodd" d="M315.123 375.175C315.123 375.175 323.534 370.502 327.806 377.444C332.079 384.387 333.548 405.215 333.548 405.215H314.322C314.322 405.215 313.787 402.946 314.188 397.872C314.589 392.798 315.123 375.175 315.123 375.175Z" fill="#B82557"/>
<path fill-rule="evenodd" clip-rule="evenodd" d="M320.198 355.548C320.198 355.548 323.402 360.622 330.479 354.079V345.802L318.195 349.139C318.195 349.139 320.065 354.213 320.198 355.548Z" fill="#B33748"/>
<path fill-rule="evenodd" clip-rule="evenodd" d="M386.152 195.998C385.618 201.606 378.007 211.352 372.133 212.821C366.258 214.29 362.253 212.821 356.779 212.154C351.171 211.486 347.166 213.756 347.166 213.756C347.166 213.756 342.493 230.846 340.357 249.27C338.22 267.695 337.953 286.788 337.82 288.257C337.553 289.725 335.417 292.529 335.417 292.529C332.479 313.624 334.215 344.065 334.215 344.065C334.215 344.065 333.681 344.466 333.147 345C332.479 345.668 331.678 346.335 331.278 347.003C330.477 348.071 330.61 351.008 330.61 351.409C326.738 355.948 318.861 353.812 318.861 353.812C311.785 340.194 309.248 311.221 309.915 307.483C310.449 303.744 318.46 291.728 318.46 289.592C318.46 287.722 312.185 236.854 311.651 215.625C311.518 212.02 311.651 209.216 311.918 207.748C314.054 197.734 322.733 181.979 322.733 181.979L341.158 173.034L376.405 173.835C376.405 173.835 376.539 173.969 376.672 174.236C378.141 176.639 385.351 188.655 386.152 194.663C386.152 195.064 386.152 195.598 386.152 195.998Z" fill="url(#paint21_linear)"/>
<path opacity="0.91" d="M376.541 174.236V178.775C376.541 178.775 362.922 195.198 351.173 198.669C339.424 202.14 318.729 195.865 318.729 195.865C318.729 195.865 312.721 207.08 311.519 215.759C311.386 212.154 311.519 209.35 311.786 207.881C313.922 197.868 322.601 182.113 322.601 182.113L341.026 173.168L376.273 173.969C376.273 173.835 376.407 173.969 376.541 174.236Z" fill="#935B9D"/>
<path opacity="0.5" d="M386.155 195.999C385.621 201.606 378.01 211.353 372.136 212.822C366.261 214.29 362.256 212.822 356.782 212.154C351.174 211.486 347.168 213.756 347.168 213.756C347.168 213.756 345.833 218.696 344.231 226.307C342.896 232.715 341.427 240.86 340.359 249.271C338.223 267.696 337.956 286.788 337.823 288.257C337.555 289.726 335.419 292.529 335.419 292.529C326.34 304.813 331.547 336.189 333.15 345.001C332.482 345.668 331.681 346.336 331.28 347.003C330.479 348.071 330.613 351.009 330.613 351.409L329.278 317.096L330.613 291.595L321.4 293.731L331.814 289.325L335.686 266.761L332.081 277.309C335.553 264.225 337.422 239.925 337.422 239.925L336.22 229.778L335.019 219.898C325.94 220.298 319.932 218.162 319.932 218.162C326.741 219.764 333.15 218.162 333.15 218.162C333.15 218.162 347.97 209.083 349.705 208.816C351.441 208.549 358.25 209.751 369.732 208.816C380.414 208.015 385.621 195.999 386.288 194.13C386.155 195.064 386.155 195.598 386.155 195.999Z" fill="#321C47"/>
<path fill-rule="evenodd" clip-rule="evenodd" d="M404.178 204.277C404.178 204.277 408.584 234.184 418.464 251.14L422.736 246.868C422.736 246.868 409.385 222.435 407.649 204.811L407.382 202.274L404.178 204.277Z" fill="#581124"/>
<path fill-rule="evenodd" clip-rule="evenodd" d="M401.641 193.996C401.641 193.996 402.308 195.999 401.507 199.737C400.84 203.475 399.771 206.413 399.771 206.413C399.771 206.413 400.172 207.214 400.84 207.347C401.507 207.481 403.109 205.879 403.91 204.944C404.578 203.876 403.51 201.072 403.643 200.405C403.777 199.737 404.177 198.802 404.177 198.802C404.177 198.802 403.243 195.064 401.641 193.996Z" fill="#B33748"/>
<path fill-rule="evenodd" clip-rule="evenodd" d="M400.842 185.184C400.842 185.184 410.855 182.647 414.327 175.438C414.327 175.438 409.387 173.168 404.58 176.239C399.907 179.443 400.842 185.184 400.842 185.184Z" fill="#2B1548"/>
<path fill-rule="evenodd" clip-rule="evenodd" d="M418.463 199.203C418.463 200.138 414.324 202.407 414.324 202.407L406.313 204.143L403.243 196.533C403.243 196.533 401.373 194.263 401.507 193.195C401.64 192.127 404.044 183.582 404.044 183.181C404.044 182.781 402.441 180.511 402.441 180.511C402.441 180.511 403.109 179.309 404.311 178.108C405.646 176.773 407.648 175.438 410.052 175.438C410.052 175.438 410.452 175.705 410.986 176.372C411.654 177.04 412.455 178.108 413.39 179.309L413.79 179.843C414.057 180.244 414.191 180.645 414.458 181.045C415.526 183.048 416.727 189.056 417.662 193.595C418.063 196.533 418.463 198.802 418.463 199.203Z" fill="url(#paint22_linear)"/>
<path fill-rule="evenodd" clip-rule="evenodd" d="M402.176 181.045L404.045 183.181C404.045 183.181 407.65 178.909 412.99 178.642L410.587 175.304C410.587 175.437 404.446 174.77 402.176 181.045Z" fill="url(#paint23_linear)"/>
<path fill-rule="evenodd" clip-rule="evenodd" d="M317.66 180.511C317.66 180.511 320.063 185.317 327.006 187.32C334.082 189.323 340.758 182.38 340.758 182.38C340.758 182.38 327.407 179.176 317.66 180.511Z" fill="#2B1548"/>
<path fill-rule="evenodd" clip-rule="evenodd" d="M323.536 108.28C323.536 108.28 320.866 111.618 320.599 114.421C320.332 117.225 330.079 146.465 336.487 150.737C342.896 155.01 343.297 126.037 343.297 126.037L323.536 108.28Z" fill="url(#paint24_radial)"/>
<path fill-rule="evenodd" clip-rule="evenodd" d="M378.544 176.372C378.544 176.372 364.258 195.331 347.969 197.334C339.691 198.402 332.348 196.132 327.275 193.729C322.201 191.326 319.264 188.789 319.264 188.789L318.863 187.988L320.732 184.116L321.801 181.713L334.484 172.901L340.893 168.495L356.781 170.765L376.408 173.568L378.544 176.372Z" fill="url(#paint25_linear)"/>
<path opacity="0.5" d="M361.855 190.257C361.588 190.658 356.247 196.266 343.563 195.598C330.479 195.064 324.871 190.124 324.871 190.124L327.275 193.595C322.201 191.192 319.264 188.655 319.264 188.655L318.863 187.854L321.801 181.579L340.893 168.361L376.408 173.568C376.408 173.568 365.059 183.715 354.645 184.917C354.645 184.917 361.988 182.113 363.724 178.241C363.056 178.508 341.828 186.118 335.018 185.718C335.018 185.718 339.825 192.127 347.302 193.729C354.512 195.598 361.454 190.524 361.855 190.257Z" fill="url(#paint26_linear)"/>
<path opacity="0.91" fill-rule="evenodd" clip-rule="evenodd" d="M376.275 173.835C376.275 173.835 360.52 180.778 343.163 184.783C325.807 188.789 320.6 184.249 320.6 184.249L321.668 181.846L334.352 173.034L356.648 170.898L365.994 169.963L376.275 173.835Z" fill="#935B9D"/>
<path fill-rule="evenodd" clip-rule="evenodd" d="M414.325 175.437C414.325 175.437 402.976 173.301 400.84 185.184L400.707 185.05C400.707 185.05 400.707 184.917 400.573 184.917C400.306 184.65 399.906 184.116 399.238 183.448C399.238 183.315 399.104 183.315 399.104 183.181C395.366 178.775 386.955 167.827 383.483 155.944C383.483 155.944 382.816 146.331 380.145 138.588C377.475 130.71 372.936 125.77 372.936 125.77C372.936 125.77 365.859 140.323 365.859 149.135L367.862 151.004L366.393 153.007C366.393 153.007 372.669 165.29 377.742 173.835C377.742 173.835 360.385 174.77 350.505 181.579L348.903 179.176L347.167 176.639L343.963 179.977L341.693 182.38C341.693 182.38 327.007 184.65 317.527 180.645C317.527 180.645 324.47 173.835 330.078 167.16C332.748 163.955 335.285 160.617 336.353 158.214L335.018 157.146L337.287 154.609C337.287 154.609 334.35 139.522 325.138 118.427L323.402 108.413C323.402 108.413 342.761 98.5334 362.121 95.329L366.928 93.7269C366.928 93.7269 369.064 92.6587 370.666 92.1247C371.2 91.8577 371.734 91.8577 372.001 91.8577C373.069 91.8577 381.347 98.3999 386.554 113.22C389.224 120.964 393.096 133.381 398.036 145.664C402.442 156.879 407.916 167.961 414.325 175.437Z" fill="url(#paint27_radial)"/>
<path opacity="0.8" fill-rule="evenodd" clip-rule="evenodd" d="M418.463 199.203C418.463 200.138 414.324 202.407 414.324 202.407L406.313 204.143L403.243 196.533C403.243 196.533 401.373 194.263 401.507 193.195C401.64 192.127 404.044 183.582 404.044 183.181C404.044 182.781 402.441 180.511 402.441 180.511C402.441 180.511 403.109 179.309 404.311 178.108L410.986 176.239C411.654 176.906 412.455 177.974 413.39 179.176C413.39 179.176 408.85 181.846 407.648 184.516C406.447 187.187 408.049 193.195 408.049 193.195C408.049 193.195 411.787 195.064 417.128 193.328L417.662 193.462C418.063 196.533 418.463 198.802 418.463 199.203Z" fill="url(#paint28_linear)"/>
<path fill-rule="evenodd" clip-rule="evenodd" d="M417.129 200.672C414.86 203.876 412.99 204.143 412.99 204.143H412.59L407.65 204.677L406.315 204.277L404.713 204.811C402.443 202.808 402.176 198.936 402.176 197.735C402.176 197.468 402.176 197.334 402.176 197.334L402.977 195.732L404.178 195.999L409.653 195.331L411.388 194.263L412.323 194.53C412.59 195.732 411.655 198.002 411.655 198.002L413.391 200.271L414.86 199.47C415.928 199.47 417.129 200.672 417.129 200.672Z" fill="url(#paint29_linear)"/>
<path opacity="0.5" fill-rule="evenodd" clip-rule="evenodd" d="M412.59 204.277L407.65 204.811L406.315 204.277L404.713 204.811C402.443 202.808 402.176 198.936 402.176 197.735C402.176 197.468 402.176 197.334 402.176 197.334L402.977 195.732L404.178 195.999L409.653 195.331L411.388 194.263C411.388 194.263 408.451 196.933 408.317 197.334C408.184 197.735 411.789 203.876 412.59 204.277Z" fill="url(#paint30_linear)"/>
<path d="M347.568 176.506H346.901L348.637 156.879L347.034 155.677L348.236 154.342C347.835 152.339 343.964 134.182 342.895 126.171C341.827 117.626 344.765 109.615 344.898 109.615L345.566 109.882C345.566 110.016 342.495 117.759 343.697 126.171C344.765 134.582 349.037 154.342 349.037 154.476V154.609L348.103 155.677L349.438 156.745L347.568 176.506Z" fill="url(#paint31_linear)"/>
<path fill-rule="evenodd" clip-rule="evenodd" d="M463.591 265.026C463.591 265.026 457.582 264.492 453.711 265.56C449.972 266.628 446.367 270.5 446.367 270.5C446.367 270.5 438.223 260.486 430.613 234.451C430.479 233.917 430.346 233.383 430.079 232.849C422.201 206.947 414.19 199.737 414.19 199.737L413.523 200.138L411.787 197.868L412.321 195.732L414.858 195.198C416.327 195.999 417.662 197.067 418.863 198.402C424.204 204.143 427.942 214.691 437.021 229.644C448.103 248.069 463.591 265.026 463.591 265.026Z" fill="url(#paint32_linear)"/>
<path opacity="0.91" fill-rule="evenodd" clip-rule="evenodd" d="M334.482 143.394C334.482 143.394 336.218 145.13 339.022 143.661C341.959 142.326 346.632 139.389 351.172 131.511C355.711 123.634 359.316 108.146 359.316 108.146L370.665 91.9912L366.926 93.5934L362.12 95.1956L338.888 118.16L331.145 143.661L332.48 146.064L334.616 144.462L334.482 143.394Z" fill="url(#paint33_linear)"/>
<path fill-rule="evenodd" clip-rule="evenodd" d="M430.081 232.982C429.814 232.047 425.141 244.331 416.062 253.276C416.062 253.276 414.326 278.11 425.541 291.194H426.743L428.479 288.791L433.819 296.935L446.236 270.766C446.37 270.633 439.026 261.42 430.081 232.982Z" fill="#581124"/>
<path fill-rule="evenodd" clip-rule="evenodd" d="M411.252 194.396C411.252 194.396 408.448 193.862 407.914 193.328C407.38 192.928 405.778 188.388 406.045 186.653C406.045 186.653 405.511 190.257 407.113 194.129L403.775 196.132L409.516 195.598L411.252 194.396Z" fill="#B33748"/>
<path fill-rule="evenodd" clip-rule="evenodd" d="M404.045 183.315L403.377 185.985C403.377 185.985 408.317 180.377 413.391 179.309L412.99 178.642C412.856 178.775 408.317 178.508 404.045 183.315Z" fill="#B33748"/>
<path fill-rule="evenodd" clip-rule="evenodd" d="M406.312 204.277C406.312 204.277 403.908 199.47 403.908 198.402C403.908 197.334 404.175 196.132 404.175 196.132C404.175 196.132 403.775 197.601 403.641 198.536C403.508 199.337 406.312 204.277 406.312 204.277Z" fill="#B33748"/>
<path fill-rule="evenodd" clip-rule="evenodd" d="M409.919 204.543C409.919 204.543 406.18 199.87 406.047 198.535C405.913 197.2 406.314 195.731 406.314 195.731C406.314 195.731 406.314 197.2 406.581 198.669C406.981 200.271 409.919 204.543 409.919 204.543Z" fill="#B33748"/>
<path fill-rule="evenodd" clip-rule="evenodd" d="M409.519 195.465L408.184 197.334L408.317 195.598L409.519 195.465Z" fill="#B33748"/>
<path opacity="0.1" d="M366.927 93.5934C366.927 93.5934 369.063 92.5253 370.666 91.9912L359.317 108.146C359.317 108.146 354.11 128.174 349.17 134.716C344.23 141.258 339.023 143.528 339.023 143.528V156.078L349.971 155.143L367.862 150.737L366.393 152.74C366.393 152.74 353.843 153.942 349.036 156.478L330.211 166.759C332.881 163.555 335.418 160.217 336.486 157.814L335.151 156.746L337.421 154.209C337.421 154.209 334.483 139.122 325.271 118.026L323.535 108.013C323.535 108.013 342.895 98.1329 362.254 94.9285L366.927 93.5934Z" fill="url(#paint34_linear)"/>
<path opacity="0.1" d="M389.894 168.094C390.294 168.762 395.368 178.241 399.106 183.181C395.368 178.775 386.957 167.827 383.485 155.944C383.485 155.944 382.818 146.331 380.147 138.588C377.477 130.71 372.938 125.77 372.938 125.77C372.938 125.77 365.861 140.323 365.861 149.135C365.861 149.135 365.594 130.844 367.197 123.5C367.197 123.5 361.722 115.089 360.654 109.615C360.921 110.149 364.927 118.961 368.532 122.032L370.668 120.697C370.668 120.697 367.464 99.8685 370.668 92.1247C371.202 91.8577 371.736 91.8577 372.003 91.8577C372.003 91.8577 368.799 106.678 372.003 118.827L376.676 126.838C376.676 126.838 389.226 142.994 386.155 143.795C383.085 144.729 385.087 154.476 389.093 162.754C393.098 170.898 401.243 177.44 401.51 177.574C401.109 177.307 395.635 174.903 389.894 168.094Z" fill="url(#paint35_linear)"/>
<path fill-rule="evenodd" clip-rule="evenodd" d="M366.927 93.5934L362.121 95.1956C361.987 95.4626 361.854 95.7296 361.854 95.9967C361.052 98.1329 360.251 100.269 359.317 102.138C345.832 133.381 327.54 147.667 327.54 147.667C326.472 149.402 326.072 152.206 326.072 153.141C326.072 153.274 326.072 153.408 326.072 153.408H325.404C325.271 149.135 327.273 142.994 327.407 142.727C325.004 147.266 324.069 153.274 324.069 153.274C320.331 157.547 315.791 158.748 315.791 158.748L316.192 151.004C312.854 152.74 310.184 152.607 310.184 152.607C310.184 152.607 316.192 147.266 317.393 143.127C318.461 138.988 320.731 110.95 321.399 108.948C322.066 106.945 326.472 103.34 326.472 103.34C326.472 102.806 326.472 102.272 326.472 101.738C327.006 82.5117 332.213 64.4873 332.213 64.4873C338.088 55.8089 346.499 53.2722 347.033 53.1386H348.102C348.102 53.1386 351.84 51.403 355.445 51.937C363.055 53.2722 367.061 60.2149 367.061 60.2149C368.93 78.5063 366.927 93.5934 366.927 93.5934Z" fill="url(#paint36_linear)"/>
<path d="M347.966 53.4057C347.966 53.4057 350.369 51.937 353.841 52.7381C357.312 53.5392 361.184 58.6127 362.652 60.8825C364.121 63.1522 364.255 87.1847 358.647 103.74C353.039 120.296 325.269 143.394 323.933 144.996C322.732 146.599 317.525 158.081 317.525 158.081L315.789 158.748C315.789 158.748 315.923 152.073 316.991 149.135C318.059 146.198 325.669 142.994 339.021 127.773C352.372 112.419 360.516 89.4545 361.718 74.3674C362.92 59.4138 354.909 54.6073 352.505 53.5392C350.236 52.6046 347.966 53.4057 347.966 53.4057Z" fill="url(#paint37_linear)"/>
<path d="M319.396 146.332C319.396 146.332 322.467 141.525 322.467 131.645C322.467 121.765 321.266 110.55 322.467 108.147C323.669 105.743 329.143 102.94 329.143 102.94C329.143 102.94 327.941 84.7816 329.81 73.7C329.81 73.7 326.206 84.9151 326.606 102.806C326.606 102.806 322.067 107.078 321.266 109.081C320.465 111.084 321.533 124.168 317.928 147.667L319.396 146.332Z" fill="url(#paint38_linear)"/>
<path d="M335.819 60.2151C335.819 60.2151 332.748 64.8881 331.947 79.4411C331.012 93.9941 331.68 100.937 330.879 102.005C330.078 103.073 325.138 104.408 323.669 108.147C322.2 111.885 325.405 124.035 324.737 133.381C323.936 142.727 318.996 147.667 318.996 147.667L328.876 138.321C328.876 138.321 327.007 132.446 325.138 122.566C323.269 112.686 324.07 109.615 324.871 107.479C325.672 105.343 334.884 101.738 335.418 100.67C336.086 99.6017 333.95 89.9887 333.549 77.7054C333.149 65.6892 335.819 60.2151 335.819 60.2151Z" fill="url(#paint39_linear)"/>
<path opacity="0.5" d="M366.93 60.6155C366.93 60.6155 365.995 81.3102 362.123 95.1956L366.93 93.5934C366.93 93.5934 368.799 73.0323 366.93 60.6155Z" fill="url(#paint40_linear)"/>
<path opacity="0.5" d="M327.943 136.451C327.943 136.451 339.96 127.907 346.368 117.76C346.368 117.76 339.426 129.108 328.611 138.454L327.943 136.451Z" fill="url(#paint41_linear)"/>
<path opacity="0.2" d="M359.317 102.272C345.832 133.514 327.54 147.8 327.54 147.8C326.472 149.536 326.072 152.34 326.072 153.274L325.671 153.541H325.404C325.271 149.269 327.273 143.127 327.407 142.86C325.004 147.399 324.069 153.408 324.069 153.408C320.331 157.68 315.791 158.882 315.791 158.882L316.192 151.138C312.854 152.874 310.184 152.74 310.184 152.74C310.184 152.74 316.192 147.399 317.393 143.261C318.461 139.122 320.731 111.084 321.399 109.081C321.399 109.081 321.265 112.419 322.2 117.759L323.268 110.817C323.268 110.817 324.336 119.362 325.538 124.969C325.538 124.969 326.739 115.89 328.074 112.285C329.41 108.68 330.077 107.612 330.077 107.612C330.077 107.612 329.677 110.55 330.077 112.686C330.077 112.686 347.434 110.683 352.374 107.212C352.374 107.212 346.9 117.092 344.23 121.364C344.63 120.964 352.107 113.887 357.047 106.411C357.848 105.076 358.649 103.607 359.317 102.272Z" fill="#BE6888"/>
<path opacity="0.5" d="M357.714 57.6782C357.581 57.5447 357.581 57.5447 357.447 57.4111C357.581 57.5447 357.581 57.5447 357.714 57.6782Z" fill="url(#paint42_linear)"/>
<path opacity="0.2" d="M366.925 93.5933L362.119 95.1954C361.985 95.4625 361.852 95.7295 361.852 95.9965C363.054 92.2581 363.588 89.5879 363.588 89.5879C363.588 89.5879 361.985 83.4462 360.517 83.1792C360.517 83.1792 359.048 91.3235 355.844 99.7349C355.844 99.7349 348.501 102.672 342.492 102.672C336.351 102.806 326.738 102.806 326.738 102.806L326.471 102.005C327.005 82.7786 332.212 64.7542 332.212 64.7542C332.212 64.7542 331.811 70.2283 332.746 72.7651L334.482 65.6888L334.615 69.9613L336.751 71.4299C336.751 71.4299 337.552 63.8196 339.288 60.6153C340.89 57.678 346.364 53.9396 347.032 53.5391C346.498 54.0731 342.092 57.678 340.757 60.6153C339.288 63.8196 339.155 68.6262 339.155 68.6262C339.155 68.6262 343.427 69.6943 346.364 68.2256L348.1 53.9396C347.966 55.9423 347.432 64.4872 348.1 67.9586C348.1 67.9586 355.176 67.6916 359.582 65.1548C359.582 65.1548 360.116 60.2148 357.98 57.8115C358.781 58.7461 360.784 61.5499 361.985 68.4926L363.721 64.7542L367.193 60.7488C368.928 78.5062 366.925 93.5933 366.925 93.5933Z" fill="#BE6888"/>
<path opacity="0.7" d="M335.819 60.2151L334.217 62.6183H338.222C338.222 62.6183 337.421 65.6892 337.021 67.8254L334.083 67.1578L331.947 64.7546C332.081 64.7546 334.484 61.5502 335.819 60.2151Z" fill="#972A3D"/>
<path opacity="0.7" d="M339.689 63.4192H346.765L346.231 68.2257C346.231 68.2257 342.359 69.6944 339.021 68.6262L339.689 63.4192Z" fill="#972A3D"/>
<path opacity="0.7" d="M347.566 63.4193C347.566 63.4193 355.043 63.8199 359.316 61.9507V65.155C359.316 65.155 354.509 68.3594 347.833 67.9588L347.566 63.4193Z" fill="#972A3D"/>
<path opacity="0.7" d="M361.721 59.2803L364.525 57.4111L367.061 60.6155L363.59 64.6209C363.59 64.6209 362.789 60.749 361.721 59.2803Z" fill="#972A3D"/>
<path opacity="0.7" d="M323.936 107.479L324.737 107.613C324.737 107.613 325.271 106.144 330.211 103.741L328.609 103.474C328.475 103.474 324.87 105.343 323.936 107.479Z" fill="#972A3D"/>
<path d="M328.342 107.612C328.342 107.612 336.353 108.146 344.363 107.345L345.966 104.141C345.966 104.141 339.557 104.141 331.813 104.141C331.947 104.008 328.742 105.877 328.342 107.612Z" fill="#972A3D"/>
<path opacity="0.7" d="M355.179 100.536L360.653 97.1985L357.983 104.542L351.174 109.615C351.04 109.482 354.512 104.008 355.179 100.536Z" fill="#972A3D"/>
<path fill-rule="evenodd" clip-rule="evenodd" d="M332.081 64.7544C332.081 64.7544 327.809 81.1766 323.937 97.0648C320.065 112.953 315.792 116.691 314.591 120.563C313.389 124.435 317.261 139.522 316.326 143.394C315.258 147.266 312.188 150.871 312.188 150.871C312.188 150.871 315.258 149.269 316.86 144.596C318.463 140.056 314.324 127.105 316.46 119.896C318.596 112.686 322.735 105.076 324.871 100.002C327.008 94.9286 329.277 80.5091 329.277 80.5091L332.081 64.7544Z" fill="url(#paint43_linear)"/>
<path fill-rule="evenodd" clip-rule="evenodd" d="M361.854 95.9966C361.854 95.9966 356.113 116.157 351.039 128.04C345.966 139.923 332.08 143.661 332.08 143.661L333.816 141.925C333.816 141.925 343.295 138.187 349.57 127.639C355.846 117.092 357.982 104.408 357.982 104.408L361.854 95.9966Z" fill="url(#paint44_linear)"/>
<path opacity="0.5" fill-rule="evenodd" clip-rule="evenodd" d="M347.301 102.272C347.301 102.272 358.649 89.4545 361.72 74.501C361.72 74.501 359.851 88.6535 355.312 100.002C355.312 100.002 349.838 101.871 347.301 102.272Z" fill="url(#paint45_linear)"/>
<path d="M386.154 195.999C385.62 201.606 378.01 211.353 372.135 212.821C366.26 214.29 362.255 212.821 356.781 212.154C351.173 211.486 347.168 213.756 347.168 213.756C347.168 213.756 345.833 218.696 344.231 226.306L335.953 230.178L334.751 220.298C325.672 220.699 319.664 218.563 319.664 218.563C326.473 220.165 332.882 218.563 332.882 218.563C332.882 218.563 347.702 209.484 349.438 209.217C351.173 208.95 357.983 210.151 369.465 209.217C380.146 208.415 385.353 196.399 386.021 194.53C386.154 195.064 386.154 195.598 386.154 195.999Z" fill="#321C47"/>
<path opacity="0.91" fill-rule="evenodd" clip-rule="evenodd" d="M312.588 232.982C312.588 232.982 318.195 273.971 322.067 284.518C322.067 284.518 314.457 270.766 312.588 232.982Z" fill="url(#paint46_linear)"/>
<path opacity="0.5" fill-rule="evenodd" clip-rule="evenodd" d="M311.922 330.314C311.922 330.314 315.26 344.066 317.396 347.671C319.532 351.275 324.472 352.611 324.472 352.611C324.472 352.611 320.6 352.878 318.865 352.21C317.129 351.542 315.927 347.136 315.927 347.136C315.927 347.136 312.99 337.523 311.922 330.314Z" fill="url(#paint47_linear)"/>
<path opacity="0.1" fill-rule="evenodd" clip-rule="evenodd" d="M309.781 307.483C309.781 307.483 313.386 297.469 317.392 295.734C321.397 293.998 328.073 293.464 328.073 293.464C328.073 293.464 328.74 300.407 328.073 320.567C327.405 340.861 322.198 347.404 322.198 347.404C322.198 347.404 310.315 340.995 309.781 307.483Z" fill="#ECD6E0"/>
<path fill-rule="evenodd" clip-rule="evenodd" d="M426.744 291.194C426.744 291.194 436.224 272.502 441.164 267.028C441.164 267.028 428.613 240.726 428.747 239.124C428.88 237.388 430.082 233.115 430.082 233.115L430.75 235.118C430.75 235.118 430.082 237.521 430.082 239.257C430.082 240.993 442.766 266.895 442.766 266.895L429.014 289.325L426.744 291.194Z" fill="#4B1124"/>
<path opacity="0.2" fill-rule="evenodd" clip-rule="evenodd" d="M446.367 270.633C446.367 270.633 445.299 255.947 446.367 253.276C447.435 250.739 463.591 265.025 463.591 265.025C463.591 265.025 452.642 259.551 446.367 270.633Z" fill="#DDB6C8"/>
<path fill-rule="evenodd" clip-rule="evenodd" d="M463.593 265.025L442.231 295.066L433.953 296.802C433.953 296.802 441.563 279.178 446.37 270.633C446.37 270.633 449.708 260.085 463.593 265.025Z" fill="#4B1124"/>
<path opacity="0.2" fill-rule="evenodd" clip-rule="evenodd" d="M446.367 253.276C446.367 253.276 438.756 245.399 435.686 233.65L435.819 228.977C435.819 228.977 453.576 255.946 459.852 261.688C459.852 261.821 449.571 252.609 446.367 253.276Z" fill="url(#paint48_linear)"/>
<path fill-rule="evenodd" clip-rule="evenodd" d="M426.742 285.72L425.006 282.382L433.951 267.829L435.687 270.633L426.742 285.72Z" fill="url(#paint49_linear)"/>
<path opacity="0.1" fill-rule="evenodd" clip-rule="evenodd" d="M372.934 125.637L370.531 120.563L368.395 121.898C368.395 121.898 364.79 117.893 362.787 114.021C362.787 114.021 365.457 120.697 367.06 123.367V140.991C367.193 140.991 370.664 129.909 372.934 125.637Z" fill="url(#paint50_linear)"/>
<path opacity="0.91" fill-rule="evenodd" clip-rule="evenodd" d="M335.15 157.012L349.97 155.277V156.211C349.97 156.211 339.423 159.416 336.486 158.08L335.15 157.012Z" fill="url(#paint51_linear)"/>
<path opacity="0.05" fill-rule="evenodd" clip-rule="evenodd" d="M367.862 171.165C367.862 171.165 359.851 176.906 348.903 179.176L347.167 176.639L343.963 179.977C343.429 179.977 342.761 180.11 342.227 180.11C327.941 180.778 322.066 178.508 322.066 178.508C322.066 178.508 332.347 166.492 341.693 160.884C351.039 155.277 365.859 154.342 365.859 154.342C365.859 154.342 369.464 165.824 367.862 171.165Z" fill="#ECD6E0"/>
<path fill-rule="evenodd" clip-rule="evenodd" d="M317.66 180.511C317.66 180.511 328.074 183.048 340.758 181.312L347.3 175.037L350.905 180.11C350.905 180.11 362.521 172.5 377.608 173.568L376.94 174.503L376.139 173.568C376.139 173.568 364.123 173.835 350.371 181.312L347.033 176.372L341.559 182.113C341.693 182.247 326.205 184.917 317.66 180.511Z" fill="#2B1548"/>
<path opacity="0.1" fill-rule="evenodd" clip-rule="evenodd" d="M372.002 91.8577L371.334 96.1301C371.334 96.1301 378.41 102.005 383.617 110.817C388.824 119.629 390.961 125.904 390.961 125.904C390.961 125.904 384.018 98.9339 372.002 91.8577Z" fill="#ECD6E0"/>
<path opacity="0.2" fill-rule="evenodd" clip-rule="evenodd" d="M396.967 142.993C396.967 142.993 400.705 159.015 404.177 165.29C407.648 171.565 414.324 175.437 414.324 175.437C414.324 175.437 404.177 161.418 396.967 142.993Z" fill="url(#paint52_linear)"/>
<path opacity="0.7" d="M335.417 292.529C335.417 292.529 330.744 297.469 330.21 313.491C329.676 329.513 333.147 345 333.147 345L334.216 344.066C334.216 344.066 332.346 317.897 335.417 292.529Z" fill="url(#paint53_linear)"/>
<path d="M336.085 405.215L333.549 398.139C333.549 398.139 329.143 378.512 329.143 374.907C329.143 371.436 330.611 365.027 330.611 365.027C330.611 365.027 331.012 369.166 331.546 375.708C332.213 382.651 332.347 392.665 334.216 397.605C336.085 402.678 336.085 405.215 336.085 405.215Z" fill="url(#paint54_linear)"/>
<path fill-rule="evenodd" clip-rule="evenodd" d="M430.079 232.982C422.201 207.08 414.19 199.87 414.19 199.87L413.523 200.271L411.787 198.001L412.321 195.865L414.858 195.331C416.327 196.132 417.662 197.2 418.863 198.535L416.46 200.671C416.46 200.671 427.275 216.827 430.079 232.982Z" fill="#581124"/>
<path fill-rule="evenodd" clip-rule="evenodd" d="M349.035 53.2721C349.035 53.2721 351.572 51.5365 357.313 53.5392C363.588 55.6754 365.991 61.9506 365.991 61.9506C365.991 61.9506 368.528 77.9722 367.327 91.3236C367.327 91.3236 369.062 72.6317 367.06 60.6154C367.06 60.6154 363.455 54.6073 357.58 52.8716C351.572 51.1359 349.035 53.2721 349.035 53.2721Z" fill="url(#paint55_linear)"/>
<path opacity="0.91" d="M330.879 385.989L314.59 389.06L314.99 377.444H327.808C327.808 377.444 330.077 381.316 330.879 385.989Z" fill="url(#paint56_linear)"/>
<path fill-rule="evenodd" clip-rule="evenodd" d="M314.988 377.31C314.988 377.31 318.593 394.267 319.394 405.081H322.999C322.999 405.081 324.201 386.256 327.806 377.31C327.806 377.31 325.803 372.637 321.397 372.771C316.991 372.904 314.988 374.64 314.988 374.64V377.31Z" fill="url(#paint57_linear)"/>
<path opacity="0.91" d="M370.533 281.581L357.182 289.592C357.182 289.592 357.983 282.649 359.184 279.979C360.386 277.309 370.934 275.974 370.934 275.974L370.533 281.581Z" fill="url(#paint58_linear)"/>
<path fill-rule="evenodd" clip-rule="evenodd" d="M359.318 279.979C359.318 279.979 362.79 286.788 363.457 300.14L367.062 300.006C367.062 300.006 368.531 279.578 371.068 275.974C371.068 275.974 369.732 273.437 365.326 273.971C360.52 274.505 359.318 279.979 359.318 279.979Z" fill="url(#paint59_linear)"/>
<path opacity="0.7" d="M372.935 217.361C372.935 217.361 374.003 223.235 373.469 230.178C372.935 236.987 371.867 246.333 371.867 246.333C371.867 246.333 375.339 233.115 375.472 228.576C375.606 224.037 372.935 217.361 372.935 217.361Z" fill="url(#paint60_linear)"/>
<path d="M419.664 199.604C419.664 199.604 427.007 211.353 432.615 225.105C438.089 238.857 463.59 265.025 463.59 265.025C463.59 265.025 445.833 244.998 435.686 227.775C432.615 222.434 424.07 205.211 419.664 199.604Z" fill="url(#paint61_linear)"/>
<path opacity="0.5" d="M318.328 289.592C318.328 289.592 314.056 300.273 312.587 310.42C311.119 321.101 315.257 344.6 315.257 344.6C315.257 344.6 308.582 320.3 309.783 307.349C310.852 302.409 317.928 291.995 318.328 289.592Z" fill="url(#paint62_linear)"/>
<path opacity="0.5" d="M353.178 212.154C353.178 212.154 360.654 232.982 354.646 251.674C354.646 251.674 354.379 217.761 353.178 212.154Z" fill="url(#paint63_linear)"/>
<defs>
<linearGradient id="paint0_linear" x1="480.025" y1="253.233" x2="480.025" y2="52.1569" gradientUnits="userSpaceOnUse">
<stop offset="0.0171145" stop-color="#8C74B1"/>
<stop offset="1" stop-color="#DCD8E9"/>
</linearGradient>
<linearGradient id="paint1_linear" x1="475.59" y1="432.067" x2="475.59" y2="104.353" gradientUnits="userSpaceOnUse">
<stop offset="0.0171145" stop-color="#8268AA"/>
<stop offset="1" stop-color="#A9A1CA"/>
</linearGradient>
<linearGradient id="paint2_linear" x1="346.658" y1="458.586" x2="417.241" y2="35.0902" gradientUnits="userSpaceOnUse">
<stop stop-color="#948ABC"/>
<stop offset="1" stop-color="#F4F2F8"/>
</linearGradient>
<linearGradient id="paint3_linear" x1="340.169" y1="457.505" x2="410.751" y2="34.0086" gradientUnits="userSpaceOnUse">
<stop stop-color="#948ABC"/>
<stop offset="1" stop-color="#F4F2F8"/>
</linearGradient>
<linearGradient id="paint4_linear" x1="336.066" y1="456.821" x2="406.648" y2="33.3248" gradientUnits="userSpaceOnUse">
<stop stop-color="#948ABC"/>
<stop offset="1" stop-color="#F4F2F8"/>
</linearGradient>
<linearGradient id="paint5_linear" x1="330.84" y1="455.95" x2="401.423" y2="32.4535" gradientUnits="userSpaceOnUse">
<stop stop-color="#948ABC"/>
<stop offset="1" stop-color="#F4F2F8"/>
</linearGradient>
<linearGradient id="paint6_linear" x1="330.192" y1="455.842" x2="400.774" y2="32.3451" gradientUnits="userSpaceOnUse">
<stop stop-color="#948ABC"/>
<stop offset="1" stop-color="#F4F2F8"/>
</linearGradient>
<linearGradient id="paint7_linear" x1="331.153" y1="456.002" x2="401.735" y2="32.5051" gradientUnits="userSpaceOnUse">
<stop stop-color="#948ABC"/>
<stop offset="1" stop-color="#F4F2F8"/>
</linearGradient>
<linearGradient id="paint8_linear" x1="666.028" y1="400.133" x2="42.1931" y2="400.133" gradientUnits="userSpaceOnUse">
<stop offset="0.0171145" stop-color="#D8CFE4"/>
<stop offset="1" stop-color="white"/>
</linearGradient>
<linearGradient id="paint9_linear" x1="595.386" y1="352.717" x2="113.057" y2="352.717" gradientUnits="userSpaceOnUse">
<stop offset="0.0171145" stop-color="#D8CFE4"/>
<stop offset="1" stop-color="white"/>
</linearGradient>
<linearGradient id="paint10_linear" x1="554.905" y1="324.182" x2="157.851" y2="324.182" gradientUnits="userSpaceOnUse">
<stop offset="0.0171145" stop-color="#D8CFE4"/>
<stop offset="1" stop-color="white"/>
</linearGradient>
<linearGradient id="paint11_linear" x1="507.147" y1="289.947" x2="206.353" y2="289.947" gradientUnits="userSpaceOnUse">
<stop offset="0.0171145" stop-color="#D8CFE4"/>
<stop offset="1" stop-color="white"/>
</linearGradient>
<linearGradient id="paint12_linear" x1="489.496" y1="276.71" x2="221.333" y2="276.71" gradientUnits="userSpaceOnUse">
<stop offset="0.0171145" stop-color="#D8CFE4"/>
<stop offset="1" stop-color="white"/>
</linearGradient>
<linearGradient id="paint13_linear" x1="523.975" y1="303.615" x2="185.289" y2="303.615" gradientUnits="userSpaceOnUse">
<stop offset="0.0171145" stop-color="#D8CFE4"/>
<stop offset="1" stop-color="white"/>
</linearGradient>
<linearGradient id="paint14_linear" x1="61.4179" y1="319.098" x2="161.553" y2="319.098" gradientUnits="userSpaceOnUse">
<stop stop-color="#FF3761"/>
<stop offset="0.998" stop-color="#BA2B49"/>
</linearGradient>
<linearGradient id="paint15_linear" x1="408.443" y1="128.087" x2="440.121" y2="128.087" gradientUnits="userSpaceOnUse">
<stop stop-color="#FF3761"/>
<stop offset="0.998" stop-color="#BA2B49"/>
</linearGradient>
<linearGradient id="paint16_linear" x1="550.521" y1="247.209" x2="451.019" y2="247.209" gradientUnits="userSpaceOnUse">
<stop stop-color="#FF3761"/>
<stop offset="0.998" stop-color="#BA2B49"/>
</linearGradient>
<linearGradient id="paint17_linear" x1="363.756" y1="300.315" x2="363.756" y2="264.378" gradientUnits="userSpaceOnUse">
<stop offset="0.00595246" stop-color="#570E33"/>
<stop offset="1" stop-color="#842F40"/>
</linearGradient>
<linearGradient id="paint18_linear" x1="364.285" y1="258.264" x2="364.285" y2="209.188" gradientUnits="userSpaceOnUse">
<stop stop-color="#4B3272"/>
<stop offset="0.9888" stop-color="#432160"/>
</linearGradient>
<linearGradient id="paint19_linear" x1="325.23" y1="365.058" x2="325.23" y2="345.762" gradientUnits="userSpaceOnUse">
<stop stop-color="#F4867C"/>
<stop offset="0.984" stop-color="#FF9F68"/>
</linearGradient>
<linearGradient id="paint20_linear" x1="325.051" y1="405.2" x2="325.051" y2="360.162" gradientUnits="userSpaceOnUse">
<stop offset="0.00595246" stop-color="#570E33"/>
<stop offset="1" stop-color="#842F40"/>
</linearGradient>
<linearGradient id="paint21_linear" x1="347.925" y1="354.374" x2="347.925" y2="173.045" gradientUnits="userSpaceOnUse">
<stop stop-color="#543C79"/>
<stop offset="0.9888" stop-color="#432160"/>
</linearGradient>
<linearGradient id="paint22_linear" x1="409.969" y1="204.221" x2="409.969" y2="175.505" gradientUnits="userSpaceOnUse">
<stop stop-color="#F4867C"/>
<stop offset="0.984" stop-color="#FF9F68"/>
</linearGradient>
<linearGradient id="paint23_linear" x1="407.553" y1="183.271" x2="407.553" y2="175.414" gradientUnits="userSpaceOnUse">
<stop offset="0.0171145" stop-color="#E1DBEB"/>
<stop offset="0.1737" stop-color="#E7E2F1"/>
<stop offset="0.5619" stop-color="#F0ECFB"/>
<stop offset="1" stop-color="#F3F0FE"/>
</linearGradient>
<radialGradient id="paint24_radial" cx="0" cy="0" r="1" gradientUnits="userSpaceOnUse" gradientTransform="translate(324.957 121.753) scale(15.8533)">
<stop stop-color="#4B3272"/>
<stop offset="0.9888" stop-color="#432160"/>
</radialGradient>
<linearGradient id="paint25_linear" x1="348.63" y1="197.646" x2="348.63" y2="168.615" gradientUnits="userSpaceOnUse">
<stop offset="0.0171145" stop-color="#E1DBEB"/>
<stop offset="0.1737" stop-color="#E7E2F1"/>
<stop offset="0.5619" stop-color="#F0ECFB"/>
<stop offset="1" stop-color="#F3F0FE"/>
</linearGradient>
<linearGradient id="paint26_linear" x1="344.738" y1="196.864" x2="349.638" y2="169.071" gradientUnits="userSpaceOnUse">
<stop offset="0.0111732" stop-color="#BE6888"/>
<stop offset="1" stop-color="#8E81F4"/>
</linearGradient>
<radialGradient id="paint27_radial" cx="0" cy="0" r="1" gradientUnits="userSpaceOnUse" gradientTransform="translate(336.243 121.163) scale(46.2622)">
<stop stop-color="#543C79"/>
<stop offset="0.9888" stop-color="#432160"/>
</radialGradient>
<linearGradient id="paint28_linear" x1="409.969" y1="204.221" x2="409.969" y2="176.395" gradientUnits="userSpaceOnUse">
<stop offset="0.00558659" stop-color="#B060F4"/>
<stop offset="1" stop-color="#FFEADB"/>
</linearGradient>
<linearGradient id="paint29_linear" x1="409.629" y1="204.778" x2="409.629" y2="194.348" gradientUnits="userSpaceOnUse">
<stop stop-color="#F4867C"/>
<stop offset="0.984" stop-color="#FF9F68"/>
</linearGradient>
<linearGradient id="paint30_linear" x1="407.369" y1="204.778" x2="407.369" y2="194.348" gradientUnits="userSpaceOnUse">
<stop offset="0.0159875" stop-color="#D1A1D6"/>
<stop offset="0.9944" stop-color="#BD89C4"/>
</linearGradient>
<linearGradient id="paint31_linear" x1="340.244" y1="175.314" x2="351.653" y2="110.611" gradientUnits="userSpaceOnUse">
<stop offset="0.00558659" stop-color="#B060F4"/>
<stop offset="1" stop-color="#FFEADB"/>
</linearGradient>
<linearGradient id="paint32_linear" x1="437.592" y1="270.58" x2="437.592" y2="195.395" gradientUnits="userSpaceOnUse">
<stop offset="0.00595246" stop-color="#792244"/>
<stop offset="1" stop-color="#893100"/>
</linearGradient>
<linearGradient id="paint33_linear" x1="331.28" y1="119.096" x2="370.66" y2="119.096" gradientUnits="userSpaceOnUse">
<stop offset="0.0159875" stop-color="#D1A1D6"/>
<stop offset="0.9944" stop-color="#BD89C4"/>
</linearGradient>
<linearGradient id="paint34_linear" x1="338.837" y1="168.509" x2="352.863" y2="88.9674" gradientUnits="userSpaceOnUse">
<stop offset="0.0159875" stop-color="#D1A1D6"/>
<stop offset="0.9944" stop-color="#BD89C4"/>
</linearGradient>
<linearGradient id="paint35_linear" x1="374.803" y1="178.861" x2="389.607" y2="94.9046" gradientUnits="userSpaceOnUse">
<stop offset="0.0159875" stop-color="#D1A1D6"/>
<stop offset="0.9944" stop-color="#BD89C4"/>
</linearGradient>
<linearGradient id="paint36_linear" x1="339.027" y1="158.809" x2="339.027" y2="52.1703" gradientUnits="userSpaceOnUse">
<stop offset="0.00558659" stop-color="#721D3B"/>
<stop offset="1" stop-color="#A63624"/>
</linearGradient>
<linearGradient id="paint37_linear" x1="331.984" y1="161.66" x2="351.275" y2="52.2575" gradientUnits="userSpaceOnUse">
<stop offset="0.00558659" stop-color="#8E2A3B"/>
<stop offset="1" stop-color="#BA4324"/>
</linearGradient>
<linearGradient id="paint38_linear" x1="317.86" y1="147.786" x2="330.885" y2="73.9192" gradientUnits="userSpaceOnUse">
<stop offset="0.00558659" stop-color="#8E2A3B"/>
<stop offset="1" stop-color="#BA4324"/>
</linearGradient>
<linearGradient id="paint39_linear" x1="321.695" y1="148.313" x2="337.185" y2="60.4614" gradientUnits="userSpaceOnUse">
<stop offset="0.00558659" stop-color="#8E2A3B"/>
<stop offset="1" stop-color="#BA4324"/>
</linearGradient>
<linearGradient id="paint40_linear" x1="363.756" y1="95.4626" x2="369.814" y2="61.1023" gradientUnits="userSpaceOnUse">
<stop offset="0.0111732" stop-color="#BE6888"/>
<stop offset="1" stop-color="#8E81F4"/>
</linearGradient>
<linearGradient id="paint41_linear" x1="335.006" y1="139.594" x2="339.082" y2="116.479" gradientUnits="userSpaceOnUse">
<stop offset="0.0111732" stop-color="#BE6888"/>
<stop offset="1" stop-color="#8E81F4"/>
</linearGradient>
<linearGradient id="paint42_linear" x1="357.602" y1="57.6762" x2="357.64" y2="57.4609" gradientUnits="userSpaceOnUse">
<stop offset="0.0111732" stop-color="#BE6888"/>
<stop offset="1" stop-color="#8E81F4"/>
</linearGradient>
<linearGradient id="paint43_linear" x1="322.102" y1="150.792" x2="322.102" y2="64.7476" gradientUnits="userSpaceOnUse">
<stop offset="0.00558659" stop-color="#721D3B"/>
<stop offset="1" stop-color="#A63624"/>
</linearGradient>
<linearGradient id="paint44_linear" x1="346.965" y1="143.705" x2="346.965" y2="96.0346" gradientUnits="userSpaceOnUse">
<stop offset="0.00558659" stop-color="#721D3B"/>
<stop offset="1" stop-color="#A63624"/>
</linearGradient>
<linearGradient id="paint45_linear" x1="354.576" y1="102.234" x2="354.576" y2="74.4526" gradientUnits="userSpaceOnUse">
<stop offset="0.0111732" stop-color="#BE6888"/>
<stop offset="1" stop-color="#8E81F4"/>
</linearGradient>
<linearGradient id="paint46_linear" x1="312.609" y1="258.719" x2="322.102" y2="258.719" gradientUnits="userSpaceOnUse">
<stop offset="0.0159875" stop-color="#D1A1D6"/>
<stop offset="0.9944" stop-color="#BD89C4"/>
</linearGradient>
<linearGradient id="paint47_linear" x1="311.972" y1="341.596" x2="324.539" y2="341.596" gradientUnits="userSpaceOnUse">
<stop offset="0.0111732" stop-color="#BE6888"/>
<stop offset="1" stop-color="#8E81F4"/>
</linearGradient>
<linearGradient id="paint48_linear" x1="435.727" y1="245.405" x2="459.786" y2="245.405" gradientUnits="userSpaceOnUse">
<stop offset="0.0111732" stop-color="#BE6888"/>
<stop offset="1" stop-color="#8E81F4"/>
</linearGradient>
<linearGradient id="paint49_linear" x1="425.052" y1="276.765" x2="435.729" y2="276.765" gradientUnits="userSpaceOnUse">
<stop offset="0.0111732" stop-color="#BE6888"/>
<stop offset="1" stop-color="#8E81F4"/>
</linearGradient>
<linearGradient id="paint50_linear" x1="362.841" y1="127.514" x2="372.964" y2="127.514" gradientUnits="userSpaceOnUse">
<stop offset="0.0159875" stop-color="#D1A1D6"/>
<stop offset="0.9944" stop-color="#BD89C4"/>
</linearGradient>
<linearGradient id="paint51_linear" x1="335.11" y1="156.859" x2="349.969" y2="156.859" gradientUnits="userSpaceOnUse">
<stop offset="0.0159875" stop-color="#D1A1D6"/>
<stop offset="0.9944" stop-color="#BD89C4"/>
</linearGradient>
<linearGradient id="paint52_linear" x1="396.928" y1="159.248" x2="414.368" y2="159.248" gradientUnits="userSpaceOnUse">
<stop stop-color="#4AF4FF"/>
<stop offset="0.0856309" stop-color="#47EAF5"/>
<stop offset="0.2337" stop-color="#3FCFD8"/>
<stop offset="0.4265" stop-color="#32A3AB"/>
<stop offset="0.6566" stop-color="#1F676B"/>
<stop offset="0.9155" stop-color="#081A1C"/>
<stop offset="1"/>
</linearGradient>
<linearGradient id="paint53_linear" x1="329.06" y1="344.342" x2="338.102" y2="293.068" gradientUnits="userSpaceOnUse">
<stop stop-color="#4AF4FF"/>
<stop offset="0.0856309" stop-color="#47EAF5"/>
<stop offset="0.2337" stop-color="#3FCFD8"/>
<stop offset="0.4265" stop-color="#32A3AB"/>
<stop offset="0.6566" stop-color="#1F676B"/>
<stop offset="0.9155" stop-color="#081A1C"/>
<stop offset="1"/>
</linearGradient>
<linearGradient id="paint54_linear" x1="329.952" y1="404.112" x2="336.65" y2="366.125" gradientUnits="userSpaceOnUse">
<stop stop-color="#984072"/>
<stop offset="0.1479" stop-color="#AB4373"/>
<stop offset="0.5315" stop-color="#D94B76"/>
<stop offset="0.8283" stop-color="#F54F78"/>
<stop offset="1" stop-color="#FF5179"/>
</linearGradient>
<linearGradient id="paint55_linear" x1="349.023" y1="71.7413" x2="367.962" y2="71.7413" gradientUnits="userSpaceOnUse">
<stop/>
<stop offset="0.08447" stop-color="#1C090D"/>
<stop offset="0.3434" stop-color="#6B2233"/>
<stop offset="0.5735" stop-color="#AB3651"/>
<stop offset="0.7663" stop-color="#D84567"/>
<stop offset="0.9144" stop-color="#F54E74"/>
<stop offset="1" stop-color="#FF5179"/>
</linearGradient>
<linearGradient id="paint56_linear" x1="314.573" y1="383.18" x2="330.916" y2="383.18" gradientUnits="userSpaceOnUse">
<stop offset="0.0159875" stop-color="#D1A1D6"/>
<stop offset="0.9944" stop-color="#BD89C4"/>
</linearGradient>
<linearGradient id="paint57_linear" x1="321.434" y1="405.197" x2="321.434" y2="372.789" gradientUnits="userSpaceOnUse">
<stop stop-color="#6D2822"/>
<stop offset="0.994" stop-color="#570E33"/>
</linearGradient>
<linearGradient id="paint58_linear" x1="357.223" y1="282.744" x2="371.05" y2="282.744" gradientUnits="userSpaceOnUse">
<stop offset="0.0159875" stop-color="#D1A1D6"/>
<stop offset="0.9944" stop-color="#BD89C4"/>
</linearGradient>
<linearGradient id="paint59_linear" x1="365.163" y1="300.114" x2="365.163" y2="273.862" gradientUnits="userSpaceOnUse">
<stop stop-color="#6D2822"/>
<stop offset="0.994" stop-color="#570E33"/>
</linearGradient>
<linearGradient id="paint60_linear" x1="370.199" y1="246.052" x2="375.19" y2="217.749" gradientUnits="userSpaceOnUse">
<stop stop-color="#4AF4FF"/>
<stop offset="0.0856309" stop-color="#47EAF5"/>
<stop offset="0.2337" stop-color="#3FCFD8"/>
<stop offset="0.4265" stop-color="#32A3AB"/>
<stop offset="0.6566" stop-color="#1F676B"/>
<stop offset="0.9155" stop-color="#081A1C"/>
<stop offset="1"/>
</linearGradient>
<linearGradient id="paint61_linear" x1="436.69" y1="260.286" x2="446.561" y2="204.303" gradientUnits="userSpaceOnUse">
<stop stop-color="#FF5179"/>
<stop offset="0.0856309" stop-color="#F54E74"/>
<stop offset="0.2337" stop-color="#D84567"/>
<stop offset="0.4265" stop-color="#AB3651"/>
<stop offset="0.6566" stop-color="#6B2233"/>
<stop offset="0.9155" stop-color="#1C090D"/>
<stop offset="1"/>
</linearGradient>
<linearGradient id="paint62_linear" x1="309.401" y1="343.719" x2="318.92" y2="289.737" gradientUnits="userSpaceOnUse">
<stop stop-color="#FF5179"/>
<stop offset="0.0856309" stop-color="#F54E74"/>
<stop offset="0.2337" stop-color="#D84567"/>
<stop offset="0.4265" stop-color="#AB3651"/>
<stop offset="0.6566" stop-color="#6B2233"/>
<stop offset="0.9155" stop-color="#1C090D"/>
<stop offset="1"/>
</linearGradient>
<linearGradient id="paint63_linear" x1="350.719" y1="251.016" x2="357.443" y2="212.881" gradientUnits="userSpaceOnUse">
<stop stop-color="#FF5179"/>
<stop offset="0.0856309" stop-color="#F54E74"/>
<stop offset="0.2337" stop-color="#D84567"/>
<stop offset="0.4265" stop-color="#AB3651"/>
<stop offset="0.6566" stop-color="#6B2233"/>
<stop offset="0.9155" stop-color="#1C090D"/>
<stop offset="1"/>
</linearGradient>
</defs>
</svg>
