<svg width="280" height="228" viewBox="0 0 280 228" fill="none" xmlns="http://www.w3.org/2000/svg">
<path fill-rule="evenodd" clip-rule="evenodd" d="M104.266 47.1557C105.103 46.4912 105.939 45.8267 106.752 45.1376C109.533 42.8487 112.265 40.5352 115.07 38.271C116.522 37.0896 118.024 35.9821 119.574 34.9484C121.691 33.5456 124.718 34.2347 126.367 36.3759C127.893 38.3694 127.598 41.0275 125.727 42.8733C122.478 46.0974 119.254 49.3462 116.03 52.5949C112.978 55.6467 109.902 58.7232 106.85 61.775C106.604 62.0211 106.382 62.2918 106.309 62.7102C106.949 62.218 107.588 61.7258 108.204 61.2089C110.936 58.9201 113.618 56.6066 116.399 54.3669C119.057 52.2257 121.765 50.1337 124.472 48.0664C125.309 47.4265 126.293 46.9835 127.253 46.5405C129.148 45.6544 131.388 46.1959 132.741 47.771C134.12 49.3708 134.317 51.7335 133.037 53.4563C131.782 55.1791 130.354 56.7789 129 58.4524C128.804 58.6986 128.607 58.9447 128.41 59.1662C128.459 59.24 128.508 59.2892 128.582 59.3631C129.517 58.6247 130.453 57.8864 131.388 57.148C133.726 55.3022 136.039 53.4071 138.451 51.6104C141.257 49.4938 144.161 47.4757 147.016 45.4329C148.911 44.0793 150.88 42.8979 153.317 42.6518C155.359 42.4303 157.058 42.9472 158.214 44.67C159.371 46.3928 159.248 48.1402 158.239 49.9615C156.418 53.2348 153.784 55.8436 151.348 58.6001C151.249 58.7232 151.151 58.8462 151.003 58.8954C164.663 47.5495 178.347 36.2282 192.006 24.8823C191.981 24.8577 191.981 24.8085 191.957 24.7838C191.12 25.2515 190.283 25.7437 189.471 26.2359C182.58 30.2476 175.713 34.2593 168.797 38.2217C167.985 38.6894 166.927 38.8863 165.967 38.9109C164.097 38.9601 162.792 36.942 163.629 35.2438C164.047 34.3824 164.638 33.4471 165.426 32.9303C170.495 29.5339 175.516 26.039 180.759 22.9626C190.726 17.105 200.817 11.4936 210.883 5.75912C211.868 5.19306 212.827 4.62699 213.812 4.08554C215.928 2.87957 218.316 3.81481 219.153 6.10369C219.325 6.54669 219.669 7.01431 220.063 7.28504C222.647 9.18013 222.746 12.798 220.334 14.89C215.313 19.2216 210.292 23.504 205.37 27.9341C201.58 31.3551 197.913 34.9238 194.221 38.4433C190.505 41.9873 186.813 45.5806 183.121 49.1493C182.383 49.863 181.669 50.5521 180.931 51.2413C181.005 51.3151 181.054 51.3889 181.128 51.4628C181.841 50.9213 182.531 50.4045 183.244 49.863C187.625 46.4174 191.957 42.9472 196.362 39.5508C201.088 35.8837 205.838 32.2658 210.662 28.6971C216.002 24.7346 221.417 20.8706 226.807 16.9574C228.406 15.8006 229.982 14.6193 231.557 13.4379C233.255 12.1827 235.396 12.0351 237.119 13.0934C238.866 14.1517 239.654 15.9975 239.309 18.188C239.285 18.3602 239.285 18.5079 239.236 18.9017C240.048 18.2864 240.712 17.7696 241.401 17.3019C245.708 14.2993 249.991 11.2721 254.372 8.34333C255.479 7.60499 256.857 7.18659 258.162 6.79281C258.629 6.64514 259.442 6.89125 259.712 7.26043C259.983 7.6296 259.958 8.51562 259.688 8.88479C258.679 10.1892 257.645 11.5182 256.365 12.5273C250.36 17.4004 244.256 22.1258 238.251 26.9743C234.19 30.2476 230.252 33.6932 226.265 37.0404C225.995 37.2619 225.748 37.508 225.625 37.9018C227.324 36.7697 229.046 35.6129 230.745 34.4808C234.166 32.1673 237.562 29.8538 241.008 27.565C244.133 25.473 247.284 23.381 250.458 21.3628C254.396 18.8771 258.334 16.4405 262.321 14.0286C265.127 12.3304 267.957 10.706 270.812 9.08168C271.698 8.56484 272.609 8.09722 273.544 7.70344C276.301 6.59592 279.279 8.63868 279.254 11.5921C279.254 13.2656 278.565 14.7177 277.285 15.776C271.723 20.4276 266.111 25.0546 260.525 29.6815C259.294 30.7152 258.137 31.7981 257.079 33.0533C258.531 32.0935 260.008 31.1828 261.46 30.1984C262.986 29.1647 264.635 28.8201 266.382 29.46C268.056 30.0999 268.917 31.4043 269.04 33.201C269.065 33.5209 269.065 33.8409 269.089 34.1362C269.089 34.1608 269.139 34.1855 269.089 34.1362C270.837 33.3979 272.51 32.6349 274.258 31.995C276.202 31.2813 278.048 31.8474 279.18 33.3487C280.337 34.8992 280.238 36.7697 279.082 38.5663C276.965 41.815 274.012 44.3254 271.378 47.0819C269.754 48.7801 267.982 50.3799 266.357 52.0534C265.89 52.5457 265.668 53.2594 265.275 53.8255C264.635 54.7115 264.044 55.7206 263.232 56.4097C261.288 58.034 259.196 59.4861 257.3 61.1843C259.171 60.0522 261.041 58.9447 262.887 57.7879C266.111 55.819 269.286 53.8255 272.535 51.9058C274.529 50.7244 277.433 51.3889 278.712 53.2102C279.918 54.933 279.697 57.2711 278.146 58.6986C277.556 59.24 276.94 59.7569 276.325 60.2983C274.652 61.7996 272.978 63.3009 271.28 64.7776C269.04 66.7219 266.8 68.617 264.512 70.5121C261.706 72.8502 258.851 75.1637 256.021 77.4526C253.313 79.643 250.581 81.8088 247.874 83.9992C245.044 86.3127 242.214 88.6262 239.408 90.9889C236.774 93.2039 234.166 95.4682 231.557 97.7325C229.465 99.5537 227.373 101.4 225.281 103.245C222.524 105.707 219.743 108.143 217.011 110.629C214.378 113.016 211.744 115.404 209.111 117.791C206.478 120.178 203.82 122.541 201.186 124.953C198.651 127.266 196.141 129.555 193.655 131.893C190.406 134.921 187.207 137.997 183.983 141.024C183.49 141.492 182.949 141.91 182.432 142.353C182.531 142.452 182.604 142.55 182.703 142.624C184.106 141.566 185.509 140.532 186.887 139.474C189.816 137.209 192.744 134.945 195.624 132.656C198.405 130.441 201.161 128.177 203.918 125.937C206.601 123.771 209.283 121.581 211.941 119.391C214.747 117.077 217.528 114.764 220.309 112.426C223.017 110.161 225.699 107.897 228.382 105.608C231.114 103.27 233.846 100.932 236.578 98.5939C239.26 96.305 241.943 94.0161 244.601 91.7272C247.308 89.3645 250.04 87.0264 252.698 84.6145C255.307 82.2518 257.867 79.8399 260.426 77.4033C262.444 75.4836 264.438 73.5393 266.407 71.5704C268.499 69.4538 271.6 69.4046 273.692 71.4719C275.242 73.0225 275.095 76.345 273.323 78.0186C268.696 82.4487 264.118 86.928 259.392 91.2596C255.578 94.7545 251.591 98.0524 247.677 101.449C244.379 104.304 241.081 107.159 237.759 110.014C236.282 111.293 234.756 112.549 233.181 113.878C233.575 114.025 233.846 114.124 234.092 114.222C236.504 115.182 236.996 118.135 235.002 119.809C233.501 121.064 231.926 122.27 230.425 123.624C230.646 123.525 230.868 123.427 231.089 123.328C232.541 122.565 234.116 122.91 235.027 124.19C235.888 125.371 235.765 126.749 234.535 127.882C229.982 132.041 225.379 136.151 220.801 140.31C216.913 143.83 213.049 147.399 209.16 150.992C209.283 151.213 209.357 151.386 209.456 151.558C210.342 153.059 210.169 154.708 209.111 156.086C205.813 160.344 201.235 162.978 196.682 165.611C195.23 166.473 193.68 167.186 192.178 167.949C191.637 168.22 191.046 168.441 190.332 168.491C191.046 167.703 191.76 166.916 192.474 166.128C192.424 166.079 192.4 166.029 192.351 165.98C191.514 166.571 190.677 167.137 189.84 167.752C187.65 169.303 186.198 169.229 184.229 167.432C184.081 167.531 183.86 167.605 183.712 167.728C178.617 172.232 173.498 176.736 168.453 181.289C167.222 182.396 165.918 182.962 164.318 182.347C162.767 181.756 162.078 180.501 161.98 178.877C161.98 178.754 161.931 178.606 161.881 178.311C160.282 179.566 158.78 180.747 157.205 182.002C158.436 182.962 159.42 184.045 159.199 185.522C158.977 186.826 158.633 188.303 157.821 189.312C154.301 193.717 150.609 197.975 146.991 202.307C145.909 203.611 144.9 205.014 143.94 206.466C148.542 203.857 153.587 202.651 158.559 201.249C158.608 201.322 158.682 201.421 158.731 201.495C158.534 201.765 158.387 202.061 158.165 202.307C155.606 205.088 153.194 207.992 150.437 210.552C148.517 212.324 146.204 213.702 143.989 215.13C141.479 216.778 138.919 218.329 136.359 219.855C134.735 220.815 132.963 220.766 131.24 220.175C129.468 219.56 128.607 217.566 129.148 215.745C129.37 215.006 129.591 214.268 129.591 213.382C128.533 214.317 127.401 215.203 126.441 216.212C123.832 218.944 121.322 221.75 118.737 224.482C118.073 225.196 117.31 225.86 116.522 226.451C115.12 227.485 113.126 227.337 111.822 226.18C110.443 224.95 110.074 222.931 111.083 221.381C112.166 219.707 113.372 218.108 114.381 216.68C114.012 215.769 113.594 214.908 113.372 214.022C113.151 213.21 112.929 212.767 111.945 212.767C110.886 212.767 109.927 212.816 108.893 213.087C106.21 213.825 103.675 211.684 103.798 208.854C103.823 208.066 103.675 207.697 102.937 207.352C100.869 206.392 100.057 204.005 100.968 201.864C101.312 201.027 101.657 200.19 102.1 199.132C101.017 199.797 100.18 200.363 99.3189 200.855C98.2852 201.445 97.2516 202.085 96.1687 202.578C93.929 203.636 91.2217 202.504 90.4834 200.116C89.8189 198 89.8189 195.957 91.5909 194.234C92.2062 193.619 92.6984 192.881 93.2399 192.241C92.1816 191.847 91.0002 191.626 90.1388 190.961C89.302 190.321 88.7852 189.263 88.0714 188.303C87.9484 188.377 87.6777 188.623 87.3823 188.771C86.8163 189.066 86.2256 189.534 85.6595 189.534C83.7398 189.46 81.7709 189.46 79.9496 188.967C78.0053 188.451 77.267 186.113 77.9807 184.144C78.8175 181.83 80.2696 179.886 81.7217 177.917C81.9678 177.597 82.2139 177.252 82.2631 176.76C80.9587 177.622 79.6789 178.508 78.3745 179.344C75.4457 181.215 72.517 183.135 69.5144 184.907C67.7423 185.965 65.798 185.743 64.0752 184.734C62.1555 183.578 61.7371 181.018 63.0415 179.172C63.5091 178.508 63.9768 177.868 64.3459 177.055C63.2384 177.72 62.1555 178.434 60.9988 179.049C59.6943 179.738 58.3653 180.378 57.0117 180.969C55.7811 181.51 54.5751 181.313 53.5415 180.427C52.5078 179.541 52.2863 178.409 52.4339 177.08C52.6308 175.234 53.6399 173.881 54.7474 172.552C55.9288 171.124 57.1594 169.721 58.2423 168.171C57.0855 168.983 55.9288 169.82 54.772 170.632C53.3692 171.592 51.3756 171.616 49.9728 170.706C48.7914 169.918 47.93 168.343 48.4469 167.063C48.9391 165.833 49.7513 164.651 50.6865 163.691C53.6891 160.615 56.8148 157.662 59.842 154.61C60.1374 154.314 60.2604 153.724 60.285 153.256C60.3096 152.542 60.1866 151.804 60.1374 151.016C58.7345 151.73 57.3562 152.419 56.0026 153.133C53.4676 154.437 50.908 153.502 49.8497 150.844C49.5298 150.032 49.3083 149.171 48.9883 148.235C48.3484 148.752 47.6593 149.269 47.044 149.86C44.0414 152.788 40.0789 151.779 38.7745 147.768C38.7499 147.694 38.7007 147.645 38.6269 147.522C37.224 148.26 35.8211 149.072 34.3937 149.737C33.3108 150.229 32.1786 150.672 31.0219 150.943C30.3328 151.115 29.5452 150.967 28.8315 150.82C26.5672 150.352 24.5983 145.651 26.1488 143.264C28.733 139.301 31.7602 135.757 35.1074 132.484C39.3406 128.349 43.6968 124.338 48.0531 120.35C49.6528 118.874 51.4003 117.545 53.0984 116.167C53.32 115.994 53.5168 115.822 53.6399 115.477C53.1231 115.65 52.6062 115.847 52.0894 116.019C50.6865 116.462 49.259 116.806 47.8808 117.348C47.2409 117.594 46.6748 118.16 46.1334 118.652C44.9274 119.735 43.8445 120.99 42.5647 121.926C39.1191 124.461 36.3134 123.575 34.7875 119.489C33.3108 120.326 31.8833 121.212 30.4066 121.975C28.4869 122.984 26.5918 124.141 24.5491 124.854C23.2446 125.322 22.1125 125.839 21.0788 126.823C19.7252 128.103 17.584 128.054 16.0827 126.971C14.606 125.913 13.8923 124.018 14.5568 122.295C14.9013 121.36 15.5166 120.498 16.1811 119.735C17.6086 118.037 19.1099 116.413 20.6604 114.714C20.3405 114.542 20.119 114.394 19.8975 114.271C17.9532 113.139 17.1656 110.973 18.0762 108.906C18.3223 108.34 18.2731 107.971 17.9532 107.479C16.7718 105.608 16.9687 103.467 18.3962 101.793C21.4234 98.2247 24.3768 94.5822 27.4532 91.0627C29.8159 88.3555 32.3509 85.7959 34.7382 83.1132C35.7473 81.9811 36.9041 80.972 37.5193 79.4461C38.0362 78.1417 39.0945 77.0588 40.0297 75.6805C38.0362 77.3541 36.1657 78.88 34.3198 80.4059C31.4895 82.7686 28.6592 85.156 25.8042 87.4941C22.6294 90.1029 19.4791 92.7609 16.2304 95.2959C13.5231 97.4125 10.7174 99.4553 7.88704 101.424C5.94273 102.778 3.18624 102.187 1.24192 100.194C-0.333215 98.5939 -0.357826 96.3296 0.872751 94.2622C3.65386 89.5614 7.09947 85.3775 10.5697 81.2427C13.4 77.8709 16.378 74.6222 19.356 71.3735C22.8262 67.5833 26.3457 63.8178 29.8652 60.1014C32.8431 56.9511 35.895 53.8747 38.9222 50.7736C41.8018 47.8202 44.6813 44.8915 47.5609 41.9381C48.1023 41.372 48.6684 40.8306 49.2098 40.2645C49.136 40.1907 49.0868 40.1168 49.0129 40.0676C48.1023 40.7567 47.1671 41.4213 46.2564 42.1104C42.2694 45.1868 38.2823 48.2633 34.3198 51.3889C30.4558 54.4408 26.6164 57.5418 22.777 60.6429C18.3469 64.0639 14.286 67.4356 10.2005 70.7828C8.89612 71.8657 7.64093 72.9732 6.33651 74.0808C4.8106 75.3852 2.79245 75.4098 1.43882 74.1546C0.0605703 72.8748 -0.0624874 70.9059 1.06964 69.2569C3.62924 65.5898 6.75491 62.4395 10.0775 59.4861C13.3262 56.5574 16.6488 53.727 20.0698 50.9951C23.9338 47.8941 27.9208 44.9407 31.8833 41.9381C35.6981 39.0585 39.5375 36.179 43.3769 33.324C47.1425 30.5429 50.908 27.7618 54.6982 25.0054C58.5622 22.2242 62.4016 19.4431 66.3641 16.7851C68.5545 15.3084 70.8926 14.0532 73.2307 12.8719C75.1996 11.8628 78.7437 12.8719 80.0973 14.5947C81.3033 16.1206 81.3525 18.4095 80.0973 19.9108C78.5222 21.8058 76.8732 23.6517 75.175 25.4237C71.0895 29.7062 66.9548 33.9393 62.8692 38.2217C59.6205 41.6427 56.3718 45.0884 53.1723 48.534C49.8005 52.1273 46.4779 55.7698 43.1062 59.3631C41.2357 61.3812 39.316 63.3501 37.4209 65.3437C37.1256 65.6636 36.8548 66.0082 36.7318 66.5496C37.4947 65.959 38.2577 65.3929 39.0206 64.8022C43.8199 60.9874 48.5945 57.1234 53.3692 53.3086C57.8731 49.74 62.377 46.1959 66.8809 42.6272C72.7385 38.0002 78.5714 33.3241 84.4782 28.7463C89.9665 24.5131 95.5288 20.3292 101.14 16.2436C102.174 15.5053 103.601 15.1361 104.881 14.9392C106.653 14.6685 108.302 15.776 109.04 17.425C109.754 19.074 109.36 20.9937 107.982 22.2735C104.881 25.1038 101.706 27.8357 98.679 30.7152C94.6427 34.5546 90.6803 38.4433 86.7178 42.3811C83.5183 45.556 80.368 48.8047 77.2178 52.0288C75.495 53.8009 73.7968 55.5729 72.2216 57.4926C73.2553 56.6804 74.3136 55.8682 75.3473 55.0314C83.8137 48.0664 92.2554 41.0767 100.746 34.1362C105.127 30.5429 109.582 27.0235 114.037 23.4794C115.907 22.0027 118.516 22.2489 120.165 23.9963C122.011 25.9898 122.257 29.0416 120.509 30.8383C118.048 33.3979 115.489 35.8837 112.954 38.3694C110.025 41.249 107.072 44.1039 104.143 46.9588C104.167 47.0327 104.217 47.1065 104.266 47.1557ZM136.925 131.623C138.082 130.638 139.214 129.654 140.371 128.669C142.438 126.873 144.506 125.076 146.598 123.279C149.28 120.941 151.988 118.628 154.695 116.339C157.378 114.05 160.06 111.786 162.743 109.521C164.884 107.7 167.025 105.879 169.191 104.058C171.898 101.793 174.606 99.5537 177.313 97.3141C180.168 94.9514 183.023 92.6133 185.878 90.2752C188.044 88.4785 190.357 86.8295 192.351 84.8606C195.747 81.4888 198.922 77.8709 202.269 74.4499C206.207 70.4136 210.219 66.4758 214.23 62.5133C215.387 61.3812 216.618 60.3475 217.824 59.24C189.865 82.2518 162.964 106.47 136.925 131.623ZM190.382 116.314C190.431 116.388 190.48 116.462 190.529 116.511C190.677 116.437 190.825 116.388 190.948 116.29C195.329 112.696 199.685 109.078 204.115 105.534C205.296 104.574 206.404 103.418 208.176 103.492C208.717 103.516 209.382 103.295 209.8 102.975C212.384 100.907 214.919 98.7907 217.454 96.6742C220.802 93.8931 224.173 91.0873 227.52 88.3062C230.818 85.5744 234.166 82.8671 237.464 80.1352C238.202 79.5199 238.916 78.8554 239.629 78.2155C238.916 77.5756 238.276 77.0341 237.562 76.3942C221.54 89.3153 205.887 102.753 190.382 116.314ZM163.949 82.8179C163.9 82.7686 163.85 82.7194 163.801 82.6702C154.4 91.4319 145.023 100.218 135.621 108.98C135.695 109.054 135.769 109.128 135.842 109.226C136.335 108.808 136.852 108.365 137.344 107.946C140.1 105.707 142.881 103.492 145.638 101.277C148.542 98.9384 151.471 96.6249 154.326 94.2376C156.147 92.7117 158.19 91.4319 159.494 89.3153C160.897 87.1003 162.472 84.9837 163.949 82.8179ZM101.534 149.663C102.789 149.072 104.044 148.801 105.423 149.22C105.619 149.269 105.939 149.097 106.112 148.924C107.195 147.817 108.253 146.685 109.336 145.577C111.871 142.993 114.406 140.409 116.941 137.825C118.171 136.569 119.402 135.339 120.633 134.084C120.583 134.01 120.509 133.961 120.46 133.887C114.135 139.154 107.835 144.421 101.534 149.663ZM218.045 78.3632C218.094 78.4124 218.119 78.4616 218.168 78.5355C226.339 72.2103 234.51 65.8851 242.681 59.56C241.967 59.6338 241.229 59.7569 240.663 60.1014C238.965 61.1597 237.291 62.2672 235.691 63.4486C233.452 65.0976 231.261 66.8204 229.12 68.5678C227.028 70.2906 225.01 72.0872 222.967 73.8839C221.318 75.3852 219.694 76.8865 218.045 78.3632ZM115.735 83.2855C115.686 83.2116 115.636 83.1624 115.563 83.0886C111.256 87.0757 106.949 91.0627 102.568 95.1482C103.281 95.4928 103.798 95.7143 104.389 96.0097C108.179 91.7519 111.969 87.5187 115.735 83.2855ZM137.836 175.431C137.738 175.357 137.639 175.283 137.565 175.234C134.169 178.138 130.477 180.673 127.573 184.144C130.477 182.101 133.381 180.058 136.187 177.892C136.901 177.302 137.295 176.268 137.836 175.431ZM126.884 94.6068C126.835 94.5576 126.785 94.5083 126.736 94.4591C123.512 97.8555 120.288 101.252 116.965 104.747C117.753 104.353 118.639 104.156 119.131 103.59C121.765 100.661 124.324 97.634 126.884 94.6068ZM164.367 140.876C164.293 140.778 164.22 140.704 164.146 140.606C160.725 142.058 158.756 145.282 155.876 147.423C155.95 147.522 156.024 147.595 156.098 147.694C158.879 145.405 161.611 143.141 164.367 140.876ZM142.734 190.592C142.709 190.493 142.709 190.395 142.684 190.296C142.291 190.321 141.749 190.198 141.577 190.42C140.814 191.33 140.174 192.315 139.485 193.274C139.534 193.299 139.559 193.348 139.608 193.373C140.666 192.438 141.7 191.502 142.734 190.592ZM146.253 170.238C146.302 170.312 146.352 170.386 146.425 170.484C147.115 169.992 147.804 169.5 148.493 168.983C148.394 168.86 148.321 168.761 148.222 168.663C147.582 169.18 146.918 169.721 146.253 170.238Z" fill="#F9E4E4"/>
<path opacity="0.2" fill-rule="evenodd" clip-rule="evenodd" d="M98.1623 221.504C98.1623 222.956 87.9485 224.212 75.3228 224.285C62.6971 224.384 52.4341 223.276 52.4341 221.824C52.4341 220.372 62.6479 219.117 75.2736 219.043C87.8993 218.969 98.1623 220.052 98.1623 221.504Z" fill="black"/>
<path opacity="0.2" fill-rule="evenodd" clip-rule="evenodd" d="M222.426 224.753C222.426 226.205 204.681 227.509 182.777 227.682C160.873 227.854 143.103 226.796 143.078 225.368C143.078 223.916 160.823 222.612 182.728 222.439C204.656 222.267 222.426 223.301 222.426 224.753Z" fill="black"/>
<path fill-rule="evenodd" clip-rule="evenodd" d="M190.579 126.602C190.431 126.651 190.308 126.725 190.16 126.774C186.69 127.636 183.17 128.374 179.602 127.857C175.196 127.217 170.84 126.356 166.484 125.396C161.882 124.387 157.599 122.221 152.849 121.778C152.381 121.729 151.914 121.581 151.422 121.458C151.126 124.338 150.659 123.969 153.341 125.027C153.587 125.125 153.858 125.224 154.129 125.298C157.476 126.208 160.799 127.094 164.146 128.005C164.884 128.202 165.622 128.374 166.361 128.546C166.361 128.62 166.336 128.719 166.336 128.793C163.629 128.965 160.922 128.866 158.264 128.473C155.556 128.079 152.874 127.464 150.388 126.085C150.068 126.75 149.797 127.316 149.527 127.907C148.665 129.826 148.862 130.688 150.413 132.066C150.831 132.435 151.249 132.829 151.766 133.05C153.71 133.936 155.606 134.97 157.648 135.536C162.546 136.914 167.542 138.022 172.489 139.277C174.015 139.671 175.541 140.065 177.042 139.154C177.239 139.031 177.51 139.006 177.756 138.982C181.472 138.465 184.918 139.351 187.945 141.492C188.979 142.23 189.717 143.387 190.603 144.347C190.209 144.544 189.988 144.593 189.791 144.544C188.314 144.027 186.764 143.609 185.361 142.969C183.318 142.034 181.251 141.418 179.011 141.492C176.501 141.591 174.876 143.092 173.178 144.987C173.744 144.987 174.089 144.962 174.409 144.987C176.87 145.135 179.159 145.701 181.054 147.423C183.146 149.319 185.509 150.721 188.413 150.992C189.693 151.115 190.874 151.534 191.858 152.42C192.547 153.035 193.212 153.699 193.876 154.315C197.051 157.268 198.676 160.935 198.897 165.218C199.02 167.802 199.045 170.411 199.266 172.995C199.709 178.237 201.481 182.938 205.222 186.753C206.231 187.786 207.487 188.697 208.766 189.386C210.563 190.371 212.187 189.878 213.369 188.205C213.96 187.368 214.452 186.482 215.042 185.645C216.888 183.012 219.103 180.797 222.278 179.861C223.09 179.615 223.952 179.591 224.887 179.443C220.285 176.465 217.282 172.158 214.304 167.826C212.68 165.464 211.055 163.101 209.333 160.788C206.65 157.219 203.82 153.798 199.783 151.583C198.996 151.14 198.257 150.623 197.494 150.131C197.839 149.909 198.134 149.86 198.43 149.86C200.325 149.86 201.974 150.451 203.524 151.534C206.281 153.478 208.373 156.038 210.342 158.696C213.147 162.461 215.756 166.374 218.513 170.165C220.383 172.749 222.401 175.259 225.109 177.007C227.767 178.754 230.474 180.428 233.304 181.904C237.98 184.341 242.78 184.119 247.48 181.83C250.36 180.428 252.723 178.36 254.372 175.653C257.03 171.223 259.515 166.719 261.952 162.19C262.469 161.231 262.567 160.049 262.912 158.819C262.149 158.991 261.706 159.065 261.263 159.188C253.412 161.231 245.61 160.64 237.907 158.499C233.206 157.194 229.194 154.585 225.625 151.263C216.544 142.772 212.68 132.435 214.673 120.055C214.87 118.8 215.165 117.545 215.412 116.29C211.917 120.055 207.733 122.763 203.229 125.052C203.278 124.805 203.352 124.633 203.5 124.486C205.936 121.926 208.299 119.317 210.809 116.856C216.051 111.761 219.989 105.781 222.918 99.111C226.339 91.3338 228.259 83.2366 228.062 74.721C227.963 70.4632 227.397 66.2792 225.059 62.5383C224.493 61.6276 224.001 60.6432 223.509 59.6833C221.294 55.2532 218.562 51.1923 215.362 47.4268C211.695 43.0951 207.314 39.9695 201.605 38.9604C198.134 38.3451 194.639 38.2467 191.169 38.6404C186.419 39.1819 181.669 39.9202 176.944 40.6832C171.874 41.4954 166.951 41.1754 162.325 38.7635C161.808 38.4928 161.266 38.2713 160.7 38.0744C158.436 37.2622 156.221 37.3114 154.227 38.6897C152.701 39.748 151.348 41.0031 149.92 42.1845C149.748 42.3322 149.625 42.5291 149.379 42.849C152.972 42.2091 156.122 42.8982 159.051 44.6949C161.709 46.3685 164.17 48.2143 165.647 51.1677C166.607 53.0874 167.985 54.8348 168.822 56.8038C172.514 65.467 173.966 74.5733 173.793 83.9503C173.67 90.6939 171.948 97.019 168.92 102.975C166.312 108.07 162.792 112.45 158.608 116.339C157.722 117.176 156.787 117.963 155.778 118.849C156.147 118.923 156.369 118.997 156.615 119.022C161.635 119.194 166.681 119.539 171.701 119.514C179.774 119.465 187.231 117.053 193.778 112.401C197.273 109.94 200.325 106.864 203.573 104.058C203.992 103.689 204.386 103.295 204.804 102.901C204.878 103.27 204.804 103.541 204.706 103.763C203.253 106.864 201.481 109.768 198.848 112.007C191.661 118.111 183.343 121.458 173.966 122.172C171.578 122.344 169.191 122.369 166.779 122.443C174.532 124.855 182.58 125.421 190.579 126.602Z" fill="#F4D4E1"/>
<path fill-rule="evenodd" clip-rule="evenodd" d="M31.5388 36.4747C32.5725 36.7701 33.557 37.0654 34.5168 37.3361C36.9041 38.0252 39.2915 38.8867 41.728 39.4035C45.7643 40.2649 49.8498 40.954 53.9353 41.6185C67.324 43.8336 80.7865 45.5318 94.2736 46.9346C102.395 47.7714 110.468 48.8789 118.565 49.888C120.091 50.0849 120.116 50.1341 120.313 48.559C121.346 39.6496 122.355 30.7648 124.201 21.9785C124.497 20.6003 124.029 18.9513 123.512 17.5731C122.552 15.0135 120.288 13.6598 117.901 12.7738C114.037 11.3217 110.099 10.0419 106.136 8.78673C97.7439 6.12869 89.1298 4.47971 80.3681 3.61831C72.0986 2.78152 63.8292 2.78152 55.5351 2.9538C52.9509 3.00302 50.3666 3.27375 47.7578 3.42142C47.0687 3.47064 46.7241 3.76598 46.4288 4.35666C45.0752 7.03931 43.8692 9.79581 42.2448 12.3062C40.2759 15.358 38.6516 18.5575 37.1256 21.8555C35.009 26.5563 32.9909 31.3063 31.5388 36.4747Z" fill="#F9D69D"/>
<path fill-rule="evenodd" clip-rule="evenodd" d="M145.663 183.922C145.761 184.907 145.909 185.694 145.884 186.482C145.564 194.333 145.195 202.159 144.9 210.011C144.801 212.964 144.85 215.942 144.85 218.92C144.85 219.166 144.998 219.461 145.17 219.658C145.81 220.421 146.622 220.52 147.681 219.904C149.034 219.092 150.339 218.206 151.692 217.394C154.104 215.917 156.615 215.77 159.125 217.025C160.528 217.739 161.832 218.649 163.088 219.584C165.819 221.676 168.699 222.366 172.046 221.11C173.818 220.421 175.689 219.929 177.559 219.535C181.349 218.748 184.967 219.068 188.339 221.258C189.717 222.169 191.292 222.784 192.794 223.547C195.673 224.974 198.676 225.344 201.802 224.581C208.299 223.005 214.304 220.347 219.571 216.188C222.106 214.195 223.41 211.389 224.198 208.337C224.223 208.263 224.149 208.165 224.198 208.337C222.205 207.574 220.26 207.057 218.562 206.097C210.932 201.84 205.149 195.711 201.063 188.057C199.833 185.744 199.168 183.11 198.208 180.624C197.273 178.139 196.682 175.604 196.51 172.97C196.362 170.288 196.313 167.605 196.141 164.922C195.895 161.501 194.541 158.597 192.006 156.284C191.834 156.136 191.637 156.013 191.366 155.841C190.603 158.671 188.61 160.418 186.444 162.018C185.902 162.412 185.312 162.756 184.77 163.175C184.524 163.372 184.204 163.642 184.155 163.913C183.638 166.62 182.334 168.959 180.562 171.026C179.208 172.576 177.855 174.152 176.279 175.505C173.006 178.286 168.97 179.345 164.835 179.911C161.045 180.452 157.205 180.624 153.391 181.067C150.511 181.338 147.828 182.224 145.663 183.922Z" fill="#F4A2BE"/>
<path fill-rule="evenodd" clip-rule="evenodd" d="M86.4964 156.997C86.4472 156.85 86.4472 156.8 86.4472 156.8C85.4874 156.407 84.5029 156.013 83.5431 155.594C75.4459 152.149 68.8992 146.66 63.337 139.991C61.5649 137.874 60.2113 135.413 58.7346 133.075C58.2178 132.263 58.5377 131.327 59.2268 130.958C59.8914 130.589 60.7035 130.934 61.1958 131.82C61.4911 132.361 61.7618 132.927 62.0818 133.444C68.4562 143.141 76.8733 150.328 87.8747 154.216C90.1143 155.004 92.3786 155.767 94.7167 156.259C98.1131 156.997 101.583 157.49 105.029 158.08C105.25 158.129 105.62 158.08 105.743 157.933C107.269 156.333 108.745 154.635 109.139 152.395C109.533 150.032 109.631 147.62 109.877 145.233C109.951 144.593 109.73 144.298 109.114 144.101C105.94 143.067 103.011 141.517 100.402 139.449C98.0885 137.603 95.8981 135.585 93.6092 133.69C89.3022 130.121 84.9705 126.577 80.6635 123.009C79.1376 121.754 77.9316 120.228 77.1441 118.406C76.9964 118.062 76.9226 117.693 76.7995 117.348C76.8733 117.274 76.9472 117.2 77.0456 117.127C78.3992 117.914 79.7775 118.702 81.1803 119.514C81.1803 119.415 81.205 119.317 81.1803 119.243C80.2205 115.97 78.5223 113.164 76.2334 110.629C75.692 110.014 75.1013 109.669 74.2645 109.571C69.9575 109.029 65.8966 107.651 61.9341 105.953C60.7528 105.436 59.5222 105.042 58.1932 104.55C57.7009 105.756 57.2825 106.864 56.8149 107.971C55.7074 110.531 54.526 113.041 53.517 115.625C49.0623 127.094 46.1335 139.006 43.7954 151.066C42.8109 156.16 41.8019 161.255 40.8174 166.35C40.7436 166.768 40.6451 167.236 40.7436 167.629C40.8666 168.048 41.162 168.565 41.5065 168.737C42.8848 169.328 44.3369 169.771 45.7643 170.337C46.4042 170.583 46.7734 170.411 47.1426 169.869C49.1361 166.965 51.3265 164.184 52.7048 160.911C52.9755 160.271 53.4924 159.951 54.1815 160.049C54.9198 160.148 55.289 160.664 55.3874 161.378C55.4367 161.747 55.4121 162.116 55.4367 162.486C55.4859 164.898 55.5105 167.31 55.5843 169.721C55.6828 172.626 55.6828 172.798 58.5623 173.389C61.6634 174.004 64.8383 174.471 68.0132 174.644C75.2982 174.988 82.4601 174.25 89.3268 171.543C91.7879 170.558 94.2491 169.525 96.7102 168.54C98.0885 167.999 98.1131 168.048 97.7685 166.571C97.6947 166.3 97.6455 166.03 97.5963 165.759C97.3255 163.864 97.104 161.969 96.8087 160.074C96.7595 159.754 96.4641 159.262 96.218 159.212C94.6921 158.892 93.1416 158.646 91.5172 158.376C91.468 159.212 91.4188 159.951 91.3449 160.689C91.148 162.904 90.3851 163.741 88.2685 164.455C83.6169 166.054 78.793 166.571 73.9445 166.867C72.5909 166.965 71.1635 166.743 69.8344 166.448C67.7424 166.005 66.5365 164.553 66.1427 162.486C65.9212 161.304 65.8966 160.049 65.8474 158.843C65.7981 157.662 66.2165 157.219 67.3979 157.145C68.3331 157.096 69.2437 157.12 70.179 157.12C75.0521 157.12 79.9498 157.145 84.8229 157.145C85.3889 157.096 85.9304 157.047 86.4964 156.997Z" fill="#F9D69D"/>
<path fill-rule="evenodd" clip-rule="evenodd" d="M118.811 52.226C118.393 52.1522 118.122 52.0784 117.851 52.0538C112.757 51.5615 107.638 51.0447 102.543 50.5524C99.8358 50.3063 97.1286 50.1341 94.4213 49.8387C93.2892 49.7157 92.3539 49.7895 91.6648 50.7986C91.2464 51.4385 90.7788 52.0538 90.385 52.7183C89.6713 53.9735 89.0314 55.2779 88.293 56.5331C85.315 61.48 82.3124 66.4269 79.3344 71.3738C78.6699 72.4567 78.0792 73.5888 77.3901 74.6471C76.8486 75.5085 76.2088 75.6562 75.3473 75.1394C74.609 74.6964 73.9445 74.1303 73.2308 73.6873C71.8771 72.8505 70.5727 71.8168 69.1206 71.2508C66.3395 70.1432 63.4354 70.2663 60.5558 71.0785C52.877 73.2197 49.7267 81.0461 53.8615 87.7159C54.8705 89.3402 56.2242 90.6693 58.1685 90.9892C60.6789 91.4076 63.2385 91.6783 65.7981 91.2107C66.1426 91.1369 66.5364 91.2107 66.9056 91.2353C66.8071 91.7029 66.7825 92.1952 66.5856 92.6136C66.3887 92.9827 66.0442 93.3027 65.6996 93.5488C64.0506 94.804 62.4509 96.133 60.7035 97.2159C58.8822 98.3234 56.9133 99.1848 55.0182 100.169C55.412 100.391 55.9042 100.735 56.4457 100.932C59.8175 102.212 63.1646 103.541 66.5856 104.698C68.9237 105.485 71.3111 106.175 73.7476 106.568C79.1129 107.479 84.5275 107.947 89.9912 107.848C96.0703 107.75 102.075 107.085 107.859 105.018C113.2 103.098 115.316 100.169 115.267 94.5087C115.243 92.589 115.144 90.6693 114.997 88.7742C114.504 81.9814 114.48 75.1886 115.366 68.4204C116.055 62.9321 116.867 57.5175 118.811 52.226Z" fill="#F1D7BE"/>
<path fill-rule="evenodd" clip-rule="evenodd" d="M59.8421 94.2625C58.7345 94.0656 57.7993 93.9671 56.9379 93.6964C56.0765 93.4011 55.2151 93.0073 54.4275 92.515C48.5454 88.7002 47.2656 78.6587 51.9418 73.0965C54.5506 69.9709 58.0208 68.3219 61.9587 67.7804C67.0779 67.0667 71.8279 67.8297 75.4212 72.1121C75.495 72.1859 75.5935 72.2597 75.5688 72.2351C77.7839 68.3219 79.8512 64.3594 82.2632 60.5939C84.6751 56.8529 86.4964 52.6936 89.9912 49.4694C70.6219 47.5251 51.6956 44.3995 32.8186 40.437C32.7201 40.6831 32.6217 40.9785 32.5233 41.2492C30.9727 45.8762 29.9636 50.6016 29.2499 55.4008C28.1916 62.5136 27.8224 69.5771 30.8004 76.4437C32.351 80.0124 34.123 83.4088 36.658 86.3868C40.8173 91.3091 45.8381 95.1977 51.3019 98.5202C51.5972 98.7171 52.2125 98.6925 52.5324 98.4956C54.7229 97.2897 56.8887 96.0345 59.0545 94.7793C59.276 94.6562 59.4729 94.484 59.8421 94.2625Z" fill="#894D38"/>
<path fill-rule="evenodd" clip-rule="evenodd" d="M148.468 61.7754C148.37 61.9231 148.321 61.9969 148.296 62.0953C146.524 67.8298 144.604 73.5151 143.005 79.2988C141.528 84.6395 139.362 89.7341 137.245 94.8287C136.433 96.7976 135.72 98.8158 135.227 100.883C133.972 106.15 135.744 110.359 140.297 112.967C143.029 114.543 146.007 115.773 148.887 117.102C150.905 118.037 152.849 117.521 154.424 116.192C160.774 110.9 165.869 104.723 168.428 96.6746C170.028 91.6292 171.357 86.5838 170.988 81.2431C170.939 80.6278 170.742 79.9879 170.422 79.4465C168.699 76.4931 166.336 74.0319 163.998 71.5462C159.691 66.9684 154.424 63.892 148.468 61.7754Z" fill="#F1D7BE"/>
<path fill-rule="evenodd" clip-rule="evenodd" d="M52.7785 166.645C51.3756 168.639 50.0958 170.411 48.8652 172.232C48.7422 172.404 48.816 172.823 48.9391 173.069C49.4067 174.152 49.9728 175.185 50.4158 176.268C55.092 187.786 59.5959 199.354 63.4599 211.167C63.6814 211.832 63.9767 212.078 64.6905 212.053C67.3977 211.955 70.1296 211.93 72.8369 211.881C73.6245 211.857 74.6828 212.127 75.1504 211.733C75.6918 211.29 75.6918 210.232 75.9626 209.42C79.482 198.517 83.0261 187.614 86.5455 176.687C86.6686 176.293 86.767 175.899 86.9147 175.382C86.4225 175.505 86.0779 175.579 85.7579 175.678C80.1219 177.105 74.3874 177.745 68.5791 177.523C64.5428 177.351 60.5065 176.982 56.5933 175.801C54.2059 175.087 53.0984 173.143 53.0246 171.075C52.9754 169.672 52.8769 168.27 52.7785 166.645Z" fill="#F9D69D"/>
<path fill-rule="evenodd" clip-rule="evenodd" d="M190.209 154.561C189.053 154.118 188.117 153.625 187.084 153.404C184.942 152.936 182.998 152.124 181.423 150.598C179.7 148.925 177.608 148.063 175.319 147.743C174.113 147.571 172.735 147.669 171.603 148.088C169.486 148.9 167.517 150.155 165.425 151.041C158.288 154.068 150.88 155.225 142.98 154.019C142.512 156.259 141.995 158.572 141.552 160.91C141.528 161.083 141.823 161.452 142.044 161.55C143.62 162.313 145.17 163.199 146.819 163.765C157.599 167.334 168.305 166.62 178.913 162.929C183.417 161.353 186.911 158.375 190.209 154.561Z" fill="#F4A2BE"/>
<path fill-rule="evenodd" clip-rule="evenodd" d="M140.519 184.488C141.355 183.824 142.364 183.012 143.349 182.2C146.622 179.492 150.535 178.483 154.646 178.065C158.608 177.671 162.595 177.351 166.508 176.736C169.905 176.194 172.981 174.816 175.615 172.453C177.657 170.608 178.913 168.22 180.512 166.079C180.66 165.882 180.66 165.587 180.709 165.365C167.764 169.672 154.941 170.484 142.217 164.947C140.346 169.746 139.46 181.141 140.519 184.488Z" fill="#F4D4E1"/>
<path fill-rule="evenodd" clip-rule="evenodd" d="M156.541 146.144C156.565 146.217 156.59 146.316 156.615 146.39C156.492 146.488 156.393 146.636 156.27 146.71C152.357 148.605 148.32 149.958 143.866 149.343C143.62 149.318 143.201 149.515 143.078 149.712C142.807 150.106 143.62 151.41 144.112 151.435C145.441 151.534 146.77 151.657 148.099 151.681C155.384 151.853 162.128 149.835 168.576 146.611C169.388 146.217 169.905 145.553 170.422 144.765C171.234 143.486 172.341 142.378 173.35 141.197C173.523 141 173.744 140.852 174.113 140.508C165.032 140.704 156.565 139.179 148.69 134.379C148.616 134.502 148.468 134.748 148.296 134.945C146.942 136.496 145.539 138.046 144.21 139.622C143.644 140.286 143.103 140.951 142.66 141.689C141.774 143.19 141.774 144.765 142.635 146.267C142.783 146.537 143.226 146.833 143.546 146.833C144.924 146.857 146.327 146.783 147.705 146.71C150.634 146.562 153.587 146.365 156.541 146.144Z" fill="#F4D4E1"/>
<path fill-rule="evenodd" clip-rule="evenodd" d="M170.865 78.142C170.865 77.8467 170.865 77.6744 170.865 77.5021C170.619 72.6044 169.437 67.879 168.207 63.1536C167.099 58.8712 164.958 55.0318 162.94 51.1431C161.512 48.4113 159.1 46.8115 156.467 45.4579C155.679 45.0641 155.163 45.2118 154.695 45.9255C154.203 46.6638 153.612 47.353 153.144 48.1159C151.348 51.0693 150.093 54.2442 149.256 57.5914C148.936 58.8466 148.911 58.8466 150.093 59.2896C153.735 60.6432 157.181 62.3414 160.331 64.6057C165.032 68.0021 169.166 71.8907 170.692 77.7974C170.692 77.8959 170.766 77.9697 170.865 78.142Z" fill="#C95D87"/>
<path fill-rule="evenodd" clip-rule="evenodd" d="M93.6583 172.724C92.7477 173.118 91.7878 173.487 90.9018 173.955C90.5572 174.127 90.2127 174.496 90.1142 174.841C86.7671 184.931 83.4691 195.022 80.1465 205.138C79.6789 206.54 79.3098 207.943 78.8914 209.371C80.2696 209.371 81.5248 209.346 82.78 209.371C83.346 209.371 83.5676 209.149 83.7152 208.608C85.3642 202.233 86.9886 195.859 88.736 189.509C90.3111 183.922 92.0093 178.385 93.6583 172.724Z" fill="#F9D69D"/>
<path fill-rule="evenodd" clip-rule="evenodd" d="M96.5133 120.4C96.4887 120.523 96.4641 120.646 96.4641 120.769C96.6118 124.412 96.7348 128.054 96.9317 131.672C96.981 132.509 97.2763 133.223 97.9654 133.838C101.633 137.185 105.915 139.671 110.025 142.427C110.099 142.477 110.197 142.477 110.32 142.501C110.419 142.255 110.493 142.034 110.591 141.812C110.714 141.566 110.837 141.32 110.985 141.098C105.373 134.724 100.205 128.103 96.5133 120.4Z" fill="#F9D69D"/>
<path fill-rule="evenodd" clip-rule="evenodd" d="M82.0171 218.969C81.7464 218.625 81.5987 218.28 81.328 218.108C79.7036 217 78.0793 215.893 76.3811 214.908C75.815 214.588 75.052 214.515 74.3875 214.539C71.4588 214.638 68.53 214.859 65.6012 214.908C64.6906 214.933 64.346 215.376 64.1245 216.065C63.9522 216.557 63.903 217.099 63.8784 217.616C63.8046 218.92 64.1245 219.388 65.3551 219.831C65.6997 219.954 66.0688 220.077 66.4134 220.151C71.3357 221.283 76.1842 220.766 80.9834 219.486C81.3034 219.412 81.5987 219.191 82.0171 218.969Z" fill="#6D242C"/>
<path fill-rule="evenodd" clip-rule="evenodd" d="M115.76 158.893C117.581 160.025 119.673 160.32 121.912 159.828C124.964 159.139 126.342 157.613 126.613 154.487C126.785 152.518 126.047 151.238 124.127 150.845C121.986 150.426 119.82 150.278 117.827 150.032C117.138 153.084 116.449 155.915 115.76 158.893Z" fill="#F1D7BE"/>
<path fill-rule="evenodd" clip-rule="evenodd" d="M152.431 44.498C149.576 44.4487 147.336 45.3101 145.909 47.7713C144.235 50.6262 143.398 53.7273 142.881 56.9514C142.241 61.0615 142.832 65.147 142.98 69.2326C142.98 69.3802 143.078 69.5279 143.177 69.8478C143.349 69.2818 143.497 68.9126 143.595 68.5188C144.653 64.7533 145.589 60.9385 146.795 57.1975C147.754 54.1703 148.911 51.2169 150.142 48.2881C150.683 47.0083 151.618 45.8516 152.431 44.498Z" fill="#E5A8C4"/>
<path fill-rule="evenodd" clip-rule="evenodd" d="M79.4329 110.309C79.6051 110.58 79.679 110.752 79.802 110.9C81.4264 112.918 82.6324 115.182 83.2477 117.717C83.4445 118.505 83.7891 118.751 84.6013 118.579C85.7334 118.357 86.7671 118.579 87.3824 119.686C86.8163 120.4 86.8902 120.4 87.1855 121.311C87.5793 122.467 87.85 123.673 88.1946 124.855C88.2684 125.101 88.4653 125.372 88.6868 125.519C89.8928 126.258 91.148 126.947 92.3539 127.685C93.0431 128.079 93.6829 128.522 94.4705 129.039C94.3721 127.513 94.2982 126.159 94.1998 124.806C94.1752 124.609 94.0275 124.412 93.9291 124.239C90.705 119.44 86.9394 115.133 82.6324 111.269C81.6971 110.408 80.6881 110.309 79.4329 110.309Z" fill="#F9D69D"/>
<path fill-rule="evenodd" clip-rule="evenodd" d="M68.53 159.655C68.6039 162.904 69.5637 163.913 72.6402 163.962C73.5754 163.987 74.486 163.913 75.4213 163.839C76.3811 163.766 77.341 163.716 78.2762 163.544C81.5495 162.953 84.8229 162.313 88.0962 161.723C88.8591 161.575 89.2283 161.132 89.2529 160.369C89.2775 159.828 89.2529 159.286 89.2529 158.696C82.4109 160.492 75.4705 159.582 68.53 159.655Z" fill="#F9D69D"/>
<path fill-rule="evenodd" clip-rule="evenodd" d="M141.208 151.115C140.494 150.032 139.386 149.343 138.107 148.925C136.925 148.556 136.236 148.851 136.113 150.081C135.99 151.189 136.113 152.346 136.31 153.453C136.605 155.127 136.335 155.914 134.907 156.825C134.464 157.096 133.997 157.366 133.603 157.711C132.84 158.376 132.938 158.892 133.849 159.286C134.341 159.483 134.858 159.631 135.301 159.877C136.212 160.344 136.532 161.452 136.064 162.338C135.842 162.732 135.522 163.076 135.301 163.495C135.03 163.987 134.858 164.504 134.612 165.021C135.252 165.07 135.892 165.193 136.532 165.119C136.975 165.07 137.393 164.775 137.787 164.578C138.427 164.233 139.067 163.864 139.756 163.47C138.648 162.535 138.55 161.329 138.845 160.025C139.362 157.736 139.879 155.447 140.42 153.158C140.617 152.469 140.912 151.878 141.208 151.115Z" fill="#F4A2BE"/>
<path fill-rule="evenodd" clip-rule="evenodd" d="M112.289 146.956C112.289 151.115 111.575 154.93 109.016 158.326C109.877 158.548 110.616 158.72 111.305 158.942C112.092 159.188 112.535 158.893 112.806 158.179C114.061 155.127 114.873 151.977 114.775 148.654C114.775 148.383 114.652 147.99 114.455 147.891C113.815 147.547 113.101 147.3 112.289 146.956Z" fill="white"/>
<path fill-rule="evenodd" clip-rule="evenodd" d="M127.548 158.597C128.631 159.483 129.739 160.074 131.166 160.32C130.379 158.105 130.772 156.825 132.569 155.521C132.864 155.299 133.184 155.102 133.504 154.905C134.12 154.512 134.193 153.133 133.529 152.887C132.274 152.42 130.945 152.124 129.616 151.829C129.443 151.804 128.976 152.247 128.976 152.444C129.123 154.61 128.557 156.604 127.548 158.597Z" fill="#F1D7BE"/>
<path fill-rule="evenodd" clip-rule="evenodd" d="M80.9589 211.783C79.9745 211.783 79.2853 211.758 78.6208 211.807C78.4485 211.807 78.2024 211.979 78.1532 212.103C78.104 212.25 78.227 212.496 78.3501 212.619C78.5224 212.792 78.7685 212.865 78.99 212.989C80.7866 214.022 82.5833 215.081 83.9123 216.729C84.8475 217.886 84.8229 217.911 86.2012 217.345C86.4473 217.246 86.6934 217.099 86.9641 217C87.6779 216.705 87.8502 216.213 87.3087 215.647C86.595 214.884 85.8566 214.145 85.0937 213.432C83.8385 212.25 82.5341 211.266 80.9589 211.783Z" fill="#6D242C"/>
<path fill-rule="evenodd" clip-rule="evenodd" d="M165.573 224.285C164.146 223.424 162.767 222.636 161.414 221.775C160.651 221.307 159.962 220.717 159.223 220.224C159.026 220.101 158.608 219.978 158.51 220.077C157.55 221.012 156.664 221.996 155.581 223.129C159.002 224.285 162.275 224.236 165.573 224.285Z" fill="white"/>
<path fill-rule="evenodd" clip-rule="evenodd" d="M94.0029 119.932C94.0767 119.908 94.1752 119.908 94.249 119.883C94.249 116.954 94.249 114.001 94.249 111.023C92.6985 112.573 92.0586 114.542 91.5664 116.585C91.5417 116.684 91.591 116.831 91.6402 116.93C92.4278 117.939 93.2153 118.923 94.0029 119.932Z" fill="#6D242C"/>
<path fill-rule="evenodd" clip-rule="evenodd" d="M85.9058 110.752C87.4317 112.18 88.8591 113.484 90.2128 114.739C90.705 113.558 91.2711 112.155 91.8371 110.752C89.8928 110.752 87.9731 110.752 85.9058 110.752Z" fill="white"/>
<path fill-rule="evenodd" clip-rule="evenodd" d="M124.177 147.891C122.479 145.504 119.968 145.627 117.556 145.381C117.433 145.701 117.236 145.971 117.286 146.144C117.433 146.611 117.655 147.399 117.925 147.448C119.968 147.67 122.036 147.743 124.177 147.891Z" fill="#F1D7BE"/>
<path fill-rule="evenodd" clip-rule="evenodd" d="M133.529 150.131C134.07 148.826 134.021 148.482 132.668 148.039C131.708 147.719 130.6 147.645 129.591 147.694C128.607 147.743 128.336 148.285 128.484 149.146C130.206 149.491 131.855 149.811 133.529 150.131Z" fill="#F1D7BE"/>
<path fill-rule="evenodd" clip-rule="evenodd" d="M139.116 144.199C136.802 143.707 135.966 144.298 136.039 146.291C137.319 146.538 138.574 146.808 139.756 147.03C139.534 146.094 139.337 145.159 139.116 144.199Z" fill="#F4A2BE"/>
<path fill-rule="evenodd" clip-rule="evenodd" d="M115.218 145.774C115.883 144.347 115.538 143.732 113.717 143.067C113.471 143.682 113.225 144.273 112.929 144.987C113.741 145.282 114.455 145.528 115.218 145.774Z" fill="white"/>
<path fill-rule="evenodd" clip-rule="evenodd" d="M83.1492 121.384C83.8629 121.975 84.552 122.566 85.3396 123.255C84.7489 120.769 84.3797 120.671 83.1492 121.384Z" fill="#F9D69D"/>
<path fill-rule="evenodd" clip-rule="evenodd" d="M110.591 100.908C109.705 101.892 108.868 102.606 107.712 102.778C104.98 103.147 102.42 102.507 100.033 101.203C99.3929 100.858 99.0729 100.292 99.3929 99.5539C99.7128 98.8402 100.402 98.5695 101.017 98.8894C103.774 100.366 106.85 100.145 109.779 100.661C109.976 100.735 110.197 100.785 110.591 100.908Z" fill="#5C1B1F"/>
<path fill-rule="evenodd" clip-rule="evenodd" d="M147.434 104.747C146.524 105.731 145.687 106.421 144.53 106.568C141.798 106.888 139.263 106.199 136.876 104.845C136.261 104.476 135.941 103.91 136.261 103.196C136.581 102.483 137.27 102.237 137.885 102.581C140.617 104.107 143.693 103.959 146.598 104.526C146.819 104.55 147.016 104.624 147.434 104.747Z" fill="#5C1B1F"/>
<path fill-rule="evenodd" clip-rule="evenodd" d="M109.877 80.8001C109.877 82.2768 108.671 83.4582 107.219 83.4582C105.743 83.4582 104.561 82.2522 104.561 80.8001C104.561 79.3234 105.767 78.1421 107.219 78.1421C108.696 78.1421 109.877 79.3234 109.877 80.8001Z" fill="#5C1B1F"/>
<path fill-rule="evenodd" clip-rule="evenodd" d="M152.48 88.4296C151.397 91.1861 148.665 92.6628 146.352 91.7768C144.063 90.8662 143.054 87.9128 144.137 85.1563C144.58 84.0242 145.318 83.0889 146.179 82.4736C147.41 81.5876 148.911 81.2923 150.24 81.8091C152.578 82.7198 153.563 85.6731 152.48 88.4296Z" fill="#5C1B1F"/>
<path fill-rule="evenodd" clip-rule="evenodd" d="M146.647 83.6795C146.647 83.6795 143.644 80.0616 144.014 78.3388C144.383 76.6159 145.416 80.48 147.435 82.1536C149.453 83.8271 146.647 83.6795 146.647 83.6795Z" fill="#5C1B1F"/>
<path fill-rule="evenodd" clip-rule="evenodd" d="M149.108 83.2367C149.108 83.2367 146.106 79.6188 146.475 77.896C146.844 76.1732 147.878 80.0372 149.896 81.7108C151.914 83.3844 149.108 83.2367 149.108 83.2367Z" fill="#5C1B1F"/>
<path fill-rule="evenodd" clip-rule="evenodd" d="M148.124 85.0577C148.001 85.8699 147.262 86.436 146.45 86.3375C145.638 86.2145 145.072 85.4761 145.17 84.664C145.22 84.3194 145.367 84.0241 145.589 83.8025C145.909 83.4826 146.352 83.3103 146.844 83.3841C147.656 83.4826 148.222 84.2456 148.124 85.0577Z" fill="white"/>
<path opacity="0.2" fill-rule="evenodd" clip-rule="evenodd" d="M32.5232 41.2247C31.6372 43.9073 30.9234 46.6146 30.3328 49.3711C48.3484 55.7701 79.9496 53.8258 86.7178 53.3089C87.6531 51.9307 88.7114 50.6263 90.0158 49.4449C70.6465 47.5006 51.7202 44.3749 32.8431 40.4125C32.7201 40.6586 32.597 40.9293 32.5232 41.2247Z" fill="#231F20"/>
<g opacity="0.2">
<path opacity="0.2" fill-rule="evenodd" clip-rule="evenodd" d="M62.6478 40.4126C43.943 34.5059 38.5039 25.8672 37.0026 22.2739C34.9106 26.8271 32.9663 31.454 31.5388 36.4748C32.5725 36.7701 33.557 37.0655 34.5168 37.3362C36.9041 38.0253 39.2915 38.8867 41.728 39.4036C45.7643 40.265 49.8498 40.9541 53.9353 41.6186C64.4445 43.366 74.9782 44.7689 85.5612 45.9748C78.8176 44.7935 70.9419 43.0215 62.6478 40.4126Z" fill="#231F20"/>
</g>
<path fill-rule="evenodd" clip-rule="evenodd" d="M117.851 52.0538C112.757 51.5615 107.638 51.0447 102.543 50.5524C99.8357 50.3063 97.1284 50.1341 94.4212 49.8387C93.289 49.7157 92.3538 49.7895 91.6647 50.7986C91.2463 51.4385 90.7786 52.0538 90.3849 52.7183C89.6711 53.9735 89.0312 55.2779 88.2929 56.5331C85.3149 61.48 82.3123 66.4269 79.3343 71.3738C78.6698 72.4567 78.0791 73.5888 77.39 74.6471C76.8485 75.5085 76.2086 75.6562 75.3472 75.1394C75.1503 75.0163 74.9534 74.8933 74.7565 74.7702C72.0985 78.8803 67.8161 83.1874 63.6567 79.1757C60.2603 75.9023 54.9442 78.1174 52.1877 79.6679C51.7201 82.2521 52.2123 85.0578 53.8367 87.6913C54.8458 89.3156 56.1994 90.6446 58.1437 90.9646C60.6541 91.383 63.2137 91.6537 65.7733 91.1861C66.1179 91.1123 66.5117 91.1861 66.8808 91.2107C66.7824 91.6783 66.7578 92.1706 66.5609 92.589C66.364 92.9581 66.0194 93.2781 65.6749 93.5242C64.0259 94.7794 62.4261 96.1084 60.6787 97.1913C58.8575 98.2988 56.8885 99.1602 54.9935 100.145C55.3872 100.366 55.8795 100.711 56.4209 100.908C59.7927 102.187 63.1399 103.516 66.5609 104.673C68.899 105.461 71.2863 106.15 73.7228 106.544C78.842 107.405 84.0351 107.873 89.2281 107.848C80.1465 105.879 74.412 93.8195 76.2824 84.221C78.1775 74.6225 89.8926 55.647 92.5999 54.0227C95.3072 52.3983 117.999 54.638 117.999 54.638C118.245 53.8504 118.491 53.0628 118.787 52.2753C118.393 52.1522 118.122 52.0784 117.851 52.0538Z" fill="#DDB18E"/>
<path fill-rule="evenodd" clip-rule="evenodd" d="M99.5652 67.8545C99.5652 67.8545 98.753 69.1097 99.0729 69.9465C99.3929 70.7832 99.9836 71.2262 101.14 70.734C102.297 70.2418 104.118 68.2975 107.17 68.6913C110.222 69.0851 112.314 71.4724 112.437 69.2327C112.56 66.9931 107.441 65.4672 107.441 65.4672C107.441 65.4672 101.682 66.7223 101.583 66.7962C101.485 66.87 99.5652 67.8545 99.5652 67.8545Z" fill="#DDB18E"/>
<path opacity="0.2" fill-rule="evenodd" clip-rule="evenodd" d="M58.5129 132.533C58.5129 132.533 59.4974 139.745 65.4042 146.956C71.3109 154.142 79.4327 158.942 82.0662 159.729C84.6996 160.541 89.9419 161.846 89.9419 161.846C89.9419 161.846 87.0623 163.716 82.4846 163.962C77.8822 164.208 68.5544 164.307 68.5544 164.307C68.5544 164.307 68.456 167.753 73.1322 168.811C77.8084 169.869 87.2346 167.556 90.3603 166.62C93.4859 165.685 98.1621 164.898 98.1621 164.898L97.1777 158.302C97.153 158.326 66.4625 149.368 58.5129 132.533Z" fill="#231F20"/>
<path opacity="0.2" fill-rule="evenodd" clip-rule="evenodd" d="M96.6362 125.027C96.7347 127.242 96.8085 129.457 96.9316 131.672C96.9808 132.509 97.2761 133.223 97.9653 133.838C101.485 137.037 105.546 139.449 109.459 142.058C104.955 138.268 97.8176 126.922 96.6362 125.027Z" fill="#231F20"/>
<path opacity="0.2" fill-rule="evenodd" clip-rule="evenodd" d="M108.991 158.326C109.853 158.548 110.591 158.72 111.28 158.942C111.403 158.991 111.502 158.991 111.6 159.016C112.658 155.422 112.486 151.386 112.191 148.925C111.994 152.321 111.157 155.496 108.991 158.326Z" fill="#231F20"/>
<path fill-rule="evenodd" clip-rule="evenodd" d="M119.722 160.049C117.999 156.579 117.63 153.084 117.556 151.337C116.941 153.921 116.375 156.357 115.784 158.917C116.966 159.631 118.295 160.025 119.722 160.049Z" fill="#DDB18E"/>
<path fill-rule="evenodd" clip-rule="evenodd" d="M132.569 155.496C132.864 155.274 133.184 155.078 133.504 154.881C133.726 154.733 133.873 154.462 133.947 154.142C133.135 154.413 131.092 155.274 130.157 156.85C129.591 157.809 128.877 158.572 128.262 159.114C129.123 159.705 130.059 160.098 131.166 160.295C130.354 158.08 130.772 156.8 132.569 155.496Z" fill="#DDB18E"/>
<path opacity="0.2" fill-rule="evenodd" clip-rule="evenodd" d="M140.051 168.835C140.051 168.835 150.511 173.536 163.998 171.961C177.485 170.386 183.49 166.079 183.49 166.079C183.49 166.079 178.691 174.102 171.701 176.711C164.736 179.345 157.599 179 153.317 179.985C149.034 180.969 145.318 183.356 145.318 183.356L144.481 187.466L145.318 190.395C145.318 190.395 150.314 187.294 159.986 185.571C169.659 183.849 179.134 180.477 183.49 175.161C187.871 169.82 191.145 162.584 193.458 163.987C195.747 165.39 196.239 179.542 198.75 182.224C201.26 184.907 195.599 159.04 195.599 159.04L190.849 154.044C190.849 154.044 187.576 159.901 184.13 162.117C180.685 164.332 174.113 165.611 167.961 166.645C161.808 167.679 150.314 166.079 150.314 166.079L141.971 163.519L140.051 168.835Z" fill="#231F20"/>
<path opacity="0.2" fill-rule="evenodd" clip-rule="evenodd" d="M93.8304 176.071L95.1841 171.051C95.1841 171.051 85.6594 173.832 78.8912 175.161C72.1231 176.465 63.4352 176.071 58.4883 174.718C53.5659 173.364 53.5659 163.987 53.5659 163.987L47.6592 171.297L48.4221 176.342L48.7913 176.047C48.7913 176.047 60.1372 182.126 69.8096 182.126C79.4819 182.126 84.8964 181.781 84.8964 181.781L78.3006 205.334L78.8912 209.937C78.8912 209.937 90.9017 176.736 93.8304 176.071Z" fill="#231F20"/>
<path fill-rule="evenodd" clip-rule="evenodd" d="M112.437 69.2571C111.452 68.888 110.517 68.568 109.631 68.1989C106.949 67.1159 104.414 67.7066 101.928 68.8634C101.657 68.9864 101.386 69.2079 101.091 69.2571C100.426 69.4048 99.8604 69.2325 99.4913 68.6172C99.1467 68.0266 99.2698 67.4851 99.7128 66.9929C99.8112 66.8698 99.9343 66.7714 100.057 66.6975C103.232 64.8517 106.579 64.0395 110.173 65.2947C111.748 65.8854 112.708 67.6328 112.437 69.2571Z" fill="#5C1B1F"/>
<path fill-rule="evenodd" clip-rule="evenodd" d="M64.6167 87.5928C64.6905 86.3869 64.7397 85.2055 64.8136 83.9996C64.8874 82.6705 64.4936 81.4892 63.7307 80.4309C62.7708 79.1018 61.5649 78.3881 59.842 78.7081C59.4975 78.7819 59.0791 78.4127 58.6853 78.2404C58.9068 77.8467 59.0791 77.2068 59.3744 77.1329C60.1374 76.9606 60.9742 76.8622 61.7371 77.0345C66.0195 78.0436 68.0131 83.335 65.5027 86.9283C65.3058 87.2237 65.0351 87.4452 64.789 87.7159C64.7397 87.6667 64.6659 87.6175 64.6167 87.5928Z" fill="#5C1B1F"/>
<path fill-rule="evenodd" clip-rule="evenodd" d="M170.397 79.4218C168.674 76.4684 166.312 74.0073 163.974 71.5215C160.823 68.1743 157.156 65.6393 153.071 63.6704C153.661 64.015 163.506 69.8233 166.361 82.7197C169.314 95.9608 159.888 112.278 151.545 117.496C152.554 117.348 153.514 116.881 154.35 116.167C160.7 110.875 165.795 104.698 168.354 96.6499C169.954 91.6045 171.283 86.5591 170.914 81.2184C170.939 80.6278 170.717 79.9633 170.397 79.4218Z" fill="#DDB18E"/>
<path fill-rule="evenodd" clip-rule="evenodd" d="M147.631 70.9062C147.631 70.9062 146.278 72.5798 147.139 73.6627C148 74.7456 148.567 73.1705 151.815 73.6627C155.064 74.155 155.827 76.0501 156.319 77.4529C156.811 78.8558 158.485 78.0436 158.337 76.1731C158.19 74.3272 155.384 71.9645 155.384 71.9645L151.471 71.3246L147.631 70.9062Z" fill="#DDB18E"/>
<path opacity="0.2" fill-rule="evenodd" clip-rule="evenodd" d="M144.112 51.8077C144.112 51.8077 149.059 47.2299 155.753 51.1186C162.448 55.0072 170.299 74.8687 170.865 78.4374C171.431 82.0061 171.677 71.9645 171.677 71.7923C171.677 71.62 166.632 54.9826 166.632 54.9826C166.632 54.9826 162.62 47.1315 157.895 45.2364C153.169 43.3413 148.542 44.4734 148.542 44.4734L145.318 46.8361L144.112 51.8077Z" fill="#231F20"/>
<path opacity="0.2" fill-rule="evenodd" clip-rule="evenodd" d="M156.393 118.259C156.393 118.259 174.138 121.483 187.92 112.254C201.703 103.024 207.979 95.2716 207.979 99.5786C207.979 103.886 187.059 119.268 191.243 122.098C195.427 124.928 205.149 123.206 211.178 118.283C217.208 113.361 203.844 128.054 205.985 133.543C208.102 139.031 211.671 137.702 216.47 146.956C221.269 156.21 228.406 161.624 228.406 161.624C228.406 161.624 219.3 157.268 212.532 151.337C205.764 145.381 202.81 138.489 191.735 135.413C180.66 132.337 164.638 127.906 165.893 132.46C167.124 137.013 169.511 134.921 178.445 137.997C187.379 141.074 194.319 144.445 190.185 143.83C186.075 143.215 178.445 140.089 175.812 142.501C173.178 144.913 170.791 147.103 165.13 144.027C159.469 140.951 149.773 139.129 149.034 142.083C148.271 145.011 159.642 143.559 158.51 145.405C157.377 147.251 152.135 152.567 148.296 152.37C144.456 152.173 141.749 150.032 141.749 150.032L140.026 143.116L147.385 134.429C147.385 134.429 146.942 129.974 148.124 127.931C149.28 125.888 151.102 120.425 151.102 120.425C151.102 120.425 153.292 117.004 156.393 118.259Z" fill="#231F20"/>
<path opacity="0.2" fill-rule="evenodd" clip-rule="evenodd" d="M214.329 167.826C212.704 165.464 211.08 163.101 209.357 160.788C206.675 157.219 203.844 153.798 199.808 151.583C199.02 151.14 198.282 150.623 197.519 150.131C197.519 150.131 207.265 158.991 210.342 170.337C212.409 177.966 212.926 182.987 214.649 186.261C214.796 186.039 214.919 185.842 215.067 185.621C216.913 182.987 219.128 180.772 222.303 179.837C223.115 179.591 223.976 179.566 224.912 179.418C220.309 176.465 217.307 172.158 214.329 167.826Z" fill="#231F20"/>
<g opacity="0.2">
<path opacity="0.2" fill-rule="evenodd" clip-rule="evenodd" d="M189.373 210.995C182.654 204.03 178.913 182.864 178.101 185.153C177.288 187.442 181.423 207.549 183.54 213.702C184.672 217 184.057 218.477 182.457 219.191C184.475 219.388 186.419 220.028 188.265 221.233C189.643 222.144 191.219 222.759 192.72 223.522C195.599 224.95 198.602 225.319 201.728 224.556C204.189 223.965 206.552 223.227 208.84 222.292C201.801 221.258 195.304 217.148 189.373 210.995Z" fill="#231F20"/>
<path opacity="0.2" fill-rule="evenodd" clip-rule="evenodd" d="M159.1 217.025C160.503 217.739 161.808 218.649 163.063 219.585C165.795 221.677 168.674 222.366 172.022 221.11C173.031 220.717 174.089 220.397 175.147 220.101C170.889 220.101 167.985 218.575 164.343 214.293C160.282 209.543 161.094 188.894 161.094 188.894C161.094 188.894 158.411 193.841 157.747 200.412C157.082 206.983 160.454 213.456 156.935 214.687C153.415 215.917 153.243 216.237 153.243 216.237C152.972 216.237 152.529 216.607 151.963 217.222C154.252 215.917 156.689 215.819 159.1 217.025Z" fill="#231F20"/>
</g>
<path opacity="0.2" fill-rule="evenodd" clip-rule="evenodd" d="M190.21 154.561C189.053 154.118 188.118 153.625 187.084 153.404C184.943 152.936 182.998 152.124 181.423 150.598C179.7 148.925 177.608 148.063 175.32 147.743C174.114 147.571 172.735 147.669 171.603 148.088C171.037 148.309 170.471 148.555 169.93 148.826C171.283 148.802 173.203 149.171 175.59 150.672C180.291 153.65 184.401 157.391 187.576 157.317C188.487 156.456 189.348 155.545 190.21 154.561Z" fill="#231F20"/>
<path fill-rule="evenodd" clip-rule="evenodd" d="M158.141 76.8622C157.476 76.05 156.885 75.4347 156.393 74.6964C154.572 72.0383 152.135 71.3 149.157 72.1368C149.059 72.1614 148.961 72.2106 148.862 72.2352C148.247 72.4075 147.804 72.2106 147.631 71.4969C147.459 70.8324 147.755 70.0202 148.419 69.8479C149.576 69.5033 150.782 69.1834 151.939 69.208C154.4 69.2572 156.442 70.3401 157.919 72.5798C158.707 73.7119 158.682 75.0902 158.141 76.8622Z" fill="#5C1B1F"/>
<path fill-rule="evenodd" clip-rule="evenodd" d="M196.387 134.355C198.454 134.97 200.546 135.462 202.564 136.201C208.225 138.268 212.508 142.034 215.805 147.03C218.513 151.14 221.614 154.955 225.404 158.154C231.311 163.15 238.227 165.981 245.659 167.654C246.078 167.753 246.57 167.753 246.89 167.974C247.284 168.269 247.85 168.811 247.801 169.155C247.727 169.598 247.161 170.214 246.718 170.288C245.93 170.435 245.044 170.337 244.256 170.165C233.452 167.777 224.764 161.969 217.873 153.429C216.249 151.411 214.723 149.294 213.271 147.153C210.662 143.264 207.241 140.434 203.007 138.489C200.842 137.505 198.824 136.225 196.756 135.068C196.584 134.97 196.436 134.822 196.264 134.724C196.289 134.576 196.338 134.453 196.387 134.355Z" fill="#5C1B1F"/>
<path fill-rule="evenodd" clip-rule="evenodd" d="M178.568 181.683C178.667 182.077 178.79 182.47 178.888 182.864C179.823 186.728 180.463 190.715 181.743 194.456C185.213 204.547 191.095 212.989 199.882 219.24C200.153 219.437 200.448 219.609 200.768 219.732C201.334 219.929 201.703 220.323 201.408 220.815C201.186 221.184 200.62 221.529 200.202 221.529C199.685 221.529 199.143 221.184 198.7 220.889C194.492 218.059 190.972 214.539 187.994 210.454C183.54 204.35 180.168 197.729 178.519 190.297C177.977 187.885 177.977 185.448 178.076 183.012C178.101 182.569 178.199 182.126 178.273 181.683C178.42 181.707 178.494 181.683 178.568 181.683Z" fill="#5C1B1F"/>
<path fill-rule="evenodd" clip-rule="evenodd" d="M161.291 188.919C161.34 189.337 161.414 189.731 161.414 190.149C161.389 192.118 161.34 194.087 161.266 196.081C161.069 202.356 162.103 208.436 164.294 214.318C164.417 214.662 164.614 215.007 164.638 215.376C164.663 215.671 164.466 215.967 164.367 216.262C164.047 216.164 163.629 216.139 163.432 215.917C163.112 215.548 162.915 215.081 162.694 214.638C160.873 210.724 159.888 206.59 159.593 202.307C159.396 199.477 159.445 196.647 159.593 193.816C159.667 192.118 160.306 190.469 161.02 188.919C161.119 188.919 161.193 188.919 161.291 188.919Z" fill="#5C1B1F"/>
<path fill-rule="evenodd" clip-rule="evenodd" d="M126.392 147.005C128.238 144.372 130.969 145.012 133.627 145.405C134.489 141.664 136.827 140.926 139.608 141.467C141.183 138.17 144.063 135.905 146.253 133.1C146.696 132.533 146.992 132.115 146.647 131.327C146.106 130.072 146.302 128.768 146.893 127.562C147.435 126.454 148.099 125.372 148.468 124.215C148.788 123.181 148.813 122.049 148.862 120.966C148.911 120.277 148.419 119.908 147.754 119.662C144.53 118.48 141.38 117.127 138.501 115.207C135.227 113.041 132.766 110.26 132.175 106.248C131.708 103.172 132.225 100.12 133.283 97.2159C134.267 94.5825 135.547 92.0721 136.532 89.4387C138.156 85.0332 140.346 80.8492 141.183 76.173C141.183 76.1238 141.183 76.05 141.208 76.0007C142.217 73.8349 141.552 71.743 141.036 69.6264C139.14 61.8491 140.1 54.3426 143.841 47.3529C145.859 43.5873 148.665 40.314 152.086 37.6806C155.286 35.2194 158.731 34.6534 162.546 36.2039C164.564 37.0161 166.681 37.7298 168.797 38.1728C172.194 38.8619 175.566 38.1974 178.913 37.5575C184.819 36.4254 190.751 35.6132 196.781 35.7363C205.222 35.8839 212.064 39.2065 217.454 45.7039C220.851 49.7895 223.804 54.1457 226.142 58.9203C226.708 60.0525 227.324 61.16 227.914 62.2675C230.375 66.796 230.892 71.743 230.769 76.7391C230.523 88.2081 227.004 98.7172 221.072 108.463C220.285 109.768 219.571 111.048 219.251 112.574C218.734 115.108 217.897 117.594 217.454 120.154C215.313 132.337 219.3 142.28 228.554 150.278C231.606 152.912 235.027 154.93 238.94 156.013C245.905 157.957 252.92 158.326 260.032 156.702C261.632 156.333 263.306 156.259 264.979 156.038C265.471 158.351 264.807 160.517 264.044 162.584C261.903 168.368 259.294 173.905 255.479 178.828C251.025 184.562 242.263 188.943 232.394 184.808C230.129 183.849 227.742 183.184 225.379 182.495C223.952 182.077 222.574 182.52 221.318 183.307C219.62 184.341 218.291 185.744 217.208 187.393C216.691 188.205 216.199 189.017 215.633 189.805C213.59 192.659 210.563 193.422 207.388 191.872C207.118 191.749 206.847 191.601 206.428 191.404C206.502 191.626 206.527 191.749 206.576 191.823C210.366 196.794 214.722 201.126 220.359 203.981C221.983 204.793 223.73 205.334 225.453 205.925C226.585 206.319 226.807 206.516 226.61 207.722C225.675 213.013 223.213 217.246 218.537 220.224C214.156 223.03 209.554 225.27 204.583 226.796C199.685 228.297 194.959 228.1 190.406 225.565C189.003 224.778 187.502 224.162 186.148 223.301C183.466 221.627 180.611 221.849 177.707 222.316C177.411 222.366 177.091 222.439 176.796 222.489C175.787 222.686 175.049 223.03 174.581 224.187C173.818 226.131 172.095 227.165 170.028 227.14C165.746 227.116 161.414 227.313 157.181 226.476C156.147 226.279 155.089 225.91 154.178 225.368C152.529 224.408 152.332 222.735 153.538 221.283C154.153 220.544 154.843 219.904 155.458 219.018C154.99 219.117 154.449 219.117 154.03 219.338C152.972 219.904 151.963 220.569 150.905 221.16C149.896 221.726 148.887 222.39 147.804 222.809C146.475 223.325 145.146 223.006 144.087 222.046C142.832 220.914 142.045 219.56 142.02 217.763C141.897 207.746 142.365 197.729 142.955 187.737C142.98 187.491 142.955 187.245 142.783 186.9C142.463 187.491 142.118 188.082 141.872 188.722C141.602 189.337 141.429 190.001 141.183 190.641C140.937 191.355 140.469 191.823 139.657 191.749C138.87 191.675 138.476 191.109 138.377 190.371C138.058 187.762 137.688 185.153 137.467 182.544C136.999 177.474 137.368 172.478 138.673 167.556C138.722 167.408 138.697 167.26 138.722 167.088C137.91 167.359 137.172 167.679 136.409 167.826C134.12 168.294 132.225 167.162 131.978 165.193C131.905 164.627 132.052 164.036 132.126 163.396C131.462 163.273 130.699 163.224 130.034 162.953C128.73 162.412 127.45 161.797 126.219 161.107C125.752 160.837 125.481 160.788 124.989 161.034C121.937 162.535 118.811 162.683 115.661 161.403C115.267 161.255 114.923 160.984 114.529 160.738C114.16 161.034 113.815 161.477 113.397 161.6C112.954 161.747 112.363 161.674 111.895 161.526C110.468 161.083 109.09 160.418 107.638 160.098C107.047 159.951 106.333 160.443 105.644 160.615C105.177 160.714 104.684 160.886 104.241 160.812C102.518 160.517 100.796 160.148 98.9006 159.754C98.999 160.763 99.0482 161.6 99.1959 162.437C99.4913 164.159 99.8358 165.882 100.205 167.605C100.377 168.417 100.254 169.082 99.5405 169.549C99.1959 169.771 98.876 170.041 98.5068 170.14C96.8332 170.657 96.3902 171.986 96.0456 173.462C95.578 175.505 95.012 177.523 94.4705 179.566C91.6894 189.755 88.9083 199.969 86.1026 210.158C85.9303 210.749 86.1764 211.02 86.5948 211.389C87.7023 212.447 88.8837 213.481 89.7451 214.736C90.951 216.434 90.4588 218.108 88.7114 219.265C88.5391 219.388 88.3668 219.535 88.1453 219.609C83.8137 221.135 79.7528 223.449 74.9782 223.596C72.074 223.67 69.1698 223.842 66.3149 223.202C65.7488 223.079 65.1828 222.932 64.6167 222.735C61.2695 221.578 59.9651 218.403 61.5403 215.204C61.6387 214.982 61.7618 214.662 61.6879 214.465C60.5558 211.192 59.4483 207.919 58.1931 204.695C54.2798 194.579 50.3174 184.488 46.4042 174.373C46.1334 173.709 45.715 173.389 45.0505 173.143C43.3769 172.527 41.7034 171.838 40.0544 171.149C38.8484 170.632 38.5285 169.697 38.5531 168.368C38.6761 158.942 41.2111 149.934 43.1308 140.803C45.0259 131.672 47.6593 122.763 51.1296 114.099C52.3355 111.072 53.9107 108.193 55.3381 105.239C55.7565 104.353 55.5597 103.664 54.7229 103.221C52.557 102.04 50.3912 100.834 48.25 99.6278C46.2811 98.5203 44.3368 97.3882 42.3679 96.3053C37.101 93.4011 33.3354 89.0695 30.5051 83.8764C29.4468 81.9321 28.2408 80.0124 27.4779 77.9451C25.4105 72.4567 25.1152 66.7222 25.5336 60.9385C26.0504 53.7273 27.4779 46.6638 29.7914 39.8218C29.9883 39.2311 29.8898 38.8619 29.5453 38.2713C28.9054 37.2376 28.3393 36.0562 28.8561 34.7026C30.3082 30.8878 31.588 27.0238 33.237 23.2828C35.0828 19.0742 37.1256 14.9149 39.316 10.8786C41.0388 7.70371 43.0816 4.72571 45.0013 1.64927C45.4689 0.910922 46.1827 0.689419 46.9702 0.640195C49.136 0.467915 51.2772 0.221799 53.4431 0.172576C63.9522 -0.147374 74.4613 -0.147374 84.9212 1.2801C89.0806 1.84616 93.2153 2.68296 97.3254 3.47053C104.291 4.79955 110.936 7.2607 117.63 9.52496C120.313 10.4356 122.872 11.8385 124.718 14.1027C126.736 16.5393 127.524 19.2957 126.835 22.5691C126.072 26.1624 125.703 29.8295 125.21 33.472C124.521 38.6896 123.906 43.9073 123.168 49.1003C123.02 50.0848 122.429 51.02 122.011 51.9553C121.149 53.8257 120.313 55.6962 120.116 57.8128C119.993 59.2157 119.599 60.5939 119.328 61.9968C117.63 71.1031 117.261 80.2832 117.999 89.5125C118.196 91.949 118.27 94.4102 118.122 96.8221C117.876 101.178 115.661 104.378 111.822 106.445C108.179 108.39 104.217 109.325 100.156 109.989C99.3928 110.112 98.6299 110.211 97.8669 110.309C96.5871 110.482 96.5871 110.482 96.7102 111.811C96.9317 114.247 97.5962 116.561 98.6545 118.751C99.6143 120.794 100.623 122.812 101.829 124.732C105.226 130.122 109.016 135.241 113.249 140.015C114.381 141.295 115.809 142.083 116.941 143.289C117.089 143.461 117.507 143.461 117.778 143.461C119.894 143.363 121.962 143.584 123.758 144.741C124.767 145.282 125.53 146.193 126.392 147.005ZM190.579 126.602C190.431 126.651 190.308 126.725 190.16 126.774C186.69 127.636 183.17 128.374 179.602 127.857C175.196 127.217 170.84 126.356 166.484 125.396C161.882 124.387 157.599 122.221 152.849 121.778C152.381 121.729 151.914 121.581 151.422 121.458C151.126 124.338 150.659 123.969 153.341 125.027C153.587 125.125 153.858 125.224 154.129 125.298C157.476 126.208 160.799 127.094 164.146 128.005C164.884 128.202 165.622 128.374 166.361 128.546C166.361 128.62 166.336 128.719 166.336 128.793C163.629 128.965 160.922 128.866 158.264 128.473C155.556 128.079 152.874 127.463 150.388 126.085C150.068 126.75 149.797 127.316 149.527 127.907C148.665 129.826 148.862 130.688 150.413 132.066C150.831 132.435 151.249 132.829 151.766 133.05C153.71 133.936 155.606 134.97 157.648 135.536C162.546 136.914 167.542 138.022 172.489 139.277C174.015 139.671 175.541 140.065 177.042 139.154C177.239 139.031 177.51 139.006 177.756 138.982C181.472 138.465 184.918 139.351 187.945 141.492C188.979 142.23 189.717 143.387 190.603 144.347C190.209 144.544 189.988 144.593 189.791 144.544C188.314 144.027 186.764 143.609 185.361 142.969C183.318 142.034 181.251 141.418 179.011 141.492C176.501 141.591 174.876 143.092 173.178 144.987C173.744 144.987 174.089 144.962 174.409 144.987C176.87 145.135 179.159 145.701 181.054 147.423C183.146 149.319 185.509 150.721 188.413 150.992C189.693 151.115 190.874 151.534 191.858 152.42C192.547 153.035 193.212 153.699 193.877 154.315C197.051 157.268 198.676 160.935 198.897 165.218C199.02 167.802 199.045 170.411 199.266 172.995C199.709 178.237 201.481 182.938 205.222 186.753C206.232 187.786 207.487 188.697 208.766 189.386C210.563 190.371 212.188 189.878 213.369 188.205C213.96 187.368 214.452 186.482 215.042 185.645C216.888 183.012 219.103 180.797 222.278 179.861C223.09 179.615 223.952 179.591 224.887 179.443C220.285 176.465 217.282 172.158 214.304 167.826C212.68 165.464 211.055 163.101 209.333 160.788C206.65 157.219 203.82 153.798 199.783 151.583C198.996 151.14 198.257 150.623 197.494 150.131C197.839 149.909 198.134 149.86 198.43 149.86C200.325 149.86 201.974 150.451 203.524 151.534C206.281 153.478 208.373 156.038 210.342 158.696C213.147 162.461 215.756 166.374 218.513 170.165C220.383 172.749 222.401 175.259 225.109 177.007C227.767 178.754 230.474 180.428 233.304 181.904C237.98 184.341 242.78 184.119 247.48 181.83C250.36 180.428 252.723 178.36 254.372 175.653C257.03 171.223 259.516 166.719 261.952 162.19C262.469 161.231 262.567 160.049 262.912 158.819C262.149 158.991 261.706 159.065 261.263 159.188C253.412 161.231 245.61 160.64 237.907 158.499C233.206 157.194 229.194 154.585 225.625 151.263C216.544 142.772 212.68 132.435 214.673 120.055C214.87 118.8 215.165 117.545 215.412 116.29C211.917 120.055 207.733 122.763 203.229 125.052C203.278 124.805 203.352 124.633 203.5 124.485C205.936 121.926 208.299 119.317 210.809 116.856C216.052 111.761 219.989 105.781 222.918 99.111C226.339 91.3337 228.259 83.2365 228.062 74.7209C227.963 70.4632 227.397 66.2792 225.059 62.5382C224.493 61.6276 224.001 60.6431 223.509 59.6833C221.294 55.2532 218.562 51.1923 215.362 47.4268C211.695 43.0951 207.314 39.9694 201.605 38.9604C198.134 38.3451 194.639 38.2466 191.169 38.6404C186.419 39.1819 181.669 39.9202 176.944 40.6832C171.874 41.4954 166.951 41.1754 162.325 38.7635C161.808 38.4928 161.266 38.2713 160.7 38.0744C158.436 37.2622 156.221 37.3114 154.227 38.6897C152.701 39.7479 151.348 41.0031 149.92 42.1845C149.748 42.3322 149.625 42.529 149.379 42.849C152.972 42.2091 156.122 42.8982 159.051 44.6949C161.709 46.3685 164.17 48.2143 165.647 51.1677C166.607 53.0874 167.985 54.8348 168.822 56.8037C172.514 65.467 173.966 74.5733 173.793 83.9503C173.67 90.6938 171.948 97.019 168.92 102.975C166.312 108.07 162.792 112.45 158.608 116.339C157.722 117.176 156.787 117.963 155.778 118.849C156.147 118.923 156.369 118.997 156.615 119.022C161.635 119.194 166.681 119.539 171.702 119.514C179.774 119.465 187.231 117.053 193.778 112.401C197.273 109.94 200.325 106.864 203.573 104.058C203.992 103.689 204.386 103.295 204.804 102.901C204.878 103.27 204.804 103.541 204.706 103.763C203.254 106.864 201.481 109.768 198.848 112.007C191.661 118.111 183.343 121.458 173.966 122.172C171.578 122.344 169.191 122.369 166.779 122.443C174.532 124.855 182.58 125.421 190.579 126.602ZM31.5388 36.4746C32.5725 36.77 33.5569 37.0653 34.5168 37.336C36.9041 38.0251 39.2914 38.8865 41.728 39.4034C45.7643 40.2648 49.8498 40.9539 53.9353 41.6184C67.324 43.8335 80.7865 45.5317 94.2736 46.9345C102.395 47.7713 110.468 48.8788 118.565 49.8879C120.091 50.0848 120.116 50.134 120.313 48.5589C121.346 39.6495 122.355 30.7647 124.201 21.9784C124.497 20.6002 124.029 18.9512 123.512 17.5729C122.552 15.0133 120.288 13.6597 117.901 12.7737C114.037 11.3216 110.099 10.0418 106.136 8.78662C97.7438 6.12857 89.1298 4.4796 80.3681 3.61819C72.0986 2.7814 63.8291 2.7814 55.535 2.95368C52.9508 3.0029 50.3666 3.27363 47.7578 3.4213C47.0687 3.47052 46.7241 3.76586 46.4288 4.35654C45.0751 7.0392 43.8692 9.79569 42.2448 12.3061C40.2759 15.3579 38.6515 18.5574 37.1256 21.8553C35.009 26.5562 32.9909 31.3062 31.5388 36.4746ZM145.663 183.922C145.761 184.907 145.909 185.694 145.884 186.482C145.564 194.333 145.195 202.16 144.9 210.011C144.801 212.964 144.85 215.942 144.85 218.92C144.85 219.166 144.998 219.461 145.17 219.658C145.81 220.421 146.622 220.52 147.681 219.904C149.034 219.092 150.339 218.206 151.692 217.394C154.104 215.917 156.615 215.77 159.125 217.025C160.528 217.739 161.832 218.649 163.087 219.585C165.819 221.676 168.699 222.366 172.046 221.11C173.818 220.421 175.689 219.929 177.559 219.535C181.349 218.748 184.967 219.068 188.339 221.258C189.717 222.169 191.292 222.784 192.794 223.547C195.673 224.974 198.676 225.344 201.801 224.581C208.299 223.006 214.304 220.347 219.571 216.188C222.106 214.195 223.41 211.389 224.198 208.337C224.223 208.263 224.149 208.165 224.198 208.337C222.204 207.574 220.26 207.057 218.562 206.097C210.932 201.84 205.149 195.711 201.063 188.057C199.833 185.744 199.168 183.11 198.208 180.624C197.273 178.139 196.682 175.604 196.51 172.97C196.362 170.288 196.313 167.605 196.141 164.922C195.895 161.501 194.541 158.597 192.006 156.284C191.834 156.136 191.637 156.013 191.366 155.841C190.603 158.671 188.61 160.418 186.444 162.018C185.902 162.412 185.312 162.756 184.77 163.175C184.524 163.372 184.204 163.642 184.155 163.913C183.638 166.62 182.334 168.959 180.562 171.026C179.208 172.576 177.854 174.152 176.279 175.505C173.006 178.286 168.97 179.345 164.835 179.911C161.045 180.452 157.205 180.624 153.391 181.067C150.511 181.338 147.828 182.224 145.663 183.922ZM86.4964 156.997C86.4471 156.85 86.4471 156.8 86.4471 156.8C85.4873 156.407 84.5028 156.013 83.543 155.594C75.4458 152.149 68.8991 146.661 63.3369 139.991C61.5649 137.874 60.2112 135.413 58.7345 133.075C58.2177 132.263 58.5376 131.327 59.2268 130.958C59.8913 130.589 60.7035 130.934 61.1957 131.82C61.491 132.361 61.7618 132.927 62.0817 133.444C68.4561 143.141 76.8732 150.328 87.8746 154.216C90.1143 155.004 92.3785 155.767 94.7166 156.259C98.113 156.997 101.583 157.49 105.029 158.08C105.25 158.129 105.62 158.08 105.743 157.933C107.269 156.333 108.745 154.635 109.139 152.395C109.533 150.032 109.631 147.62 109.877 145.233C109.951 144.593 109.73 144.298 109.114 144.101C105.939 143.067 103.011 141.517 100.402 139.449C98.0884 137.603 95.898 135.585 93.6091 133.69C89.3021 130.122 84.9704 126.577 80.6634 123.009C79.1375 121.754 77.9315 120.228 77.144 118.406C76.9963 118.062 76.9225 117.693 76.7994 117.348C76.8732 117.274 76.9471 117.2 77.0455 117.127C78.3992 117.914 79.7774 118.702 81.1803 119.514C81.1803 119.416 81.2049 119.317 81.1803 119.243C80.2204 115.97 78.5222 113.164 76.2333 110.629C75.6919 110.014 75.1012 109.669 74.2644 109.571C69.9574 109.029 65.8965 107.651 61.934 105.953C60.7527 105.436 59.5221 105.042 58.1931 104.55C57.7009 105.756 57.2825 106.864 56.8148 107.971C55.7073 110.531 54.526 113.041 53.5169 115.625C49.0622 127.094 46.1334 139.006 43.7953 151.066C42.8109 156.161 41.8018 161.255 40.8173 166.35C40.7435 166.768 40.6451 167.236 40.7435 167.63C40.8666 168.048 41.1619 168.565 41.5065 168.737C42.8847 169.328 44.3368 169.771 45.7643 170.337C46.4042 170.583 46.7733 170.411 47.1425 169.869C49.136 166.965 51.3265 164.184 52.7047 160.911C52.9754 160.271 53.4923 159.951 54.1814 160.049C54.9198 160.148 55.2889 160.664 55.3874 161.378C55.4366 161.747 55.412 162.117 55.4366 162.486C55.4858 164.898 55.5104 167.31 55.5843 169.722C55.6827 172.626 55.6827 172.798 58.5623 173.389C61.6633 174.004 64.8382 174.472 68.0131 174.644C75.2981 174.988 82.4601 174.25 89.3267 171.543C91.7878 170.558 94.249 169.525 96.7102 168.54C98.0884 167.999 98.113 168.048 97.7684 166.571C97.6946 166.301 97.6454 166.03 97.5962 165.759C97.3254 163.864 97.1039 161.969 96.8086 160.074C96.7594 159.754 96.464 159.262 96.2179 159.212C94.692 158.892 93.1415 158.646 91.5171 158.376C91.4679 159.212 91.4187 159.951 91.3448 160.689C91.1479 162.904 90.385 163.741 88.2684 164.455C83.6168 166.054 78.7929 166.571 73.9445 166.867C72.5908 166.965 71.1634 166.744 69.8343 166.448C67.7424 166.005 66.5364 164.553 66.1426 162.486C65.9211 161.304 65.8965 160.049 65.8473 158.843C65.798 157.662 66.2164 157.219 67.3978 157.145C68.333 157.096 69.2437 157.12 70.1789 157.12C75.052 157.12 79.9497 157.145 84.8228 157.145C85.3888 157.096 85.9303 157.047 86.4964 156.997ZM118.811 52.226C118.393 52.1522 118.122 52.0783 117.851 52.0537C112.757 51.5615 107.638 51.0446 102.543 50.5524C99.8358 50.3063 97.1285 50.134 94.4213 49.8387C93.2891 49.7156 92.3539 49.7895 91.6648 50.7985C91.2464 51.4384 90.7788 52.0537 90.385 52.7182C89.6712 53.9734 89.0313 55.2778 88.293 56.533C85.315 61.4799 82.3124 66.4269 79.3344 71.3738C78.6699 72.4567 78.0792 73.5888 77.3901 74.6471C76.8486 75.5085 76.2087 75.6562 75.3473 75.1393C74.609 74.6963 73.9445 74.1303 73.2307 73.6873C71.8771 72.8505 70.5727 71.8168 69.1206 71.2507C66.3395 70.1432 63.4353 70.2663 60.5558 71.0784C52.877 73.2196 49.7267 81.0461 53.8615 87.7158C54.8705 89.3402 56.2242 90.6692 58.1685 90.9892C60.6789 91.4076 63.2384 91.6783 65.798 91.2107C66.1426 91.1368 66.5364 91.2107 66.9056 91.2353C66.8071 91.7029 66.7825 92.1951 66.5856 92.6135C66.3887 92.9827 66.0442 93.3027 65.6996 93.5488C64.0506 94.804 62.4509 96.133 60.7035 97.2159C58.8822 98.3234 56.9133 99.1848 55.0182 100.169C55.412 100.391 55.9042 100.735 56.4457 100.932C59.8174 102.212 63.1646 103.541 66.5856 104.698C68.9237 105.485 71.311 106.174 73.7476 106.568C79.1129 107.479 84.5274 107.947 89.9912 107.848C96.0703 107.75 102.075 107.085 107.859 105.018C113.2 103.098 115.316 100.169 115.267 94.5086C115.243 92.5889 115.144 90.6692 114.997 88.7741C114.504 81.9814 114.48 75.1886 115.366 68.4204C116.055 62.932 116.867 57.5175 118.811 52.226ZM59.8421 94.2625C58.7345 94.0656 57.7993 93.9672 56.9379 93.6964C56.0765 93.4011 55.2151 93.0073 54.4275 92.5151C48.5454 88.7003 47.2656 78.6588 51.9418 73.0966C54.5506 69.9709 58.0208 68.3219 61.9586 67.7805C67.0779 67.0668 71.8279 67.8297 75.4212 72.1121C75.495 72.186 75.5934 72.2598 75.5688 72.2352C77.7839 68.3219 79.8512 64.3595 82.2632 60.5939C84.6751 56.853 86.4964 52.6936 89.9912 49.4695C70.6219 47.5252 51.6956 44.3995 32.8186 40.4371C32.7201 40.6832 32.6217 40.9785 32.5232 41.2492C30.9727 45.8762 29.9636 50.6016 29.2499 55.4009C28.1916 62.5136 27.8224 69.5771 30.8004 76.4438C32.351 80.0124 34.123 83.4088 36.658 86.3868C40.8173 91.3091 45.8381 95.1978 51.3019 98.5203C51.5972 98.7172 52.2125 98.6926 52.5324 98.4957C54.7229 97.2897 56.8887 96.0345 59.0545 94.7794C59.276 94.6563 59.4729 94.484 59.8421 94.2625ZM148.468 61.7753C148.37 61.9229 148.321 61.9968 148.296 62.0952C146.524 67.8297 144.604 73.515 143.004 79.2987C141.528 84.6394 139.362 89.734 137.245 94.8286C136.433 96.7975 135.719 98.8157 135.227 100.883C133.972 106.15 135.744 110.358 140.297 112.967C143.029 114.542 146.007 115.773 148.887 117.102C150.905 118.037 152.849 117.52 154.424 116.191C160.774 110.9 165.869 104.722 168.428 96.6744C170.028 91.6291 171.357 86.5837 170.988 81.243C170.939 80.6277 170.742 79.9878 170.422 79.4464C168.699 76.493 166.336 74.0318 163.998 71.5461C159.691 66.9683 154.424 63.8919 148.468 61.7753ZM52.7785 166.645C51.3757 168.639 50.0959 170.411 48.8653 172.232C48.7423 172.404 48.8161 172.823 48.9391 173.069C49.4068 174.152 49.9728 175.185 50.4158 176.268C55.092 187.786 59.5959 199.354 63.46 211.167C63.6815 211.832 63.9768 212.078 64.6905 212.053C67.3978 211.955 70.1297 211.93 72.837 211.881C73.6245 211.856 74.6828 212.127 75.1504 211.733C75.6919 211.29 75.6919 210.232 75.9626 209.42C79.4821 198.517 83.0261 187.614 86.5456 176.687C86.6686 176.293 86.7671 175.899 86.9148 175.382C86.4225 175.505 86.078 175.579 85.758 175.678C80.122 177.105 74.3875 177.745 68.5792 177.523C64.5429 177.351 60.5066 176.982 56.5933 175.801C54.206 175.087 53.0985 173.143 53.0247 171.075C52.9754 169.672 52.877 168.269 52.7785 166.645ZM190.209 154.561C189.053 154.118 188.117 153.626 187.084 153.404C184.943 152.936 182.998 152.124 181.423 150.598C179.7 148.925 177.608 148.063 175.319 147.743C174.113 147.571 172.735 147.67 171.603 148.088C169.486 148.9 167.518 150.155 165.426 151.041C158.288 154.069 150.88 155.225 142.98 154.019C142.512 156.259 141.995 158.572 141.552 160.911C141.528 161.083 141.823 161.452 142.045 161.55C143.62 162.313 145.17 163.199 146.819 163.766C157.599 167.334 168.305 166.62 178.913 162.929C183.417 161.354 186.911 158.376 190.209 154.561ZM140.519 184.488C141.355 183.824 142.365 183.012 143.349 182.2C146.622 179.492 150.536 178.483 154.646 178.065C158.608 177.671 162.595 177.351 166.508 176.736C169.905 176.194 172.981 174.816 175.615 172.453C177.658 170.608 178.913 168.22 180.512 166.079C180.66 165.882 180.66 165.587 180.709 165.365C167.764 169.672 154.941 170.484 142.217 164.947C140.346 169.746 139.46 181.141 140.519 184.488ZM156.541 146.144C156.565 146.217 156.59 146.316 156.615 146.39C156.492 146.488 156.393 146.636 156.27 146.71C152.357 148.605 148.321 149.958 143.866 149.343C143.62 149.319 143.201 149.515 143.078 149.712C142.808 150.106 143.62 151.411 144.112 151.435C145.441 151.534 146.77 151.657 148.099 151.681C155.384 151.854 162.128 149.835 168.576 146.611C169.388 146.217 169.905 145.553 170.422 144.765C171.234 143.486 172.341 142.378 173.35 141.197C173.523 141 173.744 140.852 174.113 140.508C165.032 140.705 156.565 139.179 148.69 134.379C148.616 134.502 148.468 134.749 148.296 134.945C146.942 136.496 145.539 138.046 144.21 139.622C143.644 140.286 143.103 140.951 142.66 141.689C141.774 143.19 141.774 144.765 142.635 146.267C142.783 146.537 143.226 146.833 143.546 146.833C144.924 146.857 146.327 146.784 147.705 146.71C150.634 146.562 153.587 146.365 156.541 146.144ZM170.865 78.142C170.865 77.8466 170.865 77.6743 170.865 77.5021C170.619 72.6044 169.437 67.8789 168.207 63.1535C167.099 58.8711 164.958 55.0317 162.94 51.1431C161.512 48.4112 159.1 46.8115 156.467 45.4578C155.679 45.064 155.163 45.2117 154.695 45.9254C154.203 46.6638 153.612 47.3529 153.144 48.1159C151.348 51.0693 150.093 54.2441 149.256 57.5913C148.936 58.8465 148.911 58.8465 150.093 59.2895C153.735 60.6431 157.181 62.3413 160.331 64.6056C165.032 68.002 169.167 71.8906 170.692 77.7974C170.692 77.8958 170.766 77.9697 170.865 78.142ZM93.6583 172.724C92.7477 173.118 91.7878 173.487 90.9018 173.955C90.5573 174.127 90.2127 174.496 90.1143 174.841C86.7671 184.931 83.4691 195.022 80.1466 205.138C79.679 206.54 79.3098 207.943 78.8914 209.371C80.2696 209.371 81.5248 209.346 82.78 209.371C83.3461 209.371 83.5676 209.149 83.7153 208.608C85.3642 202.233 86.9886 195.859 88.736 189.509C90.3111 183.922 92.0093 178.385 93.6583 172.724ZM96.5133 120.4C96.4886 120.523 96.464 120.646 96.464 120.769C96.6117 124.412 96.7348 128.054 96.9316 131.672C96.9809 132.509 97.2762 133.223 97.9653 133.838C101.632 137.185 105.915 139.671 110.025 142.427C110.099 142.477 110.197 142.477 110.32 142.501C110.419 142.255 110.493 142.034 110.591 141.812C110.714 141.566 110.837 141.32 110.985 141.098C105.373 134.724 100.205 128.103 96.5133 120.4ZM82.0171 218.969C81.7463 218.625 81.5987 218.28 81.3279 218.108C79.7036 217 78.0792 215.893 76.381 214.908C75.8149 214.588 75.052 214.515 74.3875 214.539C71.4587 214.638 68.5299 214.859 65.6012 214.908C64.6905 214.933 64.346 215.376 64.1245 216.065C63.9522 216.557 63.903 217.099 63.8783 217.616C63.8045 218.92 64.1245 219.388 65.355 219.831C65.6996 219.954 66.0688 220.077 66.4133 220.151C71.3356 221.283 76.1841 220.766 80.9834 219.486C81.3033 219.412 81.5987 219.191 82.0171 218.969ZM115.759 158.892C117.581 160.025 119.673 160.32 121.912 159.828C124.964 159.139 126.342 157.613 126.613 154.487C126.785 152.518 126.047 151.238 124.127 150.844C121.986 150.426 119.82 150.278 117.827 150.032C117.138 153.084 116.449 155.914 115.759 158.892ZM152.431 44.498C149.576 44.4487 147.336 45.3102 145.909 47.7713C144.235 50.6262 143.398 53.7273 142.881 56.9514C142.242 61.0615 142.832 65.147 142.98 69.2326C142.98 69.3802 143.078 69.5279 143.177 69.8479C143.349 69.2818 143.497 68.9126 143.595 68.5188C144.653 64.7533 145.589 60.9385 146.795 57.1975C147.754 54.1703 148.911 51.2169 150.142 48.2882C150.683 47.0084 151.618 45.8516 152.431 44.498ZM79.4328 110.309C79.6051 110.58 79.679 110.752 79.802 110.9C81.4264 112.918 82.6323 115.182 83.2476 117.717C83.4445 118.505 83.7891 118.751 84.6013 118.579C85.7334 118.357 86.7671 118.579 87.3824 119.686C86.8163 120.4 86.8901 120.4 87.1855 121.311C87.5793 122.467 87.85 123.673 88.1945 124.855C88.2684 125.101 88.4653 125.372 88.6868 125.519C89.8928 126.258 91.1479 126.947 92.3539 127.685C93.043 128.079 93.6829 128.522 94.4705 129.039C94.3721 127.513 94.2982 126.159 94.1998 124.805C94.1752 124.609 94.0275 124.412 93.929 124.239C90.7049 119.44 86.9394 115.133 82.6323 111.269C81.6971 110.408 80.688 110.309 79.4328 110.309ZM68.5299 159.655C68.6038 162.904 69.5636 163.913 72.6401 163.962C73.5753 163.987 74.4859 163.913 75.4212 163.839C76.381 163.766 77.3409 163.716 78.2761 163.544C81.5494 162.953 84.8228 162.313 88.0961 161.723C88.8591 161.575 89.2282 161.132 89.2529 160.369C89.2775 159.828 89.2529 159.286 89.2529 158.696C82.4108 160.492 75.4704 159.582 68.5299 159.655ZM141.208 151.115C140.494 150.032 139.387 149.343 138.107 148.925C136.925 148.556 136.236 148.851 136.113 150.082C135.99 151.189 136.113 152.346 136.31 153.453C136.605 155.127 136.335 155.914 134.907 156.825C134.464 157.096 133.997 157.367 133.603 157.711C132.84 158.376 132.938 158.892 133.849 159.286C134.341 159.483 134.858 159.631 135.301 159.877C136.212 160.345 136.532 161.452 136.064 162.338C135.842 162.732 135.523 163.076 135.301 163.495C135.03 163.987 134.858 164.504 134.612 165.021C135.252 165.07 135.892 165.193 136.532 165.119C136.975 165.07 137.393 164.775 137.787 164.578C138.427 164.233 139.067 163.864 139.756 163.47C138.648 162.535 138.55 161.329 138.845 160.025C139.362 157.736 139.879 155.447 140.42 153.158C140.617 152.469 140.912 151.878 141.208 151.115ZM112.289 146.956C112.289 151.115 111.576 154.93 109.016 158.326C109.877 158.548 110.616 158.72 111.305 158.942C112.092 159.188 112.535 158.892 112.806 158.179C114.061 155.127 114.873 151.977 114.775 148.654C114.775 148.383 114.652 147.99 114.455 147.891C113.815 147.547 113.101 147.3 112.289 146.956ZM127.548 158.597C128.631 159.483 129.739 160.074 131.166 160.32C130.379 158.105 130.773 156.825 132.569 155.521C132.865 155.299 133.184 155.102 133.504 154.905C134.12 154.512 134.194 153.133 133.529 152.887C132.274 152.42 130.945 152.124 129.616 151.829C129.443 151.804 128.976 152.247 128.976 152.444C129.124 154.61 128.557 156.604 127.548 158.597ZM80.9588 211.783C79.9743 211.783 79.2852 211.758 78.6207 211.807C78.4484 211.807 78.2023 211.98 78.153 212.103C78.1038 212.25 78.2269 212.496 78.3499 212.619C78.5222 212.792 78.7683 212.866 78.9898 212.989C80.7865 214.022 82.5831 215.081 83.9121 216.73C84.8474 217.886 84.8228 217.911 86.201 217.345C86.4471 217.246 86.6932 217.099 86.964 217C87.6777 216.705 87.85 216.213 87.3085 215.647C86.5948 214.884 85.8565 214.145 85.0935 213.432C83.8383 212.25 82.5339 211.266 80.9588 211.783ZM165.573 224.285C164.146 223.424 162.768 222.636 161.414 221.775C160.651 221.307 159.962 220.717 159.223 220.224C159.027 220.101 158.608 219.978 158.51 220.077C157.55 221.012 156.664 221.996 155.581 223.129C159.002 224.285 162.275 224.236 165.573 224.285ZM94.0029 119.932C94.0767 119.908 94.1752 119.908 94.249 119.883C94.249 116.954 94.249 114.001 94.249 111.023C92.6985 112.574 92.0586 114.542 91.5663 116.585C91.5417 116.684 91.591 116.831 91.6402 116.93C92.4277 117.939 93.2153 118.923 94.0029 119.932ZM85.9057 110.752C87.4316 112.18 88.8591 113.484 90.2127 114.739C90.7049 113.558 91.271 112.155 91.8371 110.752C89.8928 110.752 87.973 110.752 85.9057 110.752ZM124.177 147.891C122.478 145.504 119.968 145.627 117.556 145.381C117.433 145.701 117.236 145.971 117.285 146.144C117.433 146.611 117.655 147.399 117.925 147.448C119.968 147.67 122.035 147.743 124.177 147.891ZM133.529 150.131C134.07 148.826 134.021 148.482 132.668 148.039C131.708 147.719 130.6 147.645 129.591 147.694C128.607 147.743 128.336 148.285 128.484 149.146C130.206 149.491 131.855 149.811 133.529 150.131ZM139.116 144.199C136.802 143.707 135.966 144.298 136.039 146.291C137.319 146.537 138.574 146.808 139.756 147.03C139.534 146.094 139.337 145.159 139.116 144.199ZM115.218 145.774C115.883 144.347 115.538 143.732 113.717 143.067C113.471 143.683 113.224 144.273 112.929 144.987C113.741 145.282 114.455 145.528 115.218 145.774ZM83.1492 121.384C83.8629 121.975 84.552 122.566 85.3396 123.255C84.7489 120.769 84.3798 120.671 83.1492 121.384Z" fill="#5C1B1F"/>
<path d="M196.239 43.489C196.239 43.489 196.387 43.4644 196.658 43.4151C196.928 43.3905 197.347 43.3413 197.864 43.3413C198.38 43.3413 199.02 43.3413 199.734 43.4398C200.448 43.5382 201.26 43.6366 202.121 43.8828C202.983 44.1043 203.918 44.3996 204.878 44.818C205.001 44.8672 205.124 44.9165 205.247 44.9657C205.37 45.0149 205.493 45.0887 205.592 45.1379C205.838 45.261 206.084 45.3595 206.305 45.4825C206.773 45.7532 207.265 45.9994 207.757 46.3193C208.717 46.91 209.653 47.6237 210.563 48.3867C211.449 49.1743 212.311 50.011 213.098 50.9463C213.295 51.1678 213.492 51.4139 213.689 51.6354L214.23 52.3491C214.599 52.8168 214.919 53.309 215.239 53.8012C215.584 54.2935 215.855 54.7857 216.15 55.3025C216.298 55.5486 216.445 55.7948 216.568 56.0409C216.691 56.287 216.815 56.5577 216.938 56.8038C217.061 57.0499 217.184 57.2961 217.307 57.5422C217.43 57.7883 217.528 58.0344 217.627 58.2805C217.725 58.5266 217.824 58.7728 217.947 59.0189C218.045 59.265 218.144 59.4865 218.242 59.7326C218.414 60.2002 218.587 60.6678 218.734 61.1355C218.882 61.5785 219.005 62.0461 219.128 62.4645C219.251 62.8829 219.374 63.3013 219.473 63.6951C219.571 64.0889 219.645 64.458 219.719 64.8026C219.793 65.1472 219.866 65.4671 219.94 65.7871C219.989 66.0824 220.039 66.3777 220.063 66.6239C220.137 67.1407 220.186 67.5345 220.236 67.8052C220.26 68.0759 220.285 68.2236 220.285 68.2236C220.285 68.2236 220.236 68.1005 220.112 67.8298C220.014 67.5837 219.842 67.2145 219.669 66.7223C219.571 66.4762 219.473 66.2301 219.374 65.9347C219.251 65.664 219.128 65.3441 218.98 65.0241C218.833 64.7042 218.71 64.3596 218.537 63.9904C218.39 63.6212 218.217 63.2521 218.045 62.8583C217.873 62.4645 217.701 62.0461 217.479 61.6277C217.282 61.2093 217.061 60.7909 216.839 60.3479C216.642 59.9049 216.372 59.4619 216.15 59.0189C216.027 58.7974 215.904 58.5513 215.781 58.3298C215.658 58.1082 215.51 57.8867 215.387 57.6406C215.264 57.4191 215.116 57.173 214.993 56.9515C214.87 56.7054 214.698 56.4839 214.55 56.2624C214.255 55.7948 213.96 55.3271 213.64 54.8841C213.32 54.4411 213 53.9735 212.655 53.5305L212.138 52.866C211.966 52.6445 211.769 52.4476 211.597 52.2261C211.425 52.0046 211.252 51.7831 211.055 51.5862L210.489 50.9709L210.194 50.6756L209.899 50.3802C209.702 50.1833 209.505 49.9864 209.308 49.8141C209.111 49.6173 208.89 49.445 208.693 49.2727C208.496 49.1004 208.299 48.9035 208.077 48.7559C207.856 48.5836 207.659 48.4113 207.438 48.2636C207.216 48.0913 207.019 47.9437 206.798 47.796C206.379 47.4761 205.936 47.2053 205.518 46.9346C205.296 46.8115 205.075 46.6639 204.878 46.5408C204.779 46.467 204.656 46.4177 204.558 46.3439C204.46 46.2947 204.336 46.2209 204.238 46.1716C203.401 45.704 202.564 45.3102 201.777 44.9903C201.58 44.9164 201.383 44.8426 201.186 44.7688C200.989 44.6949 200.817 44.6457 200.62 44.5719C200.251 44.4488 199.906 44.3258 199.562 44.2273C198.897 44.0304 198.307 43.8828 197.814 43.7843C197.322 43.6859 196.928 43.612 196.658 43.5874C196.387 43.489 196.239 43.489 196.239 43.489Z" fill="white"/>
<path d="M219.423 147.645C219.423 147.645 219.522 147.768 219.669 147.989C219.842 148.211 220.088 148.531 220.408 148.925C220.728 149.318 221.146 149.786 221.614 150.328C221.86 150.598 222.106 150.869 222.377 151.164C222.647 151.46 222.943 151.755 223.263 152.05C223.583 152.346 223.903 152.666 224.247 152.986C224.419 153.133 224.592 153.306 224.789 153.453C224.961 153.601 225.158 153.773 225.355 153.921C226.118 154.561 226.93 155.201 227.816 155.841C228.259 156.16 228.702 156.456 229.17 156.776C229.391 156.923 229.637 157.071 229.883 157.219C230.129 157.366 230.351 157.514 230.597 157.662C230.843 157.809 231.089 157.933 231.335 158.08C231.581 158.228 231.828 158.351 232.098 158.474C232.344 158.597 232.615 158.745 232.861 158.868C233.107 158.991 233.378 159.114 233.649 159.237C233.92 159.36 234.166 159.483 234.436 159.582C234.707 159.68 234.953 159.803 235.224 159.901C235.741 160.123 236.282 160.295 236.824 160.492C237.094 160.591 237.365 160.664 237.636 160.763C237.907 160.837 238.177 160.935 238.423 161.009C238.694 161.107 238.965 161.157 239.211 161.23C239.482 161.304 239.728 161.378 239.999 161.427C241.057 161.673 242.066 161.895 243.05 162.043C243.297 162.092 243.543 162.141 243.764 162.166C244.01 162.19 244.232 162.215 244.478 162.264C244.946 162.313 245.389 162.412 245.832 162.436C246.275 162.486 246.693 162.51 247.087 162.535C247.48 162.584 247.874 162.584 248.219 162.609C248.933 162.633 249.548 162.707 250.065 162.683C250.582 162.683 251 162.707 251.271 162.707C251.541 162.707 251.689 162.732 251.689 162.732C251.689 162.732 251.541 162.756 251.271 162.83C251 162.879 250.606 162.978 250.089 163.076C249.572 163.199 248.957 163.273 248.219 163.347C247.505 163.47 246.668 163.495 245.782 163.544C245.339 163.569 244.872 163.544 244.379 163.569C244.133 163.569 243.887 163.569 243.641 163.569C243.395 163.569 243.124 163.544 242.878 163.519C241.844 163.47 240.762 163.322 239.629 163.15C238.522 162.953 237.365 162.683 236.208 162.313C235.642 162.116 235.052 161.969 234.51 161.723C234.239 161.6 233.944 161.501 233.673 161.378C233.403 161.255 233.107 161.132 232.837 161.009C231.729 160.517 230.671 159.901 229.637 159.286C228.628 158.646 227.668 157.957 226.782 157.243C225.896 156.53 225.109 155.767 224.37 155.028C223.657 154.29 223.017 153.527 222.475 152.813C221.934 152.1 221.441 151.41 221.072 150.795C220.679 150.18 220.383 149.614 220.137 149.146C219.891 148.679 219.743 148.309 219.62 148.039C219.473 147.793 219.423 147.645 219.423 147.645Z" fill="white"/>
<path d="M195.845 182.446C195.845 182.446 196.042 182.889 196.362 183.652C196.682 184.415 197.174 185.498 197.765 186.753C198.061 187.393 198.38 188.082 198.75 188.795C199.094 189.509 199.488 190.248 199.906 191.01C200.325 191.773 200.743 192.561 201.211 193.324C201.678 194.112 202.171 194.875 202.663 195.637C203.18 196.4 203.697 197.139 204.263 197.853C204.533 198.197 204.804 198.566 205.099 198.886C205.247 199.058 205.37 199.231 205.518 199.378C205.665 199.551 205.813 199.698 205.936 199.871C206.084 200.018 206.207 200.191 206.355 200.338C206.502 200.486 206.65 200.634 206.798 200.781C206.945 200.929 207.068 201.077 207.216 201.224C207.364 201.372 207.511 201.495 207.659 201.643C207.807 201.766 207.93 201.913 208.077 202.036C208.225 202.16 208.373 202.283 208.496 202.406C208.643 202.529 208.767 202.652 208.914 202.775C209.037 202.898 209.185 202.996 209.333 203.095C209.603 203.316 209.849 203.538 210.12 203.71C210.366 203.907 210.612 204.079 210.859 204.252C211.326 204.571 211.745 204.842 212.089 205.064C212.434 205.261 212.729 205.433 212.926 205.556C213.123 205.679 213.221 205.728 213.221 205.728C213.221 205.728 213.098 205.704 212.877 205.654C212.655 205.605 212.335 205.531 211.941 205.408C211.548 205.261 211.055 205.113 210.514 204.891C210.243 204.768 209.948 204.645 209.653 204.498C209.357 204.375 209.062 204.178 208.717 204.005C208.57 203.907 208.397 203.833 208.225 203.735C208.077 203.636 207.905 203.538 207.733 203.415C207.561 203.316 207.388 203.193 207.241 203.095C207.068 202.972 206.921 202.849 206.748 202.726C206.576 202.603 206.404 202.479 206.232 202.356C206.059 202.233 205.887 202.086 205.739 201.938C205.567 201.79 205.395 201.643 205.222 201.495C205.05 201.347 204.903 201.2 204.73 201.027C204.558 200.88 204.386 200.707 204.238 200.56C204.09 200.387 203.918 200.215 203.746 200.043C203.598 199.871 203.426 199.698 203.254 199.526C203.106 199.354 202.958 199.157 202.786 198.985C202.466 198.615 202.195 198.246 201.9 197.853C201.605 197.459 201.334 197.065 201.063 196.671C200.546 195.859 200.029 195.047 199.586 194.21C199.463 194.013 199.365 193.792 199.242 193.595C199.143 193.373 199.045 193.176 198.922 192.955C198.7 192.536 198.528 192.118 198.356 191.7C197.987 190.863 197.691 190.051 197.421 189.288C197.15 188.5 196.928 187.762 196.731 187.073C196.559 186.384 196.387 185.744 196.288 185.178C196.165 184.612 196.092 184.095 196.042 183.701C195.969 183.282 195.944 182.963 195.919 182.741C195.845 182.569 195.845 182.446 195.845 182.446Z" fill="white"/>
<path d="M80.2451 9.40179C80.2451 9.40179 80.4174 9.40179 80.7373 9.37718C81.0573 9.35257 81.5495 9.32796 82.1402 9.32796C82.7555 9.32796 83.4938 9.30334 84.3306 9.32796C85.1674 9.35257 86.1273 9.37718 87.161 9.4264C88.1947 9.47563 89.3268 9.54946 90.5081 9.67252C91.6895 9.79558 92.9447 9.94324 94.2245 10.1401C95.5043 10.337 96.8333 10.5585 98.1869 10.8293C99.5406 11.1 100.894 11.4199 102.248 11.7891C103.601 12.1583 104.931 12.5767 106.235 13.0443C107.539 13.5119 108.795 14.0534 109.976 14.6441C111.157 15.2347 112.289 15.8746 113.298 16.5638C114.308 17.2529 115.194 18.0158 115.932 18.8034C116.67 19.5664 117.261 20.3785 117.704 21.1415C118.147 21.9045 118.393 22.6182 118.541 23.2335C118.615 23.5288 118.688 23.7995 118.688 24.0457C118.713 24.2918 118.762 24.4887 118.762 24.6363C118.762 24.9563 118.787 25.1286 118.787 25.1286C118.787 25.1286 118.738 24.9563 118.664 24.6363C118.59 24.3164 118.418 23.8734 118.196 23.3319C117.95 22.7905 117.581 22.1752 117.089 21.5353C116.596 20.8954 115.956 20.2309 115.194 19.6156C114.431 18.9757 113.52 18.385 112.535 17.8189C111.551 17.2529 110.443 16.7114 109.287 16.2192C108.13 15.727 106.899 15.2593 105.644 14.8409C104.389 14.4225 103.085 14.0288 101.78 13.6842C100.476 13.315 99.1468 12.9951 97.8424 12.6751C96.538 12.3798 95.2336 12.0845 93.9784 11.8383C92.7232 11.5922 91.4926 11.3461 90.3359 11.1246C89.1791 10.9031 88.0716 10.7062 87.0625 10.5339C85.0198 10.1894 83.3216 9.89402 82.1402 9.69713C80.9342 9.50024 80.2451 9.40179 80.2451 9.40179Z" fill="white"/>
<path d="M84.2322 129.999C84.2322 129.999 84.306 130.048 84.4537 130.146C84.5767 130.245 84.7982 130.392 85.0444 130.565C85.2905 130.737 85.6104 130.958 85.955 131.229C86.2995 131.475 86.6933 131.771 87.1117 132.066C87.5301 132.386 87.9977 132.706 88.4654 133.075C88.933 133.42 89.4498 133.789 89.9667 134.182C90.2374 134.379 90.4835 134.576 90.7542 134.773C91.025 134.97 91.2957 135.167 91.5664 135.364C92.1079 135.782 92.6739 136.176 93.24 136.57L93.6584 136.89L94.0768 137.185C94.3475 137.382 94.6429 137.579 94.9136 137.776C95.455 138.17 96.0211 138.539 96.5379 138.933C96.8087 139.129 97.0548 139.302 97.3255 139.474C97.5716 139.646 97.8424 139.843 98.0639 140.015C98.5561 140.36 99.0237 140.68 99.4421 141C99.8605 141.295 100.254 141.591 100.599 141.837C100.943 142.083 101.239 142.304 101.509 142.501C101.756 142.673 101.952 142.846 102.076 142.944C102.199 143.043 102.272 143.116 102.272 143.116C102.272 143.116 102.174 143.092 102.026 143.043C101.854 142.993 101.633 142.944 101.337 142.846C101.042 142.747 100.673 142.649 100.254 142.526C99.8359 142.403 99.3929 142.206 98.9006 142.009C98.4084 141.812 97.867 141.591 97.3255 141.32C96.7841 141.049 96.1934 140.778 95.6273 140.434C95.332 140.262 95.0366 140.089 94.7413 139.917C94.446 139.745 94.1506 139.572 93.8553 139.376C93.2646 138.982 92.6739 138.613 92.1079 138.194C91.5418 137.776 90.9511 137.357 90.4343 136.89C89.8928 136.447 89.376 136.004 88.8838 135.536C88.3915 135.093 87.9485 134.626 87.5055 134.182C87.0871 133.739 86.6933 133.321 86.3488 132.903C86.1765 132.706 86.0042 132.509 85.8565 132.312C85.7089 132.115 85.5612 131.943 85.4381 131.771C85.1674 131.426 84.9705 131.106 84.7982 130.86C84.4045 130.318 84.2322 129.999 84.2322 129.999Z" fill="white"/>
<path d="M78.8915 188.082C78.8915 188.082 78.8915 188.377 78.8915 188.894C78.8669 189.411 78.8423 190.125 78.7438 190.986C78.6454 191.847 78.4977 192.832 78.3008 193.89C78.2024 194.407 78.1039 194.948 77.9809 195.514C77.8578 196.056 77.7348 196.622 77.5871 197.163C77.4394 197.705 77.2918 198.271 77.1441 198.812C76.9964 199.354 76.8241 199.871 76.6519 200.388C76.3073 201.397 75.9627 202.356 75.6182 203.144C75.2982 203.932 74.9783 204.596 74.7322 205.064C74.486 205.507 74.3384 205.777 74.3384 205.777C74.3384 205.777 74.3384 205.482 74.3384 204.965C74.363 204.448 74.3876 203.735 74.486 202.873C74.5845 202.012 74.7322 201.027 74.9291 199.969C75.0275 199.452 75.126 198.911 75.249 198.345C75.3721 197.803 75.5197 197.237 75.6428 196.696C75.7905 196.154 75.9381 195.588 76.0858 195.047C76.2335 194.505 76.4058 193.989 76.578 193.472C76.9226 192.463 77.2672 191.503 77.6117 190.715C77.9317 189.928 78.2516 189.263 78.4977 188.796C78.7438 188.328 78.8915 188.082 78.8915 188.082Z" fill="white"/>
</svg>
