<svg width="154" height="56" viewBox="0 0 154 56" fill="none" xmlns="http://www.w3.org/2000/svg">
<path d="M4.71451 45.0426L20.0746 53.9113C22.7757 55.4716 27.1769 55.4716 29.8706 53.9113L45.0983 44.9985C47.7994 43.4382 49.8454 39.6037 49.8454 36.4904V18.6279C49.8454 17.6564 49.7866 16.6187 49.4112 15.603C48.7635 18.2599 48.4029 20.9684 47.8509 23.6474C47.4314 25.6787 47.0487 27.7763 46.2464 29.6972C45.562 31.3385 44.6125 33.3698 42.6475 33.7525C40.5352 34.1647 38.8424 33.1343 37.7825 31.3458L33.1679 11.4814C32.6233 14.6977 24.0195 10.1935 23.0848 13.3214C22.4077 15.5883 20.1776 18.9812 18.2273 20.5341C15.6881 22.5581 14.9742 23.9123 13.0753 21.4173L0.00412094 19.5479V36.4904C-0.10623 40.0011 2.01342 43.4823 4.71451 45.0426Z" fill="white"/>
<path d="M28.1999 30.0137C28.1336 29.263 28.0674 28.5123 27.9791 27.7616C27.9423 27.4083 27.8981 27.0624 27.854 26.7091C27.8319 26.5766 27.8172 26.4368 27.7951 26.3043C27.6037 25.031 27.3829 23.7578 27.0885 22.5066C27.0076 22.146 26.9119 21.7853 26.8162 21.4247C26.8015 21.4615 26.7868 21.5056 26.7794 21.5424C26.2053 23.3309 25.7564 25.1562 25.3663 26.9961C24.4758 31.1692 23.9385 35.4085 23.0995 39.5963C22.6726 41.716 22.2384 43.8945 21.4361 45.9111C20.7149 47.729 19.8096 49.5175 17.8003 50.1651C13.9658 51.4016 12.1626 46.7796 11.2942 44.0196C10.2711 40.7886 9.57931 37.4546 8.76972 34.1647C8.61516 33.5391 8.4606 32.9135 8.29868 32.2879C7.40077 36.6376 6.92974 41.1198 5.24432 45.234C5.2296 45.2634 5.21488 45.3002 5.20752 45.3297L19.9936 53.8966C21.5318 54.7872 23.622 55.1699 25.6386 55.0448C25.6975 54.9196 25.7638 54.8019 25.8226 54.6768C25.8742 54.5664 25.9257 54.456 25.9698 54.3529C26.1833 53.8083 26.3893 53.2563 26.566 52.6969C26.9855 51.3574 27.3167 49.9959 27.5743 48.6196C27.7141 47.8762 27.8393 47.1329 27.9423 46.3895V46.3821C27.9644 46.2202 27.9864 46.0583 28.0012 45.8964C28.0453 45.5063 28.0895 45.1089 28.1263 44.7188C28.2882 43.107 28.3912 41.4952 28.4428 39.876C28.5458 36.5787 28.4722 33.2889 28.1999 30.0137Z" fill="#CC2C4E"/>
<path d="M34.8388 40.0674C34.6989 43.8651 34.3531 47.9793 33.4552 51.8138L45.1353 44.9691C47.8364 43.4014 49.9928 39.5743 49.9928 36.4537V35.5263L30.9307 14.9112C32.1745 16.5525 32.7927 18.8193 33.249 20.7991C34.6916 27.055 35.0817 33.6716 34.8388 40.0674Z" fill="#CC2C4E"/>
<path d="M45.1422 10.0904L29.7821 1.17023C27.081 -0.390075 22.6798 -0.390075 19.9861 1.17023L4.75105 10.0904C2.05732 11.6507 0.00390625 15.4853 0.00390625 18.5985V36.461C0.00390625 37.4325 0.0627856 38.4703 0.438141 39.4859C1.08581 36.829 1.44645 34.1206 1.99844 31.4415C2.41796 29.4102 2.80067 27.3126 3.61026 25.3917C4.29473 23.7504 5.24416 21.7191 7.20926 21.3364C9.32155 20.9242 11.0143 21.9546 12.0742 23.7431L18.2418 30.3008C18.7864 27.0845 19.3899 23.8756 20.3246 20.7476C21.0017 18.4807 21.8481 15.3822 23.7985 13.8293C26.3377 11.8053 29.0314 12.4235 30.9303 14.9112L49.9998 35.5337V18.5985C49.9924 15.4853 47.836 11.6507 45.1422 10.0904Z" fill="#FF3761"/>
<path d="M14.9447 32.4572C15.504 34.7462 16.0118 37.0645 16.6154 39.3461C17.0128 37.5577 17.3293 35.7471 17.631 33.9439C17.8297 32.7296 18.0285 31.5152 18.2345 30.3008L12.0596 23.7431C13.5978 26.3412 14.2381 29.5648 14.9447 32.4572Z" fill="#CC2C4E"/>
<g opacity="0.2">
<path opacity="0.2" d="M9.07122 20.6002C11.0101 20.6002 12.5819 19.0877 12.5819 17.222C12.5819 15.3563 11.0101 13.8438 9.07122 13.8438C7.13233 13.8438 5.56055 15.3563 5.56055 17.222C5.56055 19.0877 7.13233 20.6002 9.07122 20.6002Z" fill="black"/>
</g>
<path d="M8.73285 20.0116C10.6717 20.0116 12.2435 18.4991 12.2435 16.6334C12.2435 14.7677 10.6717 13.2552 8.73285 13.2552C6.79395 13.2552 5.22217 14.7677 5.22217 16.6334C5.22217 18.4991 6.79395 20.0116 8.73285 20.0116Z" fill="white"/>
<g opacity="0.2">
<path opacity="0.2" d="M25.9549 12.0775C28.2718 12.0775 30.1501 10.1993 30.1501 7.88234C30.1501 5.56543 28.2718 3.68719 25.9549 3.68719C23.638 3.68719 21.7598 5.56543 21.7598 7.88234C21.7598 10.1993 23.638 12.0775 25.9549 12.0775Z" fill="black"/>
</g>
<path d="M25.4398 11.4815C27.7567 11.4815 29.6349 9.60325 29.6349 7.28634C29.6349 4.96942 27.7567 3.09119 25.4398 3.09119C23.1229 3.09119 21.2446 4.96942 21.2446 7.28634C21.2446 9.60325 23.1229 11.4815 25.4398 11.4815Z" fill="white"/>
<path d="M68.1859 17.8C68.5672 17.8 68.9659 18.008 69.3819 18.424C69.7979 18.84 70.2052 19.386 70.6039 20.062C71.0199 20.7207 71.4099 21.4833 71.7739 22.35C72.1552 23.1993 72.4932 24.066 72.7879 24.95C73.0826 25.8167 73.3339 26.666 73.5419 27.498C73.7499 28.3127 73.8799 29.0233 73.9319 29.63L77.8319 17.878V17.8H82.6939L82.9019 18.268C82.4859 18.268 82.1306 18.4327 81.8359 18.762C81.5586 19.074 81.4199 19.646 81.4199 20.478V33.296C81.4199 34.1453 81.5586 34.7347 81.8359 35.064C82.1306 35.376 82.4859 35.532 82.9019 35.532L82.6939 36H76.5579L76.3759 35.532C76.7746 35.532 77.1126 35.376 77.3899 35.064C77.6846 34.7347 77.8319 34.1453 77.8319 33.296V19.958L72.5019 36H71.7999C71.8866 35.4453 71.8606 34.7607 71.7219 33.946C71.6006 33.114 71.4099 32.2213 71.1499 31.268C70.8899 30.3147 70.5779 29.3353 70.2139 28.33C69.8499 27.3073 69.4686 26.328 69.0699 25.392C68.6712 24.4387 68.2812 23.5633 67.8999 22.766C67.5359 21.9513 67.2066 21.284 66.9119 20.764V33.296C66.9119 33.712 66.9639 34.0673 67.0679 34.362C67.1892 34.6393 67.3366 34.8647 67.5099 35.038C67.6832 35.2113 67.8739 35.3413 68.0819 35.428C68.3072 35.4973 68.5239 35.532 68.7319 35.532L68.5499 36H64.6499L64.4419 35.532C64.6499 35.532 64.8579 35.4973 65.0659 35.428C65.2912 35.3413 65.4906 35.2113 65.6639 35.038C65.8372 34.8647 65.9759 34.6393 66.0799 34.362C66.2012 34.0673 66.2619 33.712 66.2619 33.296V19.36C66.0712 18.9613 65.8026 18.684 65.4559 18.528C65.1092 18.3547 64.7712 18.268 64.4419 18.268L64.6499 17.8H68.1859Z" fill="white"/>
<path d="M92.2656 33.556C92.2136 33.8507 92.1009 34.154 91.9276 34.466C91.7716 34.778 91.5462 35.064 91.2516 35.324C90.9742 35.584 90.6276 35.8007 90.2116 35.974C89.7956 36.1473 89.3102 36.234 88.7556 36.234C88.2182 36.234 87.6895 36.1647 87.1695 36.026C86.6496 35.8873 86.1902 35.6707 85.7916 35.376C85.4102 35.064 85.0982 34.6653 84.8556 34.18C84.6129 33.6773 84.4916 33.0793 84.4916 32.386V24.82C84.4916 24.6813 84.4829 24.534 84.4656 24.378C84.4482 24.222 84.4136 24.0833 84.3616 23.962C84.3096 23.8233 84.2229 23.7107 84.1016 23.624C83.9976 23.52 83.8502 23.468 83.6596 23.468V23H84.4916C84.9076 23 85.3062 23 85.6876 23C86.0689 22.9827 86.3982 22.9567 86.6756 22.922C86.9702 22.87 87.1956 22.8007 87.3516 22.714C87.5249 22.61 87.6116 22.4713 87.6116 22.298H88.0796V32.1C88.0796 33.14 88.2269 33.946 88.5216 34.518C88.8162 35.09 89.2496 35.376 89.8216 35.376C90.1336 35.376 90.4369 35.2373 90.7316 34.96C91.0262 34.6653 91.2862 34.2753 91.5116 33.79C91.7369 33.3047 91.9189 32.7413 92.0576 32.1C92.1962 31.4413 92.2656 30.7393 92.2656 29.994V24.82C92.2656 24.6813 92.2569 24.534 92.2396 24.378C92.2222 24.222 92.1876 24.0833 92.1356 23.962C92.0836 23.8233 92.0056 23.7107 91.9016 23.624C91.7976 23.52 91.6502 23.468 91.4596 23.468V23H92.2656C92.6816 23 93.0802 23 93.4616 23C93.8429 22.9827 94.1722 22.9567 94.4496 22.922C94.7442 22.87 94.9696 22.8007 95.1256 22.714C95.2989 22.61 95.3856 22.4713 95.3856 22.298H95.8536V33.296C95.8536 34.1453 95.9922 34.7347 96.2696 35.064C96.5469 35.376 96.8936 35.532 97.3096 35.532L97.1276 36H92.5256C92.3522 36 92.2656 35.9133 92.2656 35.74V33.556Z" fill="white"/>
<path d="M103.544 24.898C103.752 24.482 103.822 24.144 103.752 23.884C103.7 23.6067 103.51 23.468 103.18 23.468C102.418 23.468 101.672 23.8233 100.944 24.534C100.234 25.2447 99.6705 26.328 99.2545 27.784H98.4225L99.2545 23H108.51L102.894 34.128C102.686 34.544 102.608 34.882 102.66 35.142C102.712 35.402 102.894 35.532 103.206 35.532C103.848 35.532 104.402 35.402 104.87 35.142C105.356 34.882 105.772 34.5353 106.118 34.102C106.482 33.6687 106.786 33.1833 107.028 32.646C107.288 32.1087 107.505 31.5713 107.678 31.034H108.51L107.626 36H98.3965L98.1105 35.532L103.544 24.898Z" fill="white"/>
<path d="M115.129 36L111.333 25.678C111.038 24.898 110.726 24.3347 110.397 23.988C110.085 23.6413 109.721 23.468 109.305 23.468L109.487 23H115.883L116.091 23.468C115.675 23.468 115.345 23.6413 115.103 23.988C114.877 24.3347 114.903 24.898 115.181 25.678L116.975 30.644L118.691 25.678C118.829 25.2793 118.899 24.9413 118.899 24.664C118.899 24.3867 118.847 24.1613 118.743 23.988C118.656 23.7973 118.526 23.6673 118.353 23.598C118.179 23.5113 117.989 23.468 117.781 23.468L117.989 23H121.213L121.421 23.468C121.005 23.468 120.623 23.6413 120.277 23.988C119.947 24.3173 119.644 24.8807 119.367 25.678L115.831 36H115.129Z" fill="white"/>
<path d="M124.184 16.89C124.895 16.89 125.424 17.124 125.77 17.592C126.134 18.0427 126.316 18.5453 126.316 19.1C126.316 19.6547 126.134 20.166 125.77 20.634C125.424 21.0847 124.895 21.31 124.184 21.31C123.474 21.31 122.936 21.0847 122.572 20.634C122.226 20.166 122.052 19.6547 122.052 19.1C122.052 18.5453 122.226 18.0427 122.572 17.592C122.936 17.124 123.474 16.89 124.184 16.89ZM125.952 33.296C125.952 34.1453 126.091 34.7347 126.368 35.064C126.646 35.376 126.992 35.532 127.408 35.532L127.226 36H121.09L120.882 35.532C121.298 35.532 121.645 35.376 121.922 35.064C122.217 34.7347 122.364 34.1453 122.364 33.296V22.272H122.806C122.806 22.4453 122.884 22.584 123.04 22.688C123.214 22.792 123.439 22.87 123.716 22.922C124.011 22.9567 124.349 22.9827 124.73 23C125.112 23 125.519 23 125.952 23V33.296Z" fill="white"/>
<path d="M133.944 17.8V18.268C133.753 18.268 133.597 18.32 133.476 18.424C133.372 18.5107 133.294 18.6233 133.242 18.762C133.19 18.8833 133.155 19.022 133.138 19.178C133.138 19.334 133.138 19.4813 133.138 19.62V33.296C133.138 34.1453 133.276 34.7347 133.554 35.064C133.831 35.376 134.178 35.532 134.594 35.532L134.412 36H128.276L128.068 35.532C128.484 35.532 128.83 35.376 129.108 35.064C129.402 34.7347 129.55 34.1453 129.55 33.296V17.072H129.992C129.992 17.2453 130.07 17.384 130.226 17.488C130.399 17.592 130.624 17.67 130.902 17.722C131.196 17.7567 131.534 17.7827 131.916 17.8C132.297 17.8 132.704 17.8 133.138 17.8H133.944Z" fill="white"/>
<path d="M141.129 17.8V18.268C140.939 18.268 140.783 18.32 140.661 18.424C140.557 18.5107 140.479 18.6233 140.427 18.762C140.375 18.8833 140.341 19.022 140.323 19.178C140.323 19.334 140.323 19.4813 140.323 19.62V33.296C140.323 34.1453 140.462 34.7347 140.739 35.064C141.017 35.376 141.363 35.532 141.779 35.532L141.597 36H135.461L135.253 35.532C135.669 35.532 136.016 35.376 136.293 35.064C136.588 34.7347 136.735 34.1453 136.735 33.296V17.072H137.177C137.177 17.2453 137.255 17.384 137.411 17.488C137.585 17.592 137.81 17.67 138.087 17.722C138.382 17.7567 138.72 17.7827 139.101 17.8C139.483 17.8 139.89 17.8 140.323 17.8H141.129Z" fill="white"/>
<path d="M148.607 36.13C147.272 36.13 146.154 35.8093 145.253 35.168C144.369 34.5093 143.702 33.686 143.251 32.698C142.818 31.71 142.601 30.6527 142.601 29.526C142.601 28.382 142.818 27.316 143.251 26.328C143.702 25.34 144.369 24.5253 145.253 23.884C146.154 23.2253 147.272 22.896 148.607 22.896C149.266 22.896 149.777 23.0173 150.141 23.26C150.505 23.4853 150.748 23.676 150.869 23.832L151.259 23H153.105V28.382C152.464 28.278 151.77 28.3127 151.025 28.486C150.28 28.642 149.604 28.9193 148.997 29.318C148.39 29.6993 147.896 30.1847 147.515 30.774C147.134 31.3633 146.986 32.022 147.073 32.75C147.316 33.322 147.636 33.816 148.035 34.232C148.434 34.648 148.971 34.856 149.647 34.856C150.254 34.856 150.756 34.6307 151.155 34.18C151.571 33.712 151.84 33.1053 151.961 32.36L152.429 32.568C152.429 32.9493 152.351 33.348 152.195 33.764C152.039 34.1627 151.814 34.5353 151.519 34.882C151.242 35.2113 150.895 35.4973 150.479 35.74C150.063 35.9653 149.595 36.0953 149.075 36.13H148.607ZM146.449 30.67C146.605 30.2887 146.848 29.9333 147.177 29.604C147.524 29.2747 147.905 28.9887 148.321 28.746C148.737 28.486 149.162 28.2867 149.595 28.148C150.028 28.0093 150.401 27.94 150.713 27.94C150.748 27.4373 150.739 26.926 150.687 26.406C150.635 25.8687 150.531 25.392 150.375 24.976C150.219 24.5427 149.994 24.196 149.699 23.936C149.422 23.676 149.058 23.546 148.607 23.546C148.07 23.546 147.628 23.7713 147.281 24.222C146.934 24.6553 146.674 25.2187 146.501 25.912C146.328 26.6053 146.232 27.3767 146.215 28.226C146.215 29.058 146.293 29.8727 146.449 30.67Z" fill="white"/>
</svg>
