<svg width="168" height="56" viewBox="0 0 168 56" fill="none" xmlns="http://www.w3.org/2000/svg">
<path d="M4.71451 45.0426L20.0746 53.9113C22.7757 55.4716 27.1769 55.4716 29.8706 53.9113L45.0983 44.9985C47.7994 43.4382 49.8454 39.6037 49.8454 36.4904V18.6279C49.8454 17.6564 49.7866 16.6187 49.4112 15.603C48.7635 18.2599 48.4029 20.9684 47.8509 23.6474C47.4314 25.6787 47.0487 27.7763 46.2464 29.6972C45.562 31.3385 44.6125 33.3698 42.6475 33.7525C40.5352 34.1647 38.8424 33.1343 37.7825 31.3458L33.1679 11.4814C32.6233 14.6977 24.0195 10.1935 23.0848 13.3214C22.4077 15.5883 20.1776 18.9812 18.2273 20.5341C15.6881 22.5581 14.9742 23.9123 13.0753 21.4173L0.00412094 19.5479V36.4904C-0.10623 40.0011 2.01342 43.4823 4.71451 45.0426Z" fill="white"/>
<path d="M28.1999 30.0137C28.1336 29.263 28.0674 28.5123 27.9791 27.7616C27.9423 27.4083 27.8981 27.0624 27.854 26.7091C27.8319 26.5766 27.8172 26.4368 27.7951 26.3043C27.6037 25.031 27.3829 23.7578 27.0885 22.5066C27.0076 22.146 26.9119 21.7853 26.8162 21.4247C26.8015 21.4615 26.7868 21.5056 26.7794 21.5424C26.2053 23.3309 25.7564 25.1562 25.3663 26.9961C24.4758 31.1692 23.9385 35.4085 23.0995 39.5963C22.6726 41.716 22.2384 43.8945 21.4361 45.9111C20.7149 47.729 19.8096 49.5175 17.8003 50.1651C13.9658 51.4016 12.1626 46.7796 11.2942 44.0196C10.2711 40.7886 9.57931 37.4546 8.76972 34.1647C8.61516 33.5391 8.4606 32.9135 8.29868 32.2879C7.40077 36.6376 6.92974 41.1198 5.24432 45.234C5.2296 45.2634 5.21488 45.3002 5.20752 45.3297L19.9936 53.8966C21.5318 54.7872 23.622 55.1699 25.6386 55.0448C25.6975 54.9196 25.7638 54.8019 25.8226 54.6768C25.8742 54.5664 25.9257 54.456 25.9698 54.3529C26.1833 53.8083 26.3893 53.2563 26.566 52.6969C26.9855 51.3574 27.3167 49.9959 27.5743 48.6196C27.7141 47.8762 27.8393 47.1329 27.9423 46.3895V46.3821C27.9644 46.2202 27.9864 46.0583 28.0012 45.8964C28.0453 45.5063 28.0895 45.1089 28.1263 44.7188C28.2882 43.107 28.3912 41.4952 28.4428 39.876C28.5458 36.5787 28.4722 33.2889 28.1999 30.0137Z" fill="#CC2C4E"/>
<path d="M34.8388 40.0673C34.6989 43.865 34.3531 47.9792 33.4552 51.8137L45.1353 44.969C47.8364 43.4014 49.9928 39.5742 49.9928 36.4536V35.5262L30.9307 14.9111C32.1745 16.5524 32.7927 18.8192 33.249 20.7991C34.6916 27.055 35.0817 33.6716 34.8388 40.0673Z" fill="#CC2C4E"/>
<path d="M45.1422 10.0904L29.7821 1.17023C27.081 -0.390075 22.6798 -0.390075 19.9861 1.17023L4.75105 10.0904C2.05732 11.6507 0.00390625 15.4853 0.00390625 18.5985V36.461C0.00390625 37.4325 0.0627856 38.4703 0.438141 39.4859C1.08581 36.829 1.44645 34.1206 1.99844 31.4415C2.41796 29.4102 2.80067 27.3126 3.61026 25.3917C4.29473 23.7504 5.24416 21.7191 7.20926 21.3364C9.32155 20.9242 11.0143 21.9546 12.0742 23.7431L18.2418 30.3008C18.7864 27.0845 19.3899 23.8756 20.3246 20.7476C21.0017 18.4807 21.8481 15.3822 23.7985 13.8293C26.3377 11.8053 29.0314 12.4235 30.9303 14.9112L49.9998 35.5337V18.5985C49.9924 15.4853 47.836 11.6507 45.1422 10.0904Z" fill="#FF3761"/>
<path d="M14.9447 32.4572C15.504 34.7461 16.0118 37.0645 16.6154 39.3461C17.0128 37.5576 17.3293 35.7471 17.631 33.9439C17.8297 32.7295 18.0285 31.5151 18.2345 30.3007L12.0596 23.743C13.5978 26.3411 14.2381 29.5647 14.9447 32.4572Z" fill="#CC2C4E"/>
<g opacity="0.2">
<path opacity="0.2" d="M9.07122 20.6003C11.0101 20.6003 12.5819 19.0878 12.5819 17.2221C12.5819 15.3563 11.0101 13.8439 9.07122 13.8439C7.13233 13.8439 5.56055 15.3563 5.56055 17.2221C5.56055 19.0878 7.13233 20.6003 9.07122 20.6003Z" fill="black"/>
</g>
<path d="M8.73285 20.0116C10.6717 20.0116 12.2435 18.4992 12.2435 16.6334C12.2435 14.7677 10.6717 13.2552 8.73285 13.2552C6.79395 13.2552 5.22217 14.7677 5.22217 16.6334C5.22217 18.4992 6.79395 20.0116 8.73285 20.0116Z" fill="white"/>
<g opacity="0.2">
<path opacity="0.2" d="M25.9549 12.0776C28.2718 12.0776 30.1501 10.1993 30.1501 7.88241C30.1501 5.56549 28.2718 3.68726 25.9549 3.68726C23.638 3.68726 21.7598 5.56549 21.7598 7.88241C21.7598 10.1993 23.638 12.0776 25.9549 12.0776Z" fill="black"/>
</g>
<path d="M25.4398 11.4815C27.7567 11.4815 29.6349 9.60325 29.6349 7.28634C29.6349 4.96942 27.7567 3.09119 25.4398 3.09119C23.1229 3.09119 21.2446 4.96942 21.2446 7.28634C21.2446 9.60325 23.1229 11.4815 25.4398 11.4815Z" fill="white"/>
<path d="M81.9375 18.2188C81.8542 18.1771 81.7292 18.4167 81.5625 18.9375C81.4167 19.4375 81.2188 20.0938 80.9688 20.9062C80.7188 21.6979 80.4479 22.6042 80.1562 23.625C79.8854 24.625 79.5833 25.625 79.25 26.625C78.9167 27.625 78.5833 28.5625 78.25 29.4375C77.9167 30.2917 77.5833 30.9688 77.25 31.4688C76.9167 31.9688 76.6042 32.25 76.3125 32.3125C76.0208 32.3542 75.7604 32.0521 75.5312 31.4062C75.3646 31.1146 75.125 30.6562 74.8125 30.0312C74.5208 29.3854 74.1771 28.6667 73.7812 27.875C73.3854 27.0833 72.9688 26.25 72.5312 25.375C72.0938 24.5 71.6771 23.6771 71.2812 22.9062C70.9062 22.1146 70.5521 21.4062 70.2188 20.7812C69.9062 20.1562 69.6771 19.6979 69.5312 19.4062C69.2812 18.9479 69.0521 18.5833 68.8438 18.3125C68.6562 18.0208 68.3542 17.875 67.9375 17.875C67.9375 19.3333 68.0208 20.9375 68.1875 22.6875C68.3542 24.4375 68.5312 26.2083 68.7188 28C68.9271 29.7917 69.1146 31.5625 69.2812 33.3125C69.4479 35.0417 69.5312 36.6458 69.5312 38.125C69.6146 38.3125 69.5833 38.4896 69.4375 38.6562C69.3125 38.8229 69.125 38.9479 68.875 39.0312C68.6458 39.1146 68.3854 39.1146 68.0938 39.0312C67.8229 38.9688 67.5938 38.8021 67.4062 38.5312C67.2188 36.6771 67.1146 34.7917 67.0938 32.875C67.0938 30.9375 67.0833 29 67.0625 27.0625C67.0417 25.125 66.9583 23.1875 66.8125 21.25C66.6667 19.2917 66.375 17.3438 65.9375 15.4062C65.9167 15.0312 65.9792 14.8021 66.125 14.7188C66.2708 14.6146 66.4583 14.5625 66.6875 14.5625C67.1875 14.5625 67.6354 14.6875 68.0312 14.9375C68.4479 15.1667 68.8229 15.4688 69.1562 15.8438C69.4896 16.1979 69.7812 16.5938 70.0312 17.0312C70.3021 17.4688 70.5417 17.8646 70.75 18.2188C70.9167 18.4896 71.1458 18.9167 71.4375 19.5L72.4375 21.5312C72.8125 22.2812 73.1979 23.0729 73.5938 23.9062C74.0104 24.7188 74.4062 25.5 74.7812 26.25C75.1562 26.9792 75.5 27.6354 75.8125 28.2188C76.125 28.7812 76.3646 29.1875 76.5312 29.4375C76.6146 29.4375 76.6875 29.4062 76.75 29.3438C76.8125 29.2812 76.8958 29.1042 77 28.8125C77.125 28.5208 77.2812 28.0729 77.4688 27.4688C77.6771 26.8646 77.9583 26.0312 78.3125 24.9688C78.6667 23.9062 79.1042 22.5625 79.625 20.9375C80.1458 19.3125 80.7812 17.3333 81.5312 15C81.5729 14.8958 81.7083 14.8021 81.9375 14.7188C82.1667 14.6354 82.375 14.5938 82.5625 14.5938C82.75 14.5938 82.875 14.6562 82.9375 14.7812C83.0208 14.9062 83.0833 15.1146 83.125 15.4062C83.3125 17.1771 83.4583 19.0312 83.5625 20.9688C83.6875 22.8854 83.8438 24.8333 84.0312 26.8125C84.2188 28.7708 84.4479 30.7188 84.7188 32.6562C85.0104 34.5938 85.4062 36.4375 85.9062 38.1875L83.75 39.0312L81.9375 18.2188Z" fill="#FF3761"/>
<path d="M96.8738 35.375C96.7904 35.625 96.5821 35.9688 96.2488 36.4062C95.9363 36.8229 95.5613 37.25 95.1238 37.6875C94.6863 38.1042 94.2279 38.4792 93.7488 38.8125C93.2904 39.125 92.8842 39.2812 92.53 39.2812C91.8633 39.2812 91.3113 38.9688 90.8738 38.3438C90.4571 37.7188 90.1342 36.9167 89.905 35.9375C89.6758 34.9583 89.5196 33.875 89.4363 32.6875C89.3529 31.4792 89.3008 30.3021 89.28 29.1562C89.2592 28.0104 89.2488 26.9688 89.2488 26.0312C89.2488 25.0938 89.2175 24.3854 89.155 23.9062C89.2383 23.6979 89.3425 23.5729 89.4675 23.5312C89.6133 23.4896 89.78 23.4688 89.9675 23.4688C90.1342 23.4688 90.28 23.4896 90.405 23.5312C90.5508 23.5729 90.6758 23.6979 90.78 23.9062C90.78 24.1354 90.78 24.5208 90.78 25.0625C90.8008 25.6042 90.8321 26.2188 90.8738 26.9062C90.9154 27.5729 90.9571 28.2812 90.9988 29.0312C91.0404 29.7604 91.0717 30.4583 91.0925 31.125C91.1342 31.7917 91.1654 32.3958 91.1863 32.9375C91.2279 33.4583 91.2592 33.8438 91.28 34.0938C91.3008 34.2396 91.3217 34.4792 91.3425 34.8125C91.3842 35.1458 91.4363 35.5 91.4988 35.875C91.5821 36.2292 91.6758 36.5521 91.78 36.8438C91.905 37.1354 92.0613 37.2917 92.2488 37.3125C92.5613 37.3125 92.8738 37.1771 93.1863 36.9062C93.5196 36.6354 93.8425 36.2917 94.155 35.875C94.4675 35.4583 94.7592 35 95.03 34.5C95.3008 34 95.5404 33.5208 95.7488 33.0625C95.9779 32.5833 96.1446 32.1562 96.2488 31.7812C96.3738 31.4062 96.4467 31.1354 96.4675 30.9688C96.5092 30.6146 96.5508 30.1146 96.5925 29.4688C96.6342 28.8021 96.6654 28.0938 96.6863 27.3438C96.7071 26.5938 96.7175 25.8854 96.7175 25.2188C96.7383 24.5521 96.7488 24.0417 96.7488 23.6875L98.4675 23.7812C98.4883 25.4688 98.4779 27 98.4362 28.375C98.3946 29.7292 98.3842 31.0104 98.405 32.2188C98.4258 33.4062 98.5196 34.5625 98.6862 35.6875C98.8529 36.8125 99.155 37.9792 99.5925 39.1875C99.53 39.25 99.405 39.3333 99.2175 39.4375C99.03 39.5625 98.8946 39.625 98.8112 39.625C98.2904 39.625 97.9363 39.4479 97.7488 39.0938C97.5821 38.7604 97.4675 38.3646 97.405 37.9062C97.3633 37.4271 97.3217 36.9583 97.28 36.5C97.2592 36.0208 97.1238 35.6458 96.8738 35.375Z" fill="#FF3761"/>
<path d="M106.873 39.3125C106.768 38.8333 106.8 38.2188 106.966 37.4688C107.154 36.6979 107.414 35.8646 107.748 34.9688C108.081 34.0729 108.466 33.1458 108.904 32.1875C109.362 31.2292 109.8 30.3229 110.216 29.4688C110.654 28.5938 111.039 27.8021 111.373 27.0938C111.706 26.3854 111.935 25.8229 112.06 25.4062C112.06 25.3854 112.06 25.3646 112.06 25.3438C112.081 25.3021 112.091 25.2604 112.091 25.2188C112.091 25.1771 112.081 25.1354 112.06 25.0938C112.06 25.0521 112.06 25.0208 112.06 25C111.477 25.2292 110.831 25.4896 110.123 25.7812C109.435 26.0521 108.737 26.3229 108.029 26.5938C107.32 26.8438 106.623 27.0833 105.935 27.3125C105.268 27.5208 104.654 27.6875 104.091 27.8125C104.008 27.875 103.862 27.8542 103.654 27.75C103.445 27.6458 103.248 27.5104 103.06 27.3438C102.873 27.1562 102.737 26.9688 102.654 26.7812C102.591 26.5729 102.664 26.3854 102.873 26.2188C103.56 26.2188 104.373 26.0833 105.31 25.8125C106.248 25.5208 107.195 25.1875 108.154 24.8125C109.133 24.4375 110.081 24.0729 110.998 23.7188C111.935 23.3438 112.758 23.0833 113.466 22.9375C114.154 22.9375 114.498 23.2812 114.498 23.9688C114.498 24.7188 114.362 25.4583 114.091 26.1875C113.841 26.8958 113.518 27.5938 113.123 28.2812C112.748 28.9688 112.331 29.6458 111.873 30.3125C111.435 30.9792 111.018 31.6562 110.623 32.3438C110.248 33.0312 109.925 33.7292 109.654 34.4375C109.383 35.1458 109.248 35.875 109.248 36.625V37L120.685 34.6562H120.904C121.195 34.6562 121.456 34.75 121.685 34.9375C121.935 35.1042 122.112 35.3021 122.216 35.5312C122.341 35.7396 122.352 35.9583 122.248 36.1875C122.143 36.4167 121.883 36.5833 121.466 36.6875C121.383 36.6875 121.289 36.6979 121.185 36.7188C121.102 36.7396 120.904 36.7812 120.591 36.8438C120.3 36.8854 119.862 36.9583 119.279 37.0625C118.695 37.1458 117.873 37.2812 116.81 37.4688C115.768 37.6562 114.435 37.9062 112.81 38.2188C111.206 38.5104 109.227 38.875 106.873 39.3125Z" fill="#FF3761"/>
<path d="M123.278 26.2188C123.278 26.1979 123.267 26.1667 123.246 26.125C123.246 26.0625 123.246 26.0208 123.246 26C123.246 25.6875 123.371 25.5104 123.621 25.4688C123.871 25.4062 124.1 25.375 124.309 25.375C124.538 25.375 124.798 25.5729 125.09 25.9688C125.382 26.3438 125.705 26.8542 126.059 27.5C126.434 28.125 126.809 28.8125 127.184 29.5625C127.58 30.3125 127.975 31.0521 128.371 31.7812C128.788 32.4896 129.205 33.1354 129.621 33.7188C130.059 34.3021 130.475 34.7292 130.871 35C130.996 33.1042 131.09 31.4896 131.152 30.1562C131.215 28.8229 131.257 27.6979 131.277 26.7812C131.319 25.8646 131.34 25.1458 131.34 24.625C131.34 24.0833 131.33 23.6667 131.309 23.375C131.309 23.0833 131.298 22.8958 131.277 22.8125C131.277 22.7083 131.277 22.6354 131.277 22.5938C131.277 22.2188 131.34 21.9896 131.465 21.9062C131.611 21.8229 131.798 21.7812 132.027 21.7812C132.298 21.7812 132.58 21.8229 132.871 21.9062C133.163 21.9896 133.309 22.1979 133.309 22.5312C133.371 23.8854 133.371 25.2604 133.309 26.6562C133.267 28.0312 133.194 29.4062 133.09 30.7812C132.986 32.1354 132.902 33.4688 132.84 34.7812C132.777 36.0938 132.777 37.3646 132.84 38.5938C132.798 38.6354 132.705 38.6875 132.559 38.75C132.413 38.7917 132.257 38.8333 132.09 38.875C131.923 38.9167 131.757 38.9479 131.59 38.9688C131.444 38.9896 131.34 39 131.277 39C131.069 38.9583 130.746 38.6771 130.309 38.1562C129.871 37.6146 129.382 36.9375 128.84 36.125C128.298 35.3125 127.736 34.4062 127.153 33.4062C126.569 32.4062 126.007 31.4375 125.465 30.5C124.944 29.5625 124.486 28.7083 124.09 27.9375C123.694 27.1667 123.423 26.5938 123.278 26.2188Z" fill="#FF3761"/>
<path d="M136.808 38.375C136.808 37.0208 136.776 35.5938 136.714 34.0938C136.672 32.5938 136.62 31.0833 136.558 29.5625C136.516 28.0208 136.505 26.5104 136.526 25.0312C136.547 23.5521 136.641 22.1667 136.808 20.875C136.849 20.8542 136.943 20.8438 137.089 20.8438C137.255 20.8229 137.37 20.8125 137.433 20.8125C137.724 20.8125 137.953 20.8646 138.12 20.9688C138.308 21.0521 138.401 21.25 138.401 21.5625C138.401 22.7917 138.391 24.1354 138.37 25.5938C138.37 27.0312 138.36 28.5 138.339 30C138.339 31.4792 138.339 32.9479 138.339 34.4062C138.339 35.8646 138.36 37.1875 138.401 38.375C138.422 38.7292 138.349 38.9583 138.183 39.0625C138.037 39.1875 137.849 39.25 137.62 39.25C137.37 39.25 137.162 39.1875 136.995 39.0625C136.828 38.9583 136.766 38.7292 136.808 38.375ZM136.12 16C136.12 15.75 136.203 15.5833 136.37 15.5C136.537 15.4167 136.724 15.375 136.933 15.375C137.349 15.375 137.61 15.5104 137.714 15.7812C137.818 16.0521 137.87 16.3646 137.87 16.7188C137.745 16.9479 137.589 17.1146 137.401 17.2188C137.214 17.3021 137.016 17.3229 136.808 17.2812C136.62 17.2188 136.453 17.0833 136.308 16.875C136.183 16.6667 136.12 16.375 136.12 16Z" fill="#FF3761"/>
<path d="M142.494 37.4062C142.64 36.4479 142.733 35.25 142.775 33.8125C142.838 32.375 142.858 30.8438 142.838 29.2188C142.838 27.5938 142.806 25.9167 142.744 24.1875C142.681 22.4583 142.598 20.8229 142.494 19.2812C142.39 17.7188 142.265 16.3229 142.119 15.0938C141.994 13.8646 141.858 12.8958 141.713 12.1875C141.9 12.0625 142.056 11.9688 142.181 11.9062C142.327 11.8229 142.494 11.7812 142.681 11.7812C142.827 11.7812 142.952 11.8125 143.056 11.875C143.16 11.9167 143.244 12.0208 143.306 12.1875C143.723 16.2708 144.004 20.3854 144.15 24.5312C144.317 28.6771 144.442 32.8021 144.525 36.9062C144.525 37.0938 144.525 37.3542 144.525 37.6875C144.525 38 144.515 38.1667 144.494 38.1875C144.202 38.3333 143.942 38.4062 143.713 38.4062C143.483 38.3854 143.275 38.3229 143.088 38.2188C142.9 38.0938 142.754 37.9583 142.65 37.8125C142.546 37.6667 142.494 37.5312 142.494 37.4062Z" fill="#FF3761"/>
<path d="M148.18 37.4062C148.326 36.4479 148.42 35.25 148.461 33.8125C148.524 32.375 148.545 30.8438 148.524 29.2188C148.524 27.5938 148.493 25.9167 148.43 24.1875C148.368 22.4583 148.284 20.8229 148.18 19.2812C148.076 17.7188 147.951 16.3229 147.805 15.0938C147.68 13.8646 147.545 12.8958 147.399 12.1875C147.586 12.0625 147.743 11.9688 147.868 11.9062C148.013 11.8229 148.18 11.7812 148.368 11.7812C148.513 11.7812 148.638 11.8125 148.743 11.875C148.847 11.9167 148.93 12.0208 148.993 12.1875C149.409 16.2708 149.69 20.3854 149.836 24.5312C150.003 28.6771 150.128 32.8021 150.211 36.9062C150.211 37.0938 150.211 37.3542 150.211 37.6875C150.211 38 150.201 38.1667 150.18 38.1875C149.888 38.3333 149.628 38.4062 149.399 38.4062C149.17 38.3854 148.961 38.3229 148.774 38.2188C148.586 38.0938 148.44 37.9583 148.336 37.8125C148.232 37.6667 148.18 37.5312 148.18 37.4062Z" fill="#FF3761"/>
<path d="M154.116 32.25C154.012 32.2708 153.856 32.3021 153.647 32.3438C153.439 32.3854 153.22 32.3958 152.991 32.375C152.762 32.3542 152.564 32.2917 152.397 32.1875C152.21 32.0833 152.116 31.9062 152.116 31.6562C152.116 31.5104 152.147 31.4062 152.21 31.3438C152.272 31.2812 152.377 31.1875 152.522 31.0625C152.981 30.6875 153.366 30.2083 153.679 29.625C154.012 29.0208 154.314 28.3854 154.585 27.7188C154.856 27.0312 155.137 26.3542 155.429 25.6875C155.741 25 156.095 24.3854 156.491 23.8438C156.887 23.3021 157.377 22.8646 157.96 22.5312C158.543 22.1979 159.262 22.0417 160.116 22.0625C160.47 22.0625 160.866 22.1458 161.304 22.3125C161.741 22.4792 162.147 22.7083 162.522 23C162.897 23.2708 163.21 23.6042 163.46 24C163.71 24.3958 163.835 24.8333 163.835 25.3125C163.939 25.4792 163.835 25.7188 163.522 26.0312C163.231 26.3438 162.825 26.6875 162.304 27.0625C161.783 27.4167 161.189 27.7917 160.522 28.1875C159.877 28.5625 159.252 28.9167 158.647 29.25C158.043 29.5833 157.512 29.875 157.054 30.125C156.595 30.375 156.293 30.5625 156.147 30.6875C156.043 30.8958 155.96 31.1354 155.897 31.4062C155.835 31.6771 155.783 31.9375 155.741 32.1875C155.72 32.4167 155.7 32.6354 155.679 32.8438C155.679 33.0312 155.679 33.1771 155.679 33.2812C155.679 33.6771 155.658 34.1146 155.616 34.5938C155.595 35.0729 155.616 35.5312 155.679 35.9688C155.762 36.3854 155.939 36.7396 156.21 37.0312C156.481 37.3021 156.939 37.4375 157.585 37.4375C158.272 37.4375 158.918 37.2708 159.522 36.9375C160.127 36.5833 160.689 36.1562 161.21 35.6562C161.731 35.1562 162.2 34.6146 162.616 34.0312C163.054 33.4479 163.439 32.9062 163.772 32.4062C164.127 31.8854 164.439 31.4583 164.71 31.125C164.981 30.7917 165.21 30.625 165.397 30.625C165.606 30.625 165.825 30.6667 166.054 30.75C166.304 30.8125 166.429 30.9792 166.429 31.25C166.429 31.625 166.272 32.0729 165.96 32.5938C165.668 33.1146 165.272 33.6667 164.772 34.25C164.293 34.8333 163.731 35.4167 163.085 36C162.46 36.5625 161.825 37.0729 161.179 37.5312C160.533 37.9688 159.897 38.3333 159.272 38.625C158.647 38.8958 158.095 39.0312 157.616 39.0312C156.679 39.0312 155.97 38.8021 155.491 38.3438C155.012 37.8854 154.668 37.3125 154.46 36.625C154.272 35.9375 154.168 35.2083 154.147 34.4375C154.147 33.6458 154.137 32.9167 154.116 32.25ZM159.866 23.8125C159.512 23.8125 159.137 23.9896 158.741 24.3438C158.345 24.6771 157.97 25.0938 157.616 25.5938C157.283 26.0729 157.002 26.5729 156.772 27.0938C156.564 27.5938 156.46 28.0104 156.46 28.3438C156.772 28.3438 157.22 28.2292 157.804 28C158.408 27.75 159.002 27.4479 159.585 27.0938C160.168 26.7396 160.679 26.3646 161.116 25.9688C161.554 25.5729 161.772 25.1979 161.772 24.8438C161.772 24.6562 161.7 24.5 161.554 24.375C161.408 24.25 161.231 24.1458 161.022 24.0625C160.835 23.9792 160.637 23.9167 160.429 23.875C160.22 23.8333 160.033 23.8125 159.866 23.8125Z" fill="#FF3761"/>
<path d="M81.9375 18.2188C81.8542 18.1771 81.7292 18.4167 81.5625 18.9375C81.4167 19.4375 81.2188 20.0938 80.9688 20.9062C80.7188 21.6979 80.4479 22.6042 80.1562 23.625C79.8854 24.625 79.5833 25.625 79.25 26.625C78.9167 27.625 78.5833 28.5625 78.25 29.4375C77.9167 30.2917 77.5833 30.9688 77.25 31.4688C76.9167 31.9688 76.6042 32.25 76.3125 32.3125C76.0208 32.3542 75.7604 32.0521 75.5312 31.4062C75.3646 31.1146 75.125 30.6562 74.8125 30.0312C74.5208 29.3854 74.1771 28.6667 73.7812 27.875C73.3854 27.0833 72.9688 26.25 72.5312 25.375C72.0938 24.5 71.6771 23.6771 71.2812 22.9062C70.9062 22.1146 70.5521 21.4062 70.2188 20.7812C69.9062 20.1562 69.6771 19.6979 69.5312 19.4062C69.2812 18.9479 69.0521 18.5833 68.8438 18.3125C68.6562 18.0208 68.3542 17.875 67.9375 17.875C67.9375 19.3333 68.0208 20.9375 68.1875 22.6875C68.3542 24.4375 68.5312 26.2083 68.7188 28C68.9271 29.7917 69.1146 31.5625 69.2812 33.3125C69.4479 35.0417 69.5312 36.6458 69.5312 38.125C69.6146 38.3125 69.5833 38.4896 69.4375 38.6562C69.3125 38.8229 69.125 38.9479 68.875 39.0312C68.6458 39.1146 68.3854 39.1146 68.0938 39.0312C67.8229 38.9688 67.5938 38.8021 67.4062 38.5312C67.2188 36.6771 67.1146 34.7917 67.0938 32.875C67.0938 30.9375 67.0833 29 67.0625 27.0625C67.0417 25.125 66.9583 23.1875 66.8125 21.25C66.6667 19.2917 66.375 17.3438 65.9375 15.4062C65.9167 15.0312 65.9792 14.8021 66.125 14.7188C66.2708 14.6146 66.4583 14.5625 66.6875 14.5625C67.1875 14.5625 67.6354 14.6875 68.0312 14.9375C68.4479 15.1667 68.8229 15.4688 69.1562 15.8438C69.4896 16.1979 69.7812 16.5938 70.0312 17.0312C70.3021 17.4688 70.5417 17.8646 70.75 18.2188C70.9167 18.4896 71.1458 18.9167 71.4375 19.5L72.4375 21.5312C72.8125 22.2812 73.1979 23.0729 73.5938 23.9062C74.0104 24.7188 74.4062 25.5 74.7812 26.25C75.1562 26.9792 75.5 27.6354 75.8125 28.2188C76.125 28.7812 76.3646 29.1875 76.5312 29.4375C76.6146 29.4375 76.6875 29.4062 76.75 29.3438C76.8125 29.2812 76.8958 29.1042 77 28.8125C77.125 28.5208 77.2812 28.0729 77.4688 27.4688C77.6771 26.8646 77.9583 26.0312 78.3125 24.9688C78.6667 23.9062 79.1042 22.5625 79.625 20.9375C80.1458 19.3125 80.7812 17.3333 81.5312 15C81.5729 14.8958 81.7083 14.8021 81.9375 14.7188C82.1667 14.6354 82.375 14.5938 82.5625 14.5938C82.75 14.5938 82.875 14.6562 82.9375 14.7812C83.0208 14.9062 83.0833 15.1146 83.125 15.4062C83.3125 17.1771 83.4583 19.0312 83.5625 20.9688C83.6875 22.8854 83.8438 24.8333 84.0312 26.8125C84.2188 28.7708 84.4479 30.7188 84.7188 32.6562C85.0104 34.5938 85.4062 36.4375 85.9062 38.1875L83.75 39.0312L81.9375 18.2188Z" stroke="#FF3761" stroke-width="1.6"/>
<path d="M96.8738 35.375C96.7904 35.625 96.5821 35.9688 96.2488 36.4062C95.9363 36.8229 95.5613 37.25 95.1238 37.6875C94.6863 38.1042 94.2279 38.4792 93.7488 38.8125C93.2904 39.125 92.8842 39.2812 92.53 39.2812C91.8633 39.2812 91.3113 38.9688 90.8738 38.3438C90.4571 37.7188 90.1342 36.9167 89.905 35.9375C89.6758 34.9583 89.5196 33.875 89.4363 32.6875C89.3529 31.4792 89.3008 30.3021 89.28 29.1562C89.2592 28.0104 89.2488 26.9688 89.2488 26.0312C89.2488 25.0938 89.2175 24.3854 89.155 23.9062C89.2383 23.6979 89.3425 23.5729 89.4675 23.5312C89.6133 23.4896 89.78 23.4688 89.9675 23.4688C90.1342 23.4688 90.28 23.4896 90.405 23.5312C90.5508 23.5729 90.6758 23.6979 90.78 23.9062C90.78 24.1354 90.78 24.5208 90.78 25.0625C90.8008 25.6042 90.8321 26.2188 90.8738 26.9062C90.9154 27.5729 90.9571 28.2812 90.9988 29.0312C91.0404 29.7604 91.0717 30.4583 91.0925 31.125C91.1342 31.7917 91.1654 32.3958 91.1863 32.9375C91.2279 33.4583 91.2592 33.8438 91.28 34.0938C91.3008 34.2396 91.3217 34.4792 91.3425 34.8125C91.3842 35.1458 91.4363 35.5 91.4988 35.875C91.5821 36.2292 91.6758 36.5521 91.78 36.8438C91.905 37.1354 92.0613 37.2917 92.2488 37.3125C92.5613 37.3125 92.8738 37.1771 93.1863 36.9062C93.5196 36.6354 93.8425 36.2917 94.155 35.875C94.4675 35.4583 94.7592 35 95.03 34.5C95.3008 34 95.5404 33.5208 95.7488 33.0625C95.9779 32.5833 96.1446 32.1562 96.2488 31.7812C96.3738 31.4062 96.4467 31.1354 96.4675 30.9688C96.5092 30.6146 96.5508 30.1146 96.5925 29.4688C96.6342 28.8021 96.6654 28.0938 96.6863 27.3438C96.7071 26.5938 96.7175 25.8854 96.7175 25.2188C96.7383 24.5521 96.7488 24.0417 96.7488 23.6875L98.4675 23.7812C98.4883 25.4688 98.4779 27 98.4362 28.375C98.3946 29.7292 98.3842 31.0104 98.405 32.2188C98.4258 33.4062 98.5196 34.5625 98.6862 35.6875C98.8529 36.8125 99.155 37.9792 99.5925 39.1875C99.53 39.25 99.405 39.3333 99.2175 39.4375C99.03 39.5625 98.8946 39.625 98.8112 39.625C98.2904 39.625 97.9363 39.4479 97.7488 39.0938C97.5821 38.7604 97.4675 38.3646 97.405 37.9062C97.3633 37.4271 97.3217 36.9583 97.28 36.5C97.2592 36.0208 97.1238 35.6458 96.8738 35.375Z" stroke="#FF3761" stroke-width="1.6"/>
<path d="M106.873 39.3125C106.768 38.8333 106.8 38.2188 106.966 37.4688C107.154 36.6979 107.414 35.8646 107.748 34.9688C108.081 34.0729 108.466 33.1458 108.904 32.1875C109.362 31.2292 109.8 30.3229 110.216 29.4688C110.654 28.5938 111.039 27.8021 111.373 27.0938C111.706 26.3854 111.935 25.8229 112.06 25.4062C112.06 25.3854 112.06 25.3646 112.06 25.3438C112.081 25.3021 112.091 25.2604 112.091 25.2188C112.091 25.1771 112.081 25.1354 112.06 25.0938C112.06 25.0521 112.06 25.0208 112.06 25C111.477 25.2292 110.831 25.4896 110.123 25.7812C109.435 26.0521 108.737 26.3229 108.029 26.5938C107.32 26.8438 106.623 27.0833 105.935 27.3125C105.268 27.5208 104.654 27.6875 104.091 27.8125C104.008 27.875 103.862 27.8542 103.654 27.75C103.445 27.6458 103.248 27.5104 103.06 27.3438C102.873 27.1562 102.737 26.9688 102.654 26.7812C102.591 26.5729 102.664 26.3854 102.873 26.2188C103.56 26.2188 104.373 26.0833 105.31 25.8125C106.248 25.5208 107.195 25.1875 108.154 24.8125C109.133 24.4375 110.081 24.0729 110.998 23.7188C111.935 23.3438 112.758 23.0833 113.466 22.9375C114.154 22.9375 114.498 23.2812 114.498 23.9688C114.498 24.7188 114.362 25.4583 114.091 26.1875C113.841 26.8958 113.518 27.5938 113.123 28.2812C112.748 28.9688 112.331 29.6458 111.873 30.3125C111.435 30.9792 111.018 31.6562 110.623 32.3438C110.248 33.0312 109.925 33.7292 109.654 34.4375C109.383 35.1458 109.248 35.875 109.248 36.625V37L120.685 34.6562H120.904C121.195 34.6562 121.456 34.75 121.685 34.9375C121.935 35.1042 122.112 35.3021 122.216 35.5312C122.341 35.7396 122.352 35.9583 122.248 36.1875C122.143 36.4167 121.883 36.5833 121.466 36.6875C121.383 36.6875 121.289 36.6979 121.185 36.7188C121.102 36.7396 120.904 36.7812 120.591 36.8438C120.3 36.8854 119.862 36.9583 119.279 37.0625C118.695 37.1458 117.873 37.2812 116.81 37.4688C115.768 37.6562 114.435 37.9062 112.81 38.2188C111.206 38.5104 109.227 38.875 106.873 39.3125Z" stroke="#FF3761" stroke-width="1.6"/>
<path d="M123.278 26.2188C123.278 26.1979 123.267 26.1667 123.246 26.125C123.246 26.0625 123.246 26.0208 123.246 26C123.246 25.6875 123.371 25.5104 123.621 25.4688C123.871 25.4062 124.1 25.375 124.309 25.375C124.538 25.375 124.798 25.5729 125.09 25.9688C125.382 26.3438 125.705 26.8542 126.059 27.5C126.434 28.125 126.809 28.8125 127.184 29.5625C127.58 30.3125 127.975 31.0521 128.371 31.7812C128.788 32.4896 129.205 33.1354 129.621 33.7188C130.059 34.3021 130.475 34.7292 130.871 35C130.996 33.1042 131.09 31.4896 131.152 30.1562C131.215 28.8229 131.257 27.6979 131.277 26.7812C131.319 25.8646 131.34 25.1458 131.34 24.625C131.34 24.0833 131.33 23.6667 131.309 23.375C131.309 23.0833 131.298 22.8958 131.277 22.8125C131.277 22.7083 131.277 22.6354 131.277 22.5938C131.277 22.2188 131.34 21.9896 131.465 21.9062C131.611 21.8229 131.798 21.7812 132.027 21.7812C132.298 21.7812 132.58 21.8229 132.871 21.9062C133.163 21.9896 133.309 22.1979 133.309 22.5312C133.371 23.8854 133.371 25.2604 133.309 26.6562C133.267 28.0312 133.194 29.4062 133.09 30.7812C132.986 32.1354 132.902 33.4688 132.84 34.7812C132.777 36.0938 132.777 37.3646 132.84 38.5938C132.798 38.6354 132.705 38.6875 132.559 38.75C132.413 38.7917 132.257 38.8333 132.09 38.875C131.923 38.9167 131.757 38.9479 131.59 38.9688C131.444 38.9896 131.34 39 131.277 39C131.069 38.9583 130.746 38.6771 130.309 38.1562C129.871 37.6146 129.382 36.9375 128.84 36.125C128.298 35.3125 127.736 34.4062 127.153 33.4062C126.569 32.4062 126.007 31.4375 125.465 30.5C124.944 29.5625 124.486 28.7083 124.09 27.9375C123.694 27.1667 123.423 26.5938 123.278 26.2188Z" stroke="#FF3761" stroke-width="1.6"/>
<path d="M136.808 38.375C136.808 37.0208 136.776 35.5938 136.714 34.0938C136.672 32.5938 136.62 31.0833 136.558 29.5625C136.516 28.0208 136.505 26.5104 136.526 25.0312C136.547 23.5521 136.641 22.1667 136.808 20.875C136.849 20.8542 136.943 20.8438 137.089 20.8438C137.255 20.8229 137.37 20.8125 137.433 20.8125C137.724 20.8125 137.953 20.8646 138.12 20.9688C138.308 21.0521 138.401 21.25 138.401 21.5625C138.401 22.7917 138.391 24.1354 138.37 25.5938C138.37 27.0312 138.36 28.5 138.339 30C138.339 31.4792 138.339 32.9479 138.339 34.4062C138.339 35.8646 138.36 37.1875 138.401 38.375C138.422 38.7292 138.349 38.9583 138.183 39.0625C138.037 39.1875 137.849 39.25 137.62 39.25C137.37 39.25 137.162 39.1875 136.995 39.0625C136.828 38.9583 136.766 38.7292 136.808 38.375ZM136.12 16C136.12 15.75 136.203 15.5833 136.37 15.5C136.537 15.4167 136.724 15.375 136.933 15.375C137.349 15.375 137.61 15.5104 137.714 15.7812C137.818 16.0521 137.87 16.3646 137.87 16.7188C137.745 16.9479 137.589 17.1146 137.401 17.2188C137.214 17.3021 137.016 17.3229 136.808 17.2812C136.62 17.2188 136.453 17.0833 136.308 16.875C136.183 16.6667 136.12 16.375 136.12 16Z" stroke="#FF3761" stroke-width="1.6"/>
<path d="M142.494 37.4062C142.64 36.4479 142.733 35.25 142.775 33.8125C142.838 32.375 142.858 30.8438 142.838 29.2188C142.838 27.5938 142.806 25.9167 142.744 24.1875C142.681 22.4583 142.598 20.8229 142.494 19.2812C142.39 17.7188 142.265 16.3229 142.119 15.0938C141.994 13.8646 141.858 12.8958 141.713 12.1875C141.9 12.0625 142.056 11.9688 142.181 11.9062C142.327 11.8229 142.494 11.7812 142.681 11.7812C142.827 11.7812 142.952 11.8125 143.056 11.875C143.16 11.9167 143.244 12.0208 143.306 12.1875C143.723 16.2708 144.004 20.3854 144.15 24.5312C144.317 28.6771 144.442 32.8021 144.525 36.9062C144.525 37.0938 144.525 37.3542 144.525 37.6875C144.525 38 144.515 38.1667 144.494 38.1875C144.202 38.3333 143.942 38.4062 143.713 38.4062C143.483 38.3854 143.275 38.3229 143.088 38.2188C142.9 38.0938 142.754 37.9583 142.65 37.8125C142.546 37.6667 142.494 37.5312 142.494 37.4062Z" stroke="#FF3761" stroke-width="1.6"/>
<path d="M148.18 37.4062C148.326 36.4479 148.42 35.25 148.461 33.8125C148.524 32.375 148.545 30.8438 148.524 29.2188C148.524 27.5938 148.493 25.9167 148.43 24.1875C148.368 22.4583 148.284 20.8229 148.18 19.2812C148.076 17.7188 147.951 16.3229 147.805 15.0938C147.68 13.8646 147.545 12.8958 147.399 12.1875C147.586 12.0625 147.743 11.9688 147.868 11.9062C148.013 11.8229 148.18 11.7812 148.368 11.7812C148.513 11.7812 148.638 11.8125 148.743 11.875C148.847 11.9167 148.93 12.0208 148.993 12.1875C149.409 16.2708 149.69 20.3854 149.836 24.5312C150.003 28.6771 150.128 32.8021 150.211 36.9062C150.211 37.0938 150.211 37.3542 150.211 37.6875C150.211 38 150.201 38.1667 150.18 38.1875C149.888 38.3333 149.628 38.4062 149.399 38.4062C149.17 38.3854 148.961 38.3229 148.774 38.2188C148.586 38.0938 148.44 37.9583 148.336 37.8125C148.232 37.6667 148.18 37.5312 148.18 37.4062Z" stroke="#FF3761" stroke-width="1.6"/>
<path d="M154.116 32.25C154.012 32.2708 153.856 32.3021 153.647 32.3438C153.439 32.3854 153.22 32.3958 152.991 32.375C152.762 32.3542 152.564 32.2917 152.397 32.1875C152.21 32.0833 152.116 31.9062 152.116 31.6562C152.116 31.5104 152.147 31.4062 152.21 31.3438C152.272 31.2812 152.377 31.1875 152.522 31.0625C152.981 30.6875 153.366 30.2083 153.679 29.625C154.012 29.0208 154.314 28.3854 154.585 27.7188C154.856 27.0312 155.137 26.3542 155.429 25.6875C155.741 25 156.095 24.3854 156.491 23.8438C156.887 23.3021 157.377 22.8646 157.96 22.5312C158.543 22.1979 159.262 22.0417 160.116 22.0625C160.47 22.0625 160.866 22.1458 161.304 22.3125C161.741 22.4792 162.147 22.7083 162.522 23C162.897 23.2708 163.21 23.6042 163.46 24C163.71 24.3958 163.835 24.8333 163.835 25.3125C163.939 25.4792 163.835 25.7188 163.522 26.0312C163.231 26.3438 162.825 26.6875 162.304 27.0625C161.783 27.4167 161.189 27.7917 160.522 28.1875C159.877 28.5625 159.252 28.9167 158.647 29.25C158.043 29.5833 157.512 29.875 157.054 30.125C156.595 30.375 156.293 30.5625 156.147 30.6875C156.043 30.8958 155.96 31.1354 155.897 31.4062C155.835 31.6771 155.783 31.9375 155.741 32.1875C155.72 32.4167 155.7 32.6354 155.679 32.8438C155.679 33.0312 155.679 33.1771 155.679 33.2812C155.679 33.6771 155.658 34.1146 155.616 34.5938C155.595 35.0729 155.616 35.5312 155.679 35.9688C155.762 36.3854 155.939 36.7396 156.21 37.0312C156.481 37.3021 156.939 37.4375 157.585 37.4375C158.272 37.4375 158.918 37.2708 159.522 36.9375C160.127 36.5833 160.689 36.1562 161.21 35.6562C161.731 35.1562 162.2 34.6146 162.616 34.0312C163.054 33.4479 163.439 32.9062 163.772 32.4062C164.127 31.8854 164.439 31.4583 164.71 31.125C164.981 30.7917 165.21 30.625 165.397 30.625C165.606 30.625 165.825 30.6667 166.054 30.75C166.304 30.8125 166.429 30.9792 166.429 31.25C166.429 31.625 166.272 32.0729 165.96 32.5938C165.668 33.1146 165.272 33.6667 164.772 34.25C164.293 34.8333 163.731 35.4167 163.085 36C162.46 36.5625 161.825 37.0729 161.179 37.5312C160.533 37.9688 159.897 38.3333 159.272 38.625C158.647 38.8958 158.095 39.0312 157.616 39.0312C156.679 39.0312 155.97 38.8021 155.491 38.3438C155.012 37.8854 154.668 37.3125 154.46 36.625C154.272 35.9375 154.168 35.2083 154.147 34.4375C154.147 33.6458 154.137 32.9167 154.116 32.25ZM159.866 23.8125C159.512 23.8125 159.137 23.9896 158.741 24.3438C158.345 24.6771 157.97 25.0938 157.616 25.5938C157.283 26.0729 157.002 26.5729 156.772 27.0938C156.564 27.5938 156.46 28.0104 156.46 28.3438C156.772 28.3438 157.22 28.2292 157.804 28C158.408 27.75 159.002 27.4479 159.585 27.0938C160.168 26.7396 160.679 26.3646 161.116 25.9688C161.554 25.5729 161.772 25.1979 161.772 24.8438C161.772 24.6562 161.7 24.5 161.554 24.375C161.408 24.25 161.231 24.1458 161.022 24.0625C160.835 23.9792 160.637 23.9167 160.429 23.875C160.22 23.8333 160.033 23.8125 159.866 23.8125Z" stroke="#FF3761" stroke-width="1.6"/>
</svg>
