<svg width="634" height="500" viewBox="0 0 634 500" fill="none" xmlns="http://www.w3.org/2000/svg">
<path opacity="0.95" d="M371.4 229.521H247.56C237.776 229.521 229.834 221.579 229.834 211.795V87.9545C229.834 78.1705 237.776 70.2285 247.56 70.2285H371.4C381.184 70.2285 389.126 78.1705 389.126 87.9545V211.795C389.126 221.579 381.184 229.521 371.4 229.521Z" fill="url(#paint0_linear)"/>
<path d="M346.365 193.253H272.623V196.907H346.365V193.253Z" fill="#96BFE6"/>
<path d="M335.918 204.729H283.072V208.382H335.918V204.729Z" fill="#96BFE6"/>
<path opacity="0.95" d="M612.467 381.354H436.204C424.669 381.354 415.338 372.023 415.338 360.487V146.326C415.338 134.791 424.669 125.46 436.204 125.46H612.467C624.003 125.46 633.334 134.791 633.334 146.326V360.457C633.334 371.993 623.973 381.354 612.467 381.354Z" fill="url(#paint1_linear)"/>
<path d="M531.477 276.417H514.174V279.618H531.477V276.417Z" fill="#4598E6"/>
<path d="M549.142 305.77H448.523V311.96H549.142V305.77Z" fill="#96BFE6"/>
<path d="M529.876 335.514H448.523V341.705H529.876V335.514Z" fill="#96BFE6"/>
<path d="M496.205 320.657H448.523V326.848H496.205V320.657Z" fill="#96BFE6"/>
<path d="M575.445 150.977V154.117H593.896V171.42H597.036V150.977H575.445ZM450.276 171.42H453.417V154.117H471.868V150.977H450.306V171.42H450.276ZM593.896 260.714V278.018H575.445V281.128H597.006V260.684H593.896V260.714ZM453.387 260.714H450.246V281.128H471.807V277.987H453.356V260.714H453.387Z" fill="#4598E6"/>
<path d="M587.251 342.188C577.075 342.188 568.801 333.913 568.801 323.737C568.801 313.56 577.075 305.286 587.251 305.286C597.428 305.286 605.702 313.56 605.702 323.737C605.702 333.913 597.428 342.188 587.251 342.188ZM587.251 308.88C579.038 308.88 572.394 315.553 572.394 323.737C572.394 331.951 579.068 338.594 587.251 338.594C595.435 338.594 602.109 331.92 602.109 323.737C602.139 315.553 595.465 308.88 587.251 308.88Z" fill="#4598E6"/>
<path d="M586.074 331.015L577.709 322.62L580.246 320.113L586.074 325.941L594.287 317.758L596.824 320.264L586.074 331.015Z" fill="#4598E6"/>
<path d="M598.364 485.988C598.364 493.719 464.408 500 299.197 500C133.956 499.97 0 493.719 0 485.988C0 478.258 133.956 471.977 299.167 471.977C464.408 471.977 598.364 478.227 598.364 485.988Z" fill="url(#paint2_linear)"/>
<path opacity="0.95" d="M363.155 76.1777H255.803V168.28H363.155V76.1777Z" fill="url(#paint3_linear)"/>
<path d="M350.503 132.254C346.97 122.893 338.485 118.605 334.468 117.276C333.049 116.793 330.482 115.978 327.795 115.102C322.963 113.532 317.648 111.841 317.648 111.841H300.949C300.949 111.841 295.151 113.773 289.021 115.948C283.344 117.941 277.395 120.115 275.372 121.111C271.174 123.195 264.108 138.203 262.689 139.925C261.964 140.8 258.673 146.659 255.441 153.181H273.439C275.342 149.92 276.821 147.383 276.821 147.383C276.821 147.383 277.969 149.89 279.328 153.181H337.005C337.911 149.346 338.485 144.515 338.485 144.515C338.485 144.515 341.565 148.712 344.947 153.181H361.556C357.509 146.357 352.496 137.539 350.503 132.254Z" fill="#385369"/>
<path d="M311.277 65.9103C311.277 65.9103 324.352 67.9637 322.359 88.4074C320.366 108.851 308.831 107.16 308.076 107.16C307.291 107.13 296.51 107.522 295.665 82.5793C295.665 82.5793 295.302 64.1286 311.277 65.9103Z" fill="#EEA886"/>
<path d="M322.571 82.6395C322.571 82.6395 323.991 81.0994 324.534 82.6697C325.047 84.2098 322.571 91.125 322.481 91.427C322.481 91.427 322.209 92.0309 321.877 91.6988C321.545 91.3666 322.571 82.6395 322.571 82.6395Z" fill="#EEA886"/>
<path d="M295.997 82.3681C295.997 82.3681 294.608 80.7978 294.034 82.3379C293.491 83.8779 295.786 90.8234 295.907 91.1555C295.907 91.1555 296.148 91.7595 296.511 91.4273C296.873 91.1253 295.997 82.3681 295.997 82.3681Z" fill="#EEA886"/>
<path d="M322.57 85.7803L320.697 88.2867C320.697 88.2867 320.758 82.7907 320.456 81.9452C320.154 81.0996 319.701 78.4725 319.459 77.8383C319.218 77.2344 308.226 74.1542 298.563 78.7442C298.563 78.7442 298.985 82.7001 298.049 83.0323C297.113 83.3947 297.566 89.4644 297.566 89.4644L296.026 87.7431C296.026 87.7431 293.671 72.0102 294.244 70.3795C294.818 68.7489 296.69 58.8743 316.56 64.7326C316.56 64.7326 322.751 63.4341 323.989 67.6919C325.227 71.9498 322.57 85.7803 322.57 85.7803Z" fill="#434343"/>
<path d="M319.279 111.448C319.279 111.418 317.588 110.633 317.588 110.633C316.773 108.821 317.377 101.121 317.377 101.121C317.377 101.121 300.738 96.8931 301.221 100.124C301.704 103.355 299.802 110.875 299.802 110.875L291.256 115.102C291.256 115.102 300.345 139.532 310.794 136.361C321.242 133.221 325.198 114.196 325.198 114.196L319.279 111.448Z" fill="#EEA886"/>
<path d="M301.463 103.748C301.463 103.748 304.15 107.22 308.801 107.22C311.851 107.22 314.055 106.375 317.105 103.385C317.105 103.385 315.777 109.032 308.831 109.546C308.831 109.546 303.758 110.18 301.463 103.748Z" fill="#A77860"/>
<path d="M253.419 185.734C253.419 185.734 263.022 190.445 260.636 203.219C258.251 215.992 257.224 217.714 259.881 222.696C262.539 227.679 265.679 248.998 263.294 253.014C260.908 257.061 233.7 235.289 229.955 217.019C226.181 198.749 232.341 190.626 234.515 187.607C236.689 184.587 244.964 181.446 253.419 185.734Z" fill="#0E2D3D"/>
<path d="M249.796 482.244H251.97V471.977C251.97 471.977 256.228 474.815 258.915 478.741C261.603 482.667 265.287 482.335 270.874 482.093C276.49 481.851 276.219 479.587 275.735 476.416C275.222 473.245 269.545 472.218 267.703 471.735C265.861 471.222 261.694 464.035 260.335 462.283C258.493 459.898 257.526 457.603 257.526 457.603C257.526 457.603 256.469 453.345 251.306 457.603C246.112 461.861 247.622 470.074 248.195 470.829C248.799 471.554 249.796 482.244 249.796 482.244Z" fill="#163342"/>
<path d="M260.757 471.735C262.69 473.003 267.703 471.735 267.703 471.735C266.284 469.893 257.526 457.603 257.526 457.603C252.211 454.492 250.098 458.78 250.098 458.78C252.302 459.415 258.855 470.467 260.757 471.735Z" fill="#EEA886"/>
<path d="M316.713 282.427C316.713 282.427 320.186 283.091 321.394 281.461C322.42 280.071 324.715 279.015 325.44 278.682C326.406 278.229 328.822 275.783 329.366 276.991C329.94 278.199 325.561 281.219 324.776 282.034C323.991 282.85 329.064 283.212 329.909 283.997C330.785 284.782 329.698 293.147 326.255 292.483C322.813 291.818 319.552 288.859 318.917 288.859C318.283 288.859 316.381 288.497 316.381 288.497L316.713 282.427Z" fill="#EEA886"/>
<path d="M329.184 283.635C329.184 283.635 339.603 286.322 340.146 287.077C340.69 287.832 340.509 288.406 339.512 288.195C338.515 287.983 329.366 285.9 329.366 285.9C329.366 285.9 341.143 291.154 341.747 291.667C342.079 291.969 341.807 293.087 341.263 292.996C340.72 292.936 328.731 288.376 328.731 288.376C328.731 288.376 339.723 293.298 340.086 293.902C340.388 294.415 339.874 295.351 339.029 295.049C338.183 294.747 327.705 290.731 327.705 290.731C327.705 290.731 335.496 294.808 335.496 295.502C335.496 295.925 335.315 296.861 333.321 295.744C331.359 294.627 326.406 292.483 326.406 292.483L329.184 283.635Z" fill="#EEA886"/>
<path d="M221.622 482.939H222.951V475.419C222.951 475.419 225.336 477.865 226.423 481.459C227.51 485.052 231.406 486.14 237.355 485.958C243.304 485.777 243.394 483.452 242.881 479.919C242.368 476.416 237.355 474.574 237.355 474.574C235.09 472.551 229.473 464.246 229.473 464.246C229.473 464.246 225.88 463.28 223.041 465.575C220.203 467.84 221.109 473.004 221.169 474.332C221.29 475.661 221.622 482.939 221.622 482.939Z" fill="#163342"/>
<path d="M225.697 303.505C225.697 303.505 218.631 312.715 216.699 323.647C214.766 334.578 217.846 371.238 217.755 376.613C217.665 382.018 212.652 395.456 213.649 405.603C214.645 415.779 218.601 466.39 218.601 466.39L229.442 464.246C229.442 464.246 228.808 412.639 229.442 408.381C230.076 404.123 231.344 388.541 231.586 386.79C231.828 385.038 247.53 338.896 247.53 331.015C247.56 323.133 242.789 290.671 225.697 303.505Z" fill="#1D3B54"/>
<path d="M261.271 307.128C261.271 307.128 272.897 351.519 274.286 357.679C275.675 363.839 277.668 368.912 277.668 371.509C277.668 377.579 275.403 387.303 275.403 387.303L260.637 457.965H246.565C246.565 457.965 254.416 415.568 254.627 407.294C254.839 398.989 261.241 387.182 259.972 383.679C258.704 380.176 239.77 339.621 239.77 339.621C239.77 339.621 225.426 294.234 261.271 307.128Z" fill="#1D3B54"/>
<path d="M237.355 474.574L229.473 464.246L223.041 465.575C223.041 465.575 224.762 470.195 227.903 473.668C231.587 477.775 237.355 474.574 237.355 474.574Z" fill="#EEA886"/>
<path d="M256.469 231.665C256.469 231.665 261.271 232.118 264.894 236.013C268.518 239.909 271.931 246.099 272.867 248.153C273.803 250.237 287.12 269.412 287.814 269.835C288.509 270.257 295.183 272.492 299.622 274.002C306.446 276.297 320.156 281.28 320.156 281.28L317.438 289.886C317.438 289.886 291.65 281.461 285.217 279.86C277.336 277.928 259.157 254.615 259.157 254.615C259.157 254.615 245.598 238.731 256.469 231.665Z" fill="#285173"/>
<path d="M248.104 228.313C248.104 228.313 254.325 231.242 256.469 231.665C258.613 232.088 267.008 242.959 268.457 246.945C269.937 250.901 268.457 256.88 265.437 263.856C262.417 270.831 265.256 273.187 263.897 280.162C262.508 287.138 262.961 313.289 263.233 317.184C263.505 321.08 222.859 326.938 214.826 319.872C214.826 319.872 220.262 296.318 226.694 289.584C228.083 288.134 227.932 278.441 226.996 276.025C226.06 273.609 215.34 255.582 215.34 255.582C215.34 255.582 214.554 237.282 219.235 233.658C223.281 230.518 234.334 229.4 236.327 228.706C238.29 228.011 244.057 227.709 248.104 228.313Z" fill="#FFBF55"/>
<path d="M251.063 221.126C251.063 221.126 250.882 222.847 250.671 225.142C250.58 226.048 250.49 227.075 250.429 228.101C250.188 231.212 249.976 234.533 250.097 236.224C250.097 236.224 243.635 242.687 236.297 228.675C236.297 228.675 239.377 222.907 237.052 215.026C234.727 207.174 251.063 221.126 251.063 221.126Z" fill="#EEA886"/>
<path d="M269.152 266.422C269.152 266.422 270.692 256.095 269.061 249.813C269.061 249.813 269.061 255.219 266.102 262.889L269.152 266.422Z" fill="#183C59"/>
<path d="M231.344 229.672C231.344 229.672 235.783 242.778 247.983 241.811C260.182 240.845 253.75 230.729 253.75 230.729C253.75 230.729 250.7 228.977 249.855 228.826C249.009 228.675 236.387 228.494 236.387 228.494L231.344 229.672Z" fill="#EEA886"/>
<path d="M253.75 230.759C253.75 230.759 260.122 248.424 260.122 266.422C260.122 284.42 260.635 313.742 262.87 323.012C265.104 332.283 271.446 360.91 271.446 360.91L276.428 358.343C276.428 358.343 264.47 312.624 263.564 309.333C262.658 306.041 264.259 271.223 265.104 268.294C265.95 265.365 269.604 252.41 269.03 248.787C268.305 244.257 264.078 237.523 257.223 231.755L253.75 230.759Z" fill="#285173"/>
<path d="M233.729 229.128C233.729 229.128 237.685 241.841 239.708 258.118C241.732 274.394 233.548 349.948 228.052 367.1L206.793 363.658C206.793 363.658 211.383 310.269 217.573 300.545C223.764 290.822 225.757 282.215 219.053 261.953C212.349 241.66 221.982 231.634 221.982 231.634C221.982 231.634 231.887 229.339 233.729 229.128Z" fill="#285173"/>
<path d="M256.681 283.031L230.892 327.693L202.234 311.145L226.906 265.818L256.681 283.031Z" fill="#616161"/>
<path d="M253.571 284.571L230.681 324.22L205.225 309.514L227.118 269.291L253.571 284.571Z" fill="#E0CEC7"/>
<path d="M245.114 281.007L246.744 278.229L236.447 272.28L234.424 274.817L245.114 281.007Z" fill="#616161"/>
<path d="M243.907 312.685C243.907 312.685 242.729 312.685 242.216 312.443C242.216 312.443 241.31 311.93 240.646 311.598C240.434 311.507 240.253 311.417 240.132 311.356C239.619 311.175 238.411 310.933 237.263 310.148C236.116 309.363 232.1 304.683 232.1 304.683L234.002 301.784L235.391 298.824C235.391 298.824 243.877 299.368 245.024 299.972C245.145 300.032 245.236 300.093 245.326 300.153C246.232 300.757 246.685 301.602 247.108 301.995C247.259 302.146 248.799 303.626 248.738 304.26C248.678 305.136 248.255 305.739 247.712 306.011C247.712 306.011 247.5 307.732 246.655 308.548C246.655 308.548 246.504 310.148 245.175 310.843C245.175 310.843 244.843 312.443 243.907 312.685Z" fill="#EEA886"/>
<path d="M226.422 231.665C226.422 231.665 218.601 229.43 214.102 238.037C209.602 246.673 209.633 250.357 209.029 254.555C208.455 258.541 205.918 269.382 205.647 270.529C205.375 271.646 199.607 285.024 202.264 289.705C204.922 294.415 232.039 308.246 231.858 309.273C231.677 310.299 236.539 298.824 236.539 298.824C236.539 298.824 225.577 292.724 223.765 290.822C220.836 287.772 214.706 284.48 215.944 280.675C217.424 276.206 221.893 261.198 222.92 258.994C224.007 256.789 233.036 234.473 226.422 231.665Z" fill="#285173"/>
<path d="M252.029 187.153C252.029 187.153 265.981 191.532 258.401 215.599C250.821 239.667 231.797 212.821 233.79 198.145C235.783 183.5 252.029 187.153 252.029 187.153Z" fill="#EEA987"/>
<path d="M259.82 201.195C259.82 201.195 252.905 207.99 241.309 208.835C241.309 208.835 236.84 214.06 236.508 216.113C236.508 216.113 226.15 198.478 238.893 187.909C251.606 177.339 264.501 196.847 259.82 201.195Z" fill="#0E2D3D"/>
<path d="M241.46 209.319C241.37 207.567 240.283 203.581 237.686 204.698C235.089 205.816 237.837 213.939 239.558 213.425C239.558 213.425 241.672 213.456 241.46 209.319Z" fill="#EEA987"/>
<path d="M250.671 225.142C250.58 226.048 250.49 227.075 250.429 228.102C250.429 228.102 244.269 227.739 240.162 218.589C240.404 218.982 244.933 225.625 250.671 225.142Z" fill="#A77860"/>
<path d="M98.0213 445.161C106.96 438.88 117.408 395.063 118.042 368.973C118.374 355.595 122.3 350.039 125.803 345.117C129.125 340.406 132.024 336.359 130.333 327.058C127.132 309.272 135.557 301.572 135.647 301.511L134.681 300.394C134.319 300.726 125.531 308.638 128.883 327.33C130.453 336.027 127.856 339.681 124.595 344.271C121.153 349.103 116.895 355.112 116.563 368.942C115.898 396.936 105.208 438.306 97.1758 443.953L98.0213 445.161Z" fill="url(#paint4_linear)"/>
<path d="M79.298 432.388C78.4524 430.485 77.5767 428.492 76.5802 426.408C71.4768 415.628 66.9472 413.846 59.4582 410.917C57.6161 410.192 55.5627 409.377 53.2677 408.35C42.5476 403.519 44.601 396.422 46.443 390.141C46.6846 389.265 46.9564 388.39 47.1678 387.514C48.1039 383.83 46.292 381.988 43.5441 379.179C41.4906 377.096 38.954 374.499 36.9912 370.422C34.8472 365.953 35.9343 363.537 37.2328 362.329C39.9506 359.762 46.2317 360.215 52.1504 363.446C53.9924 364.443 55.5023 366.044 57.1028 367.735C60.8775 371.69 65.5883 376.613 77.4861 376.673C84.2806 376.703 87.9949 377.639 89.8973 379.814C92.0715 382.26 91.679 385.944 91.1052 391.017C90.8938 392.768 90.6824 394.761 90.5616 396.936C89.7463 409.77 97.3259 419.04 97.4165 419.131C101.946 424.536 107.533 435.709 105.117 442.624C104.12 445.523 101.856 447.335 98.413 448.03C97.0541 448.302 95.7858 448.453 94.6383 448.453C86.3642 448.392 83.3142 441.507 79.298 432.388ZM51.486 364.745C46.2015 361.846 40.5243 361.272 38.2897 363.386C36.5986 364.987 37.3838 367.765 38.3501 369.788C40.1921 373.653 42.5476 376.039 44.601 378.153C47.4698 381.082 49.7346 383.407 48.5871 387.907C48.3757 388.782 48.1039 389.688 47.8321 390.564C46.0203 396.815 44.2688 402.703 53.8414 407.022C56.0761 408.018 58.1597 408.833 59.9715 409.558C67.5511 412.518 72.5337 414.48 77.8787 425.804C78.8752 427.918 79.7509 429.881 80.5965 431.814C85.2167 442.292 88.025 448.634 98.111 446.58C101.01 446.007 102.882 444.497 103.728 442.141C105.842 436.072 100.768 425.442 96.2992 420.097C95.967 419.705 88.2666 410.313 89.1122 396.845C89.2632 394.641 89.4745 392.648 89.6859 390.866C90.1993 386.155 90.5918 382.773 88.8404 380.81C87.2399 379.028 83.737 378.213 77.5163 378.183C64.9843 378.123 60.0621 372.959 56.0761 368.791C54.5058 367.07 53.1469 365.621 51.486 364.745Z" fill="url(#paint5_linear)"/>
<path d="M98.2917 456.938L99.7713 456.847C99.7109 455.458 97.8387 422.754 84.7028 413.212C70.2985 402.703 65.7689 391.44 63.5947 383.86C61.0581 374.952 48.0731 372.566 47.5296 372.445L47.2578 373.895C47.3786 373.925 59.8804 376.22 62.1754 384.253C64.41 392.044 69.0604 403.639 83.827 414.39C96.3892 423.57 98.2917 456.606 98.2917 456.938Z" fill="url(#paint6_linear)"/>
<path d="M95.7862 464.276C92.7061 462.736 92.7967 456.546 92.9778 447.184C93.1892 435.347 93.4912 419.161 87.3007 404.243C80.7176 388.42 86.576 383.8 92.2531 379.3C98.5946 374.287 104.604 369.546 93.0986 348.197C87.8141 338.382 86.123 331.739 87.8141 327.3C89.4749 322.921 94.1556 321.2 99.1079 319.388C107.654 316.278 117.317 312.715 116.079 294.656C115.686 289.13 116.351 285.718 118.132 283.936C120.065 282.004 122.904 282.215 126.225 282.457C131.208 282.819 136.855 283.242 141.777 276.81C142.29 275.209 147.001 260.896 152.618 258.419C153.796 257.906 154.973 257.906 156.061 258.45C159.956 260.322 162.191 262.526 162.946 265.184C164.244 269.834 160.832 275.088 156.906 281.158C150.716 290.701 143.68 301.542 150.957 314.436C160.59 331.467 155.517 337.446 148.451 345.69C144.404 350.431 139.844 355.776 136.764 364.503C134.318 371.539 138.516 378.243 142.562 384.706C147.666 392.829 152.92 401.254 141.837 408.531C123.508 420.58 105.389 459.958 105.208 460.35L105.147 460.501L104.996 460.622C101.614 463.28 99.1683 464.518 97.2961 464.518C96.7525 464.638 96.2694 464.518 95.7862 464.276ZM141.022 407.384C150.897 400.891 146.458 393.795 141.324 385.581C137.278 379.119 132.688 371.781 135.375 364.111C138.516 355.112 143.196 349.646 147.333 344.815C154.249 336.722 158.808 331.377 149.659 315.251C141.928 301.572 149.538 289.855 155.638 280.464C159.382 274.696 162.644 269.683 161.496 265.697C160.862 263.462 158.869 261.56 155.396 259.899C154.702 259.567 153.977 259.567 153.192 259.899C147.968 262.164 143.166 277.323 143.136 277.504L143.106 277.625L143.015 277.716C137.58 284.872 131.208 284.419 126.105 284.027C123.055 283.816 120.639 283.634 119.159 285.084C117.71 286.503 117.196 289.644 117.528 294.656C118.857 313.832 108.167 317.727 99.5911 320.868C94.7595 322.619 90.6224 324.159 89.173 327.904C87.6631 331.92 89.2937 338.171 94.3669 347.563C106.476 370.03 99.7119 375.374 93.1288 380.538C87.6329 384.857 82.4691 388.933 88.6294 403.73C94.9407 418.919 94.6387 435.286 94.4273 447.245C94.2763 455.398 94.1555 461.86 96.4204 462.978C97.7491 463.642 100.255 462.525 103.909 459.686C105.419 456.485 122.753 419.403 141.022 407.384Z" fill="url(#paint7_linear)"/>
<path d="M66.8556 292.693C76.1866 289.492 74.254 307.49 78.1796 320.777C82.1355 334.094 122.026 326.575 105.297 359.883C88.5676 393.191 126.496 371.026 115.141 400.106C103.817 429.186 114.145 460.26 101.824 452.378C89.5037 444.466 94.9091 407.867 82.1053 403.518C69.3016 399.17 67.1877 394.097 79.9009 382.259C92.5839 370.422 46.6534 358.705 58.0077 334.819C69.3318 310.933 56.075 296.377 66.8556 292.693Z" fill="url(#paint8_linear)"/>
<path d="M97.5671 450.476C98.7448 445.493 108.77 401.706 99.4092 396.392C91.1653 391.711 91.3766 373.562 92.6449 356.44C93.7924 341.281 74.2848 334.185 73.4695 333.883L72.9863 335.272C73.1675 335.332 92.2222 342.278 91.1954 356.32C89.8668 373.925 89.746 392.587 98.6844 397.66C105.781 401.676 99.2582 436.887 96.1176 450.113L97.5671 450.476Z" fill="white"/>
<path d="M132.747 434.864L119.43 485.414H89.655L76.3379 434.864H132.747Z" fill="url(#paint9_linear)"/>
<path d="M132.747 434.864C132.747 434.864 103.425 440.36 103.425 485.414H89.655L76.3379 434.864H132.747Z" fill="url(#paint10_linear)"/>
<path opacity="0.95" d="M507.228 116.642H419.323C411.29 116.642 404.768 110.12 404.768 102.087V25.8081C404.768 17.7756 411.29 11.2529 419.323 11.2529H507.228C515.26 11.2529 521.783 17.7756 521.783 25.8081V102.057C521.783 110.12 515.291 116.642 507.228 116.642Z" fill="url(#paint11_linear)"/>
<path d="M467.458 96.7119H458.188V98.4332H467.458V96.7119Z" fill="#4598E6"/>
<path d="M471.231 2.01231C471.231 2.01231 478.72 6.11917 476.334 16.2052C473.949 26.2911 473.043 27.65 474.975 31.7267C476.908 35.8034 478.599 52.8952 476.546 56.0357C474.492 59.1763 453.626 40.7859 451.301 26.0797C448.975 11.3735 454.2 5.12265 456.042 2.79744C457.884 0.47223 464.648 -1.73219 471.231 2.01231Z" fill="#344052"/>
<path d="M485.274 85.4784H477.271C476.879 81.5225 476.516 78.7746 476.607 78.382C476.728 77.7177 468.635 56.519 467.88 54.7373C467.125 52.9859 464.166 48.275 463.773 43.8662C463.381 39.4272 469.148 37.6455 469.148 37.6455C476.939 39.0346 479.597 49.8151 479.597 49.8151C479.597 49.8151 482.858 71.6781 484.519 77.8384C484.942 79.4087 485.183 82.1869 485.274 85.4784Z" fill="#EEA886"/>
<path d="M481.257 55.0693L469.329 60.0821C469.329 60.0821 458.367 32.8741 467.547 35.9241C476.697 38.974 480.834 44.6511 481.257 55.0693Z" fill="#EB4747"/>
<path d="M478.599 67.8733C478.237 70.5609 476.817 80.1335 477.15 82.7305C477.21 83.1533 477.391 84.1498 477.633 85.4785H448.885C449.64 82.7607 450.334 80.3449 450.757 78.9256C452.146 74.3054 450.817 73.0673 450.123 69.353C449.851 67.9035 448.885 65.1555 447.828 62.0452C447.465 61.0185 447.103 59.9314 446.771 58.8442C445.503 54.9186 444.929 50.9023 444.566 48.5771C442.845 37.5248 451.331 36.4679 451.331 36.4679C454.501 35.8941 460.028 34.1729 460.028 34.1729L468.664 35.9847C468.664 35.9847 469.479 36.2867 470.687 37.1926C471.261 37.6154 471.925 38.1891 472.62 38.8837C473.556 39.85 475.458 42.6282 477.331 45.6781C477.904 46.6142 478.478 47.5806 479.022 48.5167C480.773 51.5666 482.042 54.0126 481.981 56.7908C481.951 59.4784 478.931 65.1857 478.599 67.8733Z" fill="#EB4747"/>
<path d="M468.635 35.9543C468.635 35.9543 474.041 45.2249 472.048 45.9195C470.024 46.614 459.425 44.2586 455.258 35.5315C455.258 35.5013 462.233 32.3306 468.635 35.9543Z" fill="#EEA886"/>
<path d="M467.88 40.1819C467.88 40.1819 463.079 42.2051 458.7 35.5013C458.7 35.5013 459.878 27.8915 457.401 23.4826C454.925 19.0738 468.212 28.7672 468.212 28.7672C468.212 28.7672 468.001 29.6731 467.759 31.0018C467.638 31.6964 467.518 32.4815 467.427 33.327C467.367 34.0216 467.306 34.7765 467.276 35.5013C467.246 37.2527 467.367 38.9438 467.88 40.1819Z" fill="#EEA886"/>
<path d="M455.921 50.5396C454.925 55.6429 447.828 62.0146 447.828 62.0146C447.466 60.9879 447.104 59.9008 446.771 58.8137C451.663 55.6731 455.921 50.5396 455.921 50.5396Z" fill="#393D63"/>
<path d="M454.139 54.5861C453.686 56.4584 451.603 75.2412 451.844 75.9056C451.965 76.2679 452.992 80.6164 453.988 85.448H444.718C443.782 82.3377 443.208 79.7407 443.329 78.2912C443.933 71.9497 441.758 51.7173 441.758 51.7173C441.758 51.7173 439.826 39.4873 449.972 37.9473C449.972 37.9473 455.981 38.7324 456.344 43.1714C456.706 47.6105 454.592 52.7441 454.139 54.5861Z" fill="#EEA886"/>
<path d="M441.034 57.2132L453.626 60.1423C453.626 60.1423 463.622 40.7253 454.623 37.1922C445.111 33.4477 438.739 46.6138 441.034 57.2132Z" fill="#EB4747"/>
<path d="M470.084 3.09963C470.084 3.09963 481.046 7.1159 474.101 26.0196C467.155 44.9232 452.993 22.7884 455.137 11.1926C457.25 -0.433484 470.084 3.09963 470.084 3.09963Z" fill="#EEA987"/>
<path d="M475.761 14.5743C475.761 14.5743 469.993 19.7381 460.693 19.9797C460.693 19.9797 458.518 25.2643 458.186 26.8949C458.186 26.8949 449.036 11.162 459.545 3.22007C470.084 -4.75208 479.657 11.2828 475.761 14.5743Z" fill="#344052"/>
<path d="M461.96 21.097C461.96 19.7079 461.235 16.4768 459.122 17.2619C457.008 18.047 458.91 24.6301 460.299 24.2979C460.299 24.2979 461.96 24.4187 461.96 21.097Z" fill="#EEA987"/>
<path d="M467.306 35.1995C462.173 33.7802 460.18 28.858 460.119 28.707C464.317 34.1124 467.457 33.3273 467.457 33.3273C467.397 34.052 467.367 34.505 467.306 35.1995Z" fill="#A77860"/>
<path d="M491.103 30.3076V31.9987H501.007V41.2995H502.698V30.3378H491.103V30.3076ZM423.883 41.2693H425.574V31.9987H435.479V30.3076H423.913V41.2693H423.883ZM501.007 89.223V98.5239H491.103V100.215H502.668V89.2532H501.007V89.223ZM425.574 89.223H423.883V100.185H435.448V98.4937H425.544V89.223H425.574Z" fill="#4598E6"/>
<path d="M315.685 175.437H303.273V177.732H315.685V175.437Z" fill="#4598E6"/>
<path d="M346.637 86.7769V89.0115H359.863V101.423H362.098V86.7769H346.637ZM256.859 101.423H259.094V89.0115H272.321V86.7769H256.859V101.423ZM359.863 165.441V177.853H346.637V180.087H362.098V165.441H359.863ZM259.124 165.441H256.89V180.087H272.351V177.853H259.124V165.441Z" fill="#4598E6"/>
<path d="M586.408 259.265H575.93C575.748 258.842 575.597 258.48 575.446 258.178C572.336 250.84 556.301 233.99 556.301 233.99C556.301 233.99 556.301 233.99 556.301 234.02C556.301 234.02 556.301 234.02 556.301 234.05C556.301 234.05 556.301 234.05 556.301 234.08C556.301 234.111 556.271 234.141 556.271 234.141C556.271 234.171 556.241 234.231 556.241 234.292C556.241 234.322 556.211 234.352 556.211 234.382C556.211 234.413 556.18 234.443 556.18 234.443C555.516 236.889 552.285 249.119 550.684 259.265H479.72C479.569 258.329 479.358 257.423 479.146 256.608C478.512 254.101 478.059 251.595 477.788 249.27C477.788 249.149 477.757 249.028 477.757 248.938C477.697 248.515 477.667 248.092 477.606 247.669C477.002 241.298 477.455 236.406 477.486 235.922C477.274 236.345 475.855 241.6 473.983 248.092C472.956 251.655 471.778 255.581 470.631 259.295H453.871L474.889 198.628C475.342 198.266 480.807 195.639 484.793 193.736C488.84 191.804 493.762 188.965 498.171 186.549C500.436 185.311 502.58 184.194 504.422 183.348L504.694 183.228C507.744 181.839 509.797 180.902 509.797 180.902C509.857 180.902 510.34 180.842 511.126 180.782C515.383 180.359 528.64 179.121 533.079 178.879C533.442 178.849 533.744 178.849 533.985 178.819C534.197 178.819 534.348 178.819 534.438 178.819C534.982 178.849 537.73 179.815 541.323 181.174C541.474 181.235 541.595 181.265 541.746 181.325C541.927 181.386 542.078 181.446 542.259 181.506C542.561 181.627 542.893 181.748 543.195 181.869C543.83 182.11 544.494 182.382 545.158 182.654C545.4 182.745 545.611 182.835 545.853 182.926C553.04 185.764 561.254 189.297 563.216 190.717C564.515 191.653 568.531 199.232 573.212 208.594C578.255 224.629 584.385 247.82 586.408 259.265Z" fill="#DECBC4"/>
<path d="M534.346 176.705C534.165 186.247 515.684 191.471 515.684 191.471C515.684 191.471 507.953 181.778 509.795 180.872C510.52 180.51 510.822 179.06 510.913 177.429C511.003 175.889 510.913 174.198 510.822 173.111C510.762 172.447 510.701 171.994 510.701 171.994C510.701 171.994 513.329 169.216 516.711 165.894C522.569 160.096 530.632 152.667 530.662 155.627C530.662 155.778 530.632 155.959 530.602 156.201C529.152 162.814 534.346 176.705 534.346 176.705Z" fill="#EEA886"/>
<path d="M527.22 162.724C527.19 162.784 526.404 163.962 525.076 165.623C522.237 169.186 516.922 175.044 510.913 177.4C511.004 175.86 510.913 174.168 510.823 173.081C510.219 173.051 509.584 172.991 508.98 172.87C510.611 170.001 512.997 166.981 512.997 166.981L516.711 165.864L527.22 162.724Z" fill="#A77860"/>
<path d="M530.783 155.718C529.183 159.19 527.673 161.727 527.25 162.724C526.978 163.388 526.193 164.445 525.106 165.623C522.056 168.914 516.409 173.232 510.853 173.081C510.249 173.051 509.615 172.991 509.011 172.87C506.776 172.387 504.119 171.33 502.669 168.491C491.134 145.934 499.499 127.483 499.499 127.483C499.499 127.483 530.995 118.575 535.917 128.057C539.329 134.7 534.528 147.564 530.783 155.718Z" fill="#EEA886"/>
<path d="M499.439 127.453C499.439 127.453 496.51 127.302 495.785 121.745C495.06 116.28 496.51 114.74 496.51 114.74C496.51 114.74 509.525 109.304 514.175 108.579C518.826 107.854 530.331 107.19 533.019 110.27C533.019 110.27 539.571 108.76 541.353 119.601C544.192 136.814 531.72 153.543 531.72 153.543C531.72 153.543 531.841 142.28 529.334 140.8C526.858 139.32 524.714 142.853 524.714 142.853L519.641 143.759C519.641 143.759 527.341 127.121 518.101 126.486C508.86 125.913 504.723 128.419 499.439 127.453Z" fill="#E8734D"/>
<path d="M524.865 138.415C525.348 133.462 534.317 131.56 533.713 136.754C533.109 141.948 528.7 146.93 526.647 146.779C524.623 146.598 524.503 142.189 524.865 138.415Z" fill="#EEA886"/>
<path d="M577.348 209.016C574.419 199.655 571.912 192.257 570.765 191.472C568.802 190.052 553.25 185.794 545.882 182.895C545.641 182.805 545.399 182.714 545.188 182.624C544.523 182.352 543.859 182.11 543.225 181.839C542.893 181.718 542.591 181.597 542.289 181.476C542.107 181.416 541.956 181.355 541.775 181.295C541.624 181.235 541.503 181.174 541.352 181.144L541.322 181.174C540.658 181.899 537.246 185.794 533.169 191.592C525.529 202.433 515.594 220.008 517.134 236.224C517.617 241.418 518.221 248.907 519.248 257.302C519.308 257.967 519.399 258.631 519.489 259.295H553.915C554.337 250.508 555.092 238.942 556.21 234.473C556.21 234.443 556.24 234.412 556.24 234.412C556.24 234.382 556.24 234.352 556.27 234.322C556.27 234.262 556.3 234.231 556.3 234.171C556.3 234.141 556.33 234.111 556.33 234.111V234.08V234.05C556.33 234.05 564.665 247.065 565.088 259.295H586.739C585.682 247.911 582.361 225.051 577.348 209.016Z" fill="#3C4145"/>
<path d="M504.572 183.409C504.572 183.409 501.975 192.076 498.623 213.667C498.502 214.392 498.381 215.116 498.291 215.871C498.291 215.962 498.261 216.052 498.261 216.143C498.17 216.626 498.11 217.14 498.019 217.653C498.019 217.713 497.989 217.774 497.989 217.834C497.928 218.166 497.868 218.529 497.838 218.861C497.717 219.706 497.596 220.582 497.445 221.458C496.177 230.275 494.516 244.287 492.795 259.235H479.176C478.451 255.068 477.757 251.293 477.787 248.726C477.757 248.787 477.726 248.847 477.726 248.907C476.639 251.927 475.431 255.188 474.223 258.389C474.103 258.691 474.012 258.963 473.891 259.265H450.428L473.801 198.145C474.254 197.783 480.293 194.552 484.249 192.649C488.416 190.656 493.64 188.24 498.291 186.096C500.525 185.07 502.609 184.103 504.391 183.288L504.572 183.409Z" fill="#3C4145"/>
<path d="M536.219 204.758L527.22 209.832L531.055 213.757L522.63 259.265H519.459C518.281 250.055 517.617 241.811 517.103 236.194C514.748 211.1 539.782 182.835 541.322 181.114C542.53 181.567 543.828 182.08 545.157 182.593L536.219 204.758Z" fill="#51565C"/>
<path d="M504.723 183.167C504.723 183.167 501.371 194.129 497.445 221.488C496.177 230.305 494.486 244.317 492.795 259.265H491.466L489.715 216.264L494.003 211.613L490.198 206.872L498.351 186.096C500.586 185.069 502.67 184.103 504.451 183.288L504.723 183.167Z" fill="#51565C"/>
<path d="M541.804 181.204L534.346 176.675C534.346 176.675 534.134 180.751 515.684 191.441L520.908 206.208L541.804 181.204Z" fill="#F5E2D9"/>
<path d="M510.792 178.758C510.792 178.758 511.094 183.167 515.715 191.471L505.478 204.789L504.723 183.167L510.792 178.758Z" fill="#F5E2D9"/>
<path d="M515.715 191.441C515.715 191.441 517.708 199.353 516.983 201.588C516.983 201.588 512.635 203.158 509.494 201.195C509.494 201.195 511.699 195.639 515.715 191.441Z" fill="#D44040"/>
<path d="M513.299 218.408C511.215 232.631 511.215 247.035 511.97 259.265H503.243C503.122 257.544 503.001 255.732 502.911 253.86C501.28 225.655 511.245 200.47 511.245 200.47L515.684 199.353C515.715 199.383 514.265 211.825 513.299 218.408Z" fill="#D44040"/>
<path d="M478.088 235.952C477.756 242.717 477.816 248.726 477.816 248.726C477.816 248.756 477.816 248.937 477.786 249.239C477.786 249.119 477.756 248.998 477.756 248.907C476.669 251.927 475.461 255.188 474.253 258.389C473.981 254.705 473.891 251.263 473.981 248.062C474.464 229.098 480.444 219.163 480.444 219.163C479.054 222.454 478.42 229.551 478.088 235.952Z" fill="#2D3133"/>
<path d="M396.463 259.356L368.56 274.696L340.537 230.577L374.419 218.8L396.463 259.356Z" fill="#292C47"/>
<path d="M394.681 258.027L368.59 272.371L342.379 231.121L374.086 220.129L394.681 258.027Z" fill="white"/>
<path d="M404.254 250.297C404.254 250.297 399.392 247.971 397.279 246.763C395.135 245.556 389.669 243.895 389.216 243.472C388.763 243.079 372.97 242.113 372.003 241.267C371.037 240.452 370.101 243.2 374.208 244.106C378.314 245.012 384.022 247.186 384.324 248.787C384.626 250.387 380.126 250.78 379.643 252.078C379.19 253.407 379.764 253.105 380.428 253.377C381.062 253.648 385.803 251.051 387.887 251.776C389.971 252.531 393.141 251.504 394.742 252.048C396.342 252.592 404.103 255.189 404.103 255.189L404.254 250.297Z" fill="#EEA886"/>
<path d="M367.202 269.14C367.202 269.14 363.125 265.456 361.132 263.916C359.17 262.376 355.455 257.846 354.912 257.605C354.368 257.333 347.302 242.808 346.124 242.234C344.977 241.66 347.211 239.697 349.657 243.2C352.103 246.703 356.391 251.233 358.022 250.901C359.653 250.569 358.264 246.16 359.32 245.224C360.377 244.287 360.347 244.952 360.861 245.435C361.374 245.948 360.74 251.414 362.25 253.075C363.76 254.736 364.031 258.148 365.149 259.447C366.296 260.745 371.762 267.026 371.762 267.026L367.202 269.14Z" fill="#EEA886"/>
<path d="M455.076 465.454C455.076 465.454 455.952 471.584 456.073 472.49C456.193 473.396 465.887 471.946 465.887 471.946L466.672 464.639C466.672 464.669 456.284 464.578 455.076 465.454Z" fill="#424773"/>
<path d="M455.952 471.705C455.952 471.705 452.871 475.389 449.912 477.02C446.923 478.62 442.272 479.254 440.49 480.945C439.222 482.153 435.87 487.317 448.221 487.227C460.572 487.136 466.521 487.951 467.849 485.958C469.178 483.965 465.947 471.312 465.947 471.312C465.947 471.312 463.018 472.339 455.952 471.705Z" fill="#292C47"/>
<path d="M385.502 465.454C385.502 465.454 386.378 471.584 386.498 472.49C386.619 473.396 396.313 471.946 396.313 471.946L397.098 464.639C397.098 464.669 386.71 464.578 385.502 465.454Z" fill="#424773"/>
<path d="M386.408 471.705C386.408 471.705 383.328 475.389 380.368 477.02C377.379 478.62 366.447 479.949 364.696 481.61C363.427 482.818 361.314 487.649 378.707 487.196C391.058 486.864 397.007 487.921 398.336 485.928C399.664 483.935 396.433 471.282 396.433 471.282C396.433 471.282 393.625 472.43 386.408 471.705Z" fill="#292C47"/>
<path d="M447.014 308.034C447.014 308.034 456.134 322.529 455.47 335.635C454.775 348.74 458.791 363.054 460.15 376.734C461.69 391.983 467.941 428.1 468.153 436.283C468.394 444.437 467.186 470.497 467.186 470.497L454.684 470.769C454.684 470.769 444.176 407.626 441.458 401.163C438.74 394.731 425.242 348.771 424.789 343.637C424.306 338.473 447.014 308.034 447.014 308.034Z" fill="#292C47"/>
<path d="M399 309.997C399 309.997 392.115 345.902 391.209 353.935C390.303 361.967 389.699 392.738 389.246 397.751C388.793 402.764 386.226 463.34 383.811 470.769H399.815C399.815 470.769 412.106 426.741 412.106 405.905C412.106 385.068 421.588 360.608 427.718 346.868C433.848 333.128 447.86 332.796 451.634 307.31C451.604 307.279 404.103 301.904 399 309.997Z" fill="#292C47"/>
<path d="M431.795 186.157C431.795 186.157 419.565 181.597 413.918 190.898C408.271 200.229 408.814 218.891 414.975 221.186C421.135 223.481 430.406 222.273 433.576 216.445C436.747 210.617 439.586 202.192 439.465 196.545C439.314 190.928 435.026 187.787 431.795 186.157Z" fill="#EEA886"/>
<path d="M416.303 221.609C416.303 221.609 416.816 224.9 415.971 226.531C415.125 228.162 431.824 228.192 431.824 228.192C431.824 228.192 433.183 219.344 435.75 211.855C438.347 204.396 416.303 221.609 416.303 221.609Z" fill="#EEA886"/>
<path d="M435.781 211.885C435.781 211.885 434.633 213.788 429.923 213.063C425.212 212.338 419.474 206.057 417.511 205.363C415.549 204.668 415.518 203.521 415.518 203.521L414.28 205.332L412.197 205.453C412.197 205.453 414.099 199.867 411.23 197.572C408.362 195.277 414.22 179.453 429.319 184.707C429.319 184.707 440.915 187.908 440.492 194.491C440.069 201.075 438.378 208.594 435.781 211.885Z" fill="#3A3F47"/>
<path d="M414.975 226.35C414.975 226.35 415.035 223.239 416.424 222.937C417.843 222.635 432.006 221.277 433.727 221.971V225.595C433.758 225.595 430.406 227.648 414.975 226.35Z" fill="#E2D2CA"/>
<path d="M415.819 201.105C416.091 199.987 418.9 196.847 419.987 200.229C421.074 203.611 418.356 208.171 416.846 207.778C415.336 207.386 415.155 203.913 415.819 201.105Z" fill="#EEA886"/>
<path d="M358.806 263.131C358.806 263.1 358.806 263.1 358.806 263.131C358.716 263.161 358.716 263.161 358.806 263.131Z" fill="#323657"/>
<path d="M457.31 342.55C457.31 342.55 449.791 344.755 436.987 346.174C424.183 347.593 392.174 345.661 391.993 344.151C391.781 342.641 398.878 287.832 398.485 284.994C398.093 282.185 397.851 272.099 397.851 272.099C397.7 274.847 394.892 286.111 391.51 292.241C390.272 294.446 386.165 301.421 384.202 299.821C374.629 292.181 359.772 263.342 358.836 263.1C359.621 262.768 365.872 259.869 366.748 259.598C367.503 259.356 374.418 266.664 378.615 271.193C380.488 273.217 381.816 274.696 381.816 274.696C383.024 271.979 387.433 254.826 388.792 248.877C391.872 235.5 391.419 234.926 391.419 234.926C400.78 232.088 415.003 226.32 415.003 226.32L433.756 225.565C433.756 225.565 450.969 229.37 457.763 232.42C458.397 232.722 458.397 247.79 460.179 251.746L454.562 263.614C454.562 263.614 451.301 287.108 450.636 297.556C450.304 302.357 457.31 342.55 457.31 342.55Z" fill="#FFDF69"/>
<path d="M460.935 271.314C460.452 272.884 458.218 274.243 456.768 274.817C455.832 275.179 454.805 275.3 453.779 275.119L453.054 274.968L440.19 272.582C440.19 272.582 437.381 240.18 457.765 232.419C458.278 232.631 465.435 256.819 460.935 271.314Z" fill="#FFDF69"/>
<path d="M456.798 274.817C455.862 275.18 454.835 275.3 453.809 275.119L453.084 274.968L454.352 258.42L456.798 274.817Z" fill="#AB9546"/>
<path d="M381.818 274.696L380.247 281.34C380.247 281.34 378.556 274.666 378.617 271.193C380.489 273.217 381.818 274.696 381.818 274.696Z" fill="#AB9546"/>
<path d="M435.297 187.275C435.297 187.275 451.332 185.251 435.569 212.067L435.297 187.275Z" fill="#3A3F47"/>
<path d="M353.431 228.222L351.801 225.414L364.635 220.975L366.265 223.783L353.431 228.222Z" fill="#292C47"/>
<g opacity="0.95">
<path opacity="0.95" d="M598.485 108.126H607.575L604.797 102.358H595.707L598.485 108.126Z" fill="url(#paint12_linear)"/>
<path opacity="0.95" d="M594.227 108.126H596.402L593.593 102.358H591.449L594.227 108.126Z" fill="url(#paint13_linear)"/>
<path opacity="0.95" d="M562.761 101.241H599.632L598.394 98.3423H561.553L562.761 101.241Z" fill="url(#paint14_linear)"/>
</g>
<path d="M364.847 9.10877H350.926C350.442 9.10877 350.08 8.7162 350.08 8.26323V5.24348C350.08 4.76032 350.473 4.39795 350.926 4.39795H364.847C365.33 4.39795 365.692 4.79052 365.692 5.24348V8.26323C365.692 8.7464 365.3 9.10877 364.847 9.10877Z" fill="url(#paint15_linear)"/>
<path d="M364.847 20.4027H350.926C350.442 20.4027 350.08 20.0101 350.08 19.5572V16.5374C350.08 16.0543 350.473 15.6919 350.926 15.6919H364.847C365.33 15.6919 365.692 16.0845 365.692 16.5374V19.5572C365.692 20.0101 365.3 20.4027 364.847 20.4027Z" fill="url(#paint16_linear)"/>
<path d="M364.847 31.6967H350.926C350.442 31.6967 350.08 31.3041 350.08 30.8511V27.8314C350.08 27.3482 350.473 26.9858 350.926 26.9858H364.847C365.33 26.9858 365.692 27.3784 365.692 27.8314V30.8511C365.692 31.3041 365.3 31.6967 364.847 31.6967Z" fill="url(#paint17_linear)"/>
<path d="M375.718 9.10877H372.971C372.487 9.10877 372.125 8.7162 372.125 8.26323V5.24348C372.125 4.76032 372.518 4.39795 372.971 4.39795H375.718C376.202 4.39795 376.564 4.79052 376.564 5.24348V8.26323C376.594 8.7464 376.202 9.10877 375.718 9.10877Z" fill="url(#paint18_linear)"/>
<path d="M375.718 20.4027H372.971C372.487 20.4027 372.125 20.0101 372.125 19.5572V16.5374C372.125 16.0543 372.518 15.6919 372.971 15.6919H375.718C376.202 15.6919 376.564 16.0845 376.564 16.5374V19.5572C376.594 20.0101 376.202 20.4027 375.718 20.4027Z" fill="url(#paint19_linear)"/>
<path d="M375.718 31.6967H372.971C372.487 31.6967 372.125 31.3041 372.125 30.8511V27.8314C372.125 27.3482 372.518 26.9858 372.971 26.9858H375.718C376.202 26.9858 376.564 27.3784 376.564 27.8314V30.8511C376.594 31.3041 376.202 31.6967 375.718 31.6967Z" fill="url(#paint20_linear)"/>
<path d="M315.263 263.312H331.6L326.587 252.924H310.25L315.263 263.312Z" fill="url(#paint21_linear)"/>
<path d="M307.622 263.312H311.518L306.505 252.924H302.609L307.622 263.312Z" fill="url(#paint22_linear)"/>
<defs>
<linearGradient id="paint0_linear" x1="320.863" y1="356.062" x2="308.425" y2="130.619" gradientUnits="userSpaceOnUse">
<stop stop-color="#D1D7E0"/>
<stop offset="1" stop-color="#EBEBFF"/>
</linearGradient>
<linearGradient id="paint1_linear" x1="524.328" y1="418.913" x2="524.328" y2="186.816" gradientUnits="userSpaceOnUse">
<stop stop-color="#D1D7E0"/>
<stop offset="1" stop-color="#EBEBFF"/>
</linearGradient>
<linearGradient id="paint2_linear" x1="0" y1="485.974" x2="598.352" y2="485.974" gradientUnits="userSpaceOnUse">
<stop offset="0.00520833" stop-color="#1A2257"/>
<stop offset="1" stop-color="#5E60F2"/>
</linearGradient>
<linearGradient id="paint3_linear" x1="309.486" y1="275.588" x2="309.486" y2="105.877" gradientUnits="userSpaceOnUse">
<stop stop-color="#D1D7E0"/>
<stop offset="1" stop-color="#EBEBFF"/>
</linearGradient>
<linearGradient id="paint4_linear" x1="135.639" y1="372.772" x2="97.1706" y2="372.772" gradientUnits="userSpaceOnUse">
<stop stop-color="#3076A1"/>
<stop offset="1" stop-color="#48C9B6"/>
</linearGradient>
<linearGradient id="paint5_linear" x1="105.749" y1="404.526" x2="35.8155" y2="404.526" gradientUnits="userSpaceOnUse">
<stop stop-color="#3076A1"/>
<stop offset="1" stop-color="#48C9B6"/>
</linearGradient>
<linearGradient id="paint6_linear" x1="99.7709" y1="414.696" x2="47.2808" y2="414.696" gradientUnits="userSpaceOnUse">
<stop stop-color="#3076A1"/>
<stop offset="1" stop-color="#48C9B6"/>
</linearGradient>
<linearGradient id="paint7_linear" x1="163.221" y1="361.374" x2="84.3982" y2="361.374" gradientUnits="userSpaceOnUse">
<stop stop-color="#3076A1"/>
<stop offset="1" stop-color="#48C9B6"/>
</linearGradient>
<linearGradient id="paint8_linear" x1="116.288" y1="447.416" x2="70.3945" y2="309.736" gradientUnits="userSpaceOnUse">
<stop stop-color="#3076A1"/>
<stop offset="1" stop-color="#48C9B6"/>
</linearGradient>
<linearGradient id="paint9_linear" x1="80.7806" y1="537.332" x2="103.727" y2="438.413" gradientUnits="userSpaceOnUse">
<stop stop-color="#C9C4C1"/>
<stop offset="1" stop-color="#FFF6DE"/>
</linearGradient>
<linearGradient id="paint10_linear" x1="76.3443" y1="460.139" x2="132.754" y2="460.139" gradientUnits="userSpaceOnUse">
<stop stop-color="#C9C4C1"/>
<stop offset="1" stop-color="#FFF6DE"/>
</linearGradient>
<linearGradient id="paint11_linear" x1="463.285" y1="132.111" x2="463.285" y2="36.5104" gradientUnits="userSpaceOnUse">
<stop stop-color="#D1D7E0"/>
<stop offset="1" stop-color="#EBEBFF"/>
</linearGradient>
<linearGradient id="paint12_linear" x1="595.696" y1="105.238" x2="607.584" y2="105.238" gradientUnits="userSpaceOnUse">
<stop stop-color="#D1D7E0"/>
<stop offset="1" stop-color="#EBEBFF"/>
</linearGradient>
<linearGradient id="paint13_linear" x1="591.436" y1="105.238" x2="596.391" y2="105.238" gradientUnits="userSpaceOnUse">
<stop stop-color="#D1D7E0"/>
<stop offset="1" stop-color="#EBEBFF"/>
</linearGradient>
<linearGradient id="paint14_linear" x1="561.551" y1="99.8004" x2="599.631" y2="99.8004" gradientUnits="userSpaceOnUse">
<stop stop-color="#D1D7E0"/>
<stop offset="1" stop-color="#EBEBFF"/>
</linearGradient>
<linearGradient id="paint15_linear" x1="350.069" y1="6.76124" x2="365.687" y2="6.76124" gradientUnits="userSpaceOnUse">
<stop stop-color="#D1D7E0"/>
<stop offset="1" stop-color="#EBEBFF"/>
</linearGradient>
<linearGradient id="paint16_linear" x1="350.069" y1="18.0479" x2="365.687" y2="18.0479" gradientUnits="userSpaceOnUse">
<stop stop-color="#D1D7E0"/>
<stop offset="1" stop-color="#EBEBFF"/>
</linearGradient>
<linearGradient id="paint17_linear" x1="350.069" y1="29.3348" x2="365.687" y2="29.3348" gradientUnits="userSpaceOnUse">
<stop stop-color="#D1D7E0"/>
<stop offset="1" stop-color="#EBEBFF"/>
</linearGradient>
<linearGradient id="paint18_linear" x1="372.136" y1="6.76124" x2="376.58" y2="6.76124" gradientUnits="userSpaceOnUse">
<stop stop-color="#D1D7E0"/>
<stop offset="1" stop-color="#EBEBFF"/>
</linearGradient>
<linearGradient id="paint19_linear" x1="372.136" y1="18.0479" x2="376.58" y2="18.0479" gradientUnits="userSpaceOnUse">
<stop stop-color="#D1D7E0"/>
<stop offset="1" stop-color="#EBEBFF"/>
</linearGradient>
<linearGradient id="paint20_linear" x1="372.136" y1="29.3348" x2="376.58" y2="29.3348" gradientUnits="userSpaceOnUse">
<stop stop-color="#D1D7E0"/>
<stop offset="1" stop-color="#EBEBFF"/>
</linearGradient>
<linearGradient id="paint21_linear" x1="310.26" y1="258.118" x2="331.599" y2="258.118" gradientUnits="userSpaceOnUse">
<stop stop-color="#D1D7E0"/>
<stop offset="1" stop-color="#EBEBFF"/>
</linearGradient>
<linearGradient id="paint22_linear" x1="302.614" y1="258.118" x2="311.508" y2="258.118" gradientUnits="userSpaceOnUse">
<stop stop-color="#D1D7E0"/>
<stop offset="1" stop-color="#EBEBFF"/>
</linearGradient>
</defs>
</svg>
