<svg width="20" height="20" viewBox="0 0 20 20" fill="none" xmlns="http://www.w3.org/2000/svg">
<path d="M10 0L13.7028 5.41751L20 7.2654L15.9914 12.4612L16.1798 19.0204L10 16.8142L3.82021 19.0204L4.00859 12.4612L0 7.2654L6.29721 5.41751L10 0ZM10 3.10523L7.3907 6.92368L2.95277 8.22483L5.7785 11.8856L5.64444 16.5075L10 14.9531L14.3547 16.5075L14.2215 11.8856L17.0464 8.22483L12.6093 6.92368L10 3.10523ZM8.24761 10.0762C8.24761 10.541 8.43224 10.9867 8.76088 11.3154C9.08951 11.644 9.53524 11.8286 10 11.8286C10.4648 11.8286 10.9105 11.644 11.2391 11.3154C11.5678 10.9867 11.7524 10.541 11.7524 10.0762H13.5048C13.5048 11.0058 13.1355 11.8972 12.4783 12.5545C11.821 13.2118 10.9295 13.581 10 13.581C9.07048 13.581 8.17902 13.2118 7.52175 12.5545C6.86448 11.8972 6.49522 11.0058 6.49522 10.0762H8.24761Z" fill="#3C393A"/>
</svg>
